<?xml version="1.0" encoding="UTF-8"?>
<svg width="54px" height="54px" viewBox="0 0 54 54" version="1.1" xmlns="http://www.w3.org/2000/svg" xmlns:xlink="http://www.w3.org/1999/xlink">
    <title>100-晴</title>
    <g id="页面-1" stroke="none" stroke-width="1" fill="none" fill-rule="evenodd">
        <g id="画板" transform="translate(-93.000000, -93.000000)" fill="#666666">
            <path d="M120.004992,132.525589 C113.158694,132.525589 107.590121,126.951472 107.590121,120.100278 C107.590121,113.250647 113.158694,107.67653 120.004992,107.67653 C126.851291,107.67653 132.419863,113.250647 132.419863,120.100278 C132.419863,126.951472 126.851291,132.525589 120.004992,132.525589 M120.004992,138.235536 C120.489216,138.235536 120.881281,138.627882 120.881281,139.114015 L120.881281,139.114015 L120.881281,146.123085 C120.881281,146.607655 120.489216,147 120.004992,147 C119.520768,147 119.127141,146.607655 119.127141,146.123085 L119.127141,146.123085 L119.127141,139.114015 C119.127141,138.627882 119.520768,138.235536 120.004992,138.235536 Z M109.204304,135.788302 C109.458912,135.375636 110.00093,135.249022 110.41174,135.503812 C110.822549,135.758602 110.950634,136.299445 110.696026,136.710548 L110.696026,136.710548 L107.008115,142.672321 C106.842542,142.94118 106.555132,143.088114 106.261474,143.088114 C106.103711,143.088114 105.945947,143.045847 105.80068,142.956811 C105.389871,142.700458 105.261786,142.161178 105.516394,141.748512 L105.516394,141.748512 Z M129.67822,135.475213 C130.089029,135.217297 130.629485,135.343911 130.885655,135.75345 L130.885655,135.75345 L134.603244,141.702719 C134.859414,142.113822 134.734453,142.656227 134.323643,142.912581 C134.178376,143.003305 134.019051,143.045447 133.859726,143.045447 C133.56763,143.045447 133.281781,142.900076 133.116208,142.634344 L133.116208,142.634344 L129.400182,136.683512 C129.14245,136.273972 129.267411,135.731567 129.67822,135.475213 Z M120.004992,105.921136 C127.816614,105.921136 134.174003,112.281507 134.174003,120.100278 C134.174003,127.919048 127.816614,134.280983 120.004992,134.280983 C112.191808,134.280983 105.835982,127.919048 105.835982,120.100278 C105.835982,112.281507 112.191808,105.921136 120.004992,105.921136 Z M136.01359,128.750158 C136.24633,128.324924 136.778976,128.168674 137.203844,128.40158 L137.203844,128.40158 L143.358171,131.766997 C143.781476,131.99834 143.939239,132.531367 143.706499,132.958101 C143.548736,133.248843 143.245706,133.414534 142.936427,133.414534 C142.794284,133.414534 142.650579,133.380146 142.516246,133.305115 L142.516246,133.305115 L136.363481,129.941262 C135.938614,129.709919 135.782413,129.175329 136.01359,128.750158 Z M102.734301,128.281157 C103.162292,128.05294 103.691814,128.213942 103.92143,128.639113 C104.149484,129.06741 103.988596,129.598874 103.560605,129.828654 L103.560605,129.828654 L97.3797238,133.139361 C97.2469527,133.209764 97.1063717,133.244153 96.9673526,133.244153 C96.6533882,133.244153 96.3519199,133.075335 96.1925947,132.779904 C95.9645409,132.351607 96.1254282,131.821706 96.5518574,131.591926 L96.5518574,131.591926 Z M100.886291,119.202567 C101.370514,119.202567 101.762892,119.593349 101.764141,120.077919 L101.764141,120.077919 C101.763829,120.562489 101.373326,120.95671 100.889102,120.95796 L100.889102,120.95796 L93.8787926,120.978344 C93.3936317,120.978344 93.0012543,120.587561 93.0000047,120.102991 C92.9984427,119.618421 93.3889456,119.2242 93.8747314,119.22295 L93.8747314,119.22295 L100.885041,119.202567 Z M146.123707,119.074228 C146.606368,119.074228 146.998746,119.46501 146.999995,119.94958 C147.001557,120.43415 146.609492,120.828371 146.125269,120.829621 L146.125269,120.829621 L139.114959,120.849879 C138.629798,120.849879 138.237421,120.457534 138.236171,119.974527 C138.234609,119.489957 138.626674,119.095736 139.110898,119.094486 L139.110898,119.094486 L146.121207,119.074228 Z M142.615428,106.916999 C143.043419,106.687219 143.574503,106.849784 143.802557,107.274956 C144.032173,107.703253 143.871285,108.234717 143.443294,108.462933 L143.443294,108.462933 L137.263975,111.775204 C137.131204,111.845607 136.990623,111.87837 136.850042,111.87837 C136.537639,111.87837 136.234609,111.711115 136.076846,111.415684 C135.84723,110.98895 136.008117,110.455923 136.436108,110.227706 L136.436108,110.227706 Z M96.3074088,107.031883 C96.5385866,106.606649 97.0727947,106.450399 97.4976619,106.683305 L97.4976619,106.683305 L103.650427,110.048784 C104.075294,110.280127 104.231495,110.814717 104.000318,111.239888 C103.840992,111.53063 103.539524,111.696322 103.228684,111.696322 C103.086541,111.696322 102.942836,111.661933 102.808503,111.588403 L102.808503,111.588403 L96.6557375,108.222987 C96.2308077,107.991644 96.074669,107.457054 96.3074088,107.031883 Z M105.687753,97.0791411 C106.100124,96.8212248 106.64058,96.9478383 106.89675,97.357378 L106.89675,97.357378 L110.614339,103.30821 C110.870509,103.717749 110.745548,104.260155 110.334739,104.518071 C110.191033,104.60717 110.030146,104.650937 109.870821,104.650937 C109.580287,104.650937 109.292877,104.504003 109.127303,104.238271 L109.127303,104.238271 L105.409715,98.2874397 C105.153545,97.8779 105.276944,97.3354942 105.687753,97.0791411 Z M133.002656,97.3276786 C133.257264,96.9150126 133.79772,96.7883991 134.210091,97.0431891 C134.620901,97.2995423 134.747424,97.8388217 134.494378,98.2514878 L134.494378,98.2514878 L130.806467,104.211698 C130.640894,104.480556 130.353484,104.62749 130.059826,104.62749 C129.902062,104.62749 129.742737,104.585348 129.599032,104.496188 C129.186661,104.241398 129.060138,103.700555 129.314746,103.289452 L129.314746,103.289452 Z M120.004992,93 C120.489216,93 120.881281,93.3923453 120.881281,93.8769153 L120.881281,93.8769153 L120.881281,100.885985 C120.881281,101.372118 120.489216,101.764464 120.004992,101.764464 C119.520768,101.764464 119.127141,101.372118 119.127141,100.885985 L119.127141,100.885985 L119.127141,93.8769153 C119.127141,93.3923453 119.520768,93 120.004992,93 Z" id="100-晴"></path>
        </g>
    </g>
</svg>