<?xml version="1.0" encoding="UTF-8"?>
<svg width="54px" height="34px" viewBox="0 0 54 34" version="1.1" xmlns="http://www.w3.org/2000/svg" xmlns:xlink="http://www.w3.org/1999/xlink">
    <title>101-多云</title>
    <g id="页面-1" stroke="none" stroke-width="1" fill="none" fill-rule="evenodd">
        <g id="画板" transform="translate(-253.000000, -103.000000)" fill="#666666">
            <path d="M271.40329,135.45932 L297.301576,135.45932 C297.473332,135.45932 297.652755,135.45932 297.821444,135.478147 L297.821444,135.45932 C302.050925,135.45932 305.49217,131.938661 305.49217,127.611576 C305.49217,123.282923 302.050925,119.763833 297.821444,119.763833 C297.220299,119.763833 296.599219,119.843786 295.972004,120.000741 C295.766511,120.054084 295.54875,120.01643 295.372393,119.897192 C295.197571,119.776448 295.077955,119.586545 295.045751,119.374741 C294.188507,113.787813 289.555707,109.73529 284.028858,109.73529 C277.874795,109.73529 272.86628,114.857817 272.86628,121.155466 C272.86628,121.466113 272.889344,121.772052 272.912286,122.076423 C272.929093,122.303917 272.846282,122.529841 272.686856,122.688302 C272.525836,122.849901 272.303473,122.928347 272.081111,122.903244 C271.858749,122.879773 271.631787,122.863959 271.40329,122.863959 C268.008051,122.863959 265.24616,125.689585 265.24616,129.161608 C265.24616,132.63363 268.008051,135.459257 271.40329,135.459257 M284.029226,108.192978 C290.039138,108.192978 295.116662,112.414945 296.387959,118.342328 C296.871022,118.262376 297.351017,118.221584 297.821812,118.221584 C302.880933,118.221584 307,122.434137 307,127.611576 C307,132.789016 302.880933,137 297.817211,137 L271.403658,137 C267.178778,137 263.7406,133.484048 263.7406,129.16167 C263.7406,124.853413 267.155775,121.345306 271.362253,121.323341 L271.361946,121.323278 C271.361946,121.268429 271.360719,121.211822 271.360719,121.155404 C271.360719,114.007399 277.045522,108.192978 284.029226,108.192978 Z M275.967707,103 C278.582379,103 281.094304,103.809563 283.230514,105.339261 C283.569424,105.582444 283.652235,106.064103 283.414538,106.412403 C283.172239,106.760704 282.707579,106.845425 282.364068,106.602243 C280.483958,105.252971 278.272605,104.539112 275.967707,104.539112 C270.443925,104.539112 265.811125,108.594772 264.955414,114.1817 C264.920082,114.395074 264.802061,114.583344 264.625705,114.704151 C264.450882,114.823389 264.236188,114.861043 264.027628,114.810838 C263.401947,114.650808 262.779333,114.569224 262.176655,114.569224 C257.948707,114.569224 254.505928,118.091451 254.505928,122.418536 C254.505928,126.45537 257.462578,129.811292 261.379218,130.223918 C261.793272,130.269354 262.093844,130.647527 262.052439,131.071135 C262.012567,131.468072 261.685924,131.761461 261.304075,131.761461 C261.276471,131.761461 261.250463,131.760205 261.224331,131.75895 C256.536324,131.263171 253,127.248302 253,122.419163 C253,117.241724 257.116,113.029171 262.176655,113.029171 L262.176655,113.028606 C262.648983,113.028606 263.127444,113.069398 263.612041,113.14935 C264.884872,107.221967 269.960862,103 275.967707,103 Z" id="101-多云"></path>
        </g>
    </g>
</svg>