<?xml version="1.0" encoding="UTF-8"?>
<svg width="44px" height="29px" viewBox="0 0 44 29" version="1.1" xmlns="http://www.w3.org/2000/svg" xmlns:xlink="http://www.w3.org/1999/xlink">
    <title>102-少云</title>
    <g id="页面-1" stroke="none" stroke-width="1" fill="none" fill-rule="evenodd">
        <g id="画板" transform="translate(-418.000000, -105.000000)" fill="#666666">
            <path d="M425.793876,132.448999 L452.13554,132.448999 C452.310236,132.448999 452.492731,132.448999 452.664307,132.467952 L452.664307,132.448999 C456.966197,132.448999 460.466356,128.904755 460.466356,124.548684 C460.466356,120.191033 456.966197,116.648369 452.664307,116.648369 C452.052871,116.648369 451.421158,116.728856 450.783205,116.886863 C450.574194,116.940563 450.352704,116.902657 450.173329,116.78262 C449.995513,116.661067 449.87385,116.469893 449.841095,116.25667 C448.969174,110.632315 444.257061,106.552644 438.635593,106.552644 C432.376172,106.552644 427.281911,111.709487 427.281911,118.049324 C427.281911,118.362051 427.305371,118.67004 427.328705,118.97645 C427.3458,119.205468 427.261572,119.432906 427.099416,119.592428 C426.935639,119.75511 426.70947,119.834081 426.483301,119.80881 C426.257132,119.785182 426.026284,119.769261 425.793876,119.769261 C422.34051,119.769261 419.531335,122.613817 419.531335,126.109098 C419.531335,129.60438 422.34051,132.448935 425.793876,132.448935 M425.751824,118.21826 C425.751824,118.163043 425.750576,118.106057 425.750576,118.049261 C425.750576,110.853372 431.532702,105 438.635967,105 C444.748768,105 449.913219,109.250249 451.206282,115.217341 C451.697614,115.136853 452.185827,115.095788 452.664681,115.095788 C457.810415,115.095788 462,119.33656 462,124.548684 C462,129.760807 457.810415,134 452.660002,134 L445.697118,134 L425.79425,134 C421.49704,134 418,130.460495 418,126.109162 C418,121.772043 421.473643,118.240435 425.752136,118.218323" id="102-少云"></path>
        </g>
    </g>
</svg>