<?xml version="1.0" encoding="UTF-8"?>
<svg width="54px" height="42px" viewBox="0 0 54 42" version="1.1" xmlns="http://www.w3.org/2000/svg" xmlns:xlink="http://www.w3.org/1999/xlink">
    <title>103-晴间多云</title>
    <g id="页面-1" stroke="none" stroke-width="1" fill="none" fill-rule="evenodd">
        <g id="画板" transform="translate(-573.000000, -99.000000)" fill="#666666">
            <path d="M595.879977,139.634604 L618.522374,139.633471 C618.672658,139.633471 618.829774,139.633471 618.97596,139.650465 L618.97596,139.634944 C622.674323,139.634944 625.682743,136.51671 625.682743,132.68335 C625.682743,128.84999 622.674323,125.731756 618.97596,125.731756 C618.454063,125.731756 617.910307,125.801201 617.358353,125.942753 C617.179378,125.988068 616.989473,125.955442 616.83509,125.847819 C616.682073,125.741668 616.57824,125.574513 616.54955,125.384757 C615.80086,120.438348 611.750012,116.84714 606.920417,116.84714 C601.538869,116.84714 597.160127,121.385714 597.160127,126.965115 C597.160127,127.238421 597.179254,127.508894 597.199693,127.777952 C597.216088,127.980453 597.145044,128.180122 597.004323,128.321731 C596.863602,128.46334 596.669599,128.531312 596.474229,128.512903 C596.278859,128.491605 596.082124,128.477444 595.879923,128.477444 C592.913855,128.477444 590.499741,130.981095 590.499741,134.05543 C590.499741,137.131181 592.913855,139.634831 595.879923,139.634831 M606.920636,115.481971 C612.172393,115.481971 616.611248,119.223285 617.723353,124.472737 C618.148248,124.400573 618.566312,124.366587 618.976178,124.366587 C623.401371,124.366587 627,128.096572 627,132.683293 C627,137.268598 623.401371,141 618.976178,141 L617.294438,140.999022 C617.231451,140.999013 617.166948,140.999004 617.100974,140.998996 L612.988301,140.998867 L612.988301,140.998867 L595.880469,141 C592.187571,141 589.183249,137.884598 589.183249,134.055486 C589.183249,130.239119 592.167078,127.13363 595.844947,127.112389 C595.844401,127.064185 595.843308,127.014565 595.843308,126.965058 C595.843308,120.633712 600.812257,115.481971 606.920636,115.481971 Z M586.008073,132.035992 C586.315473,132.234245 586.408376,132.65624 586.215738,132.974861 L583.424547,137.602649 C583.300221,137.809398 583.084358,137.924102 582.865762,137.924102 C582.745535,137.924102 582.625307,137.888643 582.517376,137.82067 C582.208609,137.619585 582.11434,137.19759 582.308344,136.878969 L585.099535,132.251181 C585.293539,131.931201 585.69794,131.833491 586.008073,132.035992 Z M581.248975,126.805663 C581.423851,127.135612 581.306356,127.550527 580.98666,127.730371 L576.366098,130.348725 C576.266418,130.405368 576.158432,130.430858 576.0505,130.430858 C575.819609,130.430858 575.592816,130.30341 575.472589,130.075419 C575.299078,129.74547 575.416628,129.330555 575.734903,129.150711 L580.355466,126.532357 C580.675162,126.352514 581.075465,126.472882 581.248975,126.805663 Z M593.409575,109.192881 C596.997274,109.192881 600.102696,110.784568 602.079619,113.890057 C602.279088,114.205846 602.195748,114.629257 601.892447,114.836006 C601.587779,115.045588 601.179279,114.95779 600.979811,114.643418 C599.247441,111.92169 596.551885,110.557993 593.409575,110.557993 C588.269848,110.557993 584.087842,114.891234 584.087842,120.219987 C584.087842,123.518065 585.686322,126.556997 588.362751,128.345521 C588.667418,128.550855 588.756223,128.97285 588.55812,129.288638 C588.433794,129.492556 588.22203,129.601595 588.006167,129.601595 C587.883207,129.601595 587.758881,129.567608 587.648217,129.492612 C584.594711,127.450608 582.770804,123.984015 582.770804,120.220044 L582.770804,120.219987 C582.770804,114.139289 587.544384,109.192881 593.409575,109.192881 Z M573.660978,119.279566 L578.923665,119.2952 C579.288446,119.2952 579.582184,119.602492 579.580818,119.979172 C579.579725,120.355853 579.285714,120.660312 578.922299,120.660312 L578.921206,120.660312 L573.658519,120.644792 C573.293738,120.643659 573,120.336084 573,119.957987 C573.001093,119.582723 573.295104,119.279679 573.658519,119.279679 L573.660978,119.279566 Z M576.292464,109.822702 L580.932154,112.398573 C581.253216,112.577 581.37481,112.990499 581.201299,113.321864 C581.083804,113.552687 580.855645,113.682968 580.620655,113.682968 L580.620655,113.683024 C580.516822,113.683024 580.410257,113.656062 580.310523,113.602251 L575.670833,111.02638 C575.349771,110.849368 575.228177,110.43587 575.400321,110.103088 C575.571099,109.770306 575.970035,109.644274 576.292464,109.822702 Z M611.064584,109.913728 C611.238094,110.243678 611.121965,110.658592 610.802269,110.839852 L606.181706,113.456733 C606.080606,113.514849 605.972674,113.540339 605.866109,113.540339 C605.633851,113.540339 605.407058,113.411475 605.288197,113.1849 C605.113321,112.854951 605.230816,112.440036 605.550512,112.260192 L610.171074,109.641839 C610.49077,109.460579 610.889707,109.582363 611.064584,109.913728 Z M604.021021,102.172612 C604.328421,102.372281 604.42269,102.79286 604.228687,103.112897 L601.437495,107.740684 C601.313169,107.947434 601.097306,108.062137 600.87871,108.062137 C600.759849,108.062137 600.639621,108.028151 600.530324,107.957347 C600.221557,107.757678 600.128654,107.337098 600.321292,107.015646 L603.113849,102.389274 C603.306487,102.069237 603.712255,101.971527 604.021021,102.172612 Z M583.510761,102.36605 L586.278727,107.000918 C586.471364,107.322371 586.375674,107.741534 586.065596,107.941203 C585.957719,108.010648 585.838803,108.043162 585.719942,108.043162 C585.49998,108.043162 585.284117,107.928458 585.158425,107.720293 L582.390459,103.084008 C582.200554,102.763972 582.294823,102.343393 582.60359,102.143724 C582.913722,101.946887 583.318124,102.044597 583.510761,102.36605 Z M593.269542,99 C593.632957,99 593.928061,99.3044597 593.928061,99.6811401 L593.928061,105.134509 C593.928061,105.51119 593.632957,105.815649 593.269542,105.815649 C592.904761,105.815649 592.611023,105.51119 592.611023,105.134509 L592.611023,99.6811401 C592.611023,99.3044597 592.904761,99 593.269542,99 Z" id="103-晴间多云"></path>
        </g>
    </g>
</svg>