<?xml version="1.0" encoding="UTF-8"?>
<svg width="54px" height="36px" viewBox="0 0 54 36" version="1.1" xmlns="http://www.w3.org/2000/svg" xmlns:xlink="http://www.w3.org/1999/xlink">
    <title>104-阴</title>
    <g id="页面-1" stroke="none" stroke-width="1" fill="none" fill-rule="evenodd">
        <g id="画板" transform="translate(-733.000000, -102.000000)" fill="#666666">
            <path d="M753.875138,136.51843 L777.975195,136.51843 C778.136205,136.51843 778.302494,136.51843 778.459545,136.536509 L778.459545,136.51843 C782.395056,136.51843 785.598103,133.134233 785.598103,128.973037 C785.598103,124.811841 782.395056,121.427643 778.459545,121.427643 C777.899968,121.427643 777.321916,121.504422 776.737264,121.656418 C776.547219,121.706637 776.343977,121.670368 776.180327,121.554641 C776.016677,121.438859 775.905818,121.258907 775.875463,121.053847 C775.078331,115.681817 770.768009,111.785665 765.626242,111.785665 C759.897183,111.785665 755.237126,116.711305 755.237126,122.76687 C755.237126,123.065394 755.256975,123.358337 755.279358,123.649886 C755.296567,123.870292 755.220022,124.086512 755.070836,124.239959 C754.920384,124.396195 754.713183,124.470129 754.507301,124.446414 C754.298779,124.424095 754.088938,124.408806 753.875138,124.408806 C750.716963,124.408806 748.147399,127.124813 748.147399,130.462976 C748.147399,133.802535 750.716963,136.518542 753.875138,136.518542 M765.626558,110.304263 C771.217043,110.304263 775.941768,114.362231 777.125589,120.062079 C777.575625,119.98396 778.021703,119.946296 778.459862,119.946296 C783.16875,119.946296 787,123.995895 787,128.973148 C787,133.950402 783.16875,138 778.455902,138 L753.875455,138 C749.943903,138 746.746135,134.619987 746.746135,130.462976 C746.746135,126.322705 749.922787,122.949667 753.837182,122.927347 L753.836918,122.927347 C753.835862,122.874339 753.835862,122.819991 753.835862,122.766926 C753.835862,115.893908 759.125442,110.304263 765.626558,110.304263 Z M760.543124,109.441264 C761.163805,110.50044 759.758967,110.981931 759.328892,110.248035 C755.415572,103.570117 747.115126,101.529891 740.797261,105.666275 C734.479378,109.80262 732.547854,118.531029 736.461423,125.209035 C738.338643,128.412431 741.330275,130.706225 744.80069,131.568332 C745.667528,131.783673 745.505994,133.299722 744.480887,133.045079 L744.481229,133.045186 C740.637494,132.090338 737.305776,129.587099 735.226629,126.039085 C730.901206,118.657901 733.071803,108.931645 740.054653,104.359632 C747.037837,99.7877076 756.217692,102.060178 760.543124,109.441264 Z" id="104-阴"></path>
        </g>
    </g>
</svg>