<?xml version="1.0" encoding="UTF-8"?>
<svg width="34px" height="34px" viewBox="0 0 34 34" version="1.1" xmlns="http://www.w3.org/2000/svg" xmlns:xlink="http://www.w3.org/1999/xlink">
    <title>200-有风</title>
    <g id="页面-1" stroke="none" stroke-width="1" fill="none" fill-rule="evenodd">
        <g id="画板" transform="translate(-1383.000000, -103.000000)" fill="#666666" fill-rule="nonzero">
            <g id="200-有风" transform="translate(1384.000000, 104.000000)">
                <path d="M22,-0.9 C25.25848,-0.9 27.9,1.74151998 27.9,5 C27.9,8.18442366 25.3771847,10.7796122 22.2211893,10.8959305 L22,10.9 L2.22044605e-16,10.9 C-0.497056275,10.9 -0.9,10.4970563 -0.9,10 C-0.9,9.54117882 -0.556663335,9.16254822 -0.112894088,9.10701228 L2.22044605e-16,9.1 L22,9.1 C24.2643675,9.1 26.1,7.26436747 26.1,5 C26.1,2.73563253 24.2643675,0.9 22,0.9 C21.5029437,0.9 21.1,0.497056275 21.1,-1.11022302e-16 C21.1,-0.497056275 21.5029437,-0.9 22,-0.9 Z" id="路径"></path>
                <path d="M27,21.1 C30.25848,21.1 32.9,23.74152 32.9,27 C32.9,30.1844237 30.3771847,32.7796122 27.2211893,32.8959305 L27,32.9 L0,32.9 C-0.497056275,32.9 -0.9,32.4970563 -0.9,32 C-0.9,31.5411788 -0.556663335,31.1625482 -0.112894088,31.1070123 L0,31.1 L27,31.1 C29.2643675,31.1 31.1,29.2643675 31.1,27 C31.1,24.7356325 29.2643675,22.9 27,22.9 C26.5029437,22.9 26.1,22.4970563 26.1,22 C26.1,21.5029437 26.5029437,21.1 27,21.1 Z" id="路径备份" transform="translate(16.000000, 27.000000) scale(1, -1) translate(-16.000000, -27.000000) "></path>
                <path d="M25,15.1 C25.4970563,15.1 25.9,15.5029437 25.9,16 C25.9,16.4588212 25.5566633,16.8374518 25.1128941,16.8929877 L25,16.9 L3,16.9 C2.50294373,16.9 2.1,16.4970563 2.1,16 C2.1,15.5411788 2.44333667,15.1625482 2.88710591,15.1070123 L3,15.1 L25,15.1 Z" id="路径"></path>
            </g>
        </g>
    </g>
</svg>