<?xml version="1.0" encoding="UTF-8"?>
<svg width="34px" height="18px" viewBox="0 0 34 18" version="1.1" xmlns="http://www.w3.org/2000/svg" xmlns:xlink="http://www.w3.org/1999/xlink">
    <title>201-平静</title>
    <g id="页面-1" stroke="none" stroke-width="1" fill="none" fill-rule="evenodd">
        <g id="画板" transform="translate(-103.000000, -271.000000)" fill="#666666" fill-rule="nonzero">
            <g id="201-平静" transform="translate(103.000000, 271.000000)">
                <path d="M28.0650888,6.06741573 C31.3428497,6.06741573 34,8.73861571 34,12.0337079 C34,15.2539116 31.4622568,17.8782596 28.2875869,17.9958848 L28.0650888,18 L0.905325444,18 C0.405328008,18 0,17.5925288 0,17.0898876 C0,16.6259112 0.345368243,16.2430263 0.791763344,16.1868663 L0.905325444,16.1797753 L28.0650888,16.1797753 C30.3428549,16.1797753 32.1893491,14.3235177 32.1893491,12.0337079 C32.1893491,9.74389806 30.3428549,7.88764045 28.0650888,7.88764045 C27.5650913,7.88764045 27.1597633,7.48016927 27.1597633,6.97752809 C27.1597633,6.47488691 27.5650913,6.06741573 28.0650888,6.06741573 Z" id="路径备份" transform="translate(17.000000, 12.033708) scale(1, -1) translate(-17.000000, -12.033708) "></path>
                <path d="M26.0532544,0 C26.5532519,0 26.9585799,0.407471183 26.9585799,0.91011236 C26.9585799,1.37408883 26.6132116,1.75697371 26.1668165,1.81313365 L26.0532544,1.82022472 L3.92307692,1.82022472 C3.42307949,1.82022472 3.01775148,1.41275354 3.01775148,0.91011236 C3.01775148,0.446135889 3.36311972,0.0632510103 3.80951482,0.00709106734 L3.92307692,0 L26.0532544,0 Z" id="路径"></path>
                <path d="M22.4849624,11.7 C22.9147479,11.7 23.2631579,12.1029437 23.2631579,12.6 C23.2631579,13.0588212 22.9662878,13.4374518 22.5825776,13.4929877 L22.4849624,13.5 L3.46240602,13.5 C3.03262051,13.5 2.68421053,13.0970563 2.68421053,12.6 C2.68421053,12.1411788 2.98108058,11.7625482 3.36479083,11.7070123 L3.46240602,11.7 L22.4849624,11.7 Z" id="路径备份-2"></path>
            </g>
        </g>
    </g>
</svg>