<?xml version="1.0" encoding="UTF-8"?>
<svg width="32px" height="20px" viewBox="0 0 32 20" version="1.1" xmlns="http://www.w3.org/2000/svg" xmlns:xlink="http://www.w3.org/1999/xlink">
    <title>202-微风</title>
    <g id="页面-1" stroke="none" stroke-width="1" fill="none" fill-rule="evenodd">
        <g id="画板" transform="translate(-262.000000, -270.000000)" fill="#666666" fill-rule="nonzero">
            <g id="202-微风" transform="translate(262.000000, 270.000000)">
                <path d="M25.4444444,0 C29.0649778,0 32,2.96799997 32,6.62921348 C32,10.2072176 29.1968719,13.1231598 25.6902103,13.2538545 L25.4444444,13.258427 L1,13.258427 C0.44771525,13.258427 0,12.8056812 0,12.247191 C0,11.7316616 0.381485184,11.306234 0.874562125,11.243834 L1,11.2359551 L25.4444444,11.2359551 C27.9604083,11.2359551 30,9.1734466 30,6.62921348 C30,4.08498037 27.9604083,2.02247191 25.4444444,2.02247191 C24.8921597,2.02247191 24.4444444,1.56972615 24.4444444,1.01123596 C24.4444444,0.452745759 24.8921597,0 25.4444444,0 Z" id="路径"></path>
                <path d="M28.7777778,17.9775281 C29.3300625,17.9775281 29.7777778,18.4302738 29.7777778,18.988764 C29.7777778,19.5042935 29.3962926,19.9297211 28.9032157,19.992121 L28.7777778,20 L4.33333333,20 C3.78104858,20 3.33333333,19.5472542 3.33333333,18.988764 C3.33333333,18.4732346 3.71481852,18.047807 4.20789546,17.9854071 L4.33333333,17.9775281 L28.7777778,17.9775281 Z" id="路径"></path>
            </g>
        </g>
    </g>
</svg>