<?xml version="1.0" encoding="UTF-8"?>
<svg width="32px" height="32px" viewBox="0 0 32 32" version="1.1" xmlns="http://www.w3.org/2000/svg" xmlns:xlink="http://www.w3.org/1999/xlink">
    <title>206-疾风</title>
    <g id="页面-1" stroke="none" stroke-width="1" fill="none" fill-rule="evenodd">
        <g id="画板" transform="translate(-906.000000, -264.000000)" fill="#666666">
            <g id="206-疾风" transform="translate(906.000000, 264.000000)">
                <path d="M21.6804734,0 C24.7654249,0 27.2662722,2.50084731 27.2662722,5.58579882 C27.2662722,8.60063778 24.877808,11.057621 21.8898834,11.1677449 L21.6804734,11.1715976 L0.852071006,11.1715976 C0.381485184,11.1715976 0,10.7901124 0,10.3195266 C0,9.88513971 0.325052464,9.52667287 0.745189029,9.47409446 L0.852071006,9.46745562 L21.6804734,9.46745562 C23.8242532,9.46745562 25.5621302,7.72957867 25.5621302,5.58579882 C25.5621302,3.44201896 23.8242532,1.70414201 21.6804734,1.70414201 C21.2098876,1.70414201 20.8284024,1.32265683 20.8284024,0.852071006 C20.8284024,0.381485184 21.2098876,0 21.6804734,0 Z" id="路径" fill-rule="nonzero"></path>
                <path d="M26.4142012,20.8284024 C29.4991527,20.8284024 32,23.3292497 32,26.4142012 C32,29.4290402 29.6115358,31.8860234 26.6236112,31.9961472 L26.4142012,32 L0.852071006,32 C0.381485184,32 0,31.6185148 0,31.147929 C0,30.7135421 0.325052464,30.3550752 0.745189029,30.3024968 L0.852071006,30.295858 L26.4142012,30.295858 C28.557981,30.295858 30.295858,28.557981 30.295858,26.4142012 C30.295858,24.2704213 28.557981,22.5325444 26.4142012,22.5325444 C25.9436154,22.5325444 25.5621302,22.1510592 25.5621302,21.6804734 C25.5621302,21.2098876 25.9436154,20.8284024 26.4142012,20.8284024 Z" id="路径备份" fill-rule="nonzero" transform="translate(16.000000, 26.414201) scale(1, -1) translate(-16.000000, -26.414201) "></path>
                <path d="M24.5207101,15.147929 C24.9912959,15.147929 25.3727811,15.5294142 25.3727811,16 C25.3727811,16.4343869 25.0477286,16.7928538 24.627592,16.8454322 L24.5207101,16.852071 L3.69230769,16.852071 C3.22172187,16.852071 2.84023669,16.4705858 2.84023669,16 C2.84023669,15.5656131 3.16528915,15.2071462 3.58542572,15.1545678 L3.69230769,15.147929 L24.5207101,15.147929 Z" id="路径" fill-rule="nonzero"></path>
                <rect id="矩形" x="2.84023669" y="3.78698225" width="13.2544379" height="1.89349112" rx="0.940828402"></rect>
                <rect id="矩形备份-23" x="10.8402367" y="26.7869822" width="13.2544379" height="1.89349112" rx="0.940828402"></rect>
            </g>
        </g>
    </g>
</svg>