<?xml version="1.0" encoding="UTF-8"?>
<svg width="34px" height="40px" viewBox="0 0 34 40" version="1.1" xmlns="http://www.w3.org/2000/svg" xmlns:xlink="http://www.w3.org/1999/xlink">
    <title>209-风暴</title>
    <g id="页面-1" stroke="none" stroke-width="1" fill="none" fill-rule="evenodd">
        <g id="画板" transform="translate(-1383.000000, -260.000000)" fill="#666666">
            <g id="209-风暴" transform="translate(1383.000000, 260.000000)">
                <path d="M23.035503,6.2873973 C26.3132639,6.2873973 28.9704142,8.90803408 28.9704142,12.1407534 C28.9704142,15.3000018 26.432671,17.8746734 23.2580011,17.9900721 L23.035503,17.9941094 L0.905325444,17.9941094 C0.405328008,17.9941094 0,17.5943513 0,17.1012246 C0,16.6460308 0.345368243,16.2703935 0.791763344,16.2152966 L0.905325444,16.2083398 L23.035503,16.2083398 C25.3132691,16.2083398 27.1597633,14.3872193 27.1597633,12.1407534 C27.1597633,9.89428742 25.3132691,8.07316695 23.035503,8.07316695 C22.5355055,8.07316695 22.1301775,7.6734088 22.1301775,7.18028213 C22.1301775,6.68715546 22.5355055,6.2873973 23.035503,6.2873973 Z" id="路径" fill-rule="nonzero"></path>
                <path d="M12.410503,0 C15.6882639,0 18.3454142,2.62063678 18.3454142,5.85335607 C18.3454142,9.01260447 15.807671,11.5872761 12.6330011,11.7026748 L12.410503,11.7067121 L0.905325444,11.7067121 C0.405328008,11.7067121 0,11.306954 0,10.8138273 C0,10.3586335 0.345368243,9.98299622 0.791763344,9.92789933 L0.905325444,9.92094249 L12.410503,9.92094249 C14.6882691,9.92094249 16.5347633,8.09982202 16.5347633,5.85335607 C16.5347633,3.60689012 14.6882691,1.78576965 12.410503,1.78576965 C11.9105055,1.78576965 11.5051775,1.3860115 11.5051775,0.892884824 C11.5051775,0.399758152 11.9105055,0 12.410503,0 Z" id="路径备份-4" fill-rule="nonzero"></path>
                <rect id="矩形备份-23" x="0" y="4" width="8" height="1.89349112" rx="0.940828402"></rect>
                <rect id="矩形备份-24" x="3" y="34" width="8" height="1.89349112" rx="0.940828402"></rect>
                <path d="M16.660503,28.2932879 C19.9382639,28.2932879 22.5954142,30.9139246 22.5954142,34.1466439 C22.5954142,37.3058923 20.057671,39.880564 16.8830011,39.9959627 L16.660503,40 L5.15532544,40 C4.65532801,40 4.25,39.6002418 4.25,39.1071152 C4.25,38.6519213 4.59536824,38.2762841 5.04176334,38.2211872 L5.15532544,38.2142304 L16.660503,38.2142304 C18.9382691,38.2142304 20.7847633,36.3931099 20.7847633,34.1466439 C20.7847633,31.900178 18.9382691,30.0790575 16.660503,30.0790575 C16.1605055,30.0790575 15.7551775,29.6792994 15.7551775,29.1861727 C15.7551775,28.693046 16.1605055,28.2932879 16.660503,28.2932879 Z" id="路径备份-5" fill-rule="nonzero" transform="translate(13.422707, 34.146644) scale(1, -1) translate(-13.422707, -34.146644) "></path>
                <path d="M28.0650888,22.873973 C31.3428497,22.873973 34,25.4946098 34,28.7273291 C34,31.8865775 31.4622568,34.4612492 28.2875869,34.5766478 L28.0650888,34.5806852 L0.905325444,34.5806852 C0.405328008,34.5806852 0,34.180927 0,33.6878003 C0,33.2326065 0.345368243,32.8569692 0.791763344,32.8018724 L0.905325444,32.7949155 L28.0650888,32.7949155 C30.3428549,32.7949155 32.1893491,30.973795 32.1893491,28.7273291 C32.1893491,26.4808631 30.3428549,24.6597427 28.0650888,24.6597427 C27.5650913,24.6597427 27.1597633,24.2599845 27.1597633,23.7668579 C27.1597633,23.2737312 27.5650913,22.873973 28.0650888,22.873973 Z" id="路径备份" fill-rule="nonzero" transform="translate(17.000000, 28.727329) scale(1, -1) translate(-17.000000, -28.727329) "></path>
            </g>
        </g>
    </g>
</svg>