<?xml version="1.0" encoding="UTF-8"?>
<svg width="34px" height="34px" viewBox="0 0 34 34" version="1.1" xmlns="http://www.w3.org/2000/svg" xmlns:xlink="http://www.w3.org/1999/xlink">
    <title>210-暴雨</title>
    <g id="页面-1" stroke="none" stroke-width="1" fill="none" fill-rule="evenodd">
        <g id="画板" transform="translate(-743.000000, -581.000000)" fill="#666666">
            <path d="M756.75,605 C757.164214,605 757.5,605.335786 757.5,605.75 L757.5,614.25 C757.5,614.664214 757.164214,615 756.75,615 C756.335786,615 756,614.664214 756,614.25 L756,605.75 C756,605.335786 756.335786,605 756.75,605 Z M762.75,605 C763.164214,605 763.5,605.335786 763.5,605.75 L763.5,614.25 C763.5,614.664214 763.164214,615 762.75,615 C762.335786,615 762,614.664214 762,614.25 L762,605.75 C762,605.335786 762.335786,605 762.75,605 Z M750.75,605 C751.164214,605 751.5,605.335786 751.5,605.75 L751.5,610.25 C751.5,610.664214 751.164214,611 750.75,611 C750.335786,611 750,610.664214 750,610.25 L750,605.75 C750,605.335786 750.335786,605 750.75,605 Z M768.75,605 C769.164214,605 769.5,605.335786 769.5,605.75 L769.5,610.25 C769.5,610.664214 769.164214,611 768.75,611 C768.335786,611 768,610.664214 768,610.25 L768,605.75 C768,605.335786 768.335786,605 768.75,605 Z M758.918348,581 C763.754545,581 767.807371,584.524778 768.553943,589.363162 L768.531,589.23 L768.715159,589.188703 C768.941011,589.14308 769.166253,589.10877 769.38998,589.085866 L769.724322,589.060077 L770.055712,589.051465 C773.891179,589.051465 777,592.212333 777,596.08785 C777,599.903926 773.53739,603.1229 769.636717,603.1229 L769.636717,603.1229 L748.718723,603.124132 C745.559732,603.124132 743,600.520177 743,597.331263 C743,594.143406 745.559957,591.539677 748.718723,591.539677 C748.921471,591.539677 749.124774,591.552187 749.337718,591.575037 L749.181,591.56 L749.158839,591.1839 L749.153116,590.90584 C749.153116,585.44823 753.527679,581 758.918348,581 Z M758.918348,582.473347 C754.365272,582.473347 750.649733,586.251456 750.649733,590.90584 C750.649733,590.943116 750.65012,590.979937 750.650934,591.017518 L750.650934,591.017518 L750.661273,591.261854 L750.683828,591.582794 C750.716633,591.980276 750.573001,592.373454 750.287339,592.655439 C749.999969,592.93911 749.600941,593.079194 749.186957,593.04085 C749.013448,593.022296 748.862769,593.013025 748.718723,593.013025 C746.397639,593.013025 744.496617,594.946551 744.496617,597.331263 C744.496617,599.717087 746.397474,601.650785 748.718679,601.650785 L748.718679,601.650785 L769.636673,601.649553 C772.729394,601.649553 775.503383,599.070747 775.503383,596.08785 C775.503383,593.015589 773.053619,590.524812 770.055712,590.524812 C769.633003,590.524812 769.192732,590.580849 768.744359,590.693642 C768.368726,590.786936 767.970946,590.717143 767.652396,590.499308 C767.340191,590.286855 767.131497,589.955514 767.074281,589.584313 C766.437551,585.457792 763.006006,582.473347 758.918348,582.473347 Z" id="210-暴雨"></path>
        </g>
    </g>
</svg>