<?xml version="1.0" encoding="UTF-8"?>
<svg width="24px" height="22px" viewBox="0 0 24 22" version="1.1" xmlns="http://www.w3.org/2000/svg" xmlns:xlink="http://www.w3.org/1999/xlink">
    <title>211-飓风</title>
    <g id="页面-1" stroke="none" stroke-width="1" fill="none" fill-rule="evenodd">
        <g id="画板" transform="translate(-106.000000, -431.000000)" fill="#666666" fill-rule="nonzero">
            <g id="211-飓风" transform="translate(106.000000, 431.000000)">
                <path d="M21.6931536,21.8236074 C21.398724,21.8236074 21.1122518,21.6763926 20.9332067,21.433687 C20.8297584,21.2944297 20.674586,21 20.7939494,20.6061008 C20.8655674,20.3793103 20.9292279,20.1445623 20.9889096,19.9137931 C21.5538963,17.6816976 21.5538963,15.3461539 20.9849308,13.1578249 L20.3841351,10.842175 L19.6838698,13.1299735 C19.0910316,15.071618 17.8019069,16.7108753 16.0552226,17.7533157 C14.7939494,18.5053051 13.3536311,18.903183 11.8894401,18.903183 C10.2183526,18.903183 8.54328626,18.3740053 7.174586,17.4190981 L7.15867089,17.4071618 L7.14275577,17.3952255 C5.0817478,16.1180371 3.39872395,14.403183 2.14142949,12.2944297 C0.0645064037,8.80901856 -0.524352991,4.73872679 0.474320759,0.83554377 C0.486257097,0.791777197 0.498193435,0.748010625 0.506150994,0.708222803 C0.593684138,0.377984062 0.852304851,0.119363379 1.18254356,0.0318302344 C1.26609793,0.0119363379 1.34965232,0 1.42922791,0 C1.71967883,0 1.99023588,0.135278525 2.17325975,0.374005313 C2.35628363,0.60875332 2.41198654,0.899204238 2.3363897,1.18965516 C2.32843215,1.22546417 2.31649581,1.26127318 2.30853825,1.30106101 C1.66795469,3.83554377 1.77538177,6.46153846 2.62684065,8.90450927 L3.38280881,11.0729443 L3.93188044,8.79708223 C3.93585922,8.77320955 3.94381677,8.75331565 3.94779555,8.72944298 C4.48493085,6.6127321 5.81384331,4.83023874 7.68784859,3.71220158 C8.9491218,2.96021218 10.3894401,2.56233422 11.8536311,2.56233422 C13.4928884,2.56233422 15.0804216,3.04376657 16.4371855,3.95888593 L17.0021722,4.33687002 C18.7249839,5.55039788 20.1533659,7.10212201 21.2554879,8.94429709 C23.3244534,12.4177719 23.9133128,16.4880637 22.9186178,20.4071618 C22.8589361,20.6498674 22.7873181,20.8925729 22.7157,21.1352785 C22.6202093,21.4416445 22.3695462,21.6843501 22.0552226,21.7679045 L21.9438168,21.795756 C21.8602624,21.8116711 21.776708,21.8236074 21.6931536,21.8236074 L21.6931536,21.8236074 Z M11.8655674,4.4801061 C10.7435515,4.4801061 9.64142952,4.78249336 8.67856478,5.35941645 C7.24620403,6.21087533 6.23161519,7.57161803 5.82180087,9.19098144 C5.41198654,10.8103448 5.65469211,12.4893899 6.50615099,13.9217507 C7.6281669,15.8037135 9.68519609,16.9734748 11.8814826,16.9734748 C13.0034985,16.9734748 14.1056205,16.6710875 15.0684852,16.0941645 C16.4411642,15.2785146 17.4637107,13.8779841 17.873525,12.2466843 C18.2873181,10.6193634 18.0565489,8.90053049 17.2369202,7.52785146 C16.1228619,5.64986736 14.0618539,4.4801061 11.8655674,4.4801061 L11.8655674,4.4801061 Z" id="形状"></path>
            </g>
        </g>
    </g>
</svg>