<?xml version="1.0" encoding="UTF-8"?>
<svg width="24px" height="26px" viewBox="0 0 24 26" version="1.1" xmlns="http://www.w3.org/2000/svg" xmlns:xlink="http://www.w3.org/1999/xlink">
    <title>212-龙卷风</title>
    <g id="页面-1" stroke="none" stroke-width="1" fill="none" fill-rule="evenodd">
        <g id="画板" transform="translate(-268.000000, -427.000000)" fill="#666666">
            <g id="212-龙卷风" transform="translate(268.000000, 427.000000)">
                <path d="M1,0 L23,0 C23.5522847,0 24,0.44771525 24,1 C24,1.55228475 23.5522847,2 23,2 L1,2 C0.44771525,2 0,1.55228475 0,1 C0,0.44771525 0.44771525,0 1,0 Z" id="矩形"></path>
                <path d="M7,6 L23,6 C23.5522847,6 24,6.44771525 24,7 C24,7.55228475 23.5522847,8 23,8 L7,8 C6.44771525,8 6,7.55228475 6,7 C6,6.44771525 6.44771525,6 7,6 Z" id="矩形备份-25"></path>
                <path d="M3,12 L19,12 C19.5522847,12 20,12.4477153 20,13 C20,13.5522847 19.5522847,14 19,14 L3,14 C2.44771525,14 2,13.5522847 2,13 C2,12.4477153 2.44771525,12 3,12 Z" id="矩形备份-26"></path>
                <path d="M5,18 L17,18 C17.5522847,18 18,18.4477153 18,19 C18,19.5522847 17.5522847,20 17,20 L5,20 C4.44771525,20 4,19.5522847 4,19 C4,18.4477153 4.44771525,18 5,18 Z" id="矩形备份-27"></path>
                <path d="M11,24 L17,24 C17.5522847,24 18,24.4477153 18,25 C18,25.5522847 17.5522847,26 17,26 L11,26 C10.4477153,26 10,25.5522847 10,25 C10,24.4477153 10.4477153,24 11,24 Z" id="矩形备份-28"></path>
            </g>
        </g>
    </g>
</svg>