<?xml version="1.0" encoding="UTF-8"?>
<svg width="43px" height="42px" viewBox="0 0 43 42" version="1.1" xmlns="http://www.w3.org/2000/svg" xmlns:xlink="http://www.w3.org/1999/xlink">
    <title>213-热带风暴</title>
    <g id="页面-1" stroke="none" stroke-width="1" fill="none" fill-rule="evenodd">
        <g id="画板" transform="translate(-418.000000, -421.000000)">
            <g id="213-热带风暴" transform="translate(419.695240, 421.911804)">
                <path d="M29.997914,30.9118037 C29.7034843,30.9118037 29.4170121,30.7645889 29.237967,30.5218833 C29.1345188,30.382626 28.9793464,30.0881963 29.0987098,29.6942971 C29.1703278,29.4675066 29.2339883,29.2327586 29.2936699,29.0019894 C29.8586567,26.7698939 29.8586567,24.4343501 29.2896912,22.2460212 L28.6888954,19.9303713 L27.9886302,22.2181698 C27.395792,24.1598143 26.1066673,25.7990716 24.3599829,26.8415119 C23.0987097,27.5935013 21.6583914,27.9913793 20.1942005,27.9913793 C18.5231129,27.9913793 16.8480466,27.4622016 15.4793464,26.5072944 L15.4634312,26.4953581 L15.4475161,26.4834217 C13.3865081,25.2062334 11.7034843,23.4913793 10.4461898,21.382626 C8.36926675,17.8972148 7.78040736,13.8269231 8.77908111,9.92374005 C8.79101745,9.87997348 8.80295378,9.83620691 8.81091134,9.79641909 C8.89844449,9.46618035 9.1570652,9.20755966 9.48730391,9.12002652 C9.57085828,9.10013262 9.65441267,9.08819628 9.73398826,9.08819628 C10.0244392,9.08819628 10.2949962,9.22347481 10.4780201,9.4622016 C10.661044,9.6969496 10.7167469,9.98740052 10.6411501,10.2778514 C10.6331925,10.3136605 10.6212562,10.3494695 10.6132986,10.3892573 C9.97271504,12.9237401 10.0801421,15.5497347 10.931601,17.9927056 L11.6875692,20.1611406 L12.2366408,17.8852785 C12.2406196,17.8614058 12.2485771,17.8415119 12.2525559,17.8176393 C12.7896912,15.7009284 14.1186037,13.918435 15.9926089,12.8003979 C17.2538822,12.0484085 18.6942005,11.6505305 20.1583915,11.6505305 C21.7976488,11.6505305 23.3851819,12.1319629 24.7419458,13.0470822 L25.3069326,13.4250663 C27.0297442,14.6385942 28.4581262,16.1903183 29.5602482,18.0324934 C31.6292137,21.5059682 32.2180731,25.5762599 31.2233782,29.4953581 C31.1636965,29.7380636 31.0920784,29.9807692 31.0204604,30.2234748 C30.9249697,30.5298408 30.6743065,30.7725464 30.3599829,30.8561008 L30.2485771,30.8839523 C30.1650228,30.8998674 30.0814684,30.9118037 29.997914,30.9118037 L29.997914,30.9118037 Z M20.1703278,13.5683024 C19.0483119,13.5683024 17.9461899,13.8706896 16.9833251,14.4476127 C15.5509644,15.2990716 14.5363755,16.6598143 14.1265612,18.2791777 C13.7167469,19.8985411 13.9594525,21.5775862 14.8109113,23.0099469 C15.9329273,24.8919098 17.9899564,26.0616711 20.1862429,26.0616711 C21.3082588,26.0616711 22.4103808,25.7592838 23.3732456,25.1823607 C24.7459246,24.3667109 25.768471,22.9661804 26.1782853,21.3348806 C26.5920785,19.7075597 26.3613092,17.9887268 25.5416806,16.6160477 C24.4276222,14.7380636 22.3666143,13.5683024 20.1703278,13.5683024 L20.1703278,13.5683024 Z" id="形状" fill="#666666" fill-rule="nonzero"></path>
                <circle id="椭圆形" stroke="#666666" stroke-width="1.8" cx="20" cy="20" r="20"></circle>
            </g>
        </g>
    </g>
</svg>