<?xml version="1.0" encoding="UTF-8"?>
<svg width="42px" height="41px" viewBox="0 0 42 41" version="1.1" xmlns="http://www.w3.org/2000/svg" xmlns:xlink="http://www.w3.org/1999/xlink">
    <title>300-阵雨</title>
    <g id="页面-1" stroke="none" stroke-width="1" fill="none" fill-rule="evenodd">
        <g id="画板" transform="translate(-579.000000, -419.000000)" fill="#666666">
            <path d="M601.017557,453.468979 C601.264665,453.611859 601.346228,453.934471 601.19888,454.190064 L598.005704,459.729028 C597.858356,459.984622 597.5386,460.075187 597.291491,459.932307 C597.043454,459.788889 596.96282,459.466815 597.110168,459.211222 L600.303344,453.672257 C600.450692,453.416664 600.769519,453.325561 601.017557,453.468979 Z M613.737039,453.468979 C613.984148,453.611859 614.06571,453.934471 613.918363,454.190064 L610.725187,459.729028 C610.577839,459.984622 610.258082,460.075187 610.010974,459.932307 C609.762936,459.788889 609.682302,459.466815 609.82965,459.211222 L613.022826,453.672257 C613.170174,453.416664 613.489001,453.325561 613.737039,453.468979 Z M605.632725,432.34653 C609.742923,432.34653 613.187348,435.394012 613.821846,439.577223 L613.802623,439.4621 L613.958861,439.426388 C614.246783,439.36722 614.533537,439.330061 614.81653,439.315179 L614.81653,439.315179 L615.098173,439.307733 C618.357868,439.307733 621,442.040583 621,445.391311 C621,448.690646 618.057189,451.473734 614.742077,451.473734 L614.742077,451.473734 L596.964245,451.474799 C594.279474,451.474799 592.104004,449.22345 592.104004,446.466351 C592.104004,443.710167 594.279666,441.459013 596.964245,441.459013 C597.136557,441.459013 597.30934,441.469829 597.490317,441.489585 L597.357,441.476 L597.338291,441.151412 L597.333428,440.911005 C597.333428,436.192418 601.051291,432.34653 605.632725,432.34653 Z M605.632725,433.620369 C601.763147,433.620369 598.605376,436.886878 598.605376,440.911005 C598.605376,440.943234 598.605705,440.975068 598.606396,441.007561 L598.606396,441.007561 L598.615183,441.21881 L598.634352,441.496292 C598.662233,441.83995 598.540162,442.179887 598.297384,442.423688 C598.053153,442.668947 597.714026,442.790062 597.362188,442.75691 C597.214727,442.740868 597.086667,442.732852 596.964245,442.732852 C594.991597,442.732852 593.375952,444.404557 593.375952,446.466351 C593.375952,448.529108 594.991456,450.20096 596.964207,450.20096 L596.964207,450.20096 L614.742039,450.199895 C617.370488,450.199895 619.728052,447.97029 619.728052,445.391311 C619.728052,442.73507 617.646041,440.581572 615.098173,440.581572 C614.73892,440.581572 614.364742,440.630021 613.983677,440.727541 C613.664434,440.808202 613.326367,440.747859 613.055638,440.559522 C612.7903,440.375837 612.612934,440.089364 612.564308,439.768427 C612.023162,436.200685 609.106753,433.620369 605.632725,433.620369 Z M589.21333,444.884098 C589.454686,445.039431 589.527629,445.37007 589.37638,445.619713 L587.184867,449.24564 C587.087251,449.407631 586.917766,449.497503 586.746135,449.497503 C586.651738,449.497503 586.557341,449.46972 586.472598,449.416463 C586.230169,449.25891 586.156153,448.928272 586.308476,448.678629 L588.499989,445.052701 C588.652311,444.801993 588.969829,444.725436 589.21333,444.884098 Z M585.476709,440.786072 C585.614014,441.044591 585.521762,441.369682 585.270752,441.510592 L581.642902,443.562103 C581.564639,443.606484 581.479853,443.626456 581.39511,443.626456 C581.213825,443.626456 581.035758,443.526599 580.941361,443.347965 C580.805129,443.089446 580.897423,442.764355 581.147318,442.623445 L584.775168,440.571934 C585.026178,440.431024 585.340477,440.525334 585.476709,440.786072 Z M595.024643,426.986245 C597.841537,426.986245 600.279769,428.233351 601.831957,430.666539 C601.98857,430.913963 601.923136,431.245711 601.684998,431.407702 C601.445787,431.571911 601.125052,431.503121 600.968439,431.256806 C599.608263,429.124299 597.491839,428.055827 595.024643,428.055827 C590.98917,428.055827 587.705655,431.450973 587.705655,435.626116 C587.705655,438.210199 588.960707,440.59124 591.062113,441.992569 C591.301324,442.153451 591.371049,442.484089 591.215508,442.731513 C591.117893,442.891285 590.951626,442.976718 590.78214,442.976718 C590.685598,442.976718 590.587983,442.950089 590.501095,442.891329 C588.103624,441.291394 586.671578,438.575277 586.671578,435.62616 C586.671578,430.861816 590.41957,426.986245 595.024643,426.986245 Z M579.518969,434.889284 L583.650985,434.901534 C583.937394,434.901534 584.168023,435.142301 584.16695,435.437434 C584.166188,435.699775 583.983708,435.917406 583.742765,435.96253 L583.649054,435.971116 L579.517038,435.958955 C579.230629,435.958068 579,435.717079 579,435.420836 C579.000858,435.126812 579.231702,434.889373 579.517038,434.889373 L579.518969,434.889284 Z M581.585089,427.479717 L585.227956,429.497943 C585.480039,429.637743 585.575509,429.961725 585.439277,430.221353 C585.347025,430.402206 585.167885,430.504282 584.983382,430.504282 C584.901857,430.504327 584.818187,430.483201 584.73988,430.441039 L581.097013,428.422813 C580.84493,428.284123 580.74946,427.960142 580.88462,427.699403 C581.018706,427.438665 581.331933,427.339917 581.585089,427.479717 Z M608.886531,427.551038 C609.022763,427.809557 608.931584,428.134648 608.680573,428.276667 L605.052724,430.327024 C604.973344,430.372559 604.888602,430.392531 604.804931,430.392531 C604.622574,430.392531 604.444506,430.291564 604.351182,430.11404 C604.213877,429.855521 604.306129,429.53043 604.557139,429.38952 L608.184989,427.338009 C608.435999,427.19599 608.749226,427.291409 608.886531,427.551038 Z M603.356255,421.48578 C603.597611,421.642223 603.671626,421.971752 603.519304,422.222504 L601.327791,425.848432 C601.230176,426.010422 601.06069,426.100294 600.889059,426.100294 C600.795735,426.100294 600.701338,426.073665 600.615522,426.018189 C600.373094,425.861746 600.30015,425.532217 600.4514,425.280355 L602.643986,421.655537 C602.795236,421.404784 603.113826,421.328227 603.356255,421.48578 Z M587.252558,421.637341 L589.425835,425.268816 C589.577085,425.520678 589.501953,425.849097 589.258495,426.00554 C589.173795,426.059951 589.080428,426.085426 588.987103,426.085426 C588.8144,426.085426 588.644914,425.995555 588.546226,425.832454 L586.372949,422.19987 C586.223845,421.949117 586.297861,421.619588 586.540289,421.463145 C586.783791,421.308921 587.101308,421.385479 587.252558,421.637341 Z M594.914697,419 C595.200033,419 595.431735,419.238548 595.431735,419.533681 L595.431735,423.806462 C595.431735,424.101596 595.200033,424.340143 594.914697,424.340143 C594.628287,424.340143 594.397658,424.101596 594.397658,423.806462 L594.397658,419.533681 C594.397658,419.238548 594.628287,419 594.914697,419 Z" id="300-阵雨"></path>
        </g>
    </g>
</svg>