<?xml version="1.0" encoding="UTF-8"?>
<svg width="42px" height="41px" viewBox="0 0 42 41" version="1.1" xmlns="http://www.w3.org/2000/svg" xmlns:xlink="http://www.w3.org/1999/xlink">
    <title>301-强阵雨</title>
    <g id="页面-1" stroke="none" stroke-width="1" fill="none" fill-rule="evenodd">
        <g id="画板" transform="translate(-739.000000, -419.000000)" fill="#666666">
            <path d="M761.017557,453.468979 C761.264665,453.611859 761.346228,453.934471 761.19888,454.190064 L758.005704,459.729028 C757.858356,459.984622 757.5386,460.075187 757.291491,459.932307 C757.043454,459.788889 756.96282,459.466815 757.110168,459.211222 L760.303344,453.672257 C760.450692,453.416664 760.769519,453.325561 761.017557,453.468979 Z M767.597707,453.468979 C767.844816,453.611859 767.926378,453.934471 767.779031,454.190064 L764.585855,459.729028 C764.438507,459.984622 764.11875,460.075187 763.871642,459.932307 C763.623604,459.788889 763.54297,459.466815 763.690318,459.211222 L766.883494,453.672257 C767.030842,453.416664 767.349669,453.325561 767.597707,453.468979 Z M774.177857,453.468979 C774.424966,453.611859 774.506529,453.934471 774.359181,454.190064 L771.166005,459.729028 C771.018657,459.984622 770.6989,460.075187 770.451792,459.932307 C770.203754,459.788889 770.12312,459.466815 770.270468,459.211222 L773.463644,453.672257 C773.610992,453.416664 773.92982,453.325561 774.177857,453.468979 Z M765.632725,432.34653 C769.742923,432.34653 773.187348,435.394012 773.821846,439.577223 L773.802623,439.4621 L773.958861,439.426388 C774.246783,439.36722 774.533537,439.330061 774.81653,439.315179 L774.81653,439.315179 L775.098173,439.307733 C778.357868,439.307733 781,442.040583 781,445.391311 C781,448.690646 778.057189,451.473734 774.742077,451.473734 L774.742077,451.473734 L756.964245,451.474799 C754.279474,451.474799 752.104004,449.22345 752.104004,446.466351 C752.104004,443.710167 754.279666,441.459013 756.964245,441.459013 C757.136557,441.459013 757.30934,441.469829 757.490317,441.489585 L757.357,441.476 L757.338291,441.151412 L757.333428,440.911005 C757.333428,436.192418 761.051291,432.34653 765.632725,432.34653 Z M765.632725,433.620369 C761.763147,433.620369 758.605376,436.886878 758.605376,440.911005 C758.605376,440.943234 758.605705,440.975068 758.606396,441.007561 L758.606396,441.007561 L758.615183,441.21881 L758.634352,441.496292 C758.662233,441.83995 758.540162,442.179887 758.297384,442.423688 C758.053153,442.668947 757.714026,442.790062 757.362188,442.75691 C757.214727,442.740868 757.086667,442.732852 756.964245,442.732852 C754.991597,442.732852 753.375952,444.404557 753.375952,446.466351 C753.375952,448.529108 754.991456,450.20096 756.964207,450.20096 L756.964207,450.20096 L774.742039,450.199895 C777.370488,450.199895 779.728052,447.97029 779.728052,445.391311 C779.728052,442.73507 777.646041,440.581572 775.098173,440.581572 C774.73892,440.581572 774.364742,440.630021 773.983677,440.727541 C773.664434,440.808202 773.326367,440.747859 773.055638,440.559522 C772.7903,440.375837 772.612934,440.089364 772.564308,439.768427 C772.023162,436.200685 769.106753,433.620369 765.632725,433.620369 Z M749.21333,444.884098 C749.454686,445.039431 749.527629,445.37007 749.37638,445.619713 L747.184867,449.24564 C747.087251,449.407631 746.917766,449.497503 746.746135,449.497503 C746.651738,449.497503 746.557341,449.46972 746.472598,449.416463 C746.230169,449.25891 746.156153,448.928272 746.308476,448.678629 L748.499989,445.052701 C748.652311,444.801993 748.969829,444.725436 749.21333,444.884098 Z M745.476709,440.786072 C745.614014,441.044591 745.521762,441.369682 745.270752,441.510592 L741.642902,443.562103 C741.564639,443.606484 741.479853,443.626456 741.39511,443.626456 C741.213825,443.626456 741.035758,443.526599 740.941361,443.347965 C740.805129,443.089446 740.897423,442.764355 741.147318,442.623445 L744.775168,440.571934 C745.026178,440.431024 745.340477,440.525334 745.476709,440.786072 Z M755.024643,426.986245 C757.841537,426.986245 760.279769,428.233351 761.831957,430.666539 C761.98857,430.913963 761.923136,431.245711 761.684998,431.407702 C761.445787,431.571911 761.125052,431.503121 760.968439,431.256806 C759.608263,429.124299 757.491839,428.055827 755.024643,428.055827 C750.98917,428.055827 747.705655,431.450973 747.705655,435.626116 C747.705655,438.210199 748.960707,440.59124 751.062113,441.992569 C751.301324,442.153451 751.371049,442.484089 751.215508,442.731513 C751.117893,442.891285 750.951626,442.976718 750.78214,442.976718 C750.685598,442.976718 750.587983,442.950089 750.501095,442.891329 C748.103624,441.291394 746.671578,438.575277 746.671578,435.62616 C746.671578,430.861816 750.41957,426.986245 755.024643,426.986245 Z M739.518969,434.889284 L743.650985,434.901534 C743.937394,434.901534 744.168023,435.142301 744.16695,435.437434 C744.166188,435.699775 743.983708,435.917406 743.742765,435.96253 L743.649054,435.971116 L739.517038,435.958955 C739.230629,435.958068 739,435.717079 739,435.420836 C739.000858,435.126812 739.231702,434.889373 739.517038,434.889373 L739.518969,434.889284 Z M741.585089,427.479717 L745.227956,429.497943 C745.480039,429.637743 745.575509,429.961725 745.439277,430.221353 C745.347025,430.402206 745.167885,430.504282 744.983382,430.504282 C744.901857,430.504327 744.818187,430.483201 744.73988,430.441039 L741.097013,428.422813 C740.84493,428.284123 740.74946,427.960142 740.88462,427.699403 C741.018706,427.438665 741.331933,427.339917 741.585089,427.479717 Z M768.886531,427.551038 C769.022763,427.809557 768.931584,428.134648 768.680573,428.276667 L765.052724,430.327024 C764.973344,430.372559 764.888602,430.392531 764.804931,430.392531 C764.622574,430.392531 764.444506,430.291564 764.351182,430.11404 C764.213877,429.855521 764.306129,429.53043 764.557139,429.38952 L768.184989,427.338009 C768.435999,427.19599 768.749226,427.291409 768.886531,427.551038 Z M763.356255,421.48578 C763.597611,421.642223 763.671626,421.971752 763.519304,422.222504 L761.327791,425.848432 C761.230176,426.010422 761.06069,426.100294 760.889059,426.100294 C760.795735,426.100294 760.701338,426.073665 760.615522,426.018189 C760.373094,425.861746 760.30015,425.532217 760.4514,425.280355 L762.643986,421.655537 C762.795236,421.404784 763.113826,421.328227 763.356255,421.48578 Z M747.252558,421.637341 L749.425835,425.268816 C749.577085,425.520678 749.501953,425.849097 749.258495,426.00554 C749.173795,426.059951 749.080428,426.085426 748.987103,426.085426 C748.8144,426.085426 748.644914,425.995555 748.546226,425.832454 L746.372949,422.19987 C746.223845,421.949117 746.297861,421.619588 746.540289,421.463145 C746.783791,421.308921 747.101308,421.385479 747.252558,421.637341 Z M754.914697,419 C755.200033,419 755.431735,419.238548 755.431735,419.533681 L755.431735,423.806462 C755.431735,424.101596 755.200033,424.340143 754.914697,424.340143 C754.628287,424.340143 754.397658,424.101596 754.397658,423.806462 L754.397658,419.533681 C754.397658,419.238548 754.628287,419 754.914697,419 Z" id="301-强阵雨"></path>
        </g>
    </g>
</svg>