<?xml version="1.0" encoding="UTF-8"?>
<svg width="42px" height="42px" viewBox="0 0 42 42" version="1.1" xmlns="http://www.w3.org/2000/svg" xmlns:xlink="http://www.w3.org/1999/xlink">
    <title>302-雷阵雨</title>
    <g id="页面-1" stroke="none" stroke-width="1" fill="none" fill-rule="evenodd">
        <g id="画板" transform="translate(-896.000000, -419.000000)" fill="#666666">
            <path d="M918.017557,453.468979 C918.264665,453.611859 918.346228,453.934471 918.19888,454.190064 L915.005704,459.729028 C914.858356,459.984622 914.5386,460.075187 914.291491,459.932307 C914.043454,459.788889 913.96282,459.466815 914.110168,459.211222 L917.303344,453.672257 C917.450692,453.416664 917.769519,453.325561 918.017557,453.468979 Z M931.177857,453.468979 C931.424966,453.611859 931.506529,453.934471 931.359181,454.190064 L928.166005,459.729028 C928.018657,459.984622 927.6989,460.075187 927.451792,459.932307 C927.203754,459.788889 927.12312,459.466815 927.270468,459.211222 L930.463644,453.672257 C930.610992,453.416664 930.92982,453.325561 931.177857,453.468979 Z M906.21333,444.884098 C906.454686,445.039431 906.527629,445.37007 906.37638,445.619713 L904.184867,449.24564 C904.087251,449.407631 903.917766,449.497503 903.746135,449.497503 C903.651738,449.497503 903.557341,449.46972 903.472598,449.416463 C903.230169,449.25891 903.156153,448.928272 903.308476,448.678629 L905.499989,445.052701 C905.652311,444.801993 905.969829,444.725436 906.21333,444.884098 Z M902.476709,440.786072 C902.614014,441.044591 902.521762,441.369682 902.270752,441.510592 L898.642902,443.562103 C898.564639,443.606484 898.479853,443.626456 898.39511,443.626456 C898.213825,443.626456 898.035758,443.526599 897.941361,443.347965 C897.805129,443.089446 897.897423,442.764355 898.147318,442.623445 L901.775168,440.571934 C902.026178,440.431024 902.340477,440.525334 902.476709,440.786072 Z M912.024643,426.986245 C914.841537,426.986245 917.279769,428.233351 918.831957,430.666539 C918.98857,430.913963 918.923136,431.245711 918.684998,431.407702 C918.445787,431.571911 918.125052,431.503121 917.968439,431.256806 C916.608263,429.124299 914.491839,428.055827 912.024643,428.055827 C907.98917,428.055827 904.705655,431.450973 904.705655,435.626116 C904.705655,438.210199 905.960707,440.59124 908.062113,441.992569 C908.301324,442.153451 908.371049,442.484089 908.215508,442.731513 C908.117893,442.891285 907.951626,442.976718 907.78214,442.976718 C907.685598,442.976718 907.587983,442.950089 907.501095,442.891329 C905.103624,441.291394 903.671578,438.575277 903.671578,435.62616 C903.671578,430.861816 907.41957,426.986245 912.024643,426.986245 Z M896.518969,434.889284 L900.650985,434.901534 C900.937394,434.901534 901.168023,435.142301 901.16695,435.437434 C901.166188,435.699775 900.983708,435.917406 900.742765,435.96253 L900.649054,435.971116 L896.517038,435.958955 C896.230629,435.958068 896,435.717079 896,435.420836 C896.000858,435.126812 896.231702,434.889373 896.517038,434.889373 L896.518969,434.889284 Z M898.585089,427.479717 L902.227956,429.497943 C902.480039,429.637743 902.575509,429.961725 902.439277,430.221353 C902.347025,430.402206 902.167885,430.504282 901.983382,430.504282 C901.901857,430.504327 901.818187,430.483201 901.73988,430.441039 L898.097013,428.422813 C897.84493,428.284123 897.74946,427.960142 897.88462,427.699403 C898.018706,427.438665 898.331933,427.339917 898.585089,427.479717 Z M925.886531,427.551038 C926.022763,427.809557 925.931584,428.134648 925.680573,428.276667 L922.052724,430.327024 C921.973344,430.372559 921.888602,430.392531 921.804931,430.392531 C921.622574,430.392531 921.444506,430.291564 921.351182,430.11404 C921.213877,429.855521 921.306129,429.53043 921.557139,429.38952 L925.184989,427.338009 C925.435999,427.19599 925.749226,427.291409 925.886531,427.551038 Z M920.356255,421.48578 C920.597611,421.642223 920.671626,421.971752 920.519304,422.222504 L918.327791,425.848432 C918.230176,426.010422 918.06069,426.100294 917.889059,426.100294 C917.795735,426.100294 917.701338,426.073665 917.615522,426.018189 C917.373094,425.861746 917.30015,425.532217 917.4514,425.280355 L919.643986,421.655537 C919.795236,421.404784 920.113826,421.328227 920.356255,421.48578 Z M904.252558,421.637341 L906.425835,425.268816 C906.577085,425.520678 906.501953,425.849097 906.258495,426.00554 C906.173795,426.059951 906.080428,426.085426 905.987103,426.085426 C905.8144,426.085426 905.644914,425.995555 905.546226,425.832454 L903.372949,422.19987 C903.223845,421.949117 903.297861,421.619588 903.540289,421.463145 C903.783791,421.308921 904.101308,421.385479 904.252558,421.637341 Z M911.914697,419 C912.200033,419 912.431735,419.238548 912.431735,419.533681 L912.431735,423.806462 C912.431735,424.101596 912.200033,424.340143 911.914697,424.340143 C911.628287,424.340143 911.397658,424.101596 911.397658,423.806462 L911.397658,419.533681 C911.397658,419.238548 911.628287,419 911.914697,419 Z M923.480628,452.502674 C923.694712,452.622751 923.786239,452.876885 923.70906,453.10103 L923.672119,453.183358 L921.886711,456.365 L924.435816,456.365696 C924.800512,456.365696 925.032997,456.738218 924.897649,457.058071 L924.859778,457.130755 L922.628044,460.700409 C922.481656,460.934557 922.173171,461.0057 921.939023,460.859312 C921.730892,460.729189 921.651554,460.470989 921.739306,460.250769 L921.780121,460.170291 L923.533711,457.365 L921.033459,457.365696 C920.680712,457.365696 920.448325,457.015237 920.561695,456.699175 L920.597371,456.621099 L922.799944,452.694165 C922.935031,452.45332 923.239784,452.367587 923.480628,452.502674 Z M922.632725,432.34653 C926.742923,432.34653 930.187348,435.394012 930.821846,439.577223 L930.802623,439.4621 L930.958861,439.426388 C931.246783,439.36722 931.533537,439.330061 931.81653,439.315179 L931.81653,439.315179 L932.098173,439.307733 C935.357868,439.307733 938,442.040583 938,445.391311 C938,448.690646 935.057189,451.473734 931.742077,451.473734 L931.742077,451.473734 L913.964245,451.474799 C911.279474,451.474799 909.104004,449.22345 909.104004,446.466351 C909.104004,443.710167 911.279666,441.459013 913.964245,441.459013 C914.136557,441.459013 914.30934,441.469829 914.490317,441.489585 L914.357,441.476 L914.338291,441.151412 L914.333428,440.911005 C914.333428,436.192418 918.051291,432.34653 922.632725,432.34653 Z M922.632725,433.620369 C918.763147,433.620369 915.605376,436.886878 915.605376,440.911005 C915.605376,440.943234 915.605705,440.975068 915.606396,441.007561 L915.606396,441.007561 L915.615183,441.21881 L915.634352,441.496292 C915.662233,441.83995 915.540162,442.179887 915.297384,442.423688 C915.053153,442.668947 914.714026,442.790062 914.362188,442.75691 C914.214727,442.740868 914.086667,442.732852 913.964245,442.732852 C911.991597,442.732852 910.375952,444.404557 910.375952,446.466351 C910.375952,448.529108 911.991456,450.20096 913.964207,450.20096 L913.964207,450.20096 L931.742039,450.199895 C934.370488,450.199895 936.728052,447.97029 936.728052,445.391311 C936.728052,442.73507 934.646041,440.581572 932.098173,440.581572 C931.73892,440.581572 931.364742,440.630021 930.983677,440.727541 C930.664434,440.808202 930.326367,440.747859 930.055638,440.559522 C929.7903,440.375837 929.612934,440.089364 929.564308,439.768427 C929.023162,436.200685 926.106753,433.620369 922.632725,433.620369 Z" id="302-雷阵雨"></path>
        </g>
    </g>
</svg>