<?xml version="1.0" encoding="UTF-8"?>
<svg width="42px" height="42px" viewBox="0 0 42 42" version="1.1" xmlns="http://www.w3.org/2000/svg" xmlns:xlink="http://www.w3.org/1999/xlink">
    <title>303-强雷阵雨</title>
    <g id="页面-1" stroke="none" stroke-width="1" fill="none" fill-rule="evenodd">
        <g id="画板" transform="translate(-1059.000000, -419.000000)" fill="#666666">
            <path d="M1081.574,453.468979 C1081.82111,453.611859 1081.90267,453.934471 1081.75532,454.190064 L1078.56215,459.729028 C1078.4148,459.984622 1078.09504,460.075187 1077.84793,459.932307 C1077.5999,459.788889 1077.51926,459.466815 1077.66661,459.211222 L1080.85979,453.672257 C1081.00713,453.416664 1081.32596,453.325561 1081.574,453.468979 Z M1076.01756,453.468979 C1076.26467,453.611859 1076.34623,453.934471 1076.19888,454.190064 L1073.0057,459.729028 C1072.85836,459.984622 1072.5386,460.075187 1072.29149,459.932307 C1072.04345,459.788889 1071.96282,459.466815 1072.11017,459.211222 L1075.30334,453.672257 C1075.45069,453.416664 1075.76952,453.325561 1076.01756,453.468979 Z M1098.01756,453.468979 C1098.26467,453.611859 1098.34623,453.934471 1098.19888,454.190064 L1095.0057,459.729028 C1094.85836,459.984622 1094.5386,460.075187 1094.29149,459.932307 C1094.04345,459.788889 1093.96282,459.466815 1094.11017,459.211222 L1097.30334,453.672257 C1097.45069,453.416664 1097.76952,453.325561 1098.01756,453.468979 Z M1092.46112,453.468979 C1092.70822,453.611859 1092.78979,453.934471 1092.64244,454.190064 L1089.44926,459.729028 C1089.30191,459.984622 1088.98216,460.075187 1088.73505,459.932307 C1088.48701,459.788889 1088.40638,459.466815 1088.55373,459.211222 L1091.7469,453.672257 C1091.89425,453.416664 1092.21308,453.325561 1092.46112,453.468979 Z M1069.21333,444.884098 C1069.45469,445.039431 1069.52763,445.37007 1069.37638,445.619713 L1067.18487,449.24564 C1067.08725,449.407631 1066.91777,449.497503 1066.74613,449.497503 C1066.65174,449.497503 1066.55734,449.46972 1066.4726,449.416463 C1066.23017,449.25891 1066.15615,448.928272 1066.30848,448.678629 L1068.49999,445.052701 C1068.65231,444.801993 1068.96983,444.725436 1069.21333,444.884098 Z M1065.47671,440.786072 C1065.61401,441.044591 1065.52176,441.369682 1065.27075,441.510592 L1061.6429,443.562103 C1061.56464,443.606484 1061.47985,443.626456 1061.39511,443.626456 C1061.21383,443.626456 1061.03576,443.526599 1060.94136,443.347965 C1060.80513,443.089446 1060.89742,442.764355 1061.14732,442.623445 L1064.77517,440.571934 C1065.02618,440.431024 1065.34048,440.525334 1065.47671,440.786072 Z M1075.02464,426.986245 C1077.84154,426.986245 1080.27977,428.233351 1081.83196,430.666539 C1081.98857,430.913963 1081.92314,431.245711 1081.685,431.407702 C1081.44579,431.571911 1081.12505,431.503121 1080.96844,431.256806 C1079.60826,429.124299 1077.49184,428.055827 1075.02464,428.055827 C1070.98917,428.055827 1067.70566,431.450973 1067.70566,435.626116 C1067.70566,438.210199 1068.96071,440.59124 1071.06211,441.992569 C1071.30132,442.153451 1071.37105,442.484089 1071.21551,442.731513 C1071.11789,442.891285 1070.95163,442.976718 1070.78214,442.976718 C1070.6856,442.976718 1070.58798,442.950089 1070.50109,442.891329 C1068.10362,441.291394 1066.67158,438.575277 1066.67158,435.62616 C1066.67158,430.861816 1070.41957,426.986245 1075.02464,426.986245 Z M1059.51897,434.889284 L1063.65098,434.901534 C1063.93739,434.901534 1064.16802,435.142301 1064.16695,435.437434 C1064.16619,435.699775 1063.98371,435.917406 1063.74277,435.96253 L1063.64905,435.971116 L1059.51704,435.958955 C1059.23063,435.958068 1059,435.717079 1059,435.420836 C1059.00086,435.126812 1059.2317,434.889373 1059.51704,434.889373 L1059.51897,434.889284 Z M1061.58509,427.479717 L1065.22796,429.497943 C1065.48004,429.637743 1065.57551,429.961725 1065.43928,430.221353 C1065.34702,430.402206 1065.16789,430.504282 1064.98338,430.504282 C1064.90186,430.504327 1064.81819,430.483201 1064.73988,430.441039 L1061.09701,428.422813 C1060.84493,428.284123 1060.74946,427.960142 1060.88462,427.699403 C1061.01871,427.438665 1061.33193,427.339917 1061.58509,427.479717 Z M1088.88653,427.551038 C1089.02276,427.809557 1088.93158,428.134648 1088.68057,428.276667 L1085.05272,430.327024 C1084.97334,430.372559 1084.8886,430.392531 1084.80493,430.392531 C1084.62257,430.392531 1084.44451,430.291564 1084.35118,430.11404 C1084.21388,429.855521 1084.30613,429.53043 1084.55714,429.38952 L1088.18499,427.338009 C1088.436,427.19599 1088.74923,427.291409 1088.88653,427.551038 Z M1083.35625,421.48578 C1083.59761,421.642223 1083.67163,421.971752 1083.5193,422.222504 L1081.32779,425.848432 C1081.23018,426.010422 1081.06069,426.100294 1080.88906,426.100294 C1080.79573,426.100294 1080.70134,426.073665 1080.61552,426.018189 C1080.37309,425.861746 1080.30015,425.532217 1080.4514,425.280355 L1082.64399,421.655537 C1082.79524,421.404784 1083.11383,421.328227 1083.35625,421.48578 Z M1067.25256,421.637341 L1069.42584,425.268816 C1069.57708,425.520678 1069.50195,425.849097 1069.25849,426.00554 C1069.17379,426.059951 1069.08043,426.085426 1068.9871,426.085426 C1068.8144,426.085426 1068.64491,425.995555 1068.54623,425.832454 L1066.37295,422.19987 C1066.22384,421.949117 1066.29786,421.619588 1066.54029,421.463145 C1066.78379,421.308921 1067.10131,421.385479 1067.25256,421.637341 Z M1074.9147,419 C1075.20003,419 1075.43173,419.238548 1075.43173,419.533681 L1075.43173,423.806462 C1075.43173,424.101596 1075.20003,424.340143 1074.9147,424.340143 C1074.62829,424.340143 1074.39766,424.101596 1074.39766,423.806462 L1074.39766,419.533681 C1074.39766,419.238548 1074.62829,419 1074.9147,419 Z M1085.90048,452.502674 C1086.11456,452.622751 1086.20609,452.876885 1086.12891,453.10103 L1086.09197,453.183358 L1084.30656,456.365 L1086.85567,456.365696 C1087.22036,456.365696 1087.45285,456.738218 1087.3175,457.058071 L1087.27963,457.130755 L1085.04789,460.700409 C1084.90151,460.934557 1084.59302,461.0057 1084.35887,460.859312 C1084.15074,460.729189 1084.0714,460.470989 1084.15916,460.250769 L1084.19997,460.170291 L1085.95356,457.365 L1083.45331,457.365696 C1083.10056,457.365696 1082.86817,457.015237 1082.98154,456.699175 L1083.01722,456.621099 L1085.21979,452.694165 C1085.35488,452.45332 1085.65963,452.367587 1085.90048,452.502674 Z M1085.63272,432.34653 C1089.74292,432.34653 1093.18735,435.394012 1093.82185,439.577223 L1093.80262,439.4621 L1093.95886,439.426388 C1094.24678,439.36722 1094.53354,439.330061 1094.81653,439.315179 L1094.81653,439.315179 L1095.09817,439.307733 C1098.35787,439.307733 1101,442.040583 1101,445.391311 C1101,448.690646 1098.05719,451.473734 1094.74208,451.473734 L1094.74208,451.473734 L1076.96425,451.474799 C1074.27947,451.474799 1072.104,449.22345 1072.104,446.466351 C1072.104,443.710167 1074.27967,441.459013 1076.96425,441.459013 C1077.13656,441.459013 1077.30934,441.469829 1077.49032,441.489585 L1077.357,441.476 L1077.33829,441.151412 L1077.33343,440.911005 C1077.33343,436.192418 1081.05129,432.34653 1085.63272,432.34653 Z M1085.63272,433.620369 C1081.76315,433.620369 1078.60538,436.886878 1078.60538,440.911005 C1078.60538,440.943234 1078.6057,440.975068 1078.6064,441.007561 L1078.6064,441.007561 L1078.61518,441.21881 L1078.63435,441.496292 C1078.66223,441.83995 1078.54016,442.179887 1078.29738,442.423688 C1078.05315,442.668947 1077.71403,442.790062 1077.36219,442.75691 C1077.21473,442.740868 1077.08667,442.732852 1076.96425,442.732852 C1074.9916,442.732852 1073.37595,444.404557 1073.37595,446.466351 C1073.37595,448.529108 1074.99146,450.20096 1076.96421,450.20096 L1076.96421,450.20096 L1094.74204,450.199895 C1097.37049,450.199895 1099.72805,447.97029 1099.72805,445.391311 C1099.72805,442.73507 1097.64604,440.581572 1095.09817,440.581572 C1094.73892,440.581572 1094.36474,440.630021 1093.98368,440.727541 C1093.66443,440.808202 1093.32637,440.747859 1093.05564,440.559522 C1092.7903,440.375837 1092.61293,440.089364 1092.56431,439.768427 C1092.02316,436.200685 1089.10675,433.620369 1085.63272,433.620369 Z" id="303-强雷阵雨"></path>
        </g>
    </g>
</svg>