<?xml version="1.0" encoding="UTF-8"?>
<svg width="42px" height="42px" viewBox="0 0 42 42" version="1.1" xmlns="http://www.w3.org/2000/svg" xmlns:xlink="http://www.w3.org/1999/xlink">
    <title>304-雷阵雨伴有冰雹</title>
    <g id="页面-1" stroke="none" stroke-width="1" fill="none" fill-rule="evenodd">
        <g id="画板" transform="translate(-1219.000000, -419.000000)" fill="#666666">
            <path d="M1235.02464,426.986245 C1237.84154,426.986245 1240.27977,428.233351 1241.83196,430.666539 C1241.98857,430.913963 1241.92314,431.245711 1241.685,431.407702 C1241.44579,431.571911 1241.12505,431.503121 1240.96844,431.256806 C1239.60826,429.124299 1237.49184,428.055827 1235.02464,428.055827 C1230.98917,428.055827 1227.70566,431.450973 1227.70566,435.626116 C1227.70566,438.210199 1228.96071,440.59124 1231.06211,441.992569 C1231.30132,442.153451 1231.37105,442.484089 1231.21551,442.731513 C1231.11789,442.891285 1230.95163,442.976718 1230.78214,442.976718 C1230.6856,442.976718 1230.58798,442.950089 1230.50109,442.891329 C1228.10362,441.291394 1226.67158,438.575277 1226.67158,435.62616 C1226.67158,430.861816 1230.41957,426.986245 1235.02464,426.986245 Z M1234.9147,419 C1235.20003,419 1235.43173,419.238548 1235.43173,419.533681 L1235.43173,423.806462 C1235.43173,424.101596 1235.20003,424.340143 1234.9147,424.340143 C1234.62829,424.340143 1234.39766,424.101596 1234.39766,423.806462 L1234.39766,419.533681 C1234.39766,419.238548 1234.62829,419 1234.9147,419 Z M1239.71097,455.5 C1240.12518,455.5 1240.46097,455.164214 1240.46097,454.75 C1240.46097,454.335786 1240.12518,454 1239.71097,454 C1239.29675,454 1238.96097,454.335786 1238.96097,454.75 C1238.96097,455.164214 1239.29675,455.5 1239.71097,455.5 Z M1250.59808,455.5 C1251.0123,455.5 1251.34808,455.164214 1251.34808,454.75 C1251.34808,454.335786 1251.0123,454 1250.59808,454 C1250.18387,454 1249.84808,454.335786 1249.84808,454.75 C1249.84808,455.164214 1250.18387,455.5 1250.59808,455.5 Z M1236.75,460.5 C1237.16421,460.5 1237.5,460.164214 1237.5,459.75 C1237.5,459.335786 1237.16421,459 1236.75,459 C1236.33579,459 1236,459.335786 1236,459.75 C1236,460.164214 1236.33579,460.5 1236.75,460.5 Z M1248.75,459 C1249.16421,459 1249.5,459.335786 1249.5,459.75 C1249.5,460.164214 1249.16421,460.5 1248.75,460.5 C1248.33579,460.5 1248,460.164214 1248,459.75 C1248,459.335786 1248.33579,459 1248.75,459 Z M1236.01756,453.468979 C1236.26467,453.611859 1236.34623,453.934471 1236.19888,454.190064 L1233.0057,459.729028 C1232.85836,459.984622 1232.5386,460.075187 1232.29149,459.932307 C1232.04345,459.788889 1231.96282,459.466815 1232.11017,459.211222 L1235.30334,453.672257 C1235.45069,453.416664 1235.76952,453.325561 1236.01756,453.468979 Z M1258.01756,453.468979 C1258.26467,453.611859 1258.34623,453.934471 1258.19888,454.190064 L1255.0057,459.729028 C1254.85836,459.984622 1254.5386,460.075187 1254.29149,459.932307 C1254.04345,459.788889 1253.96282,459.466815 1254.11017,459.211222 L1257.30334,453.672257 C1257.45069,453.416664 1257.76952,453.325561 1258.01756,453.468979 Z M1229.21333,444.884098 C1229.45469,445.039431 1229.52763,445.37007 1229.37638,445.619713 L1227.18487,449.24564 C1227.08725,449.407631 1226.91777,449.497503 1226.74613,449.497503 C1226.65174,449.497503 1226.55734,449.46972 1226.4726,449.416463 C1226.23017,449.25891 1226.15615,448.928272 1226.30848,448.678629 L1228.49999,445.052701 C1228.65231,444.801993 1228.96983,444.725436 1229.21333,444.884098 Z M1225.47671,440.786072 C1225.61401,441.044591 1225.52176,441.369682 1225.27075,441.510592 L1221.6429,443.562103 C1221.56464,443.606484 1221.47985,443.626456 1221.39511,443.626456 C1221.21383,443.626456 1221.03576,443.526599 1220.94136,443.347965 C1220.80513,443.089446 1220.89742,442.764355 1221.14732,442.623445 L1224.77517,440.571934 C1225.02618,440.431024 1225.34048,440.525334 1225.47671,440.786072 Z M1219.51897,434.889284 L1223.65098,434.901534 C1223.93739,434.901534 1224.16802,435.142301 1224.16695,435.437434 C1224.16619,435.699775 1223.98371,435.917406 1223.74277,435.96253 L1223.64905,435.971116 L1219.51704,435.958955 C1219.23063,435.958068 1219,435.717079 1219,435.420836 C1219.00086,435.126812 1219.2317,434.889373 1219.51704,434.889373 L1219.51897,434.889284 Z M1221.58509,427.479717 L1225.22796,429.497943 C1225.48004,429.637743 1225.57551,429.961725 1225.43928,430.221353 C1225.34702,430.402206 1225.16789,430.504282 1224.98338,430.504282 C1224.90186,430.504327 1224.81819,430.483201 1224.73988,430.441039 L1221.09701,428.422813 C1220.84493,428.284123 1220.74946,427.960142 1220.88462,427.699403 C1221.01871,427.438665 1221.33193,427.339917 1221.58509,427.479717 Z M1248.88653,427.551038 C1249.02276,427.809557 1248.93158,428.134648 1248.68057,428.276667 L1245.05272,430.327024 C1244.97334,430.372559 1244.8886,430.392531 1244.80493,430.392531 C1244.62257,430.392531 1244.44451,430.291564 1244.35118,430.11404 C1244.21388,429.855521 1244.30613,429.53043 1244.55714,429.38952 L1248.18499,427.338009 C1248.436,427.19599 1248.74923,427.291409 1248.88653,427.551038 Z M1243.35625,421.48578 C1243.59761,421.642223 1243.67163,421.971752 1243.5193,422.222504 L1241.32779,425.848432 C1241.23018,426.010422 1241.06069,426.100294 1240.88906,426.100294 C1240.79573,426.100294 1240.70134,426.073665 1240.61552,426.018189 C1240.37309,425.861746 1240.30015,425.532217 1240.4514,425.280355 L1242.64399,421.655537 C1242.79524,421.404784 1243.11383,421.328227 1243.35625,421.48578 Z M1227.25256,421.637341 L1229.42584,425.268816 C1229.57708,425.520678 1229.50195,425.849097 1229.25849,426.00554 C1229.17379,426.059951 1229.08043,426.085426 1228.9871,426.085426 C1228.8144,426.085426 1228.64491,425.995555 1228.54623,425.832454 L1226.37295,422.19987 C1226.22384,421.949117 1226.29786,421.619588 1226.54029,421.463145 C1226.78379,421.308921 1227.10131,421.385479 1227.25256,421.637341 Z M1244.90048,452.502674 C1245.11456,452.622751 1245.20609,452.876885 1245.12891,453.10103 L1245.09197,453.183358 L1243.30656,456.365 L1245.85567,456.365696 C1246.22036,456.365696 1246.45285,456.738218 1246.3175,457.058071 L1246.27963,457.130755 L1244.04789,460.700409 C1243.90151,460.934557 1243.59302,461.0057 1243.35887,460.859312 C1243.15074,460.729189 1243.0714,460.470989 1243.15916,460.250769 L1243.19997,460.170291 L1244.95356,457.365 L1242.45331,457.365696 C1242.10056,457.365696 1241.86817,457.015237 1241.98154,456.699175 L1242.01722,456.621099 L1244.21979,452.694165 C1244.35488,452.45332 1244.65963,452.367587 1244.90048,452.502674 Z M1245.63272,432.34653 C1249.74292,432.34653 1253.18735,435.394012 1253.82185,439.577223 L1253.80262,439.4621 L1253.95886,439.426388 C1254.24678,439.36722 1254.53354,439.330061 1254.81653,439.315179 L1254.81653,439.315179 L1255.09817,439.307733 C1258.35787,439.307733 1261,442.040583 1261,445.391311 C1261,448.690646 1258.05719,451.473734 1254.74208,451.473734 L1254.74208,451.473734 L1236.96425,451.474799 C1234.27947,451.474799 1232.104,449.22345 1232.104,446.466351 C1232.104,443.710167 1234.27967,441.459013 1236.96425,441.459013 C1237.13656,441.459013 1237.30934,441.469829 1237.49032,441.489585 L1237.357,441.476 L1237.33829,441.151412 L1237.33343,440.911005 C1237.33343,436.192418 1241.05129,432.34653 1245.63272,432.34653 Z M1245.63272,433.620369 C1241.76315,433.620369 1238.60538,436.886878 1238.60538,440.911005 C1238.60538,440.943234 1238.6057,440.975068 1238.6064,441.007561 L1238.6064,441.007561 L1238.61518,441.21881 L1238.63435,441.496292 C1238.66223,441.83995 1238.54016,442.179887 1238.29738,442.423688 C1238.05315,442.668947 1237.71403,442.790062 1237.36219,442.75691 C1237.21473,442.740868 1237.08667,442.732852 1236.96425,442.732852 C1234.9916,442.732852 1233.37595,444.404557 1233.37595,446.466351 C1233.37595,448.529108 1234.99146,450.20096 1236.96421,450.20096 L1236.96421,450.20096 L1254.74204,450.199895 C1257.37049,450.199895 1259.72805,447.97029 1259.72805,445.391311 C1259.72805,442.73507 1257.64604,440.581572 1255.09817,440.581572 C1254.73892,440.581572 1254.36474,440.630021 1253.98368,440.727541 C1253.66443,440.808202 1253.32637,440.747859 1253.05564,440.559522 C1252.7903,440.375837 1252.61293,440.089364 1252.56431,439.768427 C1252.02316,436.200685 1249.10675,433.620369 1245.63272,433.620369 Z" id="304-雷阵雨伴有冰雹"></path>
        </g>
    </g>
</svg>