<?xml version="1.0" encoding="UTF-8"?>
<svg width="34px" height="32px" viewBox="0 0 34 32" version="1.1" xmlns="http://www.w3.org/2000/svg" xmlns:xlink="http://www.w3.org/1999/xlink">
    <title>305-小雨</title>
    <g id="页面-1" stroke="none" stroke-width="1" fill="none" fill-rule="evenodd">
        <g id="画板" transform="translate(-1383.000000, -428.000000)" fill="#666666">
            <path d="M1395.67152,452.429554 C1395.99026,452.610526 1396.10908,452.996494 1395.93586,453.292204 L1392.18197,459.700538 C1392.00875,459.996248 1391.60991,460.088307 1391.29117,459.907335 C1390.97123,459.725683 1390.85361,459.340395 1391.02683,459.044685 L1394.78072,452.636351 C1394.95394,452.340641 1395.35158,452.247902 1395.67152,452.429554 Z M1406.90637,452.429554 C1407.22512,452.610526 1407.34393,452.996494 1407.17071,453.292204 L1403.41682,459.700538 C1403.2436,459.996248 1402.84477,460.088307 1402.52602,459.907335 C1402.20608,459.725683 1402.08846,459.340395 1402.26169,459.044685 L1406.01557,452.636351 C1406.18879,452.340641 1406.58643,452.247902 1406.90637,452.429554 Z M1398.91835,428 C1403.75454,428 1407.80737,431.524778 1408.55394,436.363162 L1408.531,436.23 L1408.71516,436.188703 C1408.94101,436.14308 1409.16625,436.10877 1409.38998,436.085866 L1409.72432,436.060077 L1410.05571,436.051465 C1413.89118,436.051465 1417,439.212333 1417,443.08785 C1417,446.903926 1413.53739,450.1229 1409.63672,450.1229 L1409.63672,450.1229 L1388.71872,450.124132 C1385.55973,450.124132 1383,447.520177 1383,444.331263 C1383,441.143406 1385.55996,438.539677 1388.71872,438.539677 C1388.92147,438.539677 1389.12477,438.552187 1389.33772,438.575037 L1389.181,438.56 L1389.15884,438.1839 L1389.15312,437.90584 C1389.15312,432.44823 1393.52768,428 1398.91835,428 Z M1398.91835,429.473347 C1394.36527,429.473347 1390.64973,433.251456 1390.64973,437.90584 C1390.64973,437.943116 1390.65012,437.979937 1390.65093,438.017518 L1390.65093,438.017518 L1390.66127,438.261854 L1390.68383,438.582794 C1390.71663,438.980276 1390.573,439.373454 1390.28734,439.655439 C1389.99997,439.93911 1389.60094,440.079194 1389.18696,440.04085 C1389.01345,440.022296 1388.86277,440.013025 1388.71872,440.013025 C1386.39764,440.013025 1384.49662,441.946551 1384.49662,444.331263 C1384.49662,446.717087 1386.39747,448.650785 1388.71868,448.650785 L1388.71868,448.650785 L1409.63667,448.649553 C1412.72939,448.649553 1415.50338,446.070747 1415.50338,443.08785 C1415.50338,440.015589 1413.05362,437.524812 1410.05571,437.524812 C1409.633,437.524812 1409.19273,437.580849 1408.74436,437.693642 C1408.36873,437.786936 1407.97095,437.717143 1407.6524,437.499308 C1407.34019,437.286855 1407.1315,436.955514 1407.07428,436.584313 C1406.43755,432.457792 1403.00601,429.473347 1398.91835,429.473347 Z" id="305-小雨"></path>
        </g>
    </g>
</svg>