<?xml version="1.0" encoding="UTF-8"?>
<svg width="34px" height="32px" viewBox="0 0 34 32" version="1.1" xmlns="http://www.w3.org/2000/svg" xmlns:xlink="http://www.w3.org/1999/xlink">
    <title>306-中雨</title>
    <g id="页面-1" stroke="none" stroke-width="1" fill="none" fill-rule="evenodd">
        <g id="画板" transform="translate(-101.000000, -581.000000)" fill="#666666">
            <path d="M109.671522,605.429554 C109.990264,605.610526 110.109082,605.996494 109.93586,606.292204 L106.181973,612.700538 C106.008751,612.996248 105.609913,613.088307 105.291172,612.907335 C104.971232,612.725683 104.853612,612.340395 105.026834,612.044685 L108.780721,605.636351 C108.953943,605.340641 109.351582,605.247902 109.671522,605.429554 Z M127.906374,605.429554 C128.225115,605.610526 128.343933,605.996494 128.170712,606.292204 L124.416824,612.700538 C124.243603,612.996248 123.844765,613.088307 123.526023,612.907335 C123.206083,612.725683 123.088464,612.340395 123.261685,612.044685 L127.015573,605.636351 C127.188794,605.340641 127.586434,605.247902 127.906374,605.429554 Z M118.788948,605.429554 C119.10769,605.610526 119.226507,605.996494 119.053286,606.292204 L115.299399,612.700538 C115.126177,612.996248 114.727339,613.088307 114.408598,612.907335 C114.088658,612.725683 113.971038,612.340395 114.144259,612.044685 L117.898147,605.636351 C118.071368,605.340641 118.469008,605.247902 118.788948,605.429554 Z M116.918348,581 C121.754545,581 125.807371,584.524778 126.553943,589.363162 L126.531,589.23 L126.715159,589.188703 C126.941011,589.14308 127.166253,589.10877 127.38998,589.085866 L127.724322,589.060077 L128.055712,589.051465 C131.891179,589.051465 135,592.212333 135,596.08785 C135,599.903926 131.53739,603.1229 127.636717,603.1229 L127.636717,603.1229 L106.718723,603.124132 C103.559732,603.124132 101,600.520177 101,597.331263 C101,594.143406 103.559957,591.539677 106.718723,591.539677 C106.921471,591.539677 107.124774,591.552187 107.337718,591.575037 L107.181,591.56 L107.158839,591.1839 L107.153116,590.90584 C107.153116,585.44823 111.527679,581 116.918348,581 Z M116.918348,582.473347 C112.365272,582.473347 108.649733,586.251456 108.649733,590.90584 C108.649733,590.943116 108.65012,590.979937 108.650934,591.017518 L108.650934,591.017518 L108.661273,591.261854 L108.683828,591.582794 C108.716633,591.980276 108.573001,592.373454 108.287339,592.655439 C107.999969,592.93911 107.600941,593.079194 107.186957,593.04085 C107.013448,593.022296 106.862769,593.013025 106.718723,593.013025 C104.397639,593.013025 102.496617,594.946551 102.496617,597.331263 C102.496617,599.717087 104.397474,601.650785 106.718679,601.650785 L106.718679,601.650785 L127.636673,601.649553 C130.729394,601.649553 133.503383,599.070747 133.503383,596.08785 C133.503383,593.015589 131.053619,590.524812 128.055712,590.524812 C127.633003,590.524812 127.192732,590.580849 126.744359,590.693642 C126.368726,590.786936 125.970946,590.717143 125.652396,590.499308 C125.340191,590.286855 125.131497,589.955514 125.074281,589.584313 C124.437551,585.457792 121.006006,582.473347 116.918348,582.473347 Z" id="306-中雨"></path>
        </g>
    </g>
</svg>