<?xml version="1.0" encoding="UTF-8"?>
<svg width="34px" height="32px" viewBox="0 0 34 32" version="1.1" xmlns="http://www.w3.org/2000/svg" xmlns:xlink="http://www.w3.org/1999/xlink">
    <title>307-大雨</title>
    <g id="页面-1" stroke="none" stroke-width="1" fill="none" fill-rule="evenodd">
        <g id="画板" transform="translate(-263.000000, -581.000000)" fill="#666666">
            <path d="M269.671522,605.429554 C269.990264,605.610526 270.109082,605.996494 269.93586,606.292204 L266.181973,612.700538 C266.008751,612.996248 265.609913,613.088307 265.291172,612.907335 C264.971232,612.725683 264.853612,612.340395 265.026834,612.044685 L268.780721,605.636351 C268.953943,605.340641 269.351582,605.247902 269.671522,605.429554 Z M289.906374,605.429554 C290.225115,605.610526 290.343933,605.996494 290.170712,606.292204 L286.416824,612.700538 C286.243603,612.996248 285.844765,613.088307 285.526023,612.907335 C285.206083,612.725683 285.088464,612.340395 285.261685,612.044685 L289.015573,605.636351 C289.188794,605.340641 289.586434,605.247902 289.906374,605.429554 Z M276.416473,605.429554 C276.735214,605.610526 276.854032,605.996494 276.680811,606.292204 L272.926923,612.700538 C272.753702,612.996248 272.354864,613.088307 272.036122,612.907335 C271.716182,612.725683 271.598563,612.340395 271.771784,612.044685 L275.525672,605.636351 C275.698893,605.340641 276.096533,605.247902 276.416473,605.429554 Z M283.161423,605.429554 C283.480165,605.610526 283.598983,605.996494 283.425761,606.292204 L279.671874,612.700538 C279.498652,612.996248 279.099815,613.088307 278.781073,612.907335 C278.461133,612.725683 278.343513,612.340395 278.516735,612.044685 L282.270622,605.636351 C282.443844,605.340641 282.841483,605.247902 283.161423,605.429554 Z M278.918348,581 C283.754545,581 287.807371,584.524778 288.553943,589.363162 L288.531,589.23 L288.715159,589.188703 C288.941011,589.14308 289.166253,589.10877 289.38998,589.085866 L289.724322,589.060077 L290.055712,589.051465 C293.891179,589.051465 297,592.212333 297,596.08785 C297,599.903926 293.53739,603.1229 289.636717,603.1229 L289.636717,603.1229 L268.718723,603.124132 C265.559732,603.124132 263,600.520177 263,597.331263 C263,594.143406 265.559957,591.539677 268.718723,591.539677 C268.921471,591.539677 269.124774,591.552187 269.337718,591.575037 L269.181,591.56 L269.158839,591.1839 L269.153116,590.90584 C269.153116,585.44823 273.527679,581 278.918348,581 Z M278.918348,582.473347 C274.365272,582.473347 270.649733,586.251456 270.649733,590.90584 C270.649733,590.943116 270.65012,590.979937 270.650934,591.017518 L270.650934,591.017518 L270.661273,591.261854 L270.683828,591.582794 C270.716633,591.980276 270.573001,592.373454 270.287339,592.655439 C269.999969,592.93911 269.600941,593.079194 269.186957,593.04085 C269.013448,593.022296 268.862769,593.013025 268.718723,593.013025 C266.397639,593.013025 264.496617,594.946551 264.496617,597.331263 C264.496617,599.717087 266.397474,601.650785 268.718679,601.650785 L268.718679,601.650785 L289.636673,601.649553 C292.729394,601.649553 295.503383,599.070747 295.503383,596.08785 C295.503383,593.015589 293.053619,590.524812 290.055712,590.524812 C289.633003,590.524812 289.192732,590.580849 288.744359,590.693642 C288.368726,590.786936 287.970946,590.717143 287.652396,590.499308 C287.340191,590.286855 287.131497,589.955514 287.074281,589.584313 C286.437551,585.457792 283.006006,582.473347 278.918348,582.473347 Z" id="307-大雨"></path>
        </g>
    </g>
</svg>