<?xml version="1.0" encoding="UTF-8"?>
<svg width="34px" height="32px" viewBox="0 0 34 32" version="1.1" xmlns="http://www.w3.org/2000/svg" xmlns:xlink="http://www.w3.org/1999/xlink">
    <title>308-极端降雨</title>
    <g id="页面-1" stroke="none" stroke-width="1" fill="none" fill-rule="evenodd">
        <g id="画板" transform="translate(-423.000000, -581.000000)" fill="#666666">
            <path d="M429.671522,605.429554 C429.990264,605.610526 430.109082,605.996494 429.93586,606.292204 L426.181973,612.700538 C426.008751,612.996248 425.609913,613.088307 425.291172,612.907335 C424.971232,612.725683 424.853612,612.340395 425.026834,612.044685 L428.780721,605.636351 C428.953943,605.340641 429.351582,605.247902 429.671522,605.429554 Z M433.918492,605.429554 C434.237234,605.610526 434.356052,605.996494 434.18283,606.292204 L430.428943,612.700538 C430.255721,612.996248 429.856884,613.088307 429.538142,612.907335 C429.218202,612.725683 429.100582,612.340395 429.273804,612.044685 L433.027691,605.636351 C433.200913,605.340641 433.598552,605.247902 433.918492,605.429554 Z M450.906374,605.429554 C451.225115,605.610526 451.343933,605.996494 451.170712,606.292204 L447.416824,612.700538 C447.243603,612.996248 446.844765,613.088307 446.526023,612.907335 C446.206083,612.725683 446.088464,612.340395 446.261685,612.044685 L450.015573,605.636351 C450.188794,605.340641 450.586434,605.247902 450.906374,605.429554 Z M438.165463,605.429554 C438.484204,605.610526 438.603022,605.996494 438.429801,606.292204 L434.675913,612.700538 C434.502692,612.996248 434.103854,613.088307 433.785112,612.907335 C433.465172,612.725683 433.347553,612.340395 433.520774,612.044685 L437.274662,605.636351 C437.447883,605.340641 437.845523,605.247902 438.165463,605.429554 Z M442.412433,605.429554 C442.731175,605.610526 442.849993,605.996494 442.676771,606.292204 L438.922884,612.700538 C438.749662,612.996248 438.350824,613.088307 438.032083,612.907335 C437.712143,612.725683 437.594523,612.340395 437.767745,612.044685 L441.521632,605.636351 C441.694854,605.340641 442.092493,605.247902 442.412433,605.429554 Z M446.659403,605.429554 C446.978145,605.610526 447.096963,605.996494 446.923741,606.292204 L443.169854,612.700538 C442.996632,612.996248 442.597795,613.088307 442.279053,612.907335 C441.959113,612.725683 441.841493,612.340395 442.014715,612.044685 L445.768602,605.636351 C445.941824,605.340641 446.339463,605.247902 446.659403,605.429554 Z M438.918348,581 C443.754545,581 447.807371,584.524778 448.553943,589.363162 L448.531,589.23 L448.715159,589.188703 C448.941011,589.14308 449.166253,589.10877 449.38998,589.085866 L449.724322,589.060077 L450.055712,589.051465 C453.891179,589.051465 457,592.212333 457,596.08785 C457,599.903926 453.53739,603.1229 449.636717,603.1229 L449.636717,603.1229 L428.718723,603.124132 C425.559732,603.124132 423,600.520177 423,597.331263 C423,594.143406 425.559957,591.539677 428.718723,591.539677 C428.921471,591.539677 429.124774,591.552187 429.337718,591.575037 L429.181,591.56 L429.158839,591.1839 L429.153116,590.90584 C429.153116,585.44823 433.527679,581 438.918348,581 Z M438.918348,582.473347 C434.365272,582.473347 430.649733,586.251456 430.649733,590.90584 C430.649733,590.943116 430.65012,590.979937 430.650934,591.017518 L430.650934,591.017518 L430.661273,591.261854 L430.683828,591.582794 C430.716633,591.980276 430.573001,592.373454 430.287339,592.655439 C429.999969,592.93911 429.600941,593.079194 429.186957,593.04085 C429.013448,593.022296 428.862769,593.013025 428.718723,593.013025 C426.397639,593.013025 424.496617,594.946551 424.496617,597.331263 C424.496617,599.717087 426.397474,601.650785 428.718679,601.650785 L428.718679,601.650785 L449.636673,601.649553 C452.729394,601.649553 455.503383,599.070747 455.503383,596.08785 C455.503383,593.015589 453.053619,590.524812 450.055712,590.524812 C449.633003,590.524812 449.192732,590.580849 448.744359,590.693642 C448.368726,590.786936 447.970946,590.717143 447.652396,590.499308 C447.340191,590.286855 447.131497,589.955514 447.074281,589.584313 C446.437551,585.457792 443.006006,582.473347 438.918348,582.473347 Z" id="308-极端降雨"></path>
        </g>
    </g>
</svg>