<?xml version="1.0" encoding="UTF-8"?>
<svg width="34px" height="32px" viewBox="0 0 34 32" version="1.1" xmlns="http://www.w3.org/2000/svg" xmlns:xlink="http://www.w3.org/1999/xlink">
    <title>309-毛毛细雨</title>
    <g id="页面-1" stroke="none" stroke-width="1" fill="none" fill-rule="evenodd">
        <g id="画板" transform="translate(-583.000000, -581.000000)" fill="#666666">
            <path d="M600.788948,605.429554 C601.10769,605.610526 601.226507,605.996494 601.053286,606.292204 L597.299399,612.700538 C597.126177,612.996248 596.727339,613.088307 596.408598,612.907335 C596.088658,612.725683 595.971038,612.340395 596.144259,612.044685 L599.898147,605.636351 C600.071368,605.340641 600.469008,605.247902 600.788948,605.429554 Z M598.918348,581 C603.754545,581 607.807371,584.524778 608.553943,589.363162 L608.531,589.23 L608.715159,589.188703 C608.941011,589.14308 609.166253,589.10877 609.38998,589.085866 L609.724322,589.060077 L610.055712,589.051465 C613.891179,589.051465 617,592.212333 617,596.08785 C617,599.903926 613.53739,603.1229 609.636717,603.1229 L609.636717,603.1229 L588.718723,603.124132 C585.559732,603.124132 583,600.520177 583,597.331263 C583,594.143406 585.559957,591.539677 588.718723,591.539677 C588.921471,591.539677 589.124774,591.552187 589.337718,591.575037 L589.181,591.56 L589.158839,591.1839 L589.153116,590.90584 C589.153116,585.44823 593.527679,581 598.918348,581 Z M598.918348,582.473347 C594.365272,582.473347 590.649733,586.251456 590.649733,590.90584 C590.649733,590.943116 590.65012,590.979937 590.650934,591.017518 L590.650934,591.017518 L590.661273,591.261854 L590.683828,591.582794 C590.716633,591.980276 590.573001,592.373454 590.287339,592.655439 C589.999969,592.93911 589.600941,593.079194 589.186957,593.04085 C589.013448,593.022296 588.862769,593.013025 588.718723,593.013025 C586.397639,593.013025 584.496617,594.946551 584.496617,597.331263 C584.496617,599.717087 586.397474,601.650785 588.718679,601.650785 L588.718679,601.650785 L609.636673,601.649553 C612.729394,601.649553 615.503383,599.070747 615.503383,596.08785 C615.503383,593.015589 613.053619,590.524812 610.055712,590.524812 C609.633003,590.524812 609.192732,590.580849 608.744359,590.693642 C608.368726,590.786936 607.970946,590.717143 607.652396,590.499308 C607.340191,590.286855 607.131497,589.955514 607.074281,589.584313 C606.437551,585.457792 603.006006,582.473347 598.918348,582.473347 Z" id="309-毛毛细雨"></path>
        </g>
    </g>
</svg>