<?xml version="1.0" encoding="UTF-8"?>
<svg width="34px" height="34px" viewBox="0 0 34 34" version="1.1" xmlns="http://www.w3.org/2000/svg" xmlns:xlink="http://www.w3.org/1999/xlink">
    <title>311-大暴雨</title>
    <g id="页面-1" stroke="none" stroke-width="1" fill="none" fill-rule="evenodd">
        <g id="画板" transform="translate(-903.000000, -581.000000)" fill="#666666">
            <path d="M910.75,605 C911.164214,605 911.5,605.335786 911.5,605.75 L911.5,614.25 C911.5,614.664214 911.164214,615 910.75,615 C910.335786,615 910,614.664214 910,614.25 L910,605.75 C910,605.335786 910.335786,605 910.75,605 Z M928.75,605 C929.164214,605 929.5,605.335786 929.5,605.75 L929.5,614.25 C929.5,614.664214 929.164214,615 928.75,615 C928.335786,615 928,614.664214 928,614.25 L928,605.75 C928,605.335786 928.335786,605 928.75,605 Z M916.75,605 C917.164214,605 917.5,605.335786 917.5,605.75 L917.5,614.25 C917.5,614.664214 917.164214,615 916.75,615 C916.335786,615 916,614.664214 916,614.25 L916,605.75 C916,605.335786 916.335786,605 916.75,605 Z M922.75,605 C923.164214,605 923.5,605.335786 923.5,605.75 L923.5,614.25 C923.5,614.664214 923.164214,615 922.75,615 C922.335786,615 922,614.664214 922,614.25 L922,605.75 C922,605.335786 922.335786,605 922.75,605 Z M918.918348,581 C923.754545,581 927.807371,584.524778 928.553943,589.363162 L928.531,589.23 L928.715159,589.188703 C928.941011,589.14308 929.166253,589.10877 929.38998,589.085866 L929.724322,589.060077 L930.055712,589.051465 C933.891179,589.051465 937,592.212333 937,596.08785 C937,599.903926 933.53739,603.1229 929.636717,603.1229 L929.636717,603.1229 L908.718723,603.124132 C905.559732,603.124132 903,600.520177 903,597.331263 C903,594.143406 905.559957,591.539677 908.718723,591.539677 C908.921471,591.539677 909.124774,591.552187 909.337718,591.575037 L909.181,591.56 L909.158839,591.1839 L909.153116,590.90584 C909.153116,585.44823 913.527679,581 918.918348,581 Z M918.918348,582.473347 C914.365272,582.473347 910.649733,586.251456 910.649733,590.90584 C910.649733,590.943116 910.65012,590.979937 910.650934,591.017518 L910.650934,591.017518 L910.661273,591.261854 L910.683828,591.582794 C910.716633,591.980276 910.573001,592.373454 910.287339,592.655439 C909.999969,592.93911 909.600941,593.079194 909.186957,593.04085 C909.013448,593.022296 908.862769,593.013025 908.718723,593.013025 C906.397639,593.013025 904.496617,594.946551 904.496617,597.331263 C904.496617,599.717087 906.397474,601.650785 908.718679,601.650785 L908.718679,601.650785 L929.636673,601.649553 C932.729394,601.649553 935.503383,599.070747 935.503383,596.08785 C935.503383,593.015589 933.053619,590.524812 930.055712,590.524812 C929.633003,590.524812 929.192732,590.580849 928.744359,590.693642 C928.368726,590.786936 927.970946,590.717143 927.652396,590.499308 C927.340191,590.286855 927.131497,589.955514 927.074281,589.584313 C926.437551,585.457792 923.006006,582.473347 918.918348,582.473347 Z" id="311-大暴雨"></path>
        </g>
    </g>
</svg>