<?xml version="1.0" encoding="UTF-8"?>
<svg width="34px" height="34px" viewBox="0 0 34 34" version="1.1" xmlns="http://www.w3.org/2000/svg" xmlns:xlink="http://www.w3.org/1999/xlink">
    <title>312-特大暴雨</title>
    <g id="页面-1" stroke="none" stroke-width="1" fill="none" fill-rule="evenodd">
        <g id="画板" transform="translate(-1063.000000, -581.000000)" fill="#666666">
            <path d="M1073.75,605 C1074.16421,605 1074.5,605.335786 1074.5,605.75 L1074.5,614.25 C1074.5,614.664214 1074.16421,615 1073.75,615 C1073.33579,615 1073,614.664214 1073,614.25 L1073,605.75 C1073,605.335786 1073.33579,605 1073.75,605 Z M1067.75,605 C1068.16421,605 1068.5,605.335786 1068.5,605.75 L1068.5,614.25 C1068.5,614.664214 1068.16421,615 1067.75,615 C1067.33579,615 1067,614.664214 1067,614.25 L1067,605.75 C1067,605.335786 1067.33579,605 1067.75,605 Z M1091.75,605 C1092.16421,605 1092.5,605.335786 1092.5,605.75 L1092.5,614.25 C1092.5,614.664214 1092.16421,615 1091.75,615 C1091.33579,615 1091,614.664214 1091,614.25 L1091,605.75 C1091,605.335786 1091.33579,605 1091.75,605 Z M1079.75,605 C1080.16421,605 1080.5,605.335786 1080.5,605.75 L1080.5,614.25 C1080.5,614.664214 1080.16421,615 1079.75,615 C1079.33579,615 1079,614.664214 1079,614.25 L1079,605.75 C1079,605.335786 1079.33579,605 1079.75,605 Z M1085.75,605 C1086.16421,605 1086.5,605.335786 1086.5,605.75 L1086.5,614.25 C1086.5,614.664214 1086.16421,615 1085.75,615 C1085.33579,615 1085,614.664214 1085,614.25 L1085,605.75 C1085,605.335786 1085.33579,605 1085.75,605 Z M1078.91835,581 C1083.75454,581 1087.80737,584.524778 1088.55394,589.363162 L1088.531,589.23 L1088.71516,589.188703 C1088.94101,589.14308 1089.16625,589.10877 1089.38998,589.085866 L1089.72432,589.060077 L1090.05571,589.051465 C1093.89118,589.051465 1097,592.212333 1097,596.08785 C1097,599.903926 1093.53739,603.1229 1089.63672,603.1229 L1089.63672,603.1229 L1068.71872,603.124132 C1065.55973,603.124132 1063,600.520177 1063,597.331263 C1063,594.143406 1065.55996,591.539677 1068.71872,591.539677 C1068.92147,591.539677 1069.12477,591.552187 1069.33772,591.575037 L1069.181,591.56 L1069.15884,591.1839 L1069.15312,590.90584 C1069.15312,585.44823 1073.52768,581 1078.91835,581 Z M1078.91835,582.473347 C1074.36527,582.473347 1070.64973,586.251456 1070.64973,590.90584 C1070.64973,590.943116 1070.65012,590.979937 1070.65093,591.017518 L1070.65093,591.017518 L1070.66127,591.261854 L1070.68383,591.582794 C1070.71663,591.980276 1070.573,592.373454 1070.28734,592.655439 C1069.99997,592.93911 1069.60094,593.079194 1069.18696,593.04085 C1069.01345,593.022296 1068.86277,593.013025 1068.71872,593.013025 C1066.39764,593.013025 1064.49662,594.946551 1064.49662,597.331263 C1064.49662,599.717087 1066.39747,601.650785 1068.71868,601.650785 L1068.71868,601.650785 L1089.63667,601.649553 C1092.72939,601.649553 1095.50338,599.070747 1095.50338,596.08785 C1095.50338,593.015589 1093.05362,590.524812 1090.05571,590.524812 C1089.633,590.524812 1089.19273,590.580849 1088.74436,590.693642 C1088.36873,590.786936 1087.97095,590.717143 1087.6524,590.499308 C1087.34019,590.286855 1087.1315,589.955514 1087.07428,589.584313 C1086.43755,585.457792 1083.00601,582.473347 1078.91835,582.473347 Z" id="312-特大暴雨"></path>
        </g>
    </g>
</svg>