<?xml version="1.0" encoding="UTF-8"?>
<svg width="34px" height="34px" viewBox="0 0 34 34" version="1.1" xmlns="http://www.w3.org/2000/svg" xmlns:xlink="http://www.w3.org/1999/xlink">
    <title>313-冻雨</title>
    <g id="页面-1" stroke="none" stroke-width="1" fill="none" fill-rule="evenodd">
        <g id="画板" transform="translate(-1223.000000, -581.000000)" fill="#666666">
            <path d="M1227.75,605 C1228.16421,605 1228.5,605.335786 1228.5,605.75 L1228.5,614.25 C1228.5,614.664214 1228.16421,615 1227.75,615 C1227.33579,615 1227,614.664214 1227,614.25 L1227,605.75 C1227,605.335786 1227.33579,605 1227.75,605 Z M1251.75,605 C1252.16421,605 1252.5,605.335786 1252.5,605.75 L1252.5,614.25 C1252.5,614.664214 1252.16421,615 1251.75,615 C1251.33579,615 1251,614.664214 1251,614.25 L1251,605.75 C1251,605.335786 1251.33579,605 1251.75,605 Z M1239.75,605 C1240.16421,605 1240.5,605.335786 1240.5,605.75 L1240.5,614.25 C1240.5,614.664214 1240.16421,615 1239.75,615 C1239.33579,615 1239,614.664214 1239,614.25 L1239,605.75 C1239,605.335786 1239.33579,605 1239.75,605 Z M1245.75,613 C1246.16421,613 1246.5,613.335786 1246.5,613.75 C1246.5,614.164214 1246.16421,614.5 1245.75,614.5 C1245.33579,614.5 1245,614.164214 1245,613.75 C1245,613.335786 1245.33579,613 1245.75,613 Z M1233.75,613 C1234.16421,613 1234.5,613.335786 1234.5,613.75 C1234.5,614.164214 1234.16421,614.5 1233.75,614.5 C1233.33579,614.5 1233,614.164214 1233,613.75 C1233,613.335786 1233.33579,613 1233.75,613 Z M1245.75,609 C1246.16421,609 1246.5,609.335786 1246.5,609.75 C1246.5,610.164214 1246.16421,610.5 1245.75,610.5 C1245.33579,610.5 1245,610.164214 1245,609.75 C1245,609.335786 1245.33579,609 1245.75,609 Z M1233.75,609 C1234.16421,609 1234.5,609.335786 1234.5,609.75 C1234.5,610.164214 1234.16421,610.5 1233.75,610.5 C1233.33579,610.5 1233,610.164214 1233,609.75 C1233,609.335786 1233.33579,609 1233.75,609 Z M1245.75,605 C1246.16421,605 1246.5,605.335786 1246.5,605.75 C1246.5,606.164214 1246.16421,606.5 1245.75,606.5 C1245.33579,606.5 1245,606.164214 1245,605.75 C1245,605.335786 1245.33579,605 1245.75,605 Z M1233.75,605 C1234.16421,605 1234.5,605.335786 1234.5,605.75 C1234.5,606.164214 1234.16421,606.5 1233.75,606.5 C1233.33579,606.5 1233,606.164214 1233,605.75 C1233,605.335786 1233.33579,605 1233.75,605 Z M1238.91835,581 C1243.75454,581 1247.80737,584.524778 1248.55394,589.363162 L1248.531,589.23 L1248.71516,589.188703 C1248.94101,589.14308 1249.16625,589.10877 1249.38998,589.085866 L1249.72432,589.060077 L1250.05571,589.051465 C1253.89118,589.051465 1257,592.212333 1257,596.08785 C1257,599.903926 1253.53739,603.1229 1249.63672,603.1229 L1249.63672,603.1229 L1228.71872,603.124132 C1225.55973,603.124132 1223,600.520177 1223,597.331263 C1223,594.143406 1225.55996,591.539677 1228.71872,591.539677 C1228.92147,591.539677 1229.12477,591.552187 1229.33772,591.575037 L1229.181,591.56 L1229.15884,591.1839 L1229.15312,590.90584 C1229.15312,585.44823 1233.52768,581 1238.91835,581 Z M1238.91835,582.473347 C1234.36527,582.473347 1230.64973,586.251456 1230.64973,590.90584 C1230.64973,590.943116 1230.65012,590.979937 1230.65093,591.017518 L1230.65093,591.017518 L1230.66127,591.261854 L1230.68383,591.582794 C1230.71663,591.980276 1230.573,592.373454 1230.28734,592.655439 C1229.99997,592.93911 1229.60094,593.079194 1229.18696,593.04085 C1229.01345,593.022296 1228.86277,593.013025 1228.71872,593.013025 C1226.39764,593.013025 1224.49662,594.946551 1224.49662,597.331263 C1224.49662,599.717087 1226.39747,601.650785 1228.71868,601.650785 L1228.71868,601.650785 L1249.63667,601.649553 C1252.72939,601.649553 1255.50338,599.070747 1255.50338,596.08785 C1255.50338,593.015589 1253.05362,590.524812 1250.05571,590.524812 C1249.633,590.524812 1249.19273,590.580849 1248.74436,590.693642 C1248.36873,590.786936 1247.97095,590.717143 1247.6524,590.499308 C1247.34019,590.286855 1247.1315,589.955514 1247.07428,589.584313 C1246.43755,585.457792 1243.00601,582.473347 1238.91835,582.473347 Z" id="313-冻雨"></path>
        </g>
    </g>
</svg>