<?xml version="1.0" encoding="UTF-8"?>
<svg width="34px" height="32px" viewBox="0 0 34 32" version="1.1" xmlns="http://www.w3.org/2000/svg" xmlns:xlink="http://www.w3.org/1999/xlink">
    <title>314-小雨到中雨</title>
    <g id="页面-1" stroke="none" stroke-width="1" fill="none" fill-rule="evenodd">
        <g id="画板" transform="translate(-1383.000000, -583.000000)" fill="#666666">
            <path d="M1389.67152,607.429554 C1389.99026,607.610526 1390.10908,607.996494 1389.93586,608.292204 L1386.18197,614.700538 C1386.00875,614.996248 1385.60991,615.088307 1385.29117,614.907335 C1384.97123,614.725683 1384.85361,614.340395 1385.02683,614.044685 L1388.78072,607.636351 C1388.95394,607.340641 1389.35158,607.247902 1389.67152,607.429554 Z M1409.90637,607.429554 C1410.22512,607.610526 1410.34393,607.996494 1410.17071,608.292204 L1406.41682,614.700538 C1406.2436,614.996248 1405.84477,615.088307 1405.52602,614.907335 C1405.20608,614.725683 1405.08846,614.340395 1405.26169,614.044685 L1409.01557,607.636351 C1409.18879,607.340641 1409.58643,607.247902 1409.90637,607.429554 Z M1403.16142,607.429554 C1403.48016,607.610526 1403.59898,607.996494 1403.42576,608.292204 L1399.67187,614.700538 C1399.49865,614.996248 1399.09981,615.088307 1398.78107,614.907335 C1398.46113,614.725683 1398.34351,614.340395 1398.51673,614.044685 L1402.27062,607.636351 C1402.44384,607.340641 1402.84148,607.247902 1403.16142,607.429554 Z M1398.91835,583 C1403.75454,583 1407.80737,586.524778 1408.55394,591.363162 L1408.531,591.23 L1408.71516,591.188703 C1408.94101,591.14308 1409.16625,591.10877 1409.38998,591.085866 L1409.72432,591.060077 L1410.05571,591.051465 C1413.89118,591.051465 1417,594.212333 1417,598.08785 C1417,601.903926 1413.53739,605.1229 1409.63672,605.1229 L1409.63672,605.1229 L1388.71872,605.124132 C1385.55973,605.124132 1383,602.520177 1383,599.331263 C1383,596.143406 1385.55996,593.539677 1388.71872,593.539677 C1388.92147,593.539677 1389.12477,593.552187 1389.33772,593.575037 L1389.181,593.56 L1389.15884,593.1839 L1389.15312,592.90584 C1389.15312,587.44823 1393.52768,583 1398.91835,583 Z M1398.91835,584.473347 C1394.36527,584.473347 1390.64973,588.251456 1390.64973,592.90584 C1390.64973,592.943116 1390.65012,592.979937 1390.65093,593.017518 L1390.65093,593.017518 L1390.66127,593.261854 L1390.68383,593.582794 C1390.71663,593.980276 1390.573,594.373454 1390.28734,594.655439 C1389.99997,594.93911 1389.60094,595.079194 1389.18696,595.04085 C1389.01345,595.022296 1388.86277,595.013025 1388.71872,595.013025 C1386.39764,595.013025 1384.49662,596.946551 1384.49662,599.331263 C1384.49662,601.717087 1386.39747,603.650785 1388.71868,603.650785 L1388.71868,603.650785 L1409.63667,603.649553 C1412.72939,603.649553 1415.50338,601.070747 1415.50338,598.08785 C1415.50338,595.015589 1413.05362,592.524812 1410.05571,592.524812 C1409.633,592.524812 1409.19273,592.580849 1408.74436,592.693642 C1408.36873,592.786936 1407.97095,592.717143 1407.6524,592.499308 C1407.34019,592.286855 1407.1315,591.955514 1407.07428,591.584313 C1406.43755,587.457792 1403.00601,584.473347 1398.91835,584.473347 Z" id="314-小雨到中雨"></path>
        </g>
    </g>
</svg>