<?xml version="1.0" encoding="UTF-8"?>
<svg width="34px" height="32px" viewBox="0 0 34 32" version="1.1" xmlns="http://www.w3.org/2000/svg" xmlns:xlink="http://www.w3.org/1999/xlink">
    <title>315-中到大雨</title>
    <g id="页面-1" stroke="none" stroke-width="1" fill="none" fill-rule="evenodd">
        <g id="画板" transform="translate(-101.000000, -745.000000)" fill="#666666">
            <path d="M107.671522,769.429554 C107.990264,769.610526 108.109082,769.996494 107.93586,770.292204 L104.181973,776.700538 C104.008751,776.996248 103.609913,777.088307 103.291172,776.907335 C102.971232,776.725683 102.853612,776.340395 103.026834,776.044685 L106.780721,769.636351 C106.953943,769.340641 107.351582,769.247902 107.671522,769.429554 Z M111.918492,769.429554 C112.237234,769.610526 112.356052,769.996494 112.18283,770.292204 L108.428943,776.700538 C108.255721,776.996248 107.856884,777.088307 107.538142,776.907335 C107.218202,776.725683 107.100582,776.340395 107.273804,776.044685 L111.027691,769.636351 C111.200913,769.340641 111.598552,769.247902 111.918492,769.429554 Z M128.906374,769.429554 C129.225115,769.610526 129.343933,769.996494 129.170712,770.292204 L125.416824,776.700538 C125.243603,776.996248 124.844765,777.088307 124.526023,776.907335 C124.206083,776.725683 124.088464,776.340395 124.261685,776.044685 L128.015573,769.636351 C128.188794,769.340641 128.586434,769.247902 128.906374,769.429554 Z M120.412433,769.429554 C120.731175,769.610526 120.849993,769.996494 120.676771,770.292204 L116.922884,776.700538 C116.749662,776.996248 116.350824,777.088307 116.032083,776.907335 C115.712143,776.725683 115.594523,776.340395 115.767745,776.044685 L119.521632,769.636351 C119.694854,769.340641 120.092493,769.247902 120.412433,769.429554 Z M124.659403,769.429554 C124.978145,769.610526 125.096963,769.996494 124.923741,770.292204 L121.169854,776.700538 C120.996632,776.996248 120.597795,777.088307 120.279053,776.907335 C119.959113,776.725683 119.841493,776.340395 120.014715,776.044685 L123.768602,769.636351 C123.941824,769.340641 124.339463,769.247902 124.659403,769.429554 Z M116.918348,745 C121.754545,745 125.807371,748.524778 126.553943,753.363162 L126.531,753.23 L126.715159,753.188703 C126.941011,753.14308 127.166253,753.10877 127.38998,753.085866 L127.724322,753.060077 L128.055712,753.051465 C131.891179,753.051465 135,756.212333 135,760.08785 C135,763.903926 131.53739,767.1229 127.636717,767.1229 L127.636717,767.1229 L106.718723,767.124132 C103.559732,767.124132 101,764.520177 101,761.331263 C101,758.143406 103.559957,755.539677 106.718723,755.539677 C106.921471,755.539677 107.124774,755.552187 107.337718,755.575037 L107.181,755.56 L107.158839,755.1839 L107.153116,754.90584 C107.153116,749.44823 111.527679,745 116.918348,745 Z M116.918348,746.473347 C112.365272,746.473347 108.649733,750.251456 108.649733,754.90584 C108.649733,754.943116 108.65012,754.979937 108.650934,755.017518 L108.650934,755.017518 L108.661273,755.261854 L108.683828,755.582794 C108.716633,755.980276 108.573001,756.373454 108.287339,756.655439 C107.999969,756.93911 107.600941,757.079194 107.186957,757.04085 C107.013448,757.022296 106.862769,757.013025 106.718723,757.013025 C104.397639,757.013025 102.496617,758.946551 102.496617,761.331263 C102.496617,763.717087 104.397474,765.650785 106.718679,765.650785 L106.718679,765.650785 L127.636673,765.649553 C130.729394,765.649553 133.503383,763.070747 133.503383,760.08785 C133.503383,757.015589 131.053619,754.524812 128.055712,754.524812 C127.633003,754.524812 127.192732,754.580849 126.744359,754.693642 C126.368726,754.786936 125.970946,754.717143 125.652396,754.499308 C125.340191,754.286855 125.131497,753.955514 125.074281,753.584313 C124.437551,749.457792 121.006006,746.473347 116.918348,746.473347 Z" id="315-中到大雨"></path>
        </g>
    </g>
</svg>