<?xml version="1.0" encoding="UTF-8"?>
<svg width="34px" height="34px" viewBox="0 0 34 34" version="1.1" xmlns="http://www.w3.org/2000/svg" xmlns:xlink="http://www.w3.org/1999/xlink">
    <title>316-大到暴雨</title>
    <g id="页面-1" stroke="none" stroke-width="1" fill="none" fill-rule="evenodd">
        <g id="画板" transform="translate(-263.000000, -741.000000)" fill="#666666">
            <path d="M280.75,765 C281.164214,765 281.5,765.335786 281.5,765.75 L281.5,774.25 C281.5,774.664214 281.164214,775 280.75,775 C280.335786,775 280,774.664214 280,774.25 L280,765.75 C280,765.335786 280.335786,765 280.75,765 Z M286.75,765 C287.164214,765 287.5,765.335786 287.5,765.75 L287.5,774.25 C287.5,774.664214 287.164214,775 286.75,775 C286.335786,775 286,774.664214 286,774.25 L286,765.75 C286,765.335786 286.335786,765 286.75,765 Z M274.526457,765.102223 C274.926557,765.209429 275.163994,765.620682 275.056787,766.020781 L273.374463,772.299299 C273.267257,772.699399 272.856004,772.936835 272.455905,772.829629 C272.055805,772.722423 271.818368,772.31117 271.925575,771.91107 L273.607898,765.632553 C273.715105,765.232453 274.126358,764.995016 274.526457,765.102223 Z M268.526457,765.102223 C268.926557,765.209429 269.163994,765.620682 269.056787,766.020781 L267.374463,772.299299 C267.267257,772.699399 266.856004,772.936835 266.455905,772.829629 C266.055805,772.722423 265.818368,772.31117 265.925575,771.91107 L267.607898,765.632553 C267.715105,765.232453 268.126358,764.995016 268.526457,765.102223 Z M292.75,765 C293.164214,765 293.5,765.335786 293.5,765.75 L293.5,770.25 C293.5,770.664214 293.164214,771 292.75,771 C292.335786,771 292,770.664214 292,770.25 L292,765.75 C292,765.335786 292.335786,765 292.75,765 Z M278.918348,741 C283.754545,741 287.807371,744.524778 288.553943,749.363162 L288.531,749.23 L288.715159,749.188703 C288.941011,749.14308 289.166253,749.10877 289.38998,749.085866 L289.724322,749.060077 L290.055712,749.051465 C293.891179,749.051465 297,752.212333 297,756.08785 C297,759.903926 293.53739,763.1229 289.636717,763.1229 L289.636717,763.1229 L268.718723,763.124132 C265.559732,763.124132 263,760.520177 263,757.331263 C263,754.143406 265.559957,751.539677 268.718723,751.539677 C268.921471,751.539677 269.124774,751.552187 269.337718,751.575037 L269.181,751.56 L269.158839,751.1839 L269.153116,750.90584 C269.153116,745.44823 273.527679,741 278.918348,741 Z M278.918348,742.473347 C274.365272,742.473347 270.649733,746.251456 270.649733,750.90584 C270.649733,750.943116 270.65012,750.979937 270.650934,751.017518 L270.650934,751.017518 L270.661273,751.261854 L270.683828,751.582794 C270.716633,751.980276 270.573001,752.373454 270.287339,752.655439 C269.999969,752.93911 269.600941,753.079194 269.186957,753.04085 C269.013448,753.022296 268.862769,753.013025 268.718723,753.013025 C266.397639,753.013025 264.496617,754.946551 264.496617,757.331263 C264.496617,759.717087 266.397474,761.650785 268.718679,761.650785 L268.718679,761.650785 L289.636673,761.649553 C292.729394,761.649553 295.503383,759.070747 295.503383,756.08785 C295.503383,753.015589 293.053619,750.524812 290.055712,750.524812 C289.633003,750.524812 289.192732,750.580849 288.744359,750.693642 C288.368726,750.786936 287.970946,750.717143 287.652396,750.499308 C287.340191,750.286855 287.131497,749.955514 287.074281,749.584313 C286.437551,745.457792 283.006006,742.473347 278.918348,742.473347 Z" id="316-大到暴雨"></path>
        </g>
    </g>
</svg>