<?xml version="1.0" encoding="UTF-8"?>
<svg width="34px" height="34px" viewBox="0 0 34 34" version="1.1" xmlns="http://www.w3.org/2000/svg" xmlns:xlink="http://www.w3.org/1999/xlink">
    <title>317-暴雨到大暴雨</title>
    <g id="页面-1" stroke="none" stroke-width="1" fill="none" fill-rule="evenodd">
        <g id="画板" transform="translate(-423.000000, -741.000000)" fill="#666666">
            <path d="M452.75,765 C453.164214,765 453.5,765.335786 453.5,765.75 L453.5,774.25 C453.5,774.664214 453.164214,775 452.75,775 C452.335786,775 452,774.664214 452,774.25 L452,765.75 C452,765.335786 452.335786,765 452.75,765 Z M432.75,765 C433.164214,765 433.5,765.335786 433.5,765.75 L433.5,774.25 C433.5,774.664214 433.164214,775 432.75,775 C432.335786,775 432,774.664214 432,774.25 L432,765.75 C432,765.335786 432.335786,765 432.75,765 Z M440.75,765 C441.164214,765 441.5,765.335786 441.5,765.75 L441.5,774.25 C441.5,774.664214 441.164214,775 440.75,775 C440.335786,775 440,774.664214 440,774.25 L440,765.75 C440,765.335786 440.335786,765 440.75,765 Z M446.75,765 C447.164214,765 447.5,765.335786 447.5,765.75 L447.5,774.25 C447.5,774.664214 447.164214,775 446.75,775 C446.335786,775 446,774.664214 446,774.25 L446,765.75 C446,765.335786 446.335786,765 446.75,765 Z M426.75,765 C427.164214,765 427.5,765.335786 427.5,765.75 L427.5,770.25 C427.5,770.664214 427.164214,771 426.75,771 C426.335786,771 426,770.664214 426,770.25 L426,765.75 C426,765.335786 426.335786,765 426.75,765 Z M438.918348,741 C443.754545,741 447.807371,744.524778 448.553943,749.363162 L448.531,749.23 L448.715159,749.188703 C448.941011,749.14308 449.166253,749.10877 449.38998,749.085866 L449.724322,749.060077 L450.055712,749.051465 C453.891179,749.051465 457,752.212333 457,756.08785 C457,759.903926 453.53739,763.1229 449.636717,763.1229 L449.636717,763.1229 L428.718723,763.124132 C425.559732,763.124132 423,760.520177 423,757.331263 C423,754.143406 425.559957,751.539677 428.718723,751.539677 C428.921471,751.539677 429.124774,751.552187 429.337718,751.575037 L429.181,751.56 L429.158839,751.1839 L429.153116,750.90584 C429.153116,745.44823 433.527679,741 438.918348,741 Z M438.918348,742.473347 C434.365272,742.473347 430.649733,746.251456 430.649733,750.90584 C430.649733,750.943116 430.65012,750.979937 430.650934,751.017518 L430.650934,751.017518 L430.661273,751.261854 L430.683828,751.582794 C430.716633,751.980276 430.573001,752.373454 430.287339,752.655439 C429.999969,752.93911 429.600941,753.079194 429.186957,753.04085 C429.013448,753.022296 428.862769,753.013025 428.718723,753.013025 C426.397639,753.013025 424.496617,754.946551 424.496617,757.331263 C424.496617,759.717087 426.397474,761.650785 428.718679,761.650785 L428.718679,761.650785 L449.636673,761.649553 C452.729394,761.649553 455.503383,759.070747 455.503383,756.08785 C455.503383,753.015589 453.053619,750.524812 450.055712,750.524812 C449.633003,750.524812 449.192732,750.580849 448.744359,750.693642 C448.368726,750.786936 447.970946,750.717143 447.652396,750.499308 C447.340191,750.286855 447.131497,749.955514 447.074281,749.584313 C446.437551,745.457792 443.006006,742.473347 438.918348,742.473347 Z" id="317-暴雨到大暴雨"></path>
        </g>
    </g>
</svg>