<?xml version="1.0" encoding="UTF-8"?>
<svg width="34px" height="34px" viewBox="0 0 34 34" version="1.1" xmlns="http://www.w3.org/2000/svg" xmlns:xlink="http://www.w3.org/1999/xlink">
    <title>318-大暴雨到特大暴雨</title>
    <g id="页面-1" stroke="none" stroke-width="1" fill="none" fill-rule="evenodd">
        <g id="画板" transform="translate(-583.000000, -741.000000)" fill="#666666">
            <path d="M612.75,765 C613.164214,765 613.5,765.335786 613.5,765.75 L613.5,774.25 C613.5,774.664214 613.164214,775 612.75,775 C612.335786,775 612,774.664214 612,774.25 L612,765.75 C612,765.335786 612.335786,765 612.75,765 Z M592.75,765 C593.164214,765 593.5,765.335786 593.5,765.75 L593.5,774.25 C593.5,774.664214 593.164214,775 592.75,775 C592.335786,775 592,774.664214 592,774.25 L592,765.75 C592,765.335786 592.335786,765 592.75,765 Z M600.75,765 C601.164214,765 601.5,765.335786 601.5,765.75 L601.5,774.25 C601.5,774.664214 601.164214,775 600.75,775 C600.335786,775 600,774.664214 600,774.25 L600,765.75 C600,765.335786 600.335786,765 600.75,765 Z M606.75,765 C607.164214,765 607.5,765.335786 607.5,765.75 L607.5,774.25 C607.5,774.664214 607.164214,775 606.75,775 C606.335786,775 606,774.664214 606,774.25 L606,765.75 C606,765.335786 606.335786,765 606.75,765 Z M586.75,765 C587.164214,765 587.5,765.335786 587.5,765.75 L587.5,770.25 C587.5,770.664214 587.164214,771 586.75,771 C586.335786,771 586,770.664214 586,770.25 L586,765.75 C586,765.335786 586.335786,765 586.75,765 Z M598.918348,741 C603.754545,741 607.807371,744.524778 608.553943,749.363162 L608.531,749.23 L608.715159,749.188703 C608.941011,749.14308 609.166253,749.10877 609.38998,749.085866 L609.724322,749.060077 L610.055712,749.051465 C613.891179,749.051465 617,752.212333 617,756.08785 C617,759.903926 613.53739,763.1229 609.636717,763.1229 L609.636717,763.1229 L588.718723,763.124132 C585.559732,763.124132 583,760.520177 583,757.331263 C583,754.143406 585.559957,751.539677 588.718723,751.539677 C588.921471,751.539677 589.124774,751.552187 589.337718,751.575037 L589.181,751.56 L589.158839,751.1839 L589.153116,750.90584 C589.153116,745.44823 593.527679,741 598.918348,741 Z M598.918348,742.473347 C594.365272,742.473347 590.649733,746.251456 590.649733,750.90584 C590.649733,750.943116 590.65012,750.979937 590.650934,751.017518 L590.650934,751.017518 L590.661273,751.261854 L590.683828,751.582794 C590.716633,751.980276 590.573001,752.373454 590.287339,752.655439 C589.999969,752.93911 589.600941,753.079194 589.186957,753.04085 C589.013448,753.022296 588.862769,753.013025 588.718723,753.013025 C586.397639,753.013025 584.496617,754.946551 584.496617,757.331263 C584.496617,759.717087 586.397474,761.650785 588.718679,761.650785 L588.718679,761.650785 L609.636673,761.649553 C612.729394,761.649553 615.503383,759.070747 615.503383,756.08785 C615.503383,753.015589 613.053619,750.524812 610.055712,750.524812 C609.633003,750.524812 609.192732,750.580849 608.744359,750.693642 C608.368726,750.786936 607.970946,750.717143 607.652396,750.499308 C607.340191,750.286855 607.131497,749.955514 607.074281,749.584313 C606.437551,745.457792 603.006006,742.473347 598.918348,742.473347 Z" id="318-大暴雨到特大暴雨"></path>
        </g>
    </g>
</svg>