<?xml version="1.0" encoding="UTF-8"?>
<svg width="47px" height="48px" viewBox="0 0 47 48" version="1.1" xmlns="http://www.w3.org/2000/svg" xmlns:xlink="http://www.w3.org/1999/xlink">
    <title>350-阵雨</title>
    <g id="页面-1" stroke="none" stroke-width="1" fill="none" fill-rule="evenodd">
        <g id="画板" transform="translate(-896.000000, -734.000000)" fill="#666666">
            <path d="M910.914414,768.593176 L934.259338,768.592009 C934.414285,768.592009 934.576276,768.592009 934.726997,768.609517 L934.726997,768.593526 C938.54011,768.593526 941.641873,765.380679 941.641873,761.431008 C941.641873,757.481336 938.54011,754.268489 934.726997,754.268489 C934.188908,754.268489 933.62828,754.340041 933.059201,754.485889 C932.874673,754.532579 932.678876,754.498962 932.519703,754.388074 C932.361938,754.278702 932.254884,754.106475 932.225303,753.910961 C931.453383,748.81447 927.276849,745.114297 922.297407,745.114297 C916.748884,745.114297 912.234284,749.79058 912.234284,755.539271 C912.234284,755.820869 912.254004,756.099549 912.275077,756.37677 C912.29198,756.585416 912.218732,756.791143 912.073645,756.937049 C911.928558,757.082955 911.728536,757.152989 911.527104,757.134022 C911.325673,757.112077 911.122832,757.097487 910.914358,757.097487 C907.856262,757.097487 905.367245,759.677102 905.367245,762.844719 C905.367245,766.013794 907.856262,768.593409 910.914358,768.593409 M929.25,772.669873 C929.608719,772.87698 929.731626,773.335673 929.524519,773.694392 L925.274519,781.055608 C925.067412,781.414327 924.608719,781.537234 924.25,781.330127 C923.891281,781.12302 923.768374,780.664327 923.975481,780.305608 L928.225481,772.944392 C928.432588,772.585673 928.891281,772.462766 929.25,772.669873 Z M919.25,772.669873 C919.608719,772.87698 919.731626,773.335673 919.524519,773.694392 L915.274519,781.055608 C915.067412,781.414327 914.608719,781.537234 914.25,781.330127 C913.891281,781.12302 913.768374,780.664327 913.975481,780.305608 L918.225481,772.944392 C918.432588,772.585673 918.891281,772.462766 919.25,772.669873 Z M922.297632,743.707707 C927.712336,743.707707 932.288916,747.562539 933.435526,752.971269 C933.873604,752.896916 934.304639,752.861898 934.727223,752.861898 C939.289716,752.861898 943,756.705059 943,761.430949 C943,766.155381 939.289716,770 934.727223,770 L933.363825,769.999056 C933.30532,769.999044 933.245161,769.999033 933.183392,769.999022 L928.553559,769.998833 L928.553559,769.998833 L910.914921,770 C907.107444,770 904.009906,766.790071 904.009906,762.844777 C904.009906,758.912614 907.086314,755.712899 910.878297,755.691013 L910.877734,755.690954 C910.877734,755.641346 910.876607,755.590221 910.876607,755.539212 C910.876607,749.015762 915.999728,743.707707 922.297632,743.707707 Z M910.164802,734.373048 C914.423107,735.202488 917.856918,738.328334 919.127746,742.439043 C919.233776,742.782012 919.041698,743.145997 918.698728,743.252027 C918.355759,743.358056 917.991773,743.165978 917.885744,742.823008 C916.785965,739.265588 913.864662,736.537196 910.222114,735.713414 L909.975901,735.661826 L910.028815,735.984279 C910.084071,736.363805 910.118234,736.732788 910.131861,737.098061 L910.138665,737.46235 C910.138665,743.270232 905.420313,747.995091 899.619217,747.995091 C899.089516,747.995091 898.548893,747.952126 898.006968,747.867313 L897.659901,747.807826 L897.705372,748.038253 C898.525474,751.988817 901.532719,755.089123 905.404053,756.045469 L905.688844,756.1116 C906.039629,756.187894 906.262147,756.534109 906.185853,756.884894 C906.109559,757.235678 905.763344,757.458196 905.41256,757.381902 C900.796238,756.377875 897.209829,752.682554 896.369759,747.977487 C896.295954,747.568927 896.42971,747.149733 896.724821,746.859336 C897.01993,746.567699 897.440069,746.440772 897.848237,746.519712 C898.445648,746.636186 899.041594,746.695091 899.619217,746.695091 C904.701941,746.695091 908.838665,742.552663 908.838665,737.46235 C908.838665,736.934993 908.789236,736.401625 908.687076,735.831323 C908.613257,735.423319 908.746142,735.003653 909.042179,734.711723 C909.337742,734.420877 909.757426,734.294139 910.164802,734.373048 Z" id="350-阵雨"></path>
        </g>
    </g>
</svg>