<?xml version="1.0" encoding="UTF-8"?>
<svg width="47px" height="48px" viewBox="0 0 47 48" version="1.1" xmlns="http://www.w3.org/2000/svg" xmlns:xlink="http://www.w3.org/1999/xlink">
    <title>351-强阵雨</title>
    <g id="页面-1" stroke="none" stroke-width="1" fill="none" fill-rule="evenodd">
        <g id="画板" transform="translate(-1054.000000, -734.000000)" fill="#666666">
            <path d="M1068.91441,768.593176 L1092.25934,768.592009 C1092.41429,768.592009 1092.57628,768.592009 1092.727,768.609517 L1092.727,768.593526 C1096.54011,768.593526 1099.64187,765.380679 1099.64187,761.431008 C1099.64187,757.481336 1096.54011,754.268489 1092.727,754.268489 C1092.18891,754.268489 1091.62828,754.340041 1091.0592,754.485889 C1090.87467,754.532579 1090.67888,754.498962 1090.5197,754.388074 C1090.36194,754.278702 1090.25488,754.106475 1090.2253,753.910961 C1089.45338,748.81447 1085.27685,745.114297 1080.29741,745.114297 C1074.74888,745.114297 1070.23428,749.79058 1070.23428,755.539271 C1070.23428,755.820869 1070.254,756.099549 1070.27508,756.37677 C1070.29198,756.585416 1070.21873,756.791143 1070.07365,756.937049 C1069.92856,757.082955 1069.72854,757.152989 1069.5271,757.134022 C1069.32567,757.112077 1069.12283,757.097487 1068.91436,757.097487 C1065.85626,757.097487 1063.36724,759.677102 1063.36724,762.844719 C1063.36724,766.013794 1065.85626,768.593409 1068.91436,768.593409 M1082.25,772.669873 C1082.60872,772.87698 1082.73163,773.335673 1082.52452,773.694392 L1078.27452,781.055608 C1078.06741,781.414327 1077.60872,781.537234 1077.25,781.330127 C1076.89128,781.12302 1076.76837,780.664327 1076.97548,780.305608 L1081.22548,772.944392 C1081.43259,772.585673 1081.89128,772.462766 1082.25,772.669873 Z M1092.25,772.669873 C1092.60872,772.87698 1092.73163,773.335673 1092.52452,773.694392 L1088.27452,781.055608 C1088.06741,781.414327 1087.60872,781.537234 1087.25,781.330127 C1086.89128,781.12302 1086.76837,780.664327 1086.97548,780.305608 L1091.22548,772.944392 C1091.43259,772.585673 1091.89128,772.462766 1092.25,772.669873 Z M1072.25,772.669873 C1072.60872,772.87698 1072.73163,773.335673 1072.52452,773.694392 L1068.27452,781.055608 C1068.06741,781.414327 1067.60872,781.537234 1067.25,781.330127 C1066.89128,781.12302 1066.76837,780.664327 1066.97548,780.305608 L1071.22548,772.944392 C1071.43259,772.585673 1071.89128,772.462766 1072.25,772.669873 Z M1080.29763,743.707707 C1085.71234,743.707707 1090.28892,747.562539 1091.43553,752.971269 C1091.8736,752.896916 1092.30464,752.861898 1092.72722,752.861898 C1097.28972,752.861898 1101,756.705059 1101,761.430949 C1101,766.155381 1097.28972,770 1092.72722,770 L1091.36382,769.999056 C1091.30532,769.999044 1091.24516,769.999033 1091.18339,769.999022 L1086.55356,769.998833 L1086.55356,769.998833 L1068.91492,770 C1065.10744,770 1062.00991,766.790071 1062.00991,762.844777 C1062.00991,758.912614 1065.08631,755.712899 1068.8783,755.691013 L1068.87773,755.690954 C1068.87773,755.641346 1068.87661,755.590221 1068.87661,755.539212 C1068.87661,749.015762 1073.99973,743.707707 1080.29763,743.707707 Z M1068.1648,734.373048 C1072.42311,735.202488 1075.85692,738.328334 1077.12775,742.439043 C1077.23378,742.782012 1077.0417,743.145997 1076.69873,743.252027 C1076.35576,743.358056 1075.99177,743.165978 1075.88574,742.823008 C1074.78597,739.265588 1071.86466,736.537196 1068.22211,735.713414 L1067.9759,735.661826 L1068.02881,735.984279 C1068.08407,736.363805 1068.11823,736.732788 1068.13186,737.098061 L1068.13866,737.46235 C1068.13866,743.270232 1063.42031,747.995091 1057.61922,747.995091 C1057.08952,747.995091 1056.54889,747.952126 1056.00697,747.867313 L1055.6599,747.807826 L1055.70537,748.038253 C1056.52547,751.988817 1059.53272,755.089123 1063.40405,756.045469 L1063.68884,756.1116 C1064.03963,756.187894 1064.26215,756.534109 1064.18585,756.884894 C1064.10956,757.235678 1063.76334,757.458196 1063.41256,757.381902 C1058.79624,756.377875 1055.20983,752.682554 1054.36976,747.977487 C1054.29595,747.568927 1054.42971,747.149733 1054.72482,746.859336 C1055.01993,746.567699 1055.44007,746.440772 1055.84824,746.519712 C1056.44565,746.636186 1057.04159,746.695091 1057.61922,746.695091 C1062.70194,746.695091 1066.83866,742.552663 1066.83866,737.46235 C1066.83866,736.934993 1066.78924,736.401625 1066.68708,735.831323 C1066.61326,735.423319 1066.74614,735.003653 1067.04218,734.711723 C1067.33774,734.420877 1067.75743,734.294139 1068.1648,734.373048 Z" id="351-强阵雨"></path>
        </g>
    </g>
</svg>