<?xml version="1.0" encoding="UTF-8"?>
<svg width="34px" height="34px" viewBox="0 0 34 34" version="1.1" xmlns="http://www.w3.org/2000/svg" xmlns:xlink="http://www.w3.org/1999/xlink">
    <title>399-雨</title>
    <g id="页面-1" stroke="none" stroke-width="1" fill="none" fill-rule="evenodd">
        <g id="画板" transform="translate(-743.000000, -741.000000)" fill="#666666">
            <path d="M772.75,765 C773.164214,765 773.5,765.335786 773.5,765.75 L773.5,774.25 C773.5,774.664214 773.164214,775 772.75,775 C772.335786,775 772,774.664214 772,774.25 L772,765.75 C772,765.335786 772.335786,765 772.75,765 Z M752.75,765 C753.164214,765 753.5,765.335786 753.5,765.75 L753.5,774.25 C753.5,774.664214 753.164214,775 752.75,775 C752.335786,775 752,774.664214 752,774.25 L752,765.75 C752,765.335786 752.335786,765 752.75,765 Z M747.75,765 C748.164214,765 748.5,765.335786 748.5,765.75 L748.5,774.25 C748.5,774.664214 748.164214,775 747.75,775 C747.335786,775 747,774.664214 747,774.25 L747,765.75 C747,765.335786 747.335786,765 747.75,765 Z M757.75,765 C758.164214,765 758.5,765.335786 758.5,765.75 L758.5,774.25 C758.5,774.664214 758.164214,775 757.75,775 C757.335786,775 757,774.664214 757,774.25 L757,765.75 C757,765.335786 757.335786,765 757.75,765 Z M762.75,765 C763.164214,765 763.5,765.335786 763.5,765.75 L763.5,774.25 C763.5,774.664214 763.164214,775 762.75,775 C762.335786,775 762,774.664214 762,774.25 L762,765.75 C762,765.335786 762.335786,765 762.75,765 Z M767.75,765 C768.164214,765 768.5,765.335786 768.5,765.75 L768.5,774.25 C768.5,774.664214 768.164214,775 767.75,775 C767.335786,775 767,774.664214 767,774.25 L767,765.75 C767,765.335786 767.335786,765 767.75,765 Z M758.918348,741 C763.754545,741 767.807371,744.524778 768.553943,749.363162 L768.531,749.23 L768.715159,749.188703 C768.941011,749.14308 769.166253,749.10877 769.38998,749.085866 L769.724322,749.060077 L770.055712,749.051465 C773.891179,749.051465 777,752.212333 777,756.08785 C777,759.903926 773.53739,763.1229 769.636717,763.1229 L769.636717,763.1229 L748.718723,763.124132 C745.559732,763.124132 743,760.520177 743,757.331263 C743,754.143406 745.559957,751.539677 748.718723,751.539677 C748.921471,751.539677 749.124774,751.552187 749.337718,751.575037 L749.181,751.56 L749.158839,751.1839 L749.153116,750.90584 C749.153116,745.44823 753.527679,741 758.918348,741 Z M758.918348,742.473347 C754.365272,742.473347 750.649733,746.251456 750.649733,750.90584 C750.649733,750.943116 750.65012,750.979937 750.650934,751.017518 L750.650934,751.017518 L750.661273,751.261854 L750.683828,751.582794 C750.716633,751.980276 750.573001,752.373454 750.287339,752.655439 C749.999969,752.93911 749.600941,753.079194 749.186957,753.04085 C749.013448,753.022296 748.862769,753.013025 748.718723,753.013025 C746.397639,753.013025 744.496617,754.946551 744.496617,757.331263 C744.496617,759.717087 746.397474,761.650785 748.718679,761.650785 L748.718679,761.650785 L769.636673,761.649553 C772.729394,761.649553 775.503383,759.070747 775.503383,756.08785 C775.503383,753.015589 773.053619,750.524812 770.055712,750.524812 C769.633003,750.524812 769.192732,750.580849 768.744359,750.693642 C768.368726,750.786936 767.970946,750.717143 767.652396,750.499308 C767.340191,750.286855 767.131497,749.955514 767.074281,749.584313 C766.437551,745.457792 763.006006,742.473347 758.918348,742.473347 Z" id="399-雨"></path>
        </g>
    </g>
</svg>