<?xml version="1.0" encoding="UTF-8"?>
<svg width="34px" height="35px" viewBox="0 0 34 35" version="1.1" xmlns="http://www.w3.org/2000/svg" xmlns:xlink="http://www.w3.org/1999/xlink">
    <title>400-小雪</title>
    <g id="页面-1" stroke="none" stroke-width="1" fill="none" fill-rule="evenodd">
        <g id="画板" transform="translate(-583.000000, -903.000000)" fill="#666666">
            <path d="M593.5,933 C593.914214,933 594.25,933.335786 594.25,933.75 L594.249,934.75 L595.25,934.75 C595.664214,934.75 596,935.085786 596,935.5 C596,935.914214 595.664214,936.25 595.25,936.25 L594.249,936.25 L594.25,937.25 C594.25,937.664214 593.914214,938 593.5,938 C593.085786,938 592.75,937.664214 592.75,937.25 L592.749,936.25 L591.75,936.25 C591.335786,936.25 591,935.914214 591,935.5 C591,935.085786 591.335786,934.75 591.75,934.75 L592.749,934.75 L592.75,933.75 C592.75,933.335786 593.085786,933 593.5,933 Z M599.5,927 C599.914214,927 600.25,927.335786 600.25,927.75 L600.249,928.75 L601.25,928.75 C601.664214,928.75 602,929.085786 602,929.5 C602,929.914214 601.664214,930.25 601.25,930.25 L600.249,930.25 L600.25,931.25 C600.25,931.664214 599.914214,932 599.5,932 C599.085786,932 598.75,931.664214 598.75,931.25 L598.749,930.25 L597.75,930.25 C597.335786,930.25 597,929.914214 597,929.5 C597,929.085786 597.335786,928.75 597.75,928.75 L598.749,928.75 L598.75,927.75 C598.75,927.335786 599.085786,927 599.5,927 Z M598.918348,903 C603.754545,903 607.807371,906.524778 608.553943,911.363162 L608.531,911.23 L608.715159,911.188703 C608.941011,911.14308 609.166253,911.10877 609.38998,911.085866 L609.724322,911.060077 L610.055712,911.051465 C613.891179,911.051465 617,914.212333 617,918.08785 C617,921.903926 613.53739,925.1229 609.636717,925.1229 L609.636717,925.1229 L588.718723,925.124132 C585.559732,925.124132 583,922.520177 583,919.331263 C583,916.143406 585.559957,913.539677 588.718723,913.539677 C588.921471,913.539677 589.124774,913.552187 589.337718,913.575037 L589.181,913.56 L589.158839,913.1839 L589.153116,912.90584 C589.153116,907.44823 593.527679,903 598.918348,903 Z M598.918348,904.473347 C594.365272,904.473347 590.649733,908.251456 590.649733,912.90584 C590.649733,912.943116 590.65012,912.979937 590.650934,913.017518 L590.650934,913.017518 L590.661273,913.261854 L590.683828,913.582794 C590.716633,913.980276 590.573001,914.373454 590.287339,914.655439 C589.999969,914.93911 589.600941,915.079194 589.186957,915.04085 C589.013448,915.022296 588.862769,915.013025 588.718723,915.013025 C586.397639,915.013025 584.496617,916.946551 584.496617,919.331263 C584.496617,921.717087 586.397474,923.650785 588.718679,923.650785 L588.718679,923.650785 L609.636673,923.649553 C612.729394,923.649553 615.503383,921.070747 615.503383,918.08785 C615.503383,915.015589 613.053619,912.524812 610.055712,912.524812 C609.633003,912.524812 609.192732,912.580849 608.744359,912.693642 C608.368726,912.786936 607.970946,912.717143 607.652396,912.499308 C607.340191,912.286855 607.131497,911.955514 607.074281,911.584313 C606.437551,907.457792 603.006006,904.473347 598.918348,904.473347 Z" id="400-小雪"></path>
        </g>
    </g>
</svg>