<?xml version="1.0" encoding="UTF-8"?>
<svg width="34px" height="35px" viewBox="0 0 34 35" version="1.1" xmlns="http://www.w3.org/2000/svg" xmlns:xlink="http://www.w3.org/1999/xlink">
    <title>401-中雪</title>
    <g id="页面-1" stroke="none" stroke-width="1" fill="none" fill-rule="evenodd">
        <g id="画板" transform="translate(-743.000000, -903.000000)" fill="#666666">
            <path d="M748.5,933 C748.914214,933 749.25,933.335786 749.25,933.75 L749.249,934.75 L750.25,934.75 C750.664214,934.75 751,935.085786 751,935.5 C751,935.914214 750.664214,936.25 750.25,936.25 L749.249,936.25 L749.25,937.25 C749.25,937.664214 748.914214,938 748.5,938 C748.085786,938 747.75,937.664214 747.75,937.25 L747.749,936.25 L746.75,936.25 C746.335786,936.25 746,935.914214 746,935.5 C746,935.085786 746.335786,934.75 746.75,934.75 L747.749,934.75 L747.75,933.75 C747.75,933.335786 748.085786,933 748.5,933 Z M760.5,933 C760.914214,933 761.25,933.335786 761.25,933.75 L761.249,934.75 L762.25,934.75 C762.664214,934.75 763,935.085786 763,935.5 C763,935.914214 762.664214,936.25 762.25,936.25 L761.249,936.25 L761.25,937.25 C761.25,937.664214 760.914214,938 760.5,938 C760.085786,938 759.75,937.664214 759.75,937.25 L759.749,936.25 L758.75,936.25 C758.335786,936.25 758,935.914214 758,935.5 C758,935.085786 758.335786,934.75 758.75,934.75 L759.749,934.75 L759.75,933.75 C759.75,933.335786 760.085786,933 760.5,933 Z M754.5,927 C754.914214,927 755.25,927.335786 755.25,927.75 L755.249,928.75 L756.25,928.75 C756.664214,928.75 757,929.085786 757,929.5 C757,929.914214 756.664214,930.25 756.25,930.25 L755.249,930.25 L755.25,931.25 C755.25,931.664214 754.914214,932 754.5,932 C754.085786,932 753.75,931.664214 753.75,931.25 L753.749,930.25 L752.75,930.25 C752.335786,930.25 752,929.914214 752,929.5 C752,929.085786 752.335786,928.75 752.75,928.75 L753.749,928.75 L753.75,927.75 C753.75,927.335786 754.085786,927 754.5,927 Z M766.5,927 C766.914214,927 767.25,927.335786 767.25,927.75 L767.249,928.75 L768.25,928.75 C768.664214,928.75 769,929.085786 769,929.5 C769,929.914214 768.664214,930.25 768.25,930.25 L767.249,930.25 L767.25,931.25 C767.25,931.664214 766.914214,932 766.5,932 C766.085786,932 765.75,931.664214 765.75,931.25 L765.749,930.25 L764.75,930.25 C764.335786,930.25 764,929.914214 764,929.5 C764,929.085786 764.335786,928.75 764.75,928.75 L765.749,928.75 L765.75,927.75 C765.75,927.335786 766.085786,927 766.5,927 Z M758.918348,903 C763.754545,903 767.807371,906.524778 768.553943,911.363162 L768.531,911.23 L768.715159,911.188703 C768.941011,911.14308 769.166253,911.10877 769.38998,911.085866 L769.724322,911.060077 L770.055712,911.051465 C773.891179,911.051465 777,914.212333 777,918.08785 C777,921.903926 773.53739,925.1229 769.636717,925.1229 L769.636717,925.1229 L748.718723,925.124132 C745.559732,925.124132 743,922.520177 743,919.331263 C743,916.143406 745.559957,913.539677 748.718723,913.539677 C748.921471,913.539677 749.124774,913.552187 749.337718,913.575037 L749.181,913.56 L749.158839,913.1839 L749.153116,912.90584 C749.153116,907.44823 753.527679,903 758.918348,903 Z M758.918348,904.473347 C754.365272,904.473347 750.649733,908.251456 750.649733,912.90584 C750.649733,912.943116 750.65012,912.979937 750.650934,913.017518 L750.650934,913.017518 L750.661273,913.261854 L750.683828,913.582794 C750.716633,913.980276 750.573001,914.373454 750.287339,914.655439 C749.999969,914.93911 749.600941,915.079194 749.186957,915.04085 C749.013448,915.022296 748.862769,915.013025 748.718723,915.013025 C746.397639,915.013025 744.496617,916.946551 744.496617,919.331263 C744.496617,921.717087 746.397474,923.650785 748.718679,923.650785 L748.718679,923.650785 L769.636673,923.649553 C772.729394,923.649553 775.503383,921.070747 775.503383,918.08785 C775.503383,915.015589 773.053619,912.524812 770.055712,912.524812 C769.633003,912.524812 769.192732,912.580849 768.744359,912.693642 C768.368726,912.786936 767.970946,912.717143 767.652396,912.499308 C767.340191,912.286855 767.131497,911.955514 767.074281,911.584313 C766.437551,907.457792 763.006006,904.473347 758.918348,904.473347 Z" id="401-中雪"></path>
        </g>
    </g>
</svg>