<?xml version="1.0" encoding="UTF-8"?>
<svg width="35px" height="35px" viewBox="0 0 35 35" version="1.1" xmlns="http://www.w3.org/2000/svg" xmlns:xlink="http://www.w3.org/1999/xlink">
    <title>402-大雪</title>
    <g id="页面-1" stroke="none" stroke-width="1" fill="none" fill-rule="evenodd">
        <g id="画板" transform="translate(-902.000000, -903.000000)" fill="#666666">
            <path d="M904.5,933 C904.914214,933 905.25,933.335786 905.25,933.75 L905.249,934.75 L906.25,934.75 C906.664214,934.75 907,935.085786 907,935.5 C907,935.914214 906.664214,936.25 906.25,936.25 L905.249,936.25 L905.25,937.25 C905.25,937.664214 904.914214,938 904.5,938 C904.085786,938 903.75,937.664214 903.75,937.25 L903.749,936.25 L902.75,936.25 C902.335786,936.25 902,935.914214 902,935.5 C902,935.085786 902.335786,934.75 902.75,934.75 L903.749,934.75 L903.75,933.75 C903.75,933.335786 904.085786,933 904.5,933 Z M913.5,933 C913.914214,933 914.25,933.335786 914.25,933.75 L914.249,934.75 L915.25,934.75 C915.664214,934.75 916,935.085786 916,935.5 C916,935.914214 915.664214,936.25 915.25,936.25 L914.249,936.25 L914.25,937.25 C914.25,937.664214 913.914214,938 913.5,938 C913.085786,938 912.75,937.664214 912.75,937.25 L912.749,936.25 L911.75,936.25 C911.335786,936.25 911,935.914214 911,935.5 C911,935.085786 911.335786,934.75 911.75,934.75 L912.749,934.75 L912.75,933.75 C912.75,933.335786 913.085786,933 913.5,933 Z M922.5,933 C922.914214,933 923.25,933.335786 923.25,933.75 L923.249,934.75 L924.25,934.75 C924.664214,934.75 925,935.085786 925,935.5 C925,935.914214 924.664214,936.25 924.25,936.25 L923.249,936.25 L923.25,937.25 C923.25,937.664214 922.914214,938 922.5,938 C922.085786,938 921.75,937.664214 921.75,937.25 L921.749,936.25 L920.75,936.25 C920.335786,936.25 920,935.914214 920,935.5 C920,935.085786 920.335786,934.75 920.75,934.75 L921.749,934.75 L921.75,933.75 C921.75,933.335786 922.085786,933 922.5,933 Z M910.5,927 C910.914214,927 911.25,927.335786 911.25,927.75 L911.249,928.75 L912.25,928.75 C912.664214,928.75 913,929.085786 913,929.5 C913,929.914214 912.664214,930.25 912.25,930.25 L911.249,930.25 L911.25,931.25 C911.25,931.664214 910.914214,932 910.5,932 C910.085786,932 909.75,931.664214 909.75,931.25 L909.749,930.25 L908.75,930.25 C908.335786,930.25 908,929.914214 908,929.5 C908,929.085786 908.335786,928.75 908.75,928.75 L909.749,928.75 L909.75,927.75 C909.75,927.335786 910.085786,927 910.5,927 Z M919.5,927 C919.914214,927 920.25,927.335786 920.25,927.75 L920.249,928.75 L921.25,928.75 C921.664214,928.75 922,929.085786 922,929.5 C922,929.914214 921.664214,930.25 921.25,930.25 L920.249,930.25 L920.25,931.25 C920.25,931.664214 919.914214,932 919.5,932 C919.085786,932 918.75,931.664214 918.75,931.25 L918.749,930.25 L917.75,930.25 C917.335786,930.25 917,929.914214 917,929.5 C917,929.085786 917.335786,928.75 917.75,928.75 L918.749,928.75 L918.75,927.75 C918.75,927.335786 919.085786,927 919.5,927 Z M928.5,927 C928.914214,927 929.25,927.335786 929.25,927.75 L929.249,928.75 L930.25,928.75 C930.664214,928.75 931,929.085786 931,929.5 C931,929.914214 930.664214,930.25 930.25,930.25 L929.249,930.25 L929.25,931.25 C929.25,931.664214 928.914214,932 928.5,932 C928.085786,932 927.75,931.664214 927.75,931.25 L927.749,930.25 L926.75,930.25 C926.335786,930.25 926,929.914214 926,929.5 C926,929.085786 926.335786,928.75 926.75,928.75 L927.749,928.75 L927.75,927.75 C927.75,927.335786 928.085786,927 928.5,927 Z M918.918348,903 C923.754545,903 927.807371,906.524778 928.553943,911.363162 L928.531,911.23 L928.715159,911.188703 C928.941011,911.14308 929.166253,911.10877 929.38998,911.085866 L929.724322,911.060077 L930.055712,911.051465 C933.891179,911.051465 937,914.212333 937,918.08785 C937,921.903926 933.53739,925.1229 929.636717,925.1229 L929.636717,925.1229 L908.718723,925.124132 C905.559732,925.124132 903,922.520177 903,919.331263 C903,916.143406 905.559957,913.539677 908.718723,913.539677 C908.921471,913.539677 909.124774,913.552187 909.337718,913.575037 L909.181,913.56 L909.158839,913.1839 L909.153116,912.90584 C909.153116,907.44823 913.527679,903 918.918348,903 Z M918.918348,904.473347 C914.365272,904.473347 910.649733,908.251456 910.649733,912.90584 C910.649733,912.943116 910.65012,912.979937 910.650934,913.017518 L910.650934,913.017518 L910.661273,913.261854 L910.683828,913.582794 C910.716633,913.980276 910.573001,914.373454 910.287339,914.655439 C909.999969,914.93911 909.600941,915.079194 909.186957,915.04085 C909.013448,915.022296 908.862769,915.013025 908.718723,915.013025 C906.397639,915.013025 904.496617,916.946551 904.496617,919.331263 C904.496617,921.717087 906.397474,923.650785 908.718679,923.650785 L908.718679,923.650785 L929.636673,923.649553 C932.729394,923.649553 935.503383,921.070747 935.503383,918.08785 C935.503383,915.015589 933.053619,912.524812 930.055712,912.524812 C929.633003,912.524812 929.192732,912.580849 928.744359,912.693642 C928.368726,912.786936 927.970946,912.717143 927.652396,912.499308 C927.340191,912.286855 927.131497,911.955514 927.074281,911.584313 C926.437551,907.457792 923.006006,904.473347 918.918348,904.473347 Z" id="402-大雪"></path>
        </g>
    </g>
</svg>