<?xml version="1.0" encoding="UTF-8"?>
<svg width="36px" height="35px" viewBox="0 0 36 35" version="1.1" xmlns="http://www.w3.org/2000/svg" xmlns:xlink="http://www.w3.org/1999/xlink">
    <title>403-暴雪</title>
    <g id="页面-1" stroke="none" stroke-width="1" fill="none" fill-rule="evenodd">
        <g id="画板" transform="translate(-1062.000000, -903.000000)" fill="#666666">
            <path d="M1064.5,933 C1064.91421,933 1065.25,933.335786 1065.25,933.75 L1065.249,934.75 L1066.25,934.75 C1066.66421,934.75 1067,935.085786 1067,935.5 C1067,935.914214 1066.66421,936.25 1066.25,936.25 L1065.249,936.25 L1065.25,937.25 C1065.25,937.664214 1064.91421,938 1064.5,938 C1064.08579,938 1063.75,937.664214 1063.75,937.25 L1063.749,936.25 L1062.75,936.25 C1062.33579,936.25 1062,935.914214 1062,935.5 C1062,935.085786 1062.33579,934.75 1062.75,934.75 L1063.749,934.75 L1063.75,933.75 C1063.75,933.335786 1064.08579,933 1064.5,933 Z M1071.5,933 C1071.91421,933 1072.25,933.335786 1072.25,933.75 L1072.249,934.75 L1073.25,934.75 C1073.66421,934.75 1074,935.085786 1074,935.5 C1074,935.914214 1073.66421,936.25 1073.25,936.25 L1072.249,936.25 L1072.25,937.25 C1072.25,937.664214 1071.91421,938 1071.5,938 C1071.08579,938 1070.75,937.664214 1070.75,937.25 L1070.749,936.25 L1069.75,936.25 C1069.33579,936.25 1069,935.914214 1069,935.5 C1069,935.085786 1069.33579,934.75 1069.75,934.75 L1070.749,934.75 L1070.75,933.75 C1070.75,933.335786 1071.08579,933 1071.5,933 Z M1078.5,933 C1078.91421,933 1079.25,933.335786 1079.25,933.75 L1079.249,934.75 L1080.25,934.75 C1080.66421,934.75 1081,935.085786 1081,935.5 C1081,935.914214 1080.66421,936.25 1080.25,936.25 L1079.249,936.25 L1079.25,937.25 C1079.25,937.664214 1078.91421,938 1078.5,938 C1078.08579,938 1077.75,937.664214 1077.75,937.25 L1077.749,936.25 L1076.75,936.25 C1076.33579,936.25 1076,935.914214 1076,935.5 C1076,935.085786 1076.33579,934.75 1076.75,934.75 L1077.749,934.75 L1077.75,933.75 C1077.75,933.335786 1078.08579,933 1078.5,933 Z M1085.5,933 C1085.91421,933 1086.25,933.335786 1086.25,933.75 L1086.249,934.75 L1087.25,934.75 C1087.66421,934.75 1088,935.085786 1088,935.5 C1088,935.914214 1087.66421,936.25 1087.25,936.25 L1086.249,936.25 L1086.25,937.25 C1086.25,937.664214 1085.91421,938 1085.5,938 C1085.08579,938 1084.75,937.664214 1084.75,937.25 L1084.749,936.25 L1083.75,936.25 C1083.33579,936.25 1083,935.914214 1083,935.5 C1083,935.085786 1083.33579,934.75 1083.75,934.75 L1084.749,934.75 L1084.75,933.75 C1084.75,933.335786 1085.08579,933 1085.5,933 Z M1070.5,927 C1070.91421,927 1071.25,927.335786 1071.25,927.75 L1071.249,928.75 L1072.25,928.75 C1072.66421,928.75 1073,929.085786 1073,929.5 C1073,929.914214 1072.66421,930.25 1072.25,930.25 L1071.249,930.25 L1071.25,931.25 C1071.25,931.664214 1070.91421,932 1070.5,932 C1070.08579,932 1069.75,931.664214 1069.75,931.25 L1069.749,930.25 L1068.75,930.25 C1068.33579,930.25 1068,929.914214 1068,929.5 C1068,929.085786 1068.33579,928.75 1068.75,928.75 L1069.749,928.75 L1069.75,927.75 C1069.75,927.335786 1070.08579,927 1070.5,927 Z M1077.5,927 C1077.91421,927 1078.25,927.335786 1078.25,927.75 L1078.249,928.75 L1079.25,928.75 C1079.66421,928.75 1080,929.085786 1080,929.5 C1080,929.914214 1079.66421,930.25 1079.25,930.25 L1078.249,930.25 L1078.25,931.25 C1078.25,931.664214 1077.91421,932 1077.5,932 C1077.08579,932 1076.75,931.664214 1076.75,931.25 L1076.749,930.25 L1075.75,930.25 C1075.33579,930.25 1075,929.914214 1075,929.5 C1075,929.085786 1075.33579,928.75 1075.75,928.75 L1076.749,928.75 L1076.75,927.75 C1076.75,927.335786 1077.08579,927 1077.5,927 Z M1084.5,927 C1084.91421,927 1085.25,927.335786 1085.25,927.75 L1085.249,928.75 L1086.25,928.75 C1086.66421,928.75 1087,929.085786 1087,929.5 C1087,929.914214 1086.66421,930.25 1086.25,930.25 L1085.249,930.25 L1085.25,931.25 C1085.25,931.664214 1084.91421,932 1084.5,932 C1084.08579,932 1083.75,931.664214 1083.75,931.25 L1083.749,930.25 L1082.75,930.25 C1082.33579,930.25 1082,929.914214 1082,929.5 C1082,929.085786 1082.33579,928.75 1082.75,928.75 L1083.749,928.75 L1083.75,927.75 C1083.75,927.335786 1084.08579,927 1084.5,927 Z M1091.5,927 C1091.91421,927 1092.25,927.335786 1092.25,927.75 L1092.249,928.75 L1093.25,928.75 C1093.66421,928.75 1094,929.085786 1094,929.5 C1094,929.914214 1093.66421,930.25 1093.25,930.25 L1092.249,930.25 L1092.25,931.25 C1092.25,931.664214 1091.91421,932 1091.5,932 C1091.08579,932 1090.75,931.664214 1090.75,931.25 L1090.749,930.25 L1089.75,930.25 C1089.33579,930.25 1089,929.914214 1089,929.5 C1089,929.085786 1089.33579,928.75 1089.75,928.75 L1090.749,928.75 L1090.75,927.75 C1090.75,927.335786 1091.08579,927 1091.5,927 Z M1079.91835,903 C1084.75454,903 1088.80737,906.524778 1089.55394,911.363162 L1089.531,911.23 L1089.71516,911.188703 C1089.94101,911.14308 1090.16625,911.10877 1090.38998,911.085866 L1090.72432,911.060077 L1091.05571,911.051465 C1094.89118,911.051465 1098,914.212333 1098,918.08785 C1098,921.903926 1094.53739,925.1229 1090.63672,925.1229 L1090.63672,925.1229 L1069.71872,925.124132 C1066.55973,925.124132 1064,922.520177 1064,919.331263 C1064,916.143406 1066.55996,913.539677 1069.71872,913.539677 C1069.92147,913.539677 1070.12477,913.552187 1070.33772,913.575037 L1070.181,913.56 L1070.15884,913.1839 L1070.15312,912.90584 C1070.15312,907.44823 1074.52768,903 1079.91835,903 Z M1079.91835,904.473347 C1075.36527,904.473347 1071.64973,908.251456 1071.64973,912.90584 C1071.64973,912.943116 1071.65012,912.979937 1071.65093,913.017518 L1071.65093,913.017518 L1071.66127,913.261854 L1071.68383,913.582794 C1071.71663,913.980276 1071.573,914.373454 1071.28734,914.655439 C1070.99997,914.93911 1070.60094,915.079194 1070.18696,915.04085 C1070.01345,915.022296 1069.86277,915.013025 1069.71872,915.013025 C1067.39764,915.013025 1065.49662,916.946551 1065.49662,919.331263 C1065.49662,921.717087 1067.39747,923.650785 1069.71868,923.650785 L1069.71868,923.650785 L1090.63667,923.649553 C1093.72939,923.649553 1096.50338,921.070747 1096.50338,918.08785 C1096.50338,915.015589 1094.05362,912.524812 1091.05571,912.524812 C1090.633,912.524812 1090.19273,912.580849 1089.74436,912.693642 C1089.36873,912.786936 1088.97095,912.717143 1088.6524,912.499308 C1088.34019,912.286855 1088.1315,911.955514 1088.07428,911.584313 C1087.43755,907.457792 1084.00601,904.473347 1079.91835,904.473347 Z" id="403-暴雪"></path>
        </g>
    </g>
</svg>