<?xml version="1.0" encoding="UTF-8"?>
<svg width="39px" height="39px" viewBox="0 0 39 39" version="1.1" xmlns="http://www.w3.org/2000/svg" xmlns:xlink="http://www.w3.org/1999/xlink">
    <title>404-雨夹雪</title>
    <g id="页面-1" stroke="none" stroke-width="1" fill="none" fill-rule="evenodd">
        <g id="画板" transform="translate(-1220.000000, -900.000000)" fill="#666666">
            <path d="M1226.91441,925.593176 L1250.25934,925.592009 C1250.41429,925.592009 1250.57628,925.592009 1250.727,925.609517 L1250.727,925.593526 C1254.54011,925.593526 1257.64187,922.380679 1257.64187,918.431008 C1257.64187,914.481336 1254.54011,911.268489 1250.727,911.268489 C1250.18891,911.268489 1249.62828,911.340041 1249.0592,911.485889 C1248.87467,911.532579 1248.67888,911.498962 1248.5197,911.388074 C1248.36194,911.278702 1248.25488,911.106475 1248.2253,910.910961 C1247.45338,905.81447 1243.27685,902.114297 1238.29741,902.114297 C1232.74888,902.114297 1228.23428,906.79058 1228.23428,912.539271 C1228.23428,912.820869 1228.254,913.099549 1228.27508,913.37677 C1228.29198,913.585416 1228.21873,913.791143 1228.07365,913.937049 C1227.92856,914.082955 1227.72854,914.152989 1227.5271,914.134022 C1227.32567,914.112077 1227.12283,914.097487 1226.91436,914.097487 C1223.85626,914.097487 1221.36724,916.677102 1221.36724,919.844719 C1221.36724,923.013794 1223.85626,925.593409 1226.91436,925.593409 M1234.75,934 C1235.16421,934 1235.5,934.335786 1235.5,934.75 L1235.49991,935.749707 L1236.5,935.75 C1236.91421,935.75 1237.25,936.085786 1237.25,936.5 C1237.25,936.914214 1236.91421,937.25 1236.5,937.25 L1235.49991,937.249707 L1235.5,938.25 C1235.5,938.664214 1235.16421,939 1234.75,939 C1234.33579,939 1234,938.664214 1234,938.25 L1233.99991,937.249707 L1233,937.25 C1232.58579,937.25 1232.25,936.914214 1232.25,936.5 C1232.25,936.085786 1232.58579,935.75 1233,935.75 L1233.99991,935.749707 L1234,934.75 C1234,934.335786 1234.33579,934 1234.75,934 Z M1250.25,929.669873 C1250.60872,929.87698 1250.73163,930.335673 1250.52452,930.694392 L1246.27452,938.055608 C1246.06741,938.414327 1245.60872,938.537234 1245.25,938.330127 C1244.89128,938.12302 1244.76837,937.664327 1244.97548,937.305608 L1249.22548,929.944392 C1249.43259,929.585673 1249.89128,929.462766 1250.25,929.669873 Z M1230.25,929.669873 C1230.60872,929.87698 1230.73163,930.335673 1230.52452,930.694392 L1226.27452,938.055608 C1226.06741,938.414327 1225.60872,938.537234 1225.25,938.330127 C1224.89128,938.12302 1224.76837,937.664327 1224.97548,937.305608 L1229.22548,929.944392 C1229.43259,929.585673 1229.89128,929.462766 1230.25,929.669873 Z M1239.75,929 C1240.16421,929 1240.5,929.335786 1240.5,929.75 L1240.49991,930.749707 L1241.5,930.75 C1241.91421,930.75 1242.25,931.085786 1242.25,931.5 C1242.25,931.914214 1241.91421,932.25 1241.5,932.25 L1240.49991,932.249707 L1240.5,933.25 C1240.5,933.664214 1240.16421,934 1239.75,934 C1239.33579,934 1239,933.664214 1239,933.25 L1238.99991,932.249707 L1238,932.25 C1237.58579,932.25 1237.25,931.914214 1237.25,931.5 C1237.25,931.085786 1237.58579,930.75 1238,930.75 L1238.99991,930.749707 L1239,929.75 C1239,929.335786 1239.33579,929 1239.75,929 Z M1238.29763,900.707707 C1243.71234,900.707707 1248.28892,904.562539 1249.43553,909.971269 C1249.8736,909.896916 1250.30464,909.861898 1250.72722,909.861898 C1255.28972,909.861898 1259,913.705059 1259,918.430949 C1259,923.155381 1255.28972,927 1250.72722,927 L1250.63185,926.99971 C1250.61537,926.99968 1250.59673,926.999652 1250.57597,926.999625 L1244.55356,926.998833 L1244.55356,926.998833 L1226.91492,927 C1223.10744,927 1220.00991,923.790071 1220.00991,919.844777 C1220.00991,915.912614 1223.08631,912.712899 1226.8783,912.691013 L1226.87773,912.690954 C1226.87773,912.641346 1226.87661,912.590221 1226.87661,912.539212 C1226.87661,906.015762 1231.99973,900.707707 1238.29763,900.707707 Z" id="404-雨夹雪"></path>
        </g>
    </g>
</svg>