<?xml version="1.0" encoding="UTF-8"?>
<svg width="39px" height="39px" viewBox="0 0 39 39" version="1.1" xmlns="http://www.w3.org/2000/svg" xmlns:xlink="http://www.w3.org/1999/xlink">
    <title>405-雨雪天气</title>
    <g id="页面-1" stroke="none" stroke-width="1" fill="none" fill-rule="evenodd">
        <g id="画板" transform="translate(-1301.000000, -900.000000)" fill="#666666">
            <path d="M1307.91441,925.593176 L1331.25934,925.592009 C1331.41429,925.592009 1331.57628,925.592009 1331.727,925.609517 L1331.727,925.593526 C1335.54011,925.593526 1338.64187,922.380679 1338.64187,918.431008 C1338.64187,914.481336 1335.54011,911.268489 1331.727,911.268489 C1331.18891,911.268489 1330.62828,911.340041 1330.0592,911.485889 C1329.87467,911.532579 1329.67888,911.498962 1329.5197,911.388074 C1329.36194,911.278702 1329.25488,911.106475 1329.2253,910.910961 C1328.45338,905.81447 1324.27685,902.114297 1319.29741,902.114297 C1313.74888,902.114297 1309.23428,906.79058 1309.23428,912.539271 C1309.23428,912.820869 1309.254,913.099549 1309.27508,913.37677 C1309.29198,913.585416 1309.21873,913.791143 1309.07365,913.937049 C1308.92856,914.082955 1308.72854,914.152989 1308.5271,914.134022 C1308.32567,914.112077 1308.12283,914.097487 1307.91436,914.097487 C1304.85626,914.097487 1302.36724,916.677102 1302.36724,919.844719 C1302.36724,923.013794 1304.85626,925.593409 1307.91436,925.593409 M1315.75,934 C1316.16421,934 1316.5,934.335786 1316.5,934.75 L1316.49991,935.749707 L1317.5,935.75 C1317.91421,935.75 1318.25,936.085786 1318.25,936.5 C1318.25,936.914214 1317.91421,937.25 1317.5,937.25 L1316.49991,937.249707 L1316.5,938.25 C1316.5,938.664214 1316.16421,939 1315.75,939 C1315.33579,939 1315,938.664214 1315,938.25 L1314.99991,937.249707 L1314,937.25 C1313.58579,937.25 1313.25,936.914214 1313.25,936.5 C1313.25,936.085786 1313.58579,935.75 1314,935.75 L1314.99991,935.749707 L1315,934.75 C1315,934.335786 1315.33579,934 1315.75,934 Z M1331.25,929.669873 C1331.60872,929.87698 1331.73163,930.335673 1331.52452,930.694392 L1327.27452,938.055608 C1327.06741,938.414327 1326.60872,938.537234 1326.25,938.330127 C1325.89128,938.12302 1325.76837,937.664327 1325.97548,937.305608 L1330.22548,929.944392 C1330.43259,929.585673 1330.89128,929.462766 1331.25,929.669873 Z M1311.25,929.669873 C1311.60872,929.87698 1311.73163,930.335673 1311.52452,930.694392 L1307.27452,938.055608 C1307.06741,938.414327 1306.60872,938.537234 1306.25,938.330127 C1305.89128,938.12302 1305.76837,937.664327 1305.97548,937.305608 L1310.22548,929.944392 C1310.43259,929.585673 1310.89128,929.462766 1311.25,929.669873 Z M1320.75,929 C1321.16421,929 1321.5,929.335786 1321.5,929.75 L1321.49991,930.749707 L1322.5,930.75 C1322.91421,930.75 1323.25,931.085786 1323.25,931.5 C1323.25,931.914214 1322.91421,932.25 1322.5,932.25 L1321.49991,932.249707 L1321.5,933.25 C1321.5,933.664214 1321.16421,934 1320.75,934 C1320.33579,934 1320,933.664214 1320,933.25 L1319.99991,932.249707 L1319,932.25 C1318.58579,932.25 1318.25,931.914214 1318.25,931.5 C1318.25,931.085786 1318.58579,930.75 1319,930.75 L1319.99991,930.749707 L1320,929.75 C1320,929.335786 1320.33579,929 1320.75,929 Z M1319.29763,900.707707 C1324.71234,900.707707 1329.28892,904.562539 1330.43553,909.971269 C1330.8736,909.896916 1331.30464,909.861898 1331.72722,909.861898 C1336.28972,909.861898 1340,913.705059 1340,918.430949 C1340,923.155381 1336.28972,927 1331.72722,927 L1331.63185,926.99971 C1331.61537,926.99968 1331.59673,926.999652 1331.57597,926.999625 L1325.55356,926.998833 L1325.55356,926.998833 L1307.91492,927 C1304.10744,927 1301.00991,923.790071 1301.00991,919.844777 C1301.00991,915.912614 1304.08631,912.712899 1307.8783,912.691013 L1307.87773,912.690954 C1307.87773,912.641346 1307.87661,912.590221 1307.87661,912.539212 C1307.87661,906.015762 1312.99973,900.707707 1319.29763,900.707707 Z" id="405-雨雪天气"></path>
        </g>
    </g>
</svg>