<?xml version="1.0" encoding="UTF-8"?>
<svg width="42px" height="44px" viewBox="0 0 42 44" version="1.1" xmlns="http://www.w3.org/2000/svg" xmlns:xlink="http://www.w3.org/1999/xlink">
    <title>406-阵雨夹雪</title>
    <g id="页面-1" stroke="none" stroke-width="1" fill="none" fill-rule="evenodd">
        <g id="画板" transform="translate(-1379.000000, -898.000000)" fill="#666666">
            <path d="M1401.14952,937 C1401.56373,937 1401.89952,937.335786 1401.89952,937.75 L1401.899,938.75 L1402.89952,938.75 C1403.31373,938.75 1403.64952,939.085786 1403.64952,939.5 C1403.64952,939.914214 1403.31373,940.25 1402.89952,940.25 L1401.899,940.25 L1401.89952,941.25 C1401.89952,941.664214 1401.56373,942 1401.14952,942 C1400.73531,942 1400.39952,941.664214 1400.39952,941.25 L1400.399,940.25 L1399.39952,940.25 C1398.98531,940.25 1398.64952,939.914214 1398.64952,939.5 C1398.64952,939.085786 1398.98531,938.75 1399.39952,938.75 L1400.399,938.75 L1400.39952,937.75 C1400.39952,937.335786 1400.73531,937 1401.14952,937 Z M1416.64952,932.669873 C1417.00824,932.87698 1417.13114,933.335673 1416.92404,933.694392 L1412.67404,941.055608 C1412.46693,941.414327 1412.00824,941.537234 1411.64952,941.330127 C1411.2908,941.12302 1411.16789,940.664327 1411.375,940.305608 L1415.625,932.944392 C1415.83211,932.585673 1416.2908,932.462766 1416.64952,932.669873 Z M1396.64952,932.669873 C1397.00824,932.87698 1397.13114,933.335673 1396.92404,933.694392 L1392.67404,941.055608 C1392.46693,941.414327 1392.00824,941.537234 1391.64952,941.330127 C1391.2908,941.12302 1391.16789,940.664327 1391.375,940.305608 L1395.625,932.944392 C1395.83211,932.585673 1396.2908,932.462766 1396.64952,932.669873 Z M1406.14952,932 C1406.56373,932 1406.89952,932.335786 1406.89952,932.75 L1406.899,933.75 L1407.89952,933.75 C1408.31373,933.75 1408.64952,934.085786 1408.64952,934.5 C1408.64952,934.914214 1408.31373,935.25 1407.89952,935.25 L1406.899,935.25 L1406.89952,936.25 C1406.89952,936.664214 1406.56373,937 1406.14952,937 C1405.73531,937 1405.39952,936.664214 1405.39952,936.25 L1405.399,935.25 L1404.39952,935.25 C1403.98531,935.25 1403.64952,934.914214 1403.64952,934.5 C1403.64952,934.085786 1403.98531,933.75 1404.39952,933.75 L1405.399,933.75 L1405.39952,932.75 C1405.39952,932.335786 1405.73531,932 1406.14952,932 Z M1405.63272,911.34653 C1409.74292,911.34653 1413.18735,914.394012 1413.82185,918.577223 L1413.80262,918.4621 L1413.95886,918.426388 C1414.24678,918.36722 1414.53354,918.330061 1414.81653,918.315179 L1414.81653,918.315179 L1415.09817,918.307733 C1418.35787,918.307733 1421,921.040583 1421,924.391311 C1421,927.690646 1418.05719,930.473734 1414.74208,930.473734 L1414.74208,930.473734 L1396.96425,930.474799 C1394.27947,930.474799 1392.104,928.22345 1392.104,925.466351 C1392.104,922.710167 1394.27967,920.459013 1396.96425,920.459013 C1397.13656,920.459013 1397.30934,920.469829 1397.49032,920.489585 L1397.357,920.476 L1397.33829,920.151412 L1397.33343,919.911005 C1397.33343,915.192418 1401.05129,911.34653 1405.63272,911.34653 Z M1405.63272,912.620369 C1401.76315,912.620369 1398.60538,915.886878 1398.60538,919.911005 C1398.60538,919.943234 1398.6057,919.975068 1398.6064,920.007561 L1398.6064,920.007561 L1398.61518,920.21881 L1398.63435,920.496292 C1398.66223,920.83995 1398.54016,921.179887 1398.29738,921.423688 C1398.05315,921.668947 1397.71403,921.790062 1397.36219,921.75691 C1397.21473,921.740868 1397.08667,921.732852 1396.96425,921.732852 C1394.9916,921.732852 1393.37595,923.404557 1393.37595,925.466351 C1393.37595,927.529108 1394.99146,929.20096 1396.96421,929.20096 L1396.96421,929.20096 L1414.74204,929.199895 C1417.37049,929.199895 1419.72805,926.97029 1419.72805,924.391311 C1419.72805,921.73507 1417.64604,919.581572 1415.09817,919.581572 C1414.73892,919.581572 1414.36474,919.630021 1413.98368,919.727541 C1413.66443,919.808202 1413.32637,919.747859 1413.05564,919.559522 C1412.7903,919.375837 1412.61293,919.089364 1412.56431,918.768427 C1412.02316,915.200685 1409.10675,912.620369 1405.63272,912.620369 Z M1389.21333,923.884098 C1389.45469,924.039431 1389.52763,924.37007 1389.37638,924.619713 L1387.18487,928.24564 C1387.08725,928.407631 1386.91777,928.497503 1386.74613,928.497503 C1386.65174,928.497503 1386.55734,928.46972 1386.4726,928.416463 C1386.23017,928.25891 1386.15615,927.928272 1386.30848,927.678629 L1388.49999,924.052701 C1388.65231,923.801993 1388.96983,923.725436 1389.21333,923.884098 Z M1385.47671,919.786072 C1385.61401,920.044591 1385.52176,920.369682 1385.27075,920.510592 L1381.6429,922.562103 C1381.56464,922.606484 1381.47985,922.626456 1381.39511,922.626456 C1381.21383,922.626456 1381.03576,922.526599 1380.94136,922.347965 C1380.80513,922.089446 1380.89742,921.764355 1381.14732,921.623445 L1384.77517,919.571934 C1385.02618,919.431024 1385.34048,919.525334 1385.47671,919.786072 Z M1395.02464,905.986245 C1397.84154,905.986245 1400.27977,907.233351 1401.83196,909.666539 C1401.98857,909.913963 1401.92314,910.245711 1401.685,910.407702 C1401.44579,910.571911 1401.12505,910.503121 1400.96844,910.256806 C1399.60826,908.124299 1397.49184,907.055827 1395.02464,907.055827 C1390.98917,907.055827 1387.70566,910.450973 1387.70566,914.626116 C1387.70566,917.210199 1388.96071,919.59124 1391.06211,920.992569 C1391.30132,921.153451 1391.37105,921.484089 1391.21551,921.731513 C1391.11789,921.891285 1390.95163,921.976718 1390.78214,921.976718 C1390.6856,921.976718 1390.58798,921.950089 1390.50109,921.891329 C1388.10362,920.291394 1386.67158,917.575277 1386.67158,914.62616 C1386.67158,909.861816 1390.41957,905.986245 1395.02464,905.986245 Z M1379.51897,913.889284 L1383.65098,913.901534 C1383.93739,913.901534 1384.16802,914.142301 1384.16695,914.437434 C1384.16619,914.699775 1383.98371,914.917406 1383.74277,914.96253 L1383.64905,914.971116 L1379.51704,914.958955 C1379.23063,914.958068 1379,914.717079 1379,914.420836 C1379.00086,914.126812 1379.2317,913.889373 1379.51704,913.889373 L1379.51897,913.889284 Z M1381.58509,906.479717 L1385.22796,908.497943 C1385.48004,908.637743 1385.57551,908.961725 1385.43928,909.221353 C1385.34702,909.402206 1385.16789,909.504282 1384.98338,909.504282 C1384.90186,909.504327 1384.81819,909.483201 1384.73988,909.441039 L1381.09701,907.422813 C1380.84493,907.284123 1380.74946,906.960142 1380.88462,906.699403 C1381.01871,906.438665 1381.33193,906.339917 1381.58509,906.479717 Z M1408.88653,906.551038 C1409.02276,906.809557 1408.93158,907.134648 1408.68057,907.276667 L1405.05272,909.327024 C1404.97334,909.372559 1404.8886,909.392531 1404.80493,909.392531 C1404.62257,909.392531 1404.44451,909.291564 1404.35118,909.11404 C1404.21388,908.855521 1404.30613,908.53043 1404.55714,908.38952 L1408.18499,906.338009 C1408.436,906.19599 1408.74923,906.291409 1408.88653,906.551038 Z M1403.35625,900.48578 C1403.59761,900.642223 1403.67163,900.971752 1403.5193,901.222504 L1401.32779,904.848432 C1401.23018,905.010422 1401.06069,905.100294 1400.88906,905.100294 C1400.79573,905.100294 1400.70134,905.073665 1400.61552,905.018189 C1400.37309,904.861746 1400.30015,904.532217 1400.4514,904.280355 L1402.64399,900.655537 C1402.79524,900.404784 1403.11383,900.328227 1403.35625,900.48578 Z M1387.25256,900.637341 L1389.42584,904.268816 C1389.57708,904.520678 1389.50195,904.849097 1389.25849,905.00554 C1389.17379,905.059951 1389.08043,905.085426 1388.9871,905.085426 C1388.8144,905.085426 1388.64491,904.995555 1388.54623,904.832454 L1386.37295,901.19987 C1386.22384,900.949117 1386.29786,900.619588 1386.54029,900.463145 C1386.78379,900.308921 1387.10131,900.385479 1387.25256,900.637341 Z M1394.9147,898 C1395.20003,898 1395.43173,898.238548 1395.43173,898.533681 L1395.43173,902.806462 C1395.43173,903.101596 1395.20003,903.340143 1394.9147,903.340143 C1394.62829,903.340143 1394.39766,903.101596 1394.39766,902.806462 L1394.39766,898.533681 C1394.39766,898.238548 1394.62829,898 1394.9147,898 Z" id="406-阵雨夹雪"></path>
        </g>
    </g>
</svg>