<?xml version="1.0" encoding="UTF-8"?>
<svg width="42px" height="44px" viewBox="0 0 42 44" version="1.1" xmlns="http://www.w3.org/2000/svg" xmlns:xlink="http://www.w3.org/1999/xlink">
    <title>407-阵雪</title>
    <g id="页面-1" stroke="none" stroke-width="1" fill="none" fill-rule="evenodd">
        <g id="画板" transform="translate(-99.000000, -1056.000000)" fill="#666666">
            <path d="M121.149519,1095 C121.563733,1095 121.899519,1095.33579 121.899519,1095.75 L121.899,1096.75 L122.899519,1096.75 C123.313733,1096.75 123.649519,1097.08579 123.649519,1097.5 C123.649519,1097.91421 123.313733,1098.25 122.899519,1098.25 L121.899,1098.25 L121.899519,1099.25 C121.899519,1099.66421 121.563733,1100 121.149519,1100 C120.735305,1100 120.399519,1099.66421 120.399519,1099.25 L120.399,1098.25 L119.399519,1098.25 C118.985305,1098.25 118.649519,1097.91421 118.649519,1097.5 C118.649519,1097.08579 118.985305,1096.75 119.399519,1096.75 L120.399,1096.75 L120.399519,1095.75 C120.399519,1095.33579 120.735305,1095 121.149519,1095 Z M126.149519,1090 C126.563733,1090 126.899519,1090.33579 126.899519,1090.75 L126.899,1091.75 L127.899519,1091.75 C128.313733,1091.75 128.649519,1092.08579 128.649519,1092.5 C128.649519,1092.91421 128.313733,1093.25 127.899519,1093.25 L126.899,1093.25 L126.899519,1094.25 C126.899519,1094.66421 126.563733,1095 126.149519,1095 C125.735305,1095 125.399519,1094.66421 125.399519,1094.25 L125.399,1093.25 L124.399519,1093.25 C123.985305,1093.25 123.649519,1092.91421 123.649519,1092.5 C123.649519,1092.08579 123.985305,1091.75 124.399519,1091.75 L125.399,1091.75 L125.399519,1090.75 C125.399519,1090.33579 125.735305,1090 126.149519,1090 Z M125.632725,1069.34653 C129.742923,1069.34653 133.187348,1072.39401 133.821846,1076.57722 L133.802623,1076.4621 L133.958861,1076.42639 C134.246783,1076.36722 134.533537,1076.33006 134.81653,1076.31518 L134.81653,1076.31518 L135.098173,1076.30773 C138.357868,1076.30773 141,1079.04058 141,1082.39131 C141,1085.69065 138.057189,1088.47373 134.742077,1088.47373 L134.742077,1088.47373 L116.964245,1088.4748 C114.279474,1088.4748 112.104004,1086.22345 112.104004,1083.46635 C112.104004,1080.71017 114.279666,1078.45901 116.964245,1078.45901 C117.136557,1078.45901 117.30934,1078.46983 117.490317,1078.48958 L117.357,1078.476 L117.338291,1078.15141 L117.333428,1077.911 C117.333428,1073.19242 121.051291,1069.34653 125.632725,1069.34653 Z M125.632725,1070.62037 C121.763147,1070.62037 118.605376,1073.88688 118.605376,1077.911 C118.605376,1077.94323 118.605705,1077.97507 118.606396,1078.00756 L118.606396,1078.00756 L118.615183,1078.21881 L118.634352,1078.49629 C118.662233,1078.83995 118.540162,1079.17989 118.297384,1079.42369 C118.053153,1079.66895 117.714026,1079.79006 117.362188,1079.75691 C117.214727,1079.74087 117.086667,1079.73285 116.964245,1079.73285 C114.991597,1079.73285 113.375952,1081.40456 113.375952,1083.46635 C113.375952,1085.52911 114.991456,1087.20096 116.964207,1087.20096 L116.964207,1087.20096 L134.742039,1087.1999 C137.370488,1087.1999 139.728052,1084.97029 139.728052,1082.39131 C139.728052,1079.73507 137.646041,1077.58157 135.098173,1077.58157 C134.73892,1077.58157 134.364742,1077.63002 133.983677,1077.72754 C133.664434,1077.8082 133.326367,1077.74786 133.055638,1077.55952 C132.7903,1077.37584 132.612934,1077.08936 132.564308,1076.76843 C132.023162,1073.20069 129.106753,1070.62037 125.632725,1070.62037 Z M109.21333,1081.8841 C109.454686,1082.03943 109.527629,1082.37007 109.37638,1082.61971 L107.184867,1086.24564 C107.087251,1086.40763 106.917766,1086.4975 106.746135,1086.4975 C106.651738,1086.4975 106.557341,1086.46972 106.472598,1086.41646 C106.230169,1086.25891 106.156153,1085.92827 106.308476,1085.67863 L108.499989,1082.0527 C108.652311,1081.80199 108.969829,1081.72544 109.21333,1081.8841 Z M105.476709,1077.78607 C105.614014,1078.04459 105.521762,1078.36968 105.270752,1078.51059 L101.642902,1080.5621 C101.564639,1080.60648 101.479853,1080.62646 101.39511,1080.62646 C101.213825,1080.62646 101.035758,1080.5266 100.941361,1080.34797 C100.805129,1080.08945 100.897423,1079.76436 101.147318,1079.62345 L104.775168,1077.57193 C105.026178,1077.43102 105.340477,1077.52533 105.476709,1077.78607 Z M115.024643,1063.98624 C117.841537,1063.98624 120.279769,1065.23335 121.831957,1067.66654 C121.98857,1067.91396 121.923136,1068.24571 121.684998,1068.4077 C121.445787,1068.57191 121.125052,1068.50312 120.968439,1068.25681 C119.608263,1066.1243 117.491839,1065.05583 115.024643,1065.05583 C110.98917,1065.05583 107.705655,1068.45097 107.705655,1072.62612 C107.705655,1075.2102 108.960707,1077.59124 111.062113,1078.99257 C111.301324,1079.15345 111.371049,1079.48409 111.215508,1079.73151 C111.117893,1079.89128 110.951626,1079.97672 110.78214,1079.97672 C110.685598,1079.97672 110.587983,1079.95009 110.501095,1079.89133 C108.103624,1078.29139 106.671578,1075.57528 106.671578,1072.62616 C106.671578,1067.86182 110.41957,1063.98624 115.024643,1063.98624 Z M99.5189692,1071.88928 L103.650985,1071.90153 C103.937394,1071.90153 104.168023,1072.1423 104.16695,1072.43743 C104.166188,1072.69978 103.983708,1072.91741 103.742765,1072.96253 L103.649054,1072.97112 L99.5170383,1072.95896 C99.2306291,1072.95807 99,1072.71708 99,1072.42084 C99.0008582,1072.12681 99.2317018,1071.88937 99.5170383,1071.88937 L99.5189692,1071.88928 Z M101.585089,1064.47972 L105.227956,1066.49794 C105.480039,1066.63774 105.575509,1066.96172 105.439277,1067.22135 C105.347025,1067.40221 105.167885,1067.50428 104.983382,1067.50428 C104.901857,1067.50433 104.818187,1067.4832 104.73988,1067.44104 L101.097013,1065.42281 C100.84493,1065.28412 100.74946,1064.96014 100.88462,1064.6994 C101.018706,1064.43866 101.331933,1064.33992 101.585089,1064.47972 Z M128.886531,1064.55104 C129.022763,1064.80956 128.931584,1065.13465 128.680573,1065.27667 L125.052724,1067.32702 C124.973344,1067.37256 124.888602,1067.39253 124.804931,1067.39253 C124.622574,1067.39253 124.444506,1067.29156 124.351182,1067.11404 C124.213877,1066.85552 124.306129,1066.53043 124.557139,1066.38952 L128.184989,1064.33801 C128.435999,1064.19599 128.749226,1064.29141 128.886531,1064.55104 Z M123.356255,1058.48578 C123.597611,1058.64222 123.671626,1058.97175 123.519304,1059.2225 L121.327791,1062.84843 C121.230176,1063.01042 121.06069,1063.10029 120.889059,1063.10029 C120.795735,1063.10029 120.701338,1063.07367 120.615522,1063.01819 C120.373094,1062.86175 120.30015,1062.53222 120.4514,1062.28035 L122.643986,1058.65554 C122.795236,1058.40478 123.113826,1058.32823 123.356255,1058.48578 Z M107.252558,1058.63734 L109.425835,1062.26882 C109.577085,1062.52068 109.501953,1062.8491 109.258495,1063.00554 C109.173795,1063.05995 109.080428,1063.08543 108.987103,1063.08543 C108.8144,1063.08543 108.644914,1062.99555 108.546226,1062.83245 L106.372949,1059.19987 C106.223845,1058.94912 106.297861,1058.61959 106.540289,1058.46315 C106.783791,1058.30892 107.101308,1058.38548 107.252558,1058.63734 Z M114.914697,1056 C115.200033,1056 115.431735,1056.23855 115.431735,1056.53368 L115.431735,1060.80646 C115.431735,1061.1016 115.200033,1061.34014 114.914697,1061.34014 C114.628287,1061.34014 114.397658,1061.1016 114.397658,1060.80646 L114.397658,1056.53368 C114.397658,1056.23855 114.628287,1056 114.914697,1056 Z" id="407-阵雪"></path>
        </g>
    </g>
</svg>