<?xml version="1.0" encoding="UTF-8"?>
<svg width="34px" height="35px" viewBox="0 0 34 35" version="1.1" xmlns="http://www.w3.org/2000/svg" xmlns:xlink="http://www.w3.org/1999/xlink">
    <title>408-小到中雪</title>
    <g id="页面-1" stroke="none" stroke-width="1" fill="none" fill-rule="evenodd">
        <g id="画板" transform="translate(-263.000000, -1060.000000)" fill="#666666">
            <path d="M281.5,1090 C281.914214,1090 282.25,1090.33579 282.25,1090.75 L282.249,1091.75 L283.25,1091.75 C283.664214,1091.75 284,1092.08579 284,1092.5 C284,1092.91421 283.664214,1093.25 283.25,1093.25 L282.249,1093.25 L282.25,1094.25 C282.25,1094.66421 281.914214,1095 281.5,1095 C281.085786,1095 280.75,1094.66421 280.75,1094.25 L280.749,1093.25 L279.75,1093.25 C279.335786,1093.25 279,1092.91421 279,1092.5 C279,1092.08579 279.335786,1091.75 279.75,1091.75 L280.749,1091.75 L280.75,1090.75 C280.75,1090.33579 281.085786,1090 281.5,1090 Z M273.5,1084 C273.914214,1084 274.25,1084.33579 274.25,1084.75 L274.249,1085.75 L275.25,1085.75 C275.664214,1085.75 276,1086.08579 276,1086.5 C276,1086.91421 275.664214,1087.25 275.25,1087.25 L274.249,1087.25 L274.25,1088.25 C274.25,1088.66421 273.914214,1089 273.5,1089 C273.085786,1089 272.75,1088.66421 272.75,1088.25 L272.749,1087.25 L271.75,1087.25 C271.335786,1087.25 271,1086.91421 271,1086.5 C271,1086.08579 271.335786,1085.75 271.75,1085.75 L272.749,1085.75 L272.75,1084.75 C272.75,1084.33579 273.085786,1084 273.5,1084 Z M287.5,1084 C287.914214,1084 288.25,1084.33579 288.25,1084.75 L288.249,1085.75 L289.25,1085.75 C289.664214,1085.75 290,1086.08579 290,1086.5 C290,1086.91421 289.664214,1087.25 289.25,1087.25 L288.249,1087.25 L288.25,1088.25 C288.25,1088.66421 287.914214,1089 287.5,1089 C287.085786,1089 286.75,1088.66421 286.75,1088.25 L286.749,1087.25 L285.75,1087.25 C285.335786,1087.25 285,1086.91421 285,1086.5 C285,1086.08579 285.335786,1085.75 285.75,1085.75 L286.749,1085.75 L286.75,1084.75 C286.75,1084.33579 287.085786,1084 287.5,1084 Z M278.918348,1060 C283.754545,1060 287.807371,1063.52478 288.553943,1068.36316 L288.531,1068.23 L288.715159,1068.1887 C288.941011,1068.14308 289.166253,1068.10877 289.38998,1068.08587 L289.724322,1068.06008 L290.055712,1068.05146 C293.891179,1068.05146 297,1071.21233 297,1075.08785 C297,1078.90393 293.53739,1082.1229 289.636717,1082.1229 L289.636717,1082.1229 L268.718723,1082.12413 C265.559732,1082.12413 263,1079.52018 263,1076.33126 C263,1073.14341 265.559957,1070.53968 268.718723,1070.53968 C268.921471,1070.53968 269.124774,1070.55219 269.337718,1070.57504 L269.181,1070.56 L269.158839,1070.1839 L269.153116,1069.90584 C269.153116,1064.44823 273.527679,1060 278.918348,1060 Z M278.918348,1061.47335 C274.365272,1061.47335 270.649733,1065.25146 270.649733,1069.90584 C270.649733,1069.94312 270.65012,1069.97994 270.650934,1070.01752 L270.650934,1070.01752 L270.661273,1070.26185 L270.683828,1070.58279 C270.716633,1070.98028 270.573001,1071.37345 270.287339,1071.65544 C269.999969,1071.93911 269.600941,1072.07919 269.186957,1072.04085 C269.013448,1072.0223 268.862769,1072.01302 268.718723,1072.01302 C266.397639,1072.01302 264.496617,1073.94655 264.496617,1076.33126 C264.496617,1078.71709 266.397474,1080.65078 268.718679,1080.65078 L268.718679,1080.65078 L289.636673,1080.64955 C292.729394,1080.64955 295.503383,1078.07075 295.503383,1075.08785 C295.503383,1072.01559 293.053619,1069.52481 290.055712,1069.52481 C289.633003,1069.52481 289.192732,1069.58085 288.744359,1069.69364 C288.368726,1069.78694 287.970946,1069.71714 287.652396,1069.49931 C287.340191,1069.28685 287.131497,1068.95551 287.074281,1068.58431 C286.437551,1064.45779 283.006006,1061.47335 278.918348,1061.47335 Z" id="408-小到中雪"></path>
        </g>
    </g>
</svg>