<?xml version="1.0" encoding="UTF-8"?>
<svg width="34px" height="35px" viewBox="0 0 34 35" version="1.1" xmlns="http://www.w3.org/2000/svg" xmlns:xlink="http://www.w3.org/1999/xlink">
    <title>409-中到大雪</title>
    <g id="页面-1" stroke="none" stroke-width="1" fill="none" fill-rule="evenodd">
        <g id="画板" transform="translate(-423.000000, -1060.000000)" fill="#666666">
            <path d="M436.5,1090 C436.914214,1090 437.25,1090.33579 437.25,1090.75 L437.249,1091.75 L438.25,1091.75 C438.664214,1091.75 439,1092.08579 439,1092.5 C439,1092.91421 438.664214,1093.25 438.25,1093.25 L437.249,1093.25 L437.25,1094.25 C437.25,1094.66421 436.914214,1095 436.5,1095 C436.085786,1095 435.75,1094.66421 435.75,1094.25 L435.749,1093.25 L434.75,1093.25 C434.335786,1093.25 434,1092.91421 434,1092.5 C434,1092.08579 434.335786,1091.75 434.75,1091.75 L435.749,1091.75 L435.75,1090.75 C435.75,1090.33579 436.085786,1090 436.5,1090 Z M428.5,1084 C428.914214,1084 429.25,1084.33579 429.25,1084.75 L429.249,1085.75 L430.25,1085.75 C430.664214,1085.75 431,1086.08579 431,1086.5 C431,1086.91421 430.664214,1087.25 430.25,1087.25 L429.249,1087.25 L429.25,1088.25 C429.25,1088.66421 428.914214,1089 428.5,1089 C428.085786,1089 427.75,1088.66421 427.75,1088.25 L427.749,1087.25 L426.75,1087.25 C426.335786,1087.25 426,1086.91421 426,1086.5 C426,1086.08579 426.335786,1085.75 426.75,1085.75 L427.749,1085.75 L427.75,1084.75 C427.75,1084.33579 428.085786,1084 428.5,1084 Z M441.5,1084 C441.914214,1084 442.25,1084.33579 442.25,1084.75 L442.249,1085.75 L443.25,1085.75 C443.664214,1085.75 444,1086.08579 444,1086.5 C444,1086.91421 443.664214,1087.25 443.25,1087.25 L442.249,1087.25 L442.25,1088.25 C442.25,1088.66421 441.914214,1089 441.5,1089 C441.085786,1089 440.75,1088.66421 440.75,1088.25 L440.749,1087.25 L439.75,1087.25 C439.335786,1087.25 439,1086.91421 439,1086.5 C439,1086.08579 439.335786,1085.75 439.75,1085.75 L440.749,1085.75 L440.75,1084.75 C440.75,1084.33579 441.085786,1084 441.5,1084 Z M449.5,1084 C449.914214,1084 450.25,1084.33579 450.25,1084.75 L450.249,1085.75 L451.25,1085.75 C451.664214,1085.75 452,1086.08579 452,1086.5 C452,1086.91421 451.664214,1087.25 451.25,1087.25 L450.249,1087.25 L450.25,1088.25 C450.25,1088.66421 449.914214,1089 449.5,1089 C449.085786,1089 448.75,1088.66421 448.75,1088.25 L448.749,1087.25 L447.75,1087.25 C447.335786,1087.25 447,1086.91421 447,1086.5 C447,1086.08579 447.335786,1085.75 447.75,1085.75 L448.749,1085.75 L448.75,1084.75 C448.75,1084.33579 449.085786,1084 449.5,1084 Z M438.918348,1060 C443.754545,1060 447.807371,1063.52478 448.553943,1068.36316 L448.531,1068.23 L448.715159,1068.1887 C448.941011,1068.14308 449.166253,1068.10877 449.38998,1068.08587 L449.724322,1068.06008 L450.055712,1068.05146 C453.891179,1068.05146 457,1071.21233 457,1075.08785 C457,1078.90393 453.53739,1082.1229 449.636717,1082.1229 L449.636717,1082.1229 L428.718723,1082.12413 C425.559732,1082.12413 423,1079.52018 423,1076.33126 C423,1073.14341 425.559957,1070.53968 428.718723,1070.53968 C428.921471,1070.53968 429.124774,1070.55219 429.337718,1070.57504 L429.181,1070.56 L429.158839,1070.1839 L429.153116,1069.90584 C429.153116,1064.44823 433.527679,1060 438.918348,1060 Z M438.918348,1061.47335 C434.365272,1061.47335 430.649733,1065.25146 430.649733,1069.90584 C430.649733,1069.94312 430.65012,1069.97994 430.650934,1070.01752 L430.650934,1070.01752 L430.661273,1070.26185 L430.683828,1070.58279 C430.716633,1070.98028 430.573001,1071.37345 430.287339,1071.65544 C429.999969,1071.93911 429.600941,1072.07919 429.186957,1072.04085 C429.013448,1072.0223 428.862769,1072.01302 428.718723,1072.01302 C426.397639,1072.01302 424.496617,1073.94655 424.496617,1076.33126 C424.496617,1078.71709 426.397474,1080.65078 428.718679,1080.65078 L428.718679,1080.65078 L449.636673,1080.64955 C452.729394,1080.64955 455.503383,1078.07075 455.503383,1075.08785 C455.503383,1072.01559 453.053619,1069.52481 450.055712,1069.52481 C449.633003,1069.52481 449.192732,1069.58085 448.744359,1069.69364 C448.368726,1069.78694 447.970946,1069.71714 447.652396,1069.49931 C447.340191,1069.28685 447.131497,1068.95551 447.074281,1068.58431 C446.437551,1064.45779 443.006006,1061.47335 438.918348,1061.47335 Z" id="409-中到大雪"></path>
        </g>
    </g>
</svg>