<?xml version="1.0" encoding="UTF-8"?>
<svg width="35px" height="35px" viewBox="0 0 35 35" version="1.1" xmlns="http://www.w3.org/2000/svg" xmlns:xlink="http://www.w3.org/1999/xlink">
    <title>410-大到暴雪</title>
    <g id="页面-1" stroke="none" stroke-width="1" fill="none" fill-rule="evenodd">
        <g id="画板" transform="translate(-583.000000, -1060.000000)" fill="#666666">
            <path d="M605.5,1090 C605.914214,1090 606.25,1090.33579 606.25,1090.75 L606.249,1091.75 L607.25,1091.75 C607.664214,1091.75 608,1092.08579 608,1092.5 C608,1092.91421 607.664214,1093.25 607.25,1093.25 L606.249,1093.25 L606.25,1094.25 C606.25,1094.66421 605.914214,1095 605.5,1095 C605.085786,1095 604.75,1094.66421 604.75,1094.25 L604.749,1093.25 L603.75,1093.25 C603.335786,1093.25 603,1092.91421 603,1092.5 C603,1092.08579 603.335786,1091.75 603.75,1091.75 L604.749,1091.75 L604.75,1090.75 C604.75,1090.33579 605.085786,1090 605.5,1090 Z M585.5,1090 C585.914214,1090 586.25,1090.33579 586.25,1090.75 L586.249,1091.75 L587.25,1091.75 C587.664214,1091.75 588,1092.08579 588,1092.5 C588,1092.91421 587.664214,1093.25 587.25,1093.25 L586.249,1093.25 L586.25,1094.25 C586.25,1094.66421 585.914214,1095 585.5,1095 C585.085786,1095 584.75,1094.66421 584.75,1094.25 L584.749,1093.25 L583.75,1093.25 C583.335786,1093.25 583,1092.91421 583,1092.5 C583,1092.08579 583.335786,1091.75 583.75,1091.75 L584.749,1091.75 L584.75,1090.75 C584.75,1090.33579 585.085786,1090 585.5,1090 Z M597.5,1090 C597.914214,1090 598.25,1090.33579 598.25,1090.75 L598.249,1091.75 L599.25,1091.75 C599.664214,1091.75 600,1092.08579 600,1092.5 C600,1092.91421 599.664214,1093.25 599.25,1093.25 L598.249,1093.25 L598.25,1094.25 C598.25,1094.66421 597.914214,1095 597.5,1095 C597.085786,1095 596.75,1094.66421 596.75,1094.25 L596.749,1093.25 L595.75,1093.25 C595.335786,1093.25 595,1092.91421 595,1092.5 C595,1092.08579 595.335786,1091.75 595.75,1091.75 L596.749,1091.75 L596.75,1090.75 C596.75,1090.33579 597.085786,1090 597.5,1090 Z M589.5,1084 C589.914214,1084 590.25,1084.33579 590.25,1084.75 L590.249,1085.75 L591.25,1085.75 C591.664214,1085.75 592,1086.08579 592,1086.5 C592,1086.91421 591.664214,1087.25 591.25,1087.25 L590.249,1087.25 L590.25,1088.25 C590.25,1088.66421 589.914214,1089 589.5,1089 C589.085786,1089 588.75,1088.66421 588.75,1088.25 L588.749,1087.25 L587.75,1087.25 C587.335786,1087.25 587,1086.91421 587,1086.5 C587,1086.08579 587.335786,1085.75 587.75,1085.75 L588.749,1085.75 L588.75,1084.75 C588.75,1084.33579 589.085786,1084 589.5,1084 Z M602.5,1084 C602.914214,1084 603.25,1084.33579 603.25,1084.75 L603.249,1085.75 L604.25,1085.75 C604.664214,1085.75 605,1086.08579 605,1086.5 C605,1086.91421 604.664214,1087.25 604.25,1087.25 L603.249,1087.25 L603.25,1088.25 C603.25,1088.66421 602.914214,1089 602.5,1089 C602.085786,1089 601.75,1088.66421 601.75,1088.25 L601.749,1087.25 L600.75,1087.25 C600.335786,1087.25 600,1086.91421 600,1086.5 C600,1086.08579 600.335786,1085.75 600.75,1085.75 L601.749,1085.75 L601.75,1084.75 C601.75,1084.33579 602.085786,1084 602.5,1084 Z M610.5,1084 C610.914214,1084 611.25,1084.33579 611.25,1084.75 L611.249,1085.75 L612.25,1085.75 C612.664214,1085.75 613,1086.08579 613,1086.5 C613,1086.91421 612.664214,1087.25 612.25,1087.25 L611.249,1087.25 L611.25,1088.25 C611.25,1088.66421 610.914214,1089 610.5,1089 C610.085786,1089 609.75,1088.66421 609.75,1088.25 L609.749,1087.25 L608.75,1087.25 C608.335786,1087.25 608,1086.91421 608,1086.5 C608,1086.08579 608.335786,1085.75 608.75,1085.75 L609.749,1085.75 L609.75,1084.75 C609.75,1084.33579 610.085786,1084 610.5,1084 Z M599.918348,1060 C604.754545,1060 608.807371,1063.52478 609.553943,1068.36316 L609.531,1068.23 L609.715159,1068.1887 C609.941011,1068.14308 610.166253,1068.10877 610.38998,1068.08587 L610.724322,1068.06008 L611.055712,1068.05146 C614.891179,1068.05146 618,1071.21233 618,1075.08785 C618,1078.90393 614.53739,1082.1229 610.636717,1082.1229 L610.636717,1082.1229 L589.718723,1082.12413 C586.559732,1082.12413 584,1079.52018 584,1076.33126 C584,1073.14341 586.559957,1070.53968 589.718723,1070.53968 C589.921471,1070.53968 590.124774,1070.55219 590.337718,1070.57504 L590.181,1070.56 L590.158839,1070.1839 L590.153116,1069.90584 C590.153116,1064.44823 594.527679,1060 599.918348,1060 Z M599.918348,1061.47335 C595.365272,1061.47335 591.649733,1065.25146 591.649733,1069.90584 C591.649733,1069.94312 591.65012,1069.97994 591.650934,1070.01752 L591.650934,1070.01752 L591.661273,1070.26185 L591.683828,1070.58279 C591.716633,1070.98028 591.573001,1071.37345 591.287339,1071.65544 C590.999969,1071.93911 590.600941,1072.07919 590.186957,1072.04085 C590.013448,1072.0223 589.862769,1072.01302 589.718723,1072.01302 C587.397639,1072.01302 585.496617,1073.94655 585.496617,1076.33126 C585.496617,1078.71709 587.397474,1080.65078 589.718679,1080.65078 L589.718679,1080.65078 L610.636673,1080.64955 C613.729394,1080.64955 616.503383,1078.07075 616.503383,1075.08785 C616.503383,1072.01559 614.053619,1069.52481 611.055712,1069.52481 C610.633003,1069.52481 610.192732,1069.58085 609.744359,1069.69364 C609.368726,1069.78694 608.970946,1069.71714 608.652396,1069.49931 C608.340191,1069.28685 608.131497,1068.95551 608.074281,1068.58431 C607.437551,1064.45779 604.006006,1061.47335 599.918348,1061.47335 Z" id="410-大到暴雪"></path>
        </g>
    </g>
</svg>