<?xml version="1.0" encoding="UTF-8"?>
<svg width="47px" height="48px" viewBox="0 0 47 48" version="1.1" xmlns="http://www.w3.org/2000/svg" xmlns:xlink="http://www.w3.org/1999/xlink">
    <title>456-阵雨夹雪</title>
    <g id="页面-1" stroke="none" stroke-width="1" fill="none" fill-rule="evenodd">
        <g id="画板" transform="translate(-896.000000, -1054.000000)" fill="#666666">
            <path d="M910.564606,1088.24314 L933.90953,1088.24197 C934.064477,1088.24197 934.226467,1088.24197 934.377189,1088.25948 L934.377189,1088.24349 C938.190301,1088.24349 941.292064,1085.03064 941.292064,1081.08097 C941.292064,1077.1313 938.190301,1073.91845 934.377189,1073.91845 C933.839099,1073.91845 933.278472,1073.99 932.709392,1074.13585 C932.524864,1074.18254 932.329067,1074.14892 932.169894,1074.03804 C932.01213,1073.92866 931.905075,1073.75644 931.875494,1073.56092 C931.103575,1068.46443 926.927041,1064.76426 921.947598,1064.76426 C916.399076,1064.76426 911.884475,1069.44054 911.884475,1075.18923 C911.884475,1075.47083 911.904196,1075.74951 911.925268,1076.02673 C911.942172,1076.23538 911.868924,1076.44111 911.723837,1076.58701 C911.57875,1076.73292 911.378727,1076.80295 911.177296,1076.78398 C910.975864,1076.76204 910.773024,1076.74745 910.564549,1076.74745 C907.506453,1076.74745 905.017436,1079.32706 905.017436,1082.49468 C905.017436,1085.66376 907.506453,1088.24337 910.564549,1088.24337 M918.400191,1096.64996 C918.814405,1096.64996 919.150191,1096.98575 919.150191,1097.39996 L919.15,1098.399 L920.150191,1098.39996 C920.564405,1098.39996 920.900191,1098.73575 920.900191,1099.14996 C920.900191,1099.56418 920.564405,1099.89996 920.150191,1099.89996 L919.15,1099.899 L919.150191,1100.89996 C919.150191,1101.31418 918.814405,1101.64996 918.400191,1101.64996 C917.985978,1101.64996 917.650191,1101.31418 917.650191,1100.89996 L917.65,1099.899 L916.650191,1099.89996 C916.235978,1099.89996 915.900191,1099.56418 915.900191,1099.14996 C915.900191,1098.73575 916.235978,1098.39996 916.650191,1098.39996 L917.65,1098.399 L917.650191,1097.39996 C917.650191,1096.98575 917.985978,1096.64996 918.400191,1096.64996 Z M933.900191,1092.31984 C934.258911,1092.52694 934.381817,1092.98564 934.174711,1093.34435 L929.924711,1100.70557 C929.717604,1101.06429 929.258911,1101.1872 928.900191,1100.98009 C928.541472,1100.77298 928.418566,1100.31429 928.625672,1099.95557 L932.875672,1092.59435 C933.082779,1092.23564 933.541472,1092.11273 933.900191,1092.31984 Z M913.900191,1092.31984 C914.258911,1092.52694 914.381817,1092.98564 914.174711,1093.34435 L909.924711,1100.70557 C909.717604,1101.06429 909.258911,1101.1872 908.900191,1100.98009 C908.541472,1100.77298 908.418566,1100.31429 908.625672,1099.95557 L912.875672,1092.59435 C913.082779,1092.23564 913.541472,1092.11273 913.900191,1092.31984 Z M923.400191,1091.64996 C923.814405,1091.64996 924.150191,1091.98575 924.150191,1092.39996 L924.15,1093.399 L925.150191,1093.39996 C925.564405,1093.39996 925.900191,1093.73575 925.900191,1094.14996 C925.900191,1094.56418 925.564405,1094.89996 925.150191,1094.89996 L924.15,1094.899 L924.150191,1095.89996 C924.150191,1096.31418 923.814405,1096.64996 923.400191,1096.64996 C922.985978,1096.64996 922.650191,1096.31418 922.650191,1095.89996 L922.65,1094.899 L921.650191,1094.89996 C921.235978,1094.89996 920.900191,1094.56418 920.900191,1094.14996 C920.900191,1093.73575 921.235978,1093.39996 921.650191,1093.39996 L922.65,1093.399 L922.650191,1092.39996 C922.650191,1091.98575 922.985978,1091.64996 923.400191,1091.64996 Z M921.947823,1063.35767 C927.362527,1063.35767 931.939107,1067.2125 933.085717,1072.62123 C933.523795,1072.54688 933.954831,1072.51186 934.377414,1072.51186 C938.939908,1072.51186 942.650191,1076.35502 942.650191,1081.08091 C942.650191,1085.80534 938.939908,1089.64996 934.377414,1089.64996 L933.014016,1089.64902 C932.955512,1089.64901 932.895352,1089.649 932.833583,1089.64898 L928.20375,1089.6488 L928.20375,1089.6488 L910.565113,1089.64996 C906.757635,1089.64996 903.660098,1086.44003 903.660098,1082.49474 C903.660098,1078.56258 906.736506,1075.36286 910.528489,1075.34098 L910.527925,1075.34092 C910.527925,1075.29131 910.526799,1075.24018 910.526799,1075.18917 C910.526799,1068.66572 915.64992,1063.35767 921.947823,1063.35767 Z M909.814994,1054.02301 C914.073299,1054.85245 917.50711,1057.9783 918.777938,1062.089 C918.883967,1062.43197 918.691889,1062.79596 918.34892,1062.90199 C918.00595,1063.00802 917.641965,1062.81594 917.535935,1062.47297 C916.436156,1058.91555 913.514853,1056.18716 909.872306,1055.36338 L909.626092,1055.31179 L909.679006,1055.63424 C909.734263,1056.01377 909.768425,1056.38275 909.782053,1056.74802 L909.788856,1057.11231 C909.788856,1062.92019 905.070504,1067.64505 899.269408,1067.64505 C898.739707,1067.64505 898.199085,1067.60209 897.657159,1067.51728 L897.310092,1067.45779 L897.355563,1067.68822 C898.175666,1071.63878 901.182911,1074.73909 905.054245,1075.69543 L905.339036,1075.76156 C905.68982,1075.83786 905.912338,1076.18407 905.836045,1076.53486 C905.759751,1076.88564 905.413536,1077.10816 905.062751,1077.03186 C900.44643,1076.02784 896.86002,1072.33252 896.019951,1067.62745 C895.946145,1067.21889 896.079901,1066.7997 896.375012,1066.5093 C896.670121,1066.21766 897.090261,1066.09073 897.498429,1066.16967 C898.095839,1066.28615 898.691786,1066.34505 899.269408,1066.34505 C904.352133,1066.34505 908.488856,1062.20263 908.488856,1057.11231 C908.488856,1056.58496 908.439427,1056.05159 908.337267,1055.48129 C908.263448,1055.07328 908.396333,1054.65362 908.69237,1054.36168 C908.987934,1054.07084 909.407617,1053.9441 909.814994,1054.02301 Z" id="456-阵雨夹雪"></path>
        </g>
    </g>
</svg>