<?xml version="1.0" encoding="UTF-8"?>
<svg width="47px" height="48px" viewBox="0 0 47 48" version="1.1" xmlns="http://www.w3.org/2000/svg" xmlns:xlink="http://www.w3.org/1999/xlink">
    <title>457-阵雪</title>
    <g id="页面-1" stroke="none" stroke-width="1" fill="none" fill-rule="evenodd">
        <g id="画板" transform="translate(-1057.000000, -1054.000000)" fill="#666666">
            <path d="M1071.56461,1088.24314 L1094.90953,1088.24197 C1095.06448,1088.24197 1095.22647,1088.24197 1095.37719,1088.25948 L1095.37719,1088.24349 C1099.1903,1088.24349 1102.29206,1085.03064 1102.29206,1081.08097 C1102.29206,1077.1313 1099.1903,1073.91845 1095.37719,1073.91845 C1094.8391,1073.91845 1094.27847,1073.99 1093.70939,1074.13585 C1093.52486,1074.18254 1093.32907,1074.14892 1093.16989,1074.03804 C1093.01213,1073.92866 1092.90508,1073.75644 1092.87549,1073.56092 C1092.10357,1068.46443 1087.92704,1064.76426 1082.9476,1064.76426 C1077.39908,1064.76426 1072.88448,1069.44054 1072.88448,1075.18923 C1072.88448,1075.47083 1072.9042,1075.74951 1072.92527,1076.02673 C1072.94217,1076.23538 1072.86892,1076.44111 1072.72384,1076.58701 C1072.57875,1076.73292 1072.37873,1076.80295 1072.1773,1076.78398 C1071.97586,1076.76204 1071.77302,1076.74745 1071.56455,1076.74745 C1068.50645,1076.74745 1066.01744,1079.32706 1066.01744,1082.49468 C1066.01744,1085.66376 1068.50645,1088.24337 1071.56455,1088.24337 M1079.40019,1096.64996 C1079.81441,1096.64996 1080.15019,1096.98575 1080.15019,1097.39996 L1080.15,1098.399 L1081.15019,1098.39996 C1081.56441,1098.39996 1081.90019,1098.73575 1081.90019,1099.14996 C1081.90019,1099.56418 1081.56441,1099.89996 1081.15019,1099.89996 L1080.15,1099.899 L1080.15019,1100.89996 C1080.15019,1101.31418 1079.81441,1101.64996 1079.40019,1101.64996 C1078.98598,1101.64996 1078.65019,1101.31418 1078.65019,1100.89996 L1078.65,1099.899 L1077.65019,1099.89996 C1077.23598,1099.89996 1076.90019,1099.56418 1076.90019,1099.14996 C1076.90019,1098.73575 1077.23598,1098.39996 1077.65019,1098.39996 L1078.65,1098.399 L1078.65019,1097.39996 C1078.65019,1096.98575 1078.98598,1096.64996 1079.40019,1096.64996 Z M1084.40019,1091.64996 C1084.81441,1091.64996 1085.15019,1091.98575 1085.15019,1092.39996 L1085.15,1093.399 L1086.15019,1093.39996 C1086.56441,1093.39996 1086.90019,1093.73575 1086.90019,1094.14996 C1086.90019,1094.56418 1086.56441,1094.89996 1086.15019,1094.89996 L1085.15,1094.899 L1085.15019,1095.89996 C1085.15019,1096.31418 1084.81441,1096.64996 1084.40019,1096.64996 C1083.98598,1096.64996 1083.65019,1096.31418 1083.65019,1095.89996 L1083.65,1094.899 L1082.65019,1094.89996 C1082.23598,1094.89996 1081.90019,1094.56418 1081.90019,1094.14996 C1081.90019,1093.73575 1082.23598,1093.39996 1082.65019,1093.39996 L1083.65,1093.399 L1083.65019,1092.39996 C1083.65019,1091.98575 1083.98598,1091.64996 1084.40019,1091.64996 Z M1082.94782,1063.35767 C1088.36253,1063.35767 1092.93911,1067.2125 1094.08572,1072.62123 C1094.5238,1072.54688 1094.95483,1072.51186 1095.37741,1072.51186 C1099.93991,1072.51186 1103.65019,1076.35502 1103.65019,1081.08091 C1103.65019,1085.80534 1099.93991,1089.64996 1095.37741,1089.64996 L1094.01402,1089.64902 C1093.95551,1089.64901 1093.89535,1089.649 1093.83358,1089.64898 L1089.20375,1089.6488 L1089.20375,1089.6488 L1071.56511,1089.64996 C1067.75764,1089.64996 1064.6601,1086.44003 1064.6601,1082.49474 C1064.6601,1078.56258 1067.73651,1075.36286 1071.52849,1075.34098 L1071.52793,1075.34092 C1071.52793,1075.29131 1071.5268,1075.24018 1071.5268,1075.18917 C1071.5268,1068.66572 1076.64992,1063.35767 1082.94782,1063.35767 Z M1070.81499,1054.02301 C1075.0733,1054.85245 1078.50711,1057.9783 1079.77794,1062.089 C1079.88397,1062.43197 1079.69189,1062.79596 1079.34892,1062.90199 C1079.00595,1063.00802 1078.64196,1062.81594 1078.53594,1062.47297 C1077.43616,1058.91555 1074.51485,1056.18716 1070.87231,1055.36338 L1070.62609,1055.31179 L1070.67901,1055.63424 C1070.73426,1056.01377 1070.76843,1056.38275 1070.78205,1056.74802 L1070.78886,1057.11231 C1070.78886,1062.92019 1066.0705,1067.64505 1060.26941,1067.64505 C1059.73971,1067.64505 1059.19908,1067.60209 1058.65716,1067.51728 L1058.31009,1067.45779 L1058.35556,1067.68822 C1059.17567,1071.63878 1062.18291,1074.73909 1066.05424,1075.69543 L1066.33904,1075.76156 C1066.68982,1075.83786 1066.91234,1076.18407 1066.83604,1076.53486 C1066.75975,1076.88564 1066.41354,1077.10816 1066.06275,1077.03186 C1061.44643,1076.02784 1057.86002,1072.33252 1057.01995,1067.62745 C1056.94615,1067.21889 1057.0799,1066.7997 1057.37501,1066.5093 C1057.67012,1066.21766 1058.09026,1066.09073 1058.49843,1066.16967 C1059.09584,1066.28615 1059.69179,1066.34505 1060.26941,1066.34505 C1065.35213,1066.34505 1069.48886,1062.20263 1069.48886,1057.11231 C1069.48886,1056.58496 1069.43943,1056.05159 1069.33727,1055.48129 C1069.26345,1055.07328 1069.39633,1054.65362 1069.69237,1054.36168 C1069.98793,1054.07084 1070.40762,1053.9441 1070.81499,1054.02301 Z" id="457-阵雪"></path>
        </g>
    </g>
</svg>