<?xml version="1.0" encoding="UTF-8"?>
<svg width="34px" height="35px" viewBox="0 0 34 35" version="1.1" xmlns="http://www.w3.org/2000/svg" xmlns:xlink="http://www.w3.org/1999/xlink">
    <title>499-雪</title>
    <g id="页面-1" stroke="none" stroke-width="1" fill="none" fill-rule="evenodd">
        <g id="画板" transform="translate(-741.000000, -1060.000000)" fill="#666666">
            <path d="M762.5,1090 C762.914214,1090 763.25,1090.33579 763.25,1090.75 L763.249,1091.75 L764.25,1091.75 C764.664214,1091.75 765,1092.08579 765,1092.5 C765,1092.91421 764.664214,1093.25 764.25,1093.25 L763.249,1093.25 L763.25,1094.25 C763.25,1094.66421 762.914214,1095 762.5,1095 C762.085786,1095 761.75,1094.66421 761.75,1094.25 L761.749,1093.25 L760.75,1093.25 C760.335786,1093.25 760,1092.91421 760,1092.5 C760,1092.08579 760.335786,1091.75 760.75,1091.75 L761.749,1091.75 L761.75,1090.75 C761.75,1090.33579 762.085786,1090 762.5,1090 Z M743.5,1090 C743.914214,1090 744.25,1090.33579 744.25,1090.75 L744.249,1091.75 L745.25,1091.75 C745.664214,1091.75 746,1092.08579 746,1092.5 C746,1092.91421 745.664214,1093.25 745.25,1093.25 L744.249,1093.25 L744.25,1094.25 C744.25,1094.66421 743.914214,1095 743.5,1095 C743.085786,1095 742.75,1094.66421 742.75,1094.25 L742.749,1093.25 L741.75,1093.25 C741.335786,1093.25 741,1092.91421 741,1092.5 C741,1092.08579 741.335786,1091.75 741.75,1091.75 L742.749,1091.75 L742.75,1090.75 C742.75,1090.33579 743.085786,1090 743.5,1090 Z M752.5,1090 C752.914214,1090 753.25,1090.33579 753.25,1090.75 L753.249,1091.75 L754.25,1091.75 C754.664214,1091.75 755,1092.08579 755,1092.5 C755,1092.91421 754.664214,1093.25 754.25,1093.25 L753.249,1093.25 L753.25,1094.25 C753.25,1094.66421 752.914214,1095 752.5,1095 C752.085786,1095 751.75,1094.66421 751.75,1094.25 L751.749,1093.25 L750.75,1093.25 C750.335786,1093.25 750,1092.91421 750,1092.5 C750,1092.08579 750.335786,1091.75 750.75,1091.75 L751.749,1091.75 L751.75,1090.75 C751.75,1090.33579 752.085786,1090 752.5,1090 Z M747.5,1084 C747.914214,1084 748.25,1084.33579 748.25,1084.75 L748.249,1085.75 L749.25,1085.75 C749.664214,1085.75 750,1086.08579 750,1086.5 C750,1086.91421 749.664214,1087.25 749.25,1087.25 L748.249,1087.25 L748.25,1088.25 C748.25,1088.66421 747.914214,1089 747.5,1089 C747.085786,1089 746.75,1088.66421 746.75,1088.25 L746.749,1087.25 L745.75,1087.25 C745.335786,1087.25 745,1086.91421 745,1086.5 C745,1086.08579 745.335786,1085.75 745.75,1085.75 L746.749,1085.75 L746.75,1084.75 C746.75,1084.33579 747.085786,1084 747.5,1084 Z M757.5,1084 C757.914214,1084 758.25,1084.33579 758.25,1084.75 L758.249,1085.75 L759.25,1085.75 C759.664214,1085.75 760,1086.08579 760,1086.5 C760,1086.91421 759.664214,1087.25 759.25,1087.25 L758.249,1087.25 L758.25,1088.25 C758.25,1088.66421 757.914214,1089 757.5,1089 C757.085786,1089 756.75,1088.66421 756.75,1088.25 L756.749,1087.25 L755.75,1087.25 C755.335786,1087.25 755,1086.91421 755,1086.5 C755,1086.08579 755.335786,1085.75 755.75,1085.75 L756.749,1085.75 L756.75,1084.75 C756.75,1084.33579 757.085786,1084 757.5,1084 Z M767.5,1084 C767.914214,1084 768.25,1084.33579 768.25,1084.75 L768.249,1085.75 L769.25,1085.75 C769.664214,1085.75 770,1086.08579 770,1086.5 C770,1086.91421 769.664214,1087.25 769.25,1087.25 L768.249,1087.25 L768.25,1088.25 C768.25,1088.66421 767.914214,1089 767.5,1089 C767.085786,1089 766.75,1088.66421 766.75,1088.25 L766.749,1087.25 L765.75,1087.25 C765.335786,1087.25 765,1086.91421 765,1086.5 C765,1086.08579 765.335786,1085.75 765.75,1085.75 L766.749,1085.75 L766.75,1084.75 C766.75,1084.33579 767.085786,1084 767.5,1084 Z M756.918348,1060 C761.754545,1060 765.807371,1063.52478 766.553943,1068.36316 L766.531,1068.23 L766.715159,1068.1887 C766.941011,1068.14308 767.166253,1068.10877 767.38998,1068.08587 L767.724322,1068.06008 L768.055712,1068.05146 C771.891179,1068.05146 775,1071.21233 775,1075.08785 C775,1078.90393 771.53739,1082.1229 767.636717,1082.1229 L767.636717,1082.1229 L746.718723,1082.12413 C743.559732,1082.12413 741,1079.52018 741,1076.33126 C741,1073.14341 743.559957,1070.53968 746.718723,1070.53968 C746.921471,1070.53968 747.124774,1070.55219 747.337718,1070.57504 L747.181,1070.56 L747.158839,1070.1839 L747.153116,1069.90584 C747.153116,1064.44823 751.527679,1060 756.918348,1060 Z M756.918348,1061.47335 C752.365272,1061.47335 748.649733,1065.25146 748.649733,1069.90584 C748.649733,1069.94312 748.65012,1069.97994 748.650934,1070.01752 L748.650934,1070.01752 L748.661273,1070.26185 L748.683828,1070.58279 C748.716633,1070.98028 748.573001,1071.37345 748.287339,1071.65544 C747.999969,1071.93911 747.600941,1072.07919 747.186957,1072.04085 C747.013448,1072.0223 746.862769,1072.01302 746.718723,1072.01302 C744.397639,1072.01302 742.496617,1073.94655 742.496617,1076.33126 C742.496617,1078.71709 744.397474,1080.65078 746.718679,1080.65078 L746.718679,1080.65078 L767.636673,1080.64955 C770.729394,1080.64955 773.503383,1078.07075 773.503383,1075.08785 C773.503383,1072.01559 771.053619,1069.52481 768.055712,1069.52481 C767.633003,1069.52481 767.192732,1069.58085 766.744359,1069.69364 C766.368726,1069.78694 765.970946,1069.71714 765.652396,1069.49931 C765.340191,1069.28685 765.131497,1068.95551 765.074281,1068.58431 C764.437551,1064.45779 761.006006,1061.47335 756.918348,1061.47335 Z" id="499-雪"></path>
        </g>
    </g>
</svg>