<?xml version="1.0" encoding="UTF-8"?>
<svg width="56px" height="32px" viewBox="0 0 56 32" version="1.1" xmlns="http://www.w3.org/2000/svg" xmlns:xlink="http://www.w3.org/1999/xlink">
    <title>500-薄雾</title>
    <g id="页面-1" stroke="none" stroke-width="1" fill="none" fill-rule="evenodd">
        <g id="画板" transform="translate(-1212.000000, -1064.000000)" fill="#666666">
            <path d="M1220.17838,1089.30987 C1220.68053,1089.30987 1221.08744,1089.71853 1221.08874,1090.22527 C1221.08842,1090.73201 1220.68345,1091.14427 1220.18129,1091.14558 L1220.18129,1091.14558 L1212.91134,1091.1669 C1212.40821,1091.1669 1212.0013,1090.75823 1212,1090.25149 C1211.99838,1089.74475 1212.40335,1089.3325 1212.90713,1089.33119 L1212.90713,1089.33119 L1220.17708,1089.30987 Z M1267.09125,1089.17566 C1267.59179,1089.17566 1267.9987,1089.58432 1268,1090.09106 C1268.00162,1090.5978 1267.59503,1091.01006 1267.09287,1091.01137 L1267.09287,1091.01137 L1259.82292,1091.03255 C1259.31979,1091.03255 1258.91288,1090.62226 1258.91158,1090.11715 C1258.90996,1089.61041 1259.31655,1089.19816 1259.81871,1089.19685 L1259.81871,1089.19685 L1267.08866,1089.17566 Z M1263.45304,1078.55372 C1263.89688,1078.31343 1264.44763,1078.48343 1264.68413,1078.92806 C1264.92225,1079.37595 1264.75541,1079.93173 1264.31156,1080.17039 L1264.31156,1080.17039 L1257.90338,1083.6342 C1257.76569,1083.70782 1257.61991,1083.74209 1257.47412,1083.74209 C1257.15014,1083.74209 1256.83589,1083.56718 1256.67228,1083.25823 C1256.43416,1082.81197 1256.60101,1082.25456 1257.04485,1082.0159 L1257.04485,1082.0159 Z M1215.42991,1078.67386 C1215.66965,1078.22918 1216.22364,1078.06578 1216.66424,1078.30934 L1216.66424,1078.30934 L1223.04489,1081.82879 C1223.48549,1082.07072 1223.64748,1082.62977 1223.40774,1083.07439 C1223.24251,1083.37844 1222.92988,1083.55171 1222.60752,1083.55171 C1222.46012,1083.55171 1222.31109,1083.51575 1222.17178,1083.43885 L1222.17178,1083.43885 L1215.79114,1079.91946 C1215.35047,1079.67754 1215.18855,1079.11849 1215.42991,1078.67386 Z M1253.48424,1068.52568 C1253.74827,1068.09413 1254.30875,1067.96172 1254.73639,1068.22817 C1255.16242,1068.49625 1255.29362,1069.06021 1255.03121,1069.49175 L1255.03121,1069.49175 L1251.20671,1075.72465 C1251.035,1076.00581 1250.73695,1076.15947 1250.43241,1076.15947 C1250.26881,1076.15947 1250.10358,1076.1154 1249.95455,1076.02216 C1249.52691,1075.75571 1249.3957,1075.19012 1249.65974,1074.76021 L1249.65974,1074.76021 Z M1240.00518,1064 C1240.50734,1064 1240.91392,1064.4103 1240.91392,1064.91704 L1240.91392,1064.91704 L1240.91392,1072.24678 C1240.91392,1072.75516 1240.50734,1073.16545 1240.00518,1073.16545 C1239.50302,1073.16545 1239.09481,1072.75516 1239.09481,1072.24678 L1239.09481,1072.24678 L1239.09481,1064.91704 C1239.09481,1064.4103 1239.50302,1064 1240.00518,1064 Z M1267.17386,1094.3268 C1267.63012,1094.3268 1268,1094.69667 1268,1095.15294 L1268,1095.17386 C1268,1095.63012 1267.63012,1096 1267.17386,1096 L1212.82614,1096 C1212.36988,1096 1212,1095.63012 1212,1095.17386 L1212,1095.15294 C1212,1094.69667 1212.36988,1094.3268 1212.82614,1094.3268 L1267.17386,1094.3268 Z M1225.15767,1068.26577 C1225.58531,1067.99605 1226.14579,1068.12846 1226.41144,1068.55674 L1226.41144,1068.55674 L1230.26672,1074.77983 C1230.53238,1075.2081 1230.40279,1075.77533 1229.97677,1076.04504 C1229.82774,1076.13822 1229.66089,1076.18399 1229.49567,1076.18399 C1229.19437,1076.18399 1228.89632,1076.03033 1228.72461,1075.75244 L1228.72461,1075.75244 L1224.86933,1069.52935 C1224.60368,1069.10107 1224.73165,1068.53385 1225.15767,1068.26577 Z M1240,1076.81046 C1248.44791,1076.81046 1255.2963,1083.71639 1255.2963,1092.23529 C1255.2963,1092.66846 1254.94807,1093.01961 1254.51852,1093.01961 C1254.08896,1093.01961 1253.74074,1092.66846 1253.74074,1092.23529 C1253.74074,1084.58272 1247.5888,1078.37908 1240,1078.37908 C1232.4112,1078.37908 1226.25926,1084.58272 1226.25926,1092.23529 C1226.25926,1092.66846 1225.91104,1093.01961 1225.48148,1093.01961 C1225.05193,1093.01961 1224.7037,1092.66846 1224.7037,1092.23529 C1224.7037,1083.71639 1231.55209,1076.81046 1240,1076.81046 Z" id="500-薄雾"></path>
        </g>
    </g>
</svg>