<?xml version="1.0" encoding="UTF-8"?>
<svg width="32px" height="22px" viewBox="0 0 32 22" version="1.1" xmlns="http://www.w3.org/2000/svg" xmlns:xlink="http://www.w3.org/1999/xlink">
    <title>503-扬沙</title>
    <g id="页面-1" stroke="none" stroke-width="1" fill="none" fill-rule="evenodd">
        <g id="画板" transform="translate(-263.000000, -1229.000000)" fill="#666666">
            <g id="503-扬沙" transform="translate(263.000000, 1229.000000)">
                <path d="M25.4444444,2 C29.0649778,2 32,4.96799997 32,8.62921348 C32,12.2072176 29.1968719,15.1231598 25.6902103,15.2538545 L25.4444444,15.258427 L1,15.258427 C0.44771525,15.258427 0,14.8056812 0,14.247191 C0,13.7316616 0.381485184,13.306234 0.874562125,13.243834 L1,13.2359551 L25.4444444,13.2359551 C27.9604083,13.2359551 30,11.1734466 30,8.62921348 C30,6.08498037 27.9604083,4.02247191 25.4444444,4.02247191 C24.8921597,4.02247191 24.4444444,3.56972615 24.4444444,3.01123596 C24.4444444,2.45274576 24.8921597,2 25.4444444,2 Z" id="路径" fill-rule="nonzero"></path>
                <rect id="矩形备份-79" x="4" y="0" width="3" height="3" rx="1.49284436"></rect>
                <rect id="矩形备份-93" x="14" y="0" width="3" height="3" rx="1.49284436"></rect>
                <rect id="矩形备份-84" x="0" y="6" width="3" height="3" rx="1.49284436"></rect>
                <rect id="矩形备份-85" x="9" y="6" width="3" height="3" rx="1.49284436"></rect>
                <rect id="矩形备份-86" x="18" y="6" width="3" height="3" rx="1.49284436"></rect>
                <path d="M28.7777778,19.9775281 C29.3300625,19.9775281 29.7777778,20.4302738 29.7777778,20.988764 C29.7777778,21.5042935 29.3962926,21.9297211 28.9032157,21.992121 L28.7777778,22 L4.33333333,22 C3.78104858,22 3.33333333,21.5472542 3.33333333,20.988764 C3.33333333,20.4732346 3.71481852,20.047807 4.20789546,19.9854071 L4.33333333,19.9775281 L28.7777778,19.9775281 Z" id="路径" fill-rule="nonzero"></path>
            </g>
        </g>
    </g>
</svg>