<?xml version="1.0" encoding="UTF-8"?>
<svg width="32px" height="34px" viewBox="0 0 32 34" version="1.1" xmlns="http://www.w3.org/2000/svg" xmlns:xlink="http://www.w3.org/1999/xlink">
    <title>508-强到沙暴</title>
    <g id="页面-1" stroke="none" stroke-width="1" fill="none" fill-rule="evenodd">
        <g id="画板" transform="translate(-744.000000, -1223.000000)" fill="#666666">
            <g id="508-强到沙暴" transform="translate(744.000000, 1223.000000)">
                <path d="M21.6804734,2 C24.7654249,2 27.2662722,4.50084731 27.2662722,7.58579882 C27.2662722,10.6006378 24.877808,13.057621 21.8898834,13.1677449 L21.6804734,13.1715976 L0.852071006,13.1715976 C0.381485184,13.1715976 0,12.7901124 0,12.3195266 C0,11.8851397 0.325052464,11.5266729 0.745189029,11.4740945 L0.852071006,11.4674556 L21.6804734,11.4674556 C23.8242532,11.4674556 25.5621302,9.72957867 25.5621302,7.58579882 C25.5621302,5.44201896 23.8242532,3.70414201 21.6804734,3.70414201 C21.2098876,3.70414201 20.8284024,3.32265683 20.8284024,2.85207101 C20.8284024,2.38148518 21.2098876,2 21.6804734,2 Z" id="路径" fill-rule="nonzero"></path>
                <rect id="矩形备份-79" x="7" y="0" width="3" height="3" rx="1.49284436"></rect>
                <rect id="矩形备份-104" x="7" y="31" width="3" height="3" rx="1.49284436"></rect>
                <rect id="矩形备份-106" x="17" y="31" width="3" height="3" rx="1.49284436"></rect>
                <rect id="矩形备份-84" x="3" y="6" width="3" height="3" rx="1.49284436"></rect>
                <rect id="矩形备份-102" x="3" y="27" width="3" height="3" rx="1.49284436"></rect>
                <rect id="矩形备份-85" x="12" y="6" width="3" height="3" rx="1.49284436"></rect>
                <rect id="矩形备份-103" x="12" y="27" width="3" height="3" rx="1.49284436"></rect>
                <rect id="矩形备份-105" x="21" y="27" width="3" height="3" rx="1.49284436"></rect>
                <rect id="矩形备份-107" x="29" y="19" width="3" height="3" rx="1.49284436"></rect>
                <rect id="矩形备份-108" x="29" y="12" width="3" height="3" rx="1.49284436"></rect>
                <path d="M26.4142012,22.8284024 C29.4991527,22.8284024 32,25.3292497 32,28.4142012 C32,31.4290402 29.6115358,33.8860234 26.6236112,33.9961472 L26.4142012,34 L0.852071006,34 C0.381485184,34 0,33.6185148 0,33.147929 C0,32.7135421 0.325052464,32.3550752 0.745189029,32.3024968 L0.852071006,32.295858 L26.4142012,32.295858 C28.557981,32.295858 30.295858,30.557981 30.295858,28.4142012 C30.295858,26.2704213 28.557981,24.5325444 26.4142012,24.5325444 C25.9436154,24.5325444 25.5621302,24.1510592 25.5621302,23.6804734 C25.5621302,23.2098876 25.9436154,22.8284024 26.4142012,22.8284024 Z" id="路径备份" fill-rule="nonzero" transform="translate(16.000000, 28.414201) scale(1, -1) translate(-16.000000, -28.414201) "></path>
                <path d="M24.5207101,17.147929 C24.9912959,17.147929 25.3727811,17.5294142 25.3727811,18 C25.3727811,18.4343869 25.0477286,18.7928538 24.627592,18.8454322 L24.5207101,18.852071 L3.69230769,18.852071 C3.22172187,18.852071 2.84023669,18.4705858 2.84023669,18 C2.84023669,17.5656131 3.16528915,17.2071462 3.58542572,17.1545678 L3.69230769,17.147929 L24.5207101,17.147929 Z" id="路径" fill-rule="nonzero"></path>
            </g>
        </g>
    </g>
</svg>