<?xml version="1.0" encoding="UTF-8"?>
<svg width="30px" height="26px" viewBox="0 0 30 26" version="1.1" xmlns="http://www.w3.org/2000/svg" xmlns:xlink="http://www.w3.org/1999/xlink">
    <title>513-严重霾</title>
    <g id="页面-1" stroke="none" stroke-width="1" fill="none" fill-rule="evenodd">
        <g id="画板" transform="translate(-105.000000, -1385.000000)" fill="#666666">
            <g id="513-严重霾" transform="translate(105.000000, 1385.000000)">
                <rect id="矩形备份-79" x="0" y="0" width="3" height="3" rx="1.49284436"></rect>
                <rect id="矩形备份-87" x="0" y="16" width="3" height="3" rx="1.49284436"></rect>
                <rect id="矩形备份-115" x="9" y="16" width="3" height="3" rx="1.49284436"></rect>
                <rect id="矩形备份-120" x="4.5" y="8" width="3" height="3" rx="1.49284436"></rect>
                <rect id="矩形备份-117" x="18" y="16" width="3" height="3" rx="1.49284436"></rect>
                <rect id="矩形备份-121" x="13.5" y="8" width="3" height="3" rx="1.49284436"></rect>
                <rect id="矩形备份-116" x="9" y="0" width="3" height="3" rx="1.49284436"></rect>
                <rect id="矩形备份-118" x="18" y="0" width="3" height="3" rx="1.49284436"></rect>
                <rect id="矩形备份-86" x="27" y="0" width="3" height="3" rx="1.49284436"></rect>
                <rect id="矩形备份-90" x="27" y="16" width="3" height="3" rx="1.49284436"></rect>
                <rect id="矩形备份-122" x="22.5" y="8" width="3" height="3" rx="1.49284436"></rect>
                <rect id="矩形备份-91" x="0" y="24" width="20" height="2" rx="0.9"></rect>
                <rect id="矩形备份-92" x="22" y="24" width="8" height="2" rx="0.9"></rect>
            </g>
        </g>
    </g>
</svg>