<?xml version="1.0" encoding="UTF-8"?>
<svg width="25px" height="42px" viewBox="0 0 25 42" version="1.1" xmlns="http://www.w3.org/2000/svg" xmlns:xlink="http://www.w3.org/1999/xlink">
    <title>901-冷</title>
    <g id="页面-1" stroke="none" stroke-width="1" fill="none" fill-rule="evenodd">
        <g id="画板" transform="translate(-667.000000, -1380.000000)" fill="#666666">
            <g id="901-冷" transform="translate(667.250000, 1380.250000)">
                <path d="M8.532572,0.00488785968 C6.01014129,0.11853034 4,2.19951834 4,4.75 L3.999,25.401 L3.86723945,25.4878962 C1.47842564,27.0954035 0,29.7942585 0,32.75 C0,37.5824916 3.91750844,41.5 8.75,41.5 C13.5824916,41.5 17.5,37.5824916 17.5,32.75 L17.494751,32.4452275 C17.3969864,29.6098719 15.9396437,27.0407214 13.6337377,25.4885546 L13.501,25.402 L13.5,4.74995872 C13.5,2.12664744 11.3733526,0 8.75,0 L8.532572,0.00488785968 Z M8.75,1.5 C10.5449254,1.5 12,2.95507456 12,4.75 L12.0011835,26.2534521 L12.3755064,26.47007 C14.6010324,27.7579653 16,30.1317179 16,32.75 C16,36.7540644 12.7540644,40 8.75,40 C4.74593556,40 1.5,36.7540644 1.5,32.75 C1.5,30.1313451 2.89936875,27.7573038 5.1253995,26.4695458 L5.49983674,26.252934 L5.5,4.75000569 C5.5,2.95507456 6.95507456,1.5 8.75,1.5 Z" id="形状结合" fill-rule="nonzero"></path>
                <circle id="椭圆形" cx="8.75" cy="32.75" r="3"></circle>
                <rect id="矩形" x="7.75" y="3.75" width="2" height="28" rx="1"></rect>
                <rect id="矩形" x="16.75" y="23.75" width="6" height="1.6" rx="0.8"></rect>
                <rect id="矩形备份-126" x="16.75" y="19.75" width="8" height="1.6" rx="0.8"></rect>
                <rect id="矩形备份-128" x="16.75" y="11.75" width="8" height="1.6" rx="0.8"></rect>
                <rect id="矩形备份-127" x="16.75" y="15.75" width="8" height="1.6" rx="0.8"></rect>
                <rect id="矩形备份-129" x="16.75" y="7.75" width="8" height="1.6" rx="0.8"></rect>
                <rect id="矩形备份-130" x="16.75" y="3.75" width="8" height="1.6" rx="0.8"></rect>
            </g>
        </g>
    </g>
</svg>