<?xml version="1.0" encoding="UTF-8"?>
<svg width="34px" height="33px" viewBox="0 0 34 33" version="1.1" xmlns="http://www.w3.org/2000/svg" xmlns:xlink="http://www.w3.org/1999/xlink">
    <title>999-未知</title>
    <g id="页面-1" stroke="none" stroke-width="1" fill="none" fill-rule="evenodd">
        <g id="画板" transform="translate(-743.000000, -1384.000000)" fill="#666666">
            <path d="M758.918348,1384 C753.527679,1384 749.153116,1388.44823 749.153116,1393.90584 L749.158839,1394.1839 L749.181314,1394.56158 L749.337718,1394.57504 C749.124774,1394.55219 748.921471,1394.53968 748.718723,1394.53968 C745.559957,1394.53968 743,1397.14341 743,1400.33126 C743,1403.52018 745.559732,1406.12413 748.718723,1406.12413 L769.636717,1406.1229 C773.53739,1406.1229 777,1402.90393 777,1399.08785 C777,1395.21233 773.891179,1392.05146 770.055712,1392.05146 L769.724322,1392.06008 C769.391343,1392.07729 769.053938,1392.12027 768.715159,1392.1887 L768.531325,1392.23001 L768.553943,1392.36316 C767.807371,1387.52478 763.754545,1384 758.918348,1384 Z M758.918348,1385.47335 C763.006006,1385.47335 766.437551,1388.45779 767.074281,1392.58431 C767.131497,1392.95551 767.340191,1393.28685 767.652396,1393.49931 C767.970946,1393.71714 768.368726,1393.78694 768.744359,1393.69364 C769.192732,1393.58085 769.633003,1393.52481 770.055712,1393.52481 C773.053619,1393.52481 775.503383,1396.01559 775.503383,1399.08785 C775.503383,1402.07075 772.729394,1404.64955 769.636673,1404.64955 L748.718679,1404.65078 C746.397474,1404.65078 744.496617,1402.71709 744.496617,1400.33126 C744.496617,1397.94655 746.397639,1396.01302 748.718723,1396.01302 C748.862769,1396.01302 749.013448,1396.0223 749.186957,1396.04085 C749.600941,1396.07919 749.999969,1395.93911 750.287339,1395.65544 C750.573001,1395.37345 750.716633,1394.98028 750.683828,1394.58279 L750.661273,1394.26185 L750.650934,1394.01752 C750.65012,1393.97994 750.649733,1393.94312 750.649733,1393.90584 C750.649733,1389.25146 754.365272,1385.47335 758.918348,1385.47335 Z M756.742188,1417 C757.054688,1417 757.210938,1416.8125 757.210938,1416.4375 L757.210938,1408.9375 C757.210938,1408.5625 757.039062,1408.375 756.695312,1408.375 C756.351562,1408.375 756.179688,1408.5625 756.179688,1408.9375 L756.179688,1415.125 L756.132812,1415.125 L751.820312,1408.9375 C751.570312,1408.53125 751.320312,1408.34375 751.070312,1408.375 C750.757812,1408.375 750.601562,1408.59375 750.601562,1409.03125 L750.601562,1416.53125 C750.601562,1416.84375 750.773438,1417 751.117188,1417 C751.460938,1417 751.632812,1416.84375 751.632812,1416.53125 L751.632812,1410.29688 L751.679688,1410.29688 L755.992188,1416.53125 C756.210938,1416.875 756.460938,1417.03125 756.742188,1417 Z M758.617188,1417 C758.898438,1417 759.070312,1416.90625 759.132812,1416.71875 L762.367188,1409.35938 C762.492188,1409.07812 762.554688,1408.90625 762.554688,1408.84375 C762.554688,1408.53125 762.398438,1408.375 762.085938,1408.375 C761.835938,1408.375 761.679688,1408.5 761.617188,1408.75 L758.335938,1416.10938 C758.210938,1416.35938 758.148438,1416.53125 758.148438,1416.625 C758.179688,1416.875 758.335938,1417 758.617188,1417 Z M769.492188,1417 C769.835938,1417 770.007812,1416.875 770.007812,1416.625 C770.007812,1416.46875 769.960938,1416.29688 769.867188,1416.10938 L767.195312,1409.03125 C767.070312,1408.59375 766.820312,1408.375 766.445312,1408.375 C766.101562,1408.375 765.851562,1408.59375 765.695312,1409.03125 L763.070312,1416.10938 C762.976562,1416.29688 762.929688,1416.46875 762.929688,1416.625 C762.960938,1416.875 763.117188,1417 763.398438,1417 C763.679688,1417 763.851562,1416.89062 763.914062,1416.67188 L764.476562,1415.125 L768.460938,1415.125 L768.976562,1416.67188 C769.070312,1416.89062 769.242188,1417 769.492188,1417 Z M768.132812,1414.23438 L764.804688,1414.23438 L766.445312,1409.59375 L766.492188,1409.59375 L768.132812,1414.23438 Z" id="999-未知"></path>
        </g>
    </g>
</svg>