<?xml version="1.0" encoding="UTF-8"?>
<svg width="34px" height="30px" viewBox="0 0 34 30" version="1.1" xmlns="http://www.w3.org/2000/svg" xmlns:xlink="http://www.w3.org/1999/xlink">
    <title>形状结合</title>
    <g id="页面-1" stroke="none" stroke-width="1" fill="none" fill-rule="evenodd">
        <g id="搜索人员" transform="translate(-297.000000, -353.000000)" fill="#FFFFFF" fill-rule="nonzero">
            <g id="编组-25" transform="translate(170.000000, 340.000000)">
                <g id="预定" transform="translate(124.000000, 8.000000)">
                    <path d="M35.7981878,5 C36.227554,5 36.6243046,5.22569154 36.8389877,5.59205882 C37.0536708,5.9584261 37.0536708,6.4098092 36.8389877,6.77617648 C36.6243046,7.14254376 36.227554,7.36823531 35.7981878,7.3682353 L35.7981878,7.3682353 L34.5829426,7.3682353 L34.5829426,34.2888235 C34.5827678,34.3447262 34.5758536,34.4004104 34.5623452,34.4547059 C34.4645093,34.8301855 34.080706,35.0603653 33.6972554,34.9735294 L33.6972554,34.9735294 L20.6098614,31.4291176 C20.0284461,31.2906732 19.421433,31.2949148 18.8420692,31.4414706 L18.8420692,31.4414706 L6.31796873,34.9761765 C6.25718064,34.9919991 6.19457036,35 6.13169679,35 C5.94137299,34.9996796 5.75900041,34.9247569 5.62482222,34.7917647 C5.49041266,34.6601934 5.41551273,34.48079 5.41705738,34.2941176 L5.41705738,34.2941176 L5.41705738,7.3682353 L4.20181217,7.3682353 C3.77244604,7.36823531 3.37569537,7.14254376 3.1610123,6.77617648 C2.94632923,6.4098092 2.94632923,5.9584261 3.1610123,5.59205882 C3.37569537,5.22569154 3.77244604,5 4.20181217,5 L4.20181217,5 Z M32.2706632,7.3682353 L7.7329127,7.3682353 L7.7329127,31.2288235 C7.73192769,31.4775401 7.84926298,31.712348 8.04993942,31.8632353 L8.04993942,31.8632353 L8.0866565,31.8914706 C8.28443953,32.0239088 8.53099001,32.0648251 8.76189224,32.0035294 L8.76189224,32.0035294 L18.8581889,29.0864706 C19.4202411,28.944176 20.0091833,28.9402368 20.5731444,29.075 L20.5731444,29.075 L31.2596007,32.0335294 C31.3235183,32.0488019 31.3890576,32.0564707 31.454828,32.0564707 C31.9029445,32.0531298 32.2657944,31.6967995 32.2706632,31.2552941 L32.2706632,31.2552941 L32.2706632,7.3682353 Z M19.3220776,12.5838205 C19.9850675,12.5828426 20.5240196,13.110309 20.5274719,13.7635294 L20.5274719,13.7635294 L20.5274719,20.3458824 L24.3415688,20.3458824 C25.0046138,20.3449059 25.5431964,20.8731899 25.545172,21.5264706 L25.545172,21.5264706 L25.545172,21.9358824 C25.5427032,22.5890213 25.0035738,23.1166586 24.3406732,23.1147113 L24.3406732,23.1147113 L18.9119212,23.1085294 C18.2336563,22.9519921 17.7404424,22.374879 17.6993626,21.6897059 L17.6993626,21.6897059 L17.6993626,13.7626471 C17.7023238,13.1097112 18.2411636,12.5823574 18.9038614,12.5838205 L18.9038614,12.5838205 Z" id="形状结合"></path>
                </g>
            </g>
        </g>
    </g>
</svg>