<?xml version="1.0" encoding="UTF-8"?>
<svg width="20px" height="20px" viewBox="0 0 20 20" version="1.1" xmlns="http://www.w3.org/2000/svg" xmlns:xlink="http://www.w3.org/1999/xlink">
    <title>编组</title>
    <g id="页面-1" stroke="none" stroke-width="1" fill="none" fill-rule="evenodd" opacity="0.699999988">
        <g id="版式2-2" transform="translate(-1430.000000, -845.000000)" fill="#676767" fill-rule="nonzero">
            <g id="编组" transform="translate(1430.000000, 845.000000)">
                <path d="M19.2290127,20 C19.0319091,20 18.8348056,19.9254875 18.6857761,19.7740588 L0.225347034,1.31418442 C-0.0751156781,1.01373073 -0.0751156781,0.525793949 0.225347034,0.225340264 C0.525809747,-0.0751134213 1.01376119,-0.0751134213 1.3142239,0.225340264 L19.774653,18.6852147 C20.0751157,18.9856684 20.0751157,19.4736051 19.774653,19.7740588 C19.6232198,19.9254875 19.4261162,20 19.2290127,20 Z" id="路径"></path>
                <path d="M0.768583619,20 C0.571480079,20 0.37437654,19.9254875 0.225347034,19.7740588 C-0.0751156781,19.4736051 -0.0751156781,18.9856684 0.225347034,18.6852147 L18.6857761,0.225340264 C18.9862388,-0.0751134213 19.4741903,-0.0751134213 19.774653,0.225340264 C20.0751157,0.525793949 20.0751157,1.01373073 19.774653,1.31418442 L1.3142239,19.7740588 C1.1627907,19.9254875 0.965687158,20 0.768583619,20 Z" id="路径"></path>
            </g>
        </g>
    </g>
</svg>