<?xml version="1.0" encoding="UTF-8"?>
<svg width="100px" height="100px" viewBox="0 0 100 100" version="1.1" xmlns="http://www.w3.org/2000/svg" xmlns:xlink="http://www.w3.org/1999/xlink">
    <title>成功</title>
    <g id="页面-1" stroke="none" stroke-width="1" fill="none" fill-rule="evenodd">
        <g id="预定失败" transform="translate(-1235.000000, -910.000000)" fill-rule="nonzero">
            <g id="编组-3" transform="translate(1205.000000, 900.000000)">
                <g id="成功" transform="translate(20.000000, 0.000000)">
                    <rect id="矩形" fill="#000000" opacity="0" x="0" y="0" width="120" height="120"></rect>
                    <path d="M60,9.99999996 C87.615,9.99999996 110,32.385 110,60 C110,87.615 87.615,110 60,110 C32.385,110 9.99999996,87.615 9.99999996,60 C9.99999996,32.385 32.385,9.99999996 60,9.99999996 Z" id="路径" fill="#FF6C6C"></path>
                    <path d="M63.5598255,60.001132 L82.2914408,41.2629874 C83.2361864,40.3070038 83.2361864,38.768954 82.2914408,37.8129704 L82.1879517,37.7094836 C81.2324624,36.7635055 79.6933495,36.7635055 78.7378602,37.7094836 L60.0085091,56.4729575 L41.279158,37.7094836 C40.3236687,36.7635055 38.7845558,36.7635055 37.8290665,37.7094836 L37.7278415,37.8129704 C37.2624772,38.2662623 37,38.888342 37,39.5379789 C37,40.1876158 37.2624772,40.8096955 37.7278415,41.2629874 L56.4572398,60.001132 L37.7278415,78.7370126 C36.783127,79.6929906 36.783127,81.2310044 37.7278415,82.1869824 L37.8290665,82.2905164 C38.7845558,83.2364945 40.3236687,83.2364945 41.279158,82.2905164 L60.0084619,63.5546359 L78.737813,82.2905164 C79.6933024,83.2364945 81.2324152,83.2364945 82.1879045,82.2905164 L82.2913936,82.1892937 C83.2361392,81.23331 83.2361392,79.6952603 82.2913936,78.7392766 L63.5598255,60.001132 Z" id="路径" stroke="#FFFFFF" stroke-width="4.47233209" fill="#FFFFFF"></path>
                </g>
            </g>
        </g>
    </g>
</svg>