<?xml version="1.0" encoding="UTF-8"?>
<svg width="28px" height="34px" viewBox="0 0 28 34" version="1.1" xmlns="http://www.w3.org/2000/svg" xmlns:xlink="http://www.w3.org/1999/xlink">
    <title>路径</title>
    <g id="页面-1" stroke="none" stroke-width="1" fill="none" fill-rule="evenodd">
        <g id="搜索人员" transform="translate(-3255.000000, -1363.000000)" fill="#59C5EB" fill-rule="nonzero">
            <g id="编组-26" transform="translate(2616.000000, 1292.000000)">
                <g id="编组-24" transform="translate(630.000000, 49.000000)">
                    <g id="编组-21" transform="translate(0.000000, 14.000000)">
                        <g id="湿度" transform="translate(0.000000, 2.000000)">
                            <path d="M22.9995596,39.6565182 C19.4870271,39.6648469 16.1184231,38.2615741 13.65065,35.761964 C11.1637626,33.2705792 9.77180846,29.8911397 9.78254605,26.3709848 C9.78254605,24.7487046 10.3403854,22.8541536 11.4871371,20.5790853 C12.3644541,18.8391047 13.5934543,16.8802675 15.139631,14.7574061 C17.843904,11.0444076 20.7911409,7.83340833 21.6296972,6.93765632 C21.9851293,6.55901499 22.4811775,6.34400374 23.000505,6.34348202 C23.5198325,6.34400374 24.0158807,6.55901499 24.3713128,6.93765632 C25.2056149,7.83340836 28.1547425,11.0444076 30.8594882,14.7588242 C32.4056649,16.8816856 33.6346651,18.8405227 34.5119821,20.5805033 C35.6592065,22.8555717 36.2170459,24.7501227 36.2170459,26.3724029 C36.2277835,29.8925578 34.8358293,33.2719973 32.3489419,35.7633821 C29.8808184,38.2625887 26.51205,39.665348 22.9995596,39.6565182 L22.9995596,39.6565182 Z M17.5853413,16.5366202 C14.5048051,20.7662714 12.8078396,24.2580499 12.8078396,26.3686213 C12.8078396,32.0262762 17.3797201,36.6288818 22.9995596,36.6288818 C28.6193991,36.6288818 33.1912797,32.0262762 33.1912797,26.3686213 C33.1912797,24.2575772 31.4947868,20.7657987 28.413778,16.5366202 C26.4019993,13.7765694 24.2479402,11.3001341 22.9995596,9.91892706 C21.7511791,11.3001341 19.5961746,13.7770421 17.5853413,16.5366202 Z" id="形状"></path>
                        </g>
                    </g>
                </g>
            </g>
        </g>
    </g>
</svg>