<?xml version="1.0" encoding="UTF-8"?>
<svg width="38px" height="40px" viewBox="0 0 38 40" version="1.1" xmlns="http://www.w3.org/2000/svg" xmlns:xlink="http://www.w3.org/1999/xlink">
    <title>Fill 1@3x</title>
    <g id="页面-1" stroke="none" stroke-width="1" fill="none" fill-rule="evenodd">
        <g id="搜索人员" transform="translate(-2314.000000, -1932.000000)" fill="#78C7E6">
            <g id="地图操作" transform="translate(2284.000000, 1616.000000)">
                <g id="button/refresh" transform="translate(0.000000, 288.000000)">
                    <path d="M67.0245339,54.4175055 C66.2881304,54.1438105 64.9190807,54.597679 64.6395357,55.2546844 C62.207552,60.9727411 56.3941944,64.6674764 49.8291749,64.6674764 C41.0415805,64.6674764 33.8926892,57.9621943 33.8926892,49.7218552 C33.8926892,41.480731 41.0415805,34.7763812 49.8291749,34.7763812 C52.8136717,34.7763812 55.7220868,35.5539929 58.241254,37.0252139 C58.2883447,37.052446 58.3388553,37.0708461 58.3875771,37.0922883 L54.2075558,38.5046782 C53.4986701,38.7438792 53.027395,39.8636342 53.2831053,40.5277543 C53.4840957,41.049286 54.3187319,41.5677266 54.8771379,41.5677266 C55.0310902,41.5677266 55.394504,41.5429969 55.5476145,41.4912313 L63.2121882,38.3212662 C63.5697617,38.1999238 63.8630919,37.9503697 64.0246208,37.6274116 C64.1863602,37.3042572 64.2050913,36.9336061 64.076026,36.5977924 L61.3498702,29.5034101 C61.0804274,28.8032749 60.4132656,27.8615835 59.3042406,28.0170274 C58.5201676,28.1270353 57.9641819,29.1375184 58.2336248,29.8377026 L59.7446831,33.7699215 C56.7012046,32.0569971 53.2197565,31.1454328 49.6487045,31.1454328 C38.8141125,31.1454328 30,39.4112867 30,49.5719559 C30,59.7334101 38.8141125,68 49.6487045,68 C57.7426189,68 64.9098204,63.4448281 67.9078919,56.3952929 C68.2019587,55.7037935 67.7609374,54.6935066 67.0245339,54.4175055 Z" id="Fill-1"></path>
                </g>
            </g>
        </g>
    </g>
</svg>