<?xml version="1.0" encoding="UTF-8"?>
<svg width="31px" height="31px" viewBox="0 0 31 31" version="1.1" xmlns="http://www.w3.org/2000/svg" xmlns:xlink="http://www.w3.org/1999/xlink">
    <title>形状</title>
    <g id="页面-1" stroke="none" stroke-width="1" fill="none" fill-rule="evenodd">
        <g id="版式2-2" transform="translate(-2109.000000, -334.000000)" fill="#808080" fill-rule="nonzero">
            <g id="编组-2" transform="translate(2080.000000, 304.000000)">
                <g id="编组" transform="translate(29.005702, 30.030735)">
                    <path d="M30.457625,28.813125 L25.0573125,23.4128125 C27.1626801,20.9336471 28.4352022,17.7251654 28.4352022,14.2175809 C28.4352022,6.36531985 22.0698419,0 14.2175809,0 C6.36531985,0 0,6.36531985 0,14.2175809 C0,22.0698419 6.36531985,28.4352022 14.2175809,28.4352022 C17.7091912,28.4352022 20.9051765,27.1745699 23.3796507,25.0857426 L28.7823493,30.4884412 C29.2449963,30.9510882 29.9949779,30.9510882 30.457625,30.4884412 C30.9202721,30.0257941 30.9202721,29.2758125 30.457625,28.813125 L30.457625,28.813125 Z M14.2175809,26.0655919 C7.67391544,26.0655919 2.36956985,20.7612463 2.36956985,14.2175809 C2.36956985,7.67391544 7.67391544,2.36961029 14.2176213,2.36961029 C20.7613272,2.36961029 26.0655919,7.67395588 26.0655919,14.2175809 C26.0655919,20.7612059 20.7612463,26.0655919 14.2175809,26.0655919 Z" id="形状"></path>
                </g>
            </g>
        </g>
    </g>
</svg>