<?xml version="1.0" encoding="UTF-8"?>
<svg width="100px" height="100px" viewBox="0 0 100 100" version="1.1" xmlns="http://www.w3.org/2000/svg" xmlns:xlink="http://www.w3.org/1999/xlink">
    <title>成功</title>
    <g id="页面-1" stroke="none" stroke-width="1" fill="none" fill-rule="evenodd">
        <g id="预定成功" transform="translate(-1235.000000, -910.000000)" fill-rule="nonzero">
            <g id="编组-3" transform="translate(933.000000, 810.000000)">
                <g id="成功" transform="translate(292.000000, 90.000000)">
                    <rect id="矩形" fill="#000000" opacity="0" x="0" y="0" width="120" height="120"></rect>
                    <path d="M60,9.99999996 C87.615,9.99999996 110,32.385 110,60 C110,87.615 87.615,110 60,110 C32.385,110 9.99999996,87.615 9.99999996,60 C9.99999996,32.385 32.385,9.99999996 60,9.99999996 Z" id="路径" fill="#59DEAB"></path>
                    <path d="M51.215,74.5 L40.6,63.885 C39.3446279,62.5852158 37.4856101,62.0639348 35.7374622,62.5215118 C33.9893142,62.9790889 32.6240888,64.3443143 32.1665118,66.0924623 C31.7089347,67.8406102 32.2302158,69.699628 33.53,70.955 L47.675,85.1 C49.6274993,87.0519097 52.7925007,87.0519097 54.745,85.1 L90.095,49.745 C91.4256724,48.4971776 91.9711638,46.6236916 91.5183322,44.8565772 C91.0655005,43.0894628 89.6862223,41.7092084 87.9194287,41.2551266 C86.1526351,40.8010449 84.2787636,41.3452108 83.03,42.675 L51.21,74.49 L51.215,74.5 Z" id="路径" fill="#FFFFFF"></path>
                </g>
            </g>
        </g>
    </g>
</svg>