<?xml version="1.0" encoding="UTF-8"?>
<svg width="40px" height="30px" viewBox="0 0 40 30" version="1.1" xmlns="http://www.w3.org/2000/svg" xmlns:xlink="http://www.w3.org/1999/xlink">
    <title>传感器1</title>
    <g id="页面-1" stroke="none" stroke-width="1" fill="none" fill-rule="evenodd">
        <g id="搜索人员" transform="translate(-198.000000, -353.000000)" fill-rule="nonzero">
            <g id="编组-25" transform="translate(170.000000, 340.000000)">
                <g id="传感器1" transform="translate(28.000000, 8.000000)">
                    <rect id="矩形" fill="#000000" opacity="0" x="0" y="0" width="39.8831548" height="40"></rect>
                    <path d="M8.18435572,5.83333331 C8.84907494,6.5 8.84907498,7.5 8.18435572,8.16666668 C1.70334306,14.6666667 1.70334306,25.3333333 8.18435572,31.8333333 C8.84907498,32.5 8.84907498,33.5 8.18435572,34.1666667 C7.85199611,34.5 7.51963646,34.6666667 7.02109706,34.6666667 C6.52255762,34.6666667 6.19019801,34.5 5.85783836,34.1666667 C-1.95261278,26.3333333 -1.95261278,13.6666667 5.85783836,5.83333331 C6.52255762,5.16666664 7.51963649,5.16666664 8.18435572,5.83333331 Z M34.1084063,6 C41.9188575,13.8333333 41.9188575,26.5 34.1084063,34.3333333 C33.7760467,34.5 33.2775073,34.6666667 32.9451477,34.6666667 C32.4466083,34.6666667 32.1142486,34.5 31.781889,34.1666667 C31.1171697,33.5 31.1171697,32.5 31.781889,31.8333333 C38.2629017,25.3333333 38.2629017,14.8333333 31.781889,8.33333332 C31.1171697,7.66666664 31.1171697,6.66666664 31.781889,6 C32.4466083,5.33333336 33.4436871,5.33333332 34.1084063,6 Z M13.5021097,11.1666667 C14.166829,11.8333334 14.166829,12.8333334 13.5021097,13.5 C10.0123337,17 10.0123337,22.8333333 13.5021097,26.5 C14.166829,27.1666667 14.166829,28.1666667 13.5021097,28.8333333 C13.1697501,29.1666667 12.8373905,29.3333333 12.338851,29.3333333 C11.8403116,29.3333333 11.507952,29.1666667 11.1755923,28.8333333 C6.3563778,24 6.3563778,16 11.1755923,11.1666667 C11.8403116,10.5 12.8373905,10.5 13.5021097,11.1666667 Z M28.7906524,11.1666667 C33.6098669,16 33.6098669,24 28.7906524,28.8333333 C28.4582928,29.1666667 28.1259331,29.3333333 27.6273937,29.3333333 C27.1288543,29.3333333 26.7964946,29.1666667 26.464135,28.8333333 C25.7994158,28.1666667 25.7994158,27.1666667 26.464135,26.5 C29.9539111,23 29.9539111,17.1666667 26.464135,13.5 C25.7994158,12.8333333 25.7994158,11.8333333 26.464135,11.1666667 C27.1288543,10.5 28.1259332,10.5 28.7906524,11.1666667 Z M19.9831224,15 C22.8081792,15 24.9685167,17.1666667 24.9685167,20 C24.9685167,22.8333333 22.8081792,25 19.9831224,25 C17.1580656,25 14.997728,22.8333333 14.997728,20 C14.997728,17.1666667 17.1580656,15 19.9831224,15 Z" id="形状结合" fill="#FFFFFF"></path>
                </g>
            </g>
        </g>
    </g>
</svg>