<?xml version="1.0" encoding="UTF-8"?>
<svg width="84px" height="80px" viewBox="0 0 84 80" version="1.1" xmlns="http://www.w3.org/2000/svg" xmlns:xlink="http://www.w3.org/1999/xlink">
    <title>104_阴-01</title>
    <defs>
        <path d="M26.44,65.8684223 L56.19,65.8684223 C63.3856229,65.7856273 69.5086089,60.6044851 70.7810537,53.5217788 C72.0534985,46.4390725 68.1168356,39.4506623 61.4,36.8684223 C60.675511,39.840728 59.3103427,42.6188456 57.4,45.0084223 C57.0350358,45.4768789 56.4738415,45.750092 55.88,45.7484223 C55.140452,45.7165634 54.4789801,45.2788325 54.1605661,44.610582 C53.842152,43.9423315 53.9188749,43.1528589 54.36,42.5584223 C56.3094652,40.1409157 57.5488939,37.2292969 57.94,34.1484223 L57.94,34.1484223 C58,33.7384223 58.03,33.3784223 58.06,33.0184223 C58.09,32.6584223 58.06,32.2984223 58.06,31.9284223 C58.1384126,23.4178788 51.9112268,16.1608392 43.4874851,14.9459008 C35.0637435,13.7309623 27.0396728,18.9325733 24.71,27.1184223 C25.27,27.1184223 25.82,27.0284223 26.4,27.0284223 C31.1893894,27.0100058 35.8432242,28.6176942 39.6,31.5884223 C40.2039091,32.3123184 40.2203113,33.3596466 39.6393666,34.1020987 C39.0584219,34.8445508 38.0378886,35.0805106 37.19,34.6684223 C34.1394084,32.2226933 30.349921,30.8831536 26.44,30.8684223 C25.0588158,30.8794003 23.6833423,31.047141 22.34,31.3684223 C21.0765096,31.6708288 19.851849,32.117075 18.69,32.6984223 L18.4,32.8684223 C18.0513012,33.0416206 17.7169156,33.242252 17.4,33.4684223 L17.14,33.6284223 L16.09,34.3484223 L15.95,34.4584223 C13.2661105,36.5087197 11.2256441,39.2848645 10.07,42.4584223 C10.0422977,42.5200593 10.0189081,42.5835453 10,42.6484223 C9.86666667,43.0150889 9.74666667,43.3950889 9.64,43.7884223 C9.59,43.9384223 9.56,44.1084223 9.52,44.2684223 C9.44,44.5884223 9.36,44.9084223 9.3,45.2684223 C9.24,45.6284223 9.21,45.7984223 9.18,46.0784223 C9.15,46.3584223 9.1,46.5584223 9.08,46.8184223 C9.08,47.3584223 9,47.8684223 9,48.4484223 C9.04930923,58.0565206 16.8318514,65.8301378 26.44,65.8684223 Z M5.14,46.4184223 C5.15696502,46.1394998 5.19372422,45.8621349 5.25,45.5884223 C5.25,45.3084223 5.34,44.9084223 5.4,44.5884223 C5.46,44.2684223 5.54,43.8584223 5.63,43.4984223 C5.72,43.1384223 5.73,43.0784223 5.79,42.8684223 C5.91,42.4284223 6.04,41.9984223 6.18,41.5684223 L6.18,41.5084223 C7.82787431,36.7143313 11.1233954,32.660486 15.48,30.0684223 L15.81,29.8584223 C16.17,29.6484223 16.54,29.4584223 16.92,29.2684223 L17.53,28.9784223 C17.87,28.8184223 18.23,28.6684223 18.59,28.5284223 L19.32,28.2484223 L20.4,27.8684223 L20.52,27.8684223 C22.6124486,17.3154115 32.3613087,10.0651327 43.0700887,11.097802 C53.7788688,12.1304712 61.9626528,21.1100311 62,31.8684223 L62,32.8684223 C70.8687902,35.7085915 76.3445641,44.5884276 74.9002387,53.7882062 C73.4559134,62.9879848 65.522454,69.7626295 56.21,69.7484446 L26.44,69.7484446 C14.6256474,69.7594997 5.03308825,60.2027338 5,48.3884223 C5,47.7284223 5.08,47.0784223 5.14,46.4184223 Z" id="path-1"></path>
        <filter x="-13.5%" y="-16.2%" width="127.1%" height="132.3%" filterUnits="objectBoundingBox" id="filter-2">
            <feMorphology radius="0.5" operator="dilate" in="SourceAlpha" result="shadowSpreadOuter1"></feMorphology>
            <feOffset dx="0" dy="0" in="shadowSpreadOuter1" result="shadowOffsetOuter1"></feOffset>
            <feGaussianBlur stdDeviation="3" in="shadowOffsetOuter1" result="shadowBlurOuter1"></feGaussianBlur>
            <feComposite in="shadowBlurOuter1" in2="SourceAlpha" operator="out" result="shadowBlurOuter1"></feComposite>
            <feColorMatrix values="0 0 0 0 1   0 0 0 0 1   0 0 0 0 1  0 0 0 0.5 0" type="matrix" in="shadowBlurOuter1"></feColorMatrix>
        </filter>
    </defs>
    <g id="草稿" stroke="none" stroke-width="1" fill="none" fill-rule="evenodd">
        <g id="画板" transform="translate(-370.000000, -50.000000)">
            <g id="104_阴-01" transform="translate(372.000000, 50.000000)">
                <rect id="矩形" x="0" y="0" width="80" height="80"></rect>
                <g id="形状" fill-rule="nonzero">
                    <use fill="black" fill-opacity="1" filter="url(#filter-2)" xlink:href="#path-1"></use>
                    <use stroke="#FFFFFF" stroke-width="1" fill="#E0F2FF" xlink:href="#path-1"></use>
                </g>
            </g>
        </g>
    </g>
</svg>