<?xml version="1.0" encoding="UTF-8"?>
<svg width="30px" height="32px" viewBox="0 0 30 32" version="1.1" xmlns="http://www.w3.org/2000/svg" xmlns:xlink="http://www.w3.org/1999/xlink">
    <title>150-晴</title>
    <g id="页面-1" stroke="none" stroke-width="1" fill="none" fill-rule="evenodd">
        <g id="画板" transform="translate(-907.000000, -103.000000)" fill="#666666">
            <path d="M917.989879,105.965705 C917.923866,106.5455 917.890003,107.122726 917.890003,107.69096 C917.890003,116.303959 924.90621,123.310746 933.530299,123.310746 C934.021536,123.310746 934.51406,123.285481 935.015585,123.235381 C933.319401,129.126683 927.876353,133.287163 921.639439,133.287163 C913.960961,133.287163 907.714616,127.048156 907.714616,119.380214 C907.714616,113.047856 911.968577,107.587333 917.989879,105.965705 L917.989879,105.965705 Z M921.639439,135 C929.106162,135 935.559546,129.690634 936.984392,122.375537 C937.037974,122.098914 936.951814,121.81287 936.753348,121.611184 C936.554881,121.409925 936.26854,121.319573 935.99163,121.369674 C935.133464,121.523401 934.328024,121.597909 933.530299,121.597909 C925.85225,121.597909 919.604618,115.35933 919.604618,107.69096 C919.604618,106.817841 919.69335,105.919458 919.868669,105.020219 C919.922251,104.743168 919.836092,104.457124 919.637625,104.256294 C919.439158,104.054607 919.153675,103.963399 918.876335,104.013499 C911.415185,105.345658 906,111.808191 906,119.380214 C906,127.992785 913.015779,135 921.639439,135 L921.639439,135 Z" id="150-晴" transform="translate(921.500000, 119.500000) rotate(-105.000000) translate(-921.500000, -119.500000) "></path>
        </g>
    </g>
</svg>