<?xml version="1.0" encoding="UTF-8"?>
<svg width="47px" height="36px" viewBox="0 0 47 36" version="1.1" xmlns="http://www.w3.org/2000/svg" xmlns:xlink="http://www.w3.org/1999/xlink">
    <title>153-晴间多云</title>
    <g id="页面-1" stroke="none" stroke-width="1" fill="none" fill-rule="evenodd">
        <g id="画板" transform="translate(-1057.000000, -105.000000)" fill="#666666">
            <path d="M1071.91441,139.593176 L1095.25934,139.592009 C1095.41429,139.592009 1095.57628,139.592009 1095.727,139.609517 L1095.727,139.593526 C1099.54011,139.593526 1102.64187,136.380679 1102.64187,132.431008 C1102.64187,128.481336 1099.54011,125.268489 1095.727,125.268489 C1095.18891,125.268489 1094.62828,125.340041 1094.0592,125.485889 C1093.87467,125.532579 1093.67888,125.498962 1093.5197,125.388074 C1093.36194,125.278702 1093.25488,125.106475 1093.2253,124.910961 C1092.45338,119.81447 1088.27685,116.114297 1083.29741,116.114297 C1077.74888,116.114297 1073.23428,120.79058 1073.23428,126.539271 C1073.23428,126.820869 1073.254,127.099549 1073.27508,127.37677 C1073.29198,127.585416 1073.21873,127.791143 1073.07365,127.937049 C1072.92856,128.082955 1072.72854,128.152989 1072.5271,128.134022 C1072.32567,128.112077 1072.12283,128.097487 1071.91436,128.097487 C1068.85626,128.097487 1066.36724,130.677102 1066.36724,133.844719 C1066.36724,137.013794 1068.85626,139.593409 1071.91436,139.593409 M1083.29763,114.707707 C1088.71234,114.707707 1093.28892,118.562539 1094.43553,123.971269 C1094.8736,123.896916 1095.30464,123.861898 1095.72722,123.861898 C1100.28972,123.861898 1104,127.705059 1104,132.430949 C1104,137.155381 1100.28972,141 1095.72722,141 L1094.36382,140.999056 C1094.30532,140.999044 1094.24516,140.999033 1094.18339,140.999022 L1089.55356,140.998833 L1089.55356,140.998833 L1071.91492,141 C1068.10744,141 1065.00991,137.790071 1065.00991,133.844777 C1065.00991,129.912614 1068.08631,126.712899 1071.8783,126.691013 L1071.87773,126.690954 C1071.87773,126.641346 1071.87661,126.590221 1071.87661,126.539212 C1071.87661,120.015762 1076.99973,114.707707 1083.29763,114.707707 Z M1071.1648,105.373048 C1075.42311,106.202488 1078.85692,109.328334 1080.12775,113.439043 C1080.23378,113.782012 1080.0417,114.145997 1079.69873,114.252027 C1079.35576,114.358056 1078.99177,114.165978 1078.88574,113.823008 C1077.78597,110.265588 1074.86466,107.537196 1071.22211,106.713414 L1070.9759,106.661826 L1071.02881,106.984279 C1071.08407,107.363805 1071.11823,107.732788 1071.13186,108.098061 L1071.13866,108.46235 C1071.13866,114.270232 1066.42031,118.995091 1060.61922,118.995091 C1060.08952,118.995091 1059.54889,118.952126 1059.00697,118.867313 L1058.6599,118.807826 L1058.70537,119.038253 C1059.52547,122.988817 1062.53272,126.089123 1066.40405,127.045469 L1066.68884,127.1116 C1067.03963,127.187894 1067.26215,127.534109 1067.18585,127.884894 C1067.10956,128.235678 1066.76334,128.458196 1066.41256,128.381902 C1061.79624,127.377875 1058.20983,123.682554 1057.36976,118.977487 C1057.29595,118.568927 1057.42971,118.149733 1057.72482,117.859336 C1058.01993,117.567699 1058.44007,117.440772 1058.84824,117.519712 C1059.44565,117.636186 1060.04159,117.695091 1060.61922,117.695091 C1065.70194,117.695091 1069.83866,113.552663 1069.83866,108.46235 C1069.83866,107.934993 1069.78924,107.401625 1069.68708,106.831323 C1069.61326,106.423319 1069.74614,106.003653 1070.04218,105.711723 C1070.33774,105.420877 1070.75743,105.294139 1071.1648,105.373048 Z" id="153-晴间多云"></path>
        </g>
    </g>
</svg>