<?xml version="1.0" encoding="UTF-8"?>
<svg width="54px" height="36px" viewBox="0 0 54 36" version="1.1" xmlns="http://www.w3.org/2000/svg" xmlns:xlink="http://www.w3.org/1999/xlink">
    <title>154-阴</title>
    <g id="页面-1" stroke="none" stroke-width="1" fill="none" fill-rule="evenodd">
        <g id="画板" transform="translate(-1213.000000, -102.000000)" fill="#666666">
            <path d="M1233.87514,136.51843 L1257.97519,136.51843 C1258.1362,136.51843 1258.30249,136.51843 1258.45954,136.536509 L1258.45954,136.51843 C1262.39506,136.51843 1265.5981,133.134233 1265.5981,128.973037 C1265.5981,124.811841 1262.39506,121.427643 1258.45954,121.427643 C1257.89997,121.427643 1257.32192,121.504422 1256.73726,121.656418 C1256.54722,121.706637 1256.34398,121.670368 1256.18033,121.554641 C1256.01668,121.438859 1255.90582,121.258907 1255.87546,121.053847 C1255.07833,115.681817 1250.76801,111.785665 1245.62624,111.785665 C1239.89718,111.785665 1235.23713,116.711305 1235.23713,122.76687 C1235.23713,123.065394 1235.25697,123.358337 1235.27936,123.649886 C1235.29657,123.870292 1235.22002,124.086512 1235.07084,124.239959 C1234.92038,124.396195 1234.71318,124.470129 1234.5073,124.446414 C1234.29878,124.424095 1234.08894,124.408806 1233.87514,124.408806 C1230.71696,124.408806 1228.1474,127.124813 1228.1474,130.462976 C1228.1474,133.802535 1230.71696,136.518542 1233.87514,136.518542 M1245.62656,110.304263 C1251.21704,110.304263 1255.94177,114.362231 1257.12559,120.062079 C1257.57563,119.98396 1258.0217,119.946296 1258.45986,119.946296 C1263.16875,119.946296 1267,123.995895 1267,128.973148 C1267,133.950402 1263.16875,138 1258.4559,138 L1233.87545,138 C1229.9439,138 1226.74613,134.619987 1226.74613,130.462976 C1226.74613,126.322705 1229.92279,122.949667 1233.83718,122.927347 L1233.83692,122.927347 C1233.83586,122.874339 1233.83586,122.819991 1233.83586,122.766926 C1233.83586,115.893908 1239.12544,110.304263 1245.62656,110.304263 Z M1240.54312,109.441264 C1241.1638,110.50044 1239.75897,110.981931 1239.32889,110.248035 C1235.41557,103.570117 1227.11513,101.529891 1220.79726,105.666275 C1214.47938,109.80262 1212.54785,118.531029 1216.46142,125.209035 C1218.33864,128.412431 1221.33027,130.706225 1224.80069,131.568332 C1225.66753,131.783673 1225.50599,133.299722 1224.48089,133.045079 L1224.48123,133.045186 C1220.63749,132.090338 1217.30578,129.587099 1215.22663,126.039085 C1210.90121,118.657901 1213.0718,108.931645 1220.05465,104.359632 C1227.03784,99.7877076 1236.21769,102.060178 1240.54312,109.441264 Z" id="154-阴"></path>
        </g>
    </g>
</svg>