<?xml version="1.0" encoding="UTF-8"?>
<svg width="80px" height="80px" viewBox="0 0 80 80" version="1.1" xmlns="http://www.w3.org/2000/svg" xmlns:xlink="http://www.w3.org/1999/xlink">
    <title>211_飓风</title>
    <defs>
        <path d="M36.7730433,29.1875722 C36.7730433,22.27849 31.1721255,16.6775722 24.2630433,16.6775722 C17.3539611,16.6775722 11.7530433,22.27849 11.7530433,29.1875722 C11.7530433,36.0966545 17.3539611,41.6975722 24.2630433,41.6975722 C31.1698401,41.6920578 36.7675289,36.094369 36.7730433,29.1875722 L36.7730433,29.1875722 Z M30.1530433,35.0875722 C27.337129,37.8814735 22.94042,38.2988629 19.6490825,36.0847367 C16.3577449,33.8706105 15.0872543,29.6408212 16.613816,25.9795554 C18.1403777,22.3182896 22.039383,20.2439173 25.9287378,21.0237747 C29.8180925,21.8036321 32.6159843,25.2208041 32.6131032,29.1875722 C32.6214998,31.405363 31.7345091,33.5326983 30.1530433,35.0875722 L30.1530433,35.0875722 Z" id="path-1"></path>
        <filter x="-38.0%" y="-38.0%" width="175.9%" height="175.9%" filterUnits="objectBoundingBox" id="filter-2">
            <feMorphology radius="0.5" operator="dilate" in="SourceAlpha" result="shadowSpreadOuter1"></feMorphology>
            <feOffset dx="0" dy="0" in="shadowSpreadOuter1" result="shadowOffsetOuter1"></feOffset>
            <feGaussianBlur stdDeviation="3" in="shadowOffsetOuter1" result="shadowBlurOuter1"></feGaussianBlur>
            <feComposite in="shadowBlurOuter1" in2="SourceAlpha" operator="out" result="shadowBlurOuter1"></feComposite>
            <feColorMatrix values="0 0 0 0 1   0 0 0 0 1   0 0 0 0 1  0 0 0 0.5 0" type="matrix" in="shadowBlurOuter1"></feColorMatrix>
        </filter>
        <path d="M48.5130433,29.1675722 C48.514877,16.3927684 38.6096847,5.80536414 25.8630433,4.95757224 C31.0089626,3.93300613 36.3093041,3.96362428 41.4430433,5.04757224 L41.4430433,5.04757224 C41.5828714,5.05738428 41.7232152,5.05738428 41.8630433,5.04757224 C42.9969615,5.1053239 43.9676939,4.2430962 44.0441246,3.11028375 C44.1205554,1.9774713 43.2744424,0.992661264 42.1430433,0.897572244 C37.5754781,-0.0494553623 32.8844642,-0.248713688 28.2530433,0.307572244 C23.9291584,0.814321832 19.7264537,2.06971913 15.8330433,4.01757224 C12.1740394,5.83501467 8.92965709,8.38830613 6.30304332,11.5175722 C3.97830661,14.2949873 2.29801712,17.5531096 1.38304332,21.0575722 C-1.14034829,28.2107397 -0.175796847,36.1321796 3.99041645,42.4707895 C8.15662976,48.8093995 15.0457402,52.8367716 22.6130433,53.3575722 C17.5507517,54.3494986 12.3405694,54.3120887 7.29304332,53.2475722 C7.10401958,53.1957576 6.90903584,53.1688633 6.71304332,53.1675722 C5.63846574,53.1547656 4.73104748,53.9626617 4.61949293,55.0315099 C4.50793838,56.1003582 5.22897954,57.0782148 6.28304332,57.2875722 L6.28304332,57.2875722 C9.24311454,57.90602 12.259056,58.2176005 15.2830433,58.2176005 C16.9844872,58.2195674 18.6844171,58.1160353 20.3730433,57.9075722 C24.6786352,57.420111 28.8653829,56.1813482 32.7430433,54.2475722 C36.4014341,52.4335466 39.6458391,49.8836417 42.2730433,46.7575722 C44.6799873,43.8715566 46.3907683,40.470524 47.2730433,36.8175722 C48.0906631,34.3569263 48.5059979,31.7804995 48.5030433,29.1875722 L48.5130433,29.1675722 Z M10.0630433,43.3675722 C4.76066236,38.0551272 2.85618648,30.2328973 5.12304332,23.0775722 L5.19304332,23.0775722 C5.25304332,22.8175722 5.31304332,22.5575722 5.38304332,22.2975722 C5.45304332,22.0375722 5.62304332,21.6475722 5.75304332,21.2975722 C9.84397252,11.2478145 21.1727542,6.25894144 31.3482849,10.0261562 C41.5238156,13.793371 46.8726844,24.9566927 43.4330433,35.2475722 L43.4330433,35.2475722 C43.4330433,35.3975722 43.3730433,35.5575722 43.3330433,35.7075722 C43.1863767,36.1475722 43.0163767,36.5875722 42.8230433,37.0275722 C40.7688928,41.8423297 36.9149159,45.6640106 32.0830433,47.6775722 C27.085939,49.7839306 21.4501477,49.7839306 16.4530433,47.6775722 C14.0653131,46.6659062 11.8955464,45.2024173 10.0630433,43.3675722 L10.0630433,43.3675722 Z" id="path-3"></path>
        <filter x="-19.6%" y="-16.3%" width="139.2%" height="132.6%" filterUnits="objectBoundingBox" id="filter-4">
            <feMorphology radius="0.5" operator="dilate" in="SourceAlpha" result="shadowSpreadOuter1"></feMorphology>
            <feOffset dx="0" dy="0" in="shadowSpreadOuter1" result="shadowOffsetOuter1"></feOffset>
            <feGaussianBlur stdDeviation="3" in="shadowOffsetOuter1" result="shadowBlurOuter1"></feGaussianBlur>
            <feComposite in="shadowBlurOuter1" in2="SourceAlpha" operator="out" result="shadowBlurOuter1"></feComposite>
            <feColorMatrix values="0 0 0 0 1   0 0 0 0 1   0 0 0 0 1  0 0 0 0.5 0" type="matrix" in="shadowBlurOuter1"></feColorMatrix>
        </filter>
    </defs>
    <g id="草稿" stroke="none" stroke-width="1" fill="none" fill-rule="evenodd">
        <g id="画板" transform="translate(-1620.000000, -50.000000)">
            <g id="211_飓风" transform="translate(1620.000000, 50.000000)">
                <rect id="矩形" x="0" y="0" width="80" height="80"></rect>
                <g id="形状" transform="translate(16.000000, 11.000000)" fill-rule="nonzero">
                    <g>
                        <use fill="black" fill-opacity="1" filter="url(#filter-2)" xlink:href="#path-1"></use>
                        <use stroke="#FFFFFF" stroke-width="1" fill="#E0F2FF" xlink:href="#path-1"></use>
                    </g>
                    <g>
                        <use fill="black" fill-opacity="1" filter="url(#filter-4)" xlink:href="#path-3"></use>
                        <use stroke="#FFFFFF" stroke-width="1" fill="#E0F2FF" xlink:href="#path-3"></use>
                    </g>
                </g>
            </g>
        </g>
    </g>
</svg>