<?xml version="1.0" encoding="UTF-8"?>
<svg width="80px" height="80px" viewBox="0 0 80 80" version="1.1" xmlns="http://www.w3.org/2000/svg" xmlns:xlink="http://www.w3.org/1999/xlink">
    <title>300_阵雨-01</title>
    <defs>
        <path d="M40.7400566,6.18529361 C40.3407619,6.18529361 40.0155264,5.86455084 40.0100566,5.46529361 L40.0100566,0.815293611 C39.9771922,0.535945121 40.1077452,0.262564395 40.3456624,0.112527598 C40.5835796,-0.0375091993 40.8865335,-0.0375091993 41.1244508,0.112527598 C41.362368,0.262564395 41.4929209,0.535945121 41.4600566,0.815293611 L41.4600566,5.46529361 C41.4600566,5.86293863 41.1377016,6.18529361 40.7400566,6.18529361 L40.7400566,6.18529361 Z" id="path-1"></path>
        <filter x="-650.7%" y="-153.6%" width="1401.3%" height="407.2%" filterUnits="objectBoundingBox" id="filter-2">
            <feMorphology radius="0.5" operator="dilate" in="SourceAlpha" result="shadowSpreadOuter1"></feMorphology>
            <feOffset dx="0" dy="0" in="shadowSpreadOuter1" result="shadowOffsetOuter1"></feOffset>
            <feGaussianBlur stdDeviation="3" in="shadowOffsetOuter1" result="shadowBlurOuter1"></feGaussianBlur>
            <feComposite in="shadowBlurOuter1" in2="SourceAlpha" operator="out" result="shadowBlurOuter1"></feComposite>
            <feColorMatrix values="0 0 0 0 1   0 0 0 0 1   0 0 0 0 1  0 0 0 0.5 0" type="matrix" in="shadowBlurOuter1"></feColorMatrix>
        </filter>
        <path d="M48.9200566,7.84529361 C48.7978465,8.07391725 48.5592922,8.21628031 48.3000566,8.21529361 C48.1697544,8.21757056 48.0414715,8.1828995 47.9300566,8.11529361 C47.7628441,8.01727925 47.6414745,7.85679065 47.5927024,7.66920569 C47.5439303,7.48162073 47.5717599,7.28234034 47.6700566,7.11529361 L47.6700566,7.11529361 L49.9900566,3.11529361 C50.0880709,2.94808111 50.2485595,2.82671155 50.4361445,2.77793946 C50.6237294,2.72916737 50.8230098,2.75699699 50.9900566,2.85529361 L50.9900566,2.85529361 C51.1627506,2.94792233 51.2902269,3.10694135 51.3430656,3.29565108 C51.3959043,3.48436081 51.3695398,3.68645528 51.2700566,3.85529361 L51.2700566,3.85529361 L48.9200566,7.84529361 Z" id="path-3"></path>
        <filter x="-251.5%" y="-173.7%" width="601.3%" height="442.6%" filterUnits="objectBoundingBox" id="filter-4">
            <feMorphology radius="0.5" operator="dilate" in="SourceAlpha" result="shadowSpreadOuter1"></feMorphology>
            <feOffset dx="0" dy="0" in="shadowSpreadOuter1" result="shadowOffsetOuter1"></feOffset>
            <feGaussianBlur stdDeviation="3" in="shadowOffsetOuter1" result="shadowBlurOuter1"></feGaussianBlur>
            <feComposite in="shadowBlurOuter1" in2="SourceAlpha" operator="out" result="shadowBlurOuter1"></feComposite>
            <feColorMatrix values="0 0 0 0 1   0 0 0 0 1   0 0 0 0 1  0 0 0 0.5 0" type="matrix" in="shadowBlurOuter1"></feColorMatrix>
        </filter>
        <path d="M53.4700566,12.3952936 L57.4700566,10.0652936 C57.817996,9.86094825 58.2657112,9.97735422 58.4700566,10.3252936 C58.6744019,10.673233 58.557996,11.1209483 58.2100566,11.3252936 L58.2100566,11.3252936 L54.2100566,13.6452936 C54.1024294,13.7131408 53.9772572,13.7479109 53.8500566,13.7452936 C53.5250484,13.7429224 53.2407535,13.5259669 53.1526895,13.213108 C53.0646255,12.9002492 53.1940062,12.5668516 53.4700566,12.3952936 L53.4700566,12.3952936 Z" id="path-5"></path>
        <filter x="-174.6%" y="-251.3%" width="449.1%" height="600.5%" filterUnits="objectBoundingBox" id="filter-6">
            <feMorphology radius="0.5" operator="dilate" in="SourceAlpha" result="shadowSpreadOuter1"></feMorphology>
            <feOffset dx="0" dy="0" in="shadowSpreadOuter1" result="shadowOffsetOuter1"></feOffset>
            <feGaussianBlur stdDeviation="3" in="shadowOffsetOuter1" result="shadowBlurOuter1"></feGaussianBlur>
            <feComposite in="shadowBlurOuter1" in2="SourceAlpha" operator="out" result="shadowBlurOuter1"></feComposite>
            <feColorMatrix values="0 0 0 0 1   0 0 0 0 1   0 0 0 0 1  0 0 0 0.5 0" type="matrix" in="shadowBlurOuter1"></feColorMatrix>
        </filter>
        <path d="M55.1300566,20.5852936 C55.1300566,20.1821257 55.4568887,19.8552936 55.8600566,19.8552936 L60.5100566,19.8552936 C60.9093138,19.8607634 61.2300566,20.1859989 61.2300566,20.5852936 C61.2300566,20.9829386 60.9077016,21.3052936 60.5100566,21.3052936 L55.8600566,21.3052936 C55.4607619,21.3053311 55.1355264,20.9845508 55.1300566,20.5852936 L55.1300566,20.5852936 Z" id="path-7"></path>
        <filter x="-155.7%" y="-655.2%" width="411.5%" height="1410.3%" filterUnits="objectBoundingBox" id="filter-8">
            <feMorphology radius="0.5" operator="dilate" in="SourceAlpha" result="shadowSpreadOuter1"></feMorphology>
            <feOffset dx="0" dy="0" in="shadowSpreadOuter1" result="shadowOffsetOuter1"></feOffset>
            <feGaussianBlur stdDeviation="3" in="shadowOffsetOuter1" result="shadowBlurOuter1"></feGaussianBlur>
            <feComposite in="shadowBlurOuter1" in2="SourceAlpha" operator="out" result="shadowBlurOuter1"></feComposite>
            <feColorMatrix values="0 0 0 0 1   0 0 0 0 1   0 0 0 0 1  0 0 0 0.5 0" type="matrix" in="shadowBlurOuter1"></feColorMatrix>
        </filter>
        <path d="M54.2100566,27.5152936 L58.2100566,29.8352936 C58.3849206,29.9257851 58.514356,30.0848261 58.5674438,30.2744252 C58.6205315,30.4640243 58.5925041,30.6671549 58.4900566,30.8352936 L58.4900566,30.8352936 C58.3678465,31.0639173 58.1292922,31.2062803 57.8700566,31.2052987 C57.7435421,31.2028631 57.6196993,31.1684623 57.5100566,31.1052936 L53.5100566,28.7752936 C53.3373626,28.6826649 53.2098863,28.5236459 53.1570475,28.3349361 C53.1042088,28.1462264 53.1305734,27.9441319 53.2300566,27.7752936 L53.2300566,27.7752936 C53.43344,27.4389066 53.8666679,27.3239686 54.2100566,27.5152936 L54.2100566,27.5152936 Z" id="path-9"></path>
        <filter x="-173.1%" y="-250.8%" width="446.1%" height="602.0%" filterUnits="objectBoundingBox" id="filter-10">
            <feMorphology radius="0.5" operator="dilate" in="SourceAlpha" result="shadowSpreadOuter1"></feMorphology>
            <feOffset dx="0" dy="0" in="shadowSpreadOuter1" result="shadowOffsetOuter1"></feOffset>
            <feGaussianBlur stdDeviation="3" in="shadowOffsetOuter1" result="shadowBlurOuter1"></feGaussianBlur>
            <feComposite in="shadowBlurOuter1" in2="SourceAlpha" operator="out" result="shadowBlurOuter1"></feComposite>
            <feColorMatrix values="0 0 0 0 1   0 0 0 0 1   0 0 0 0 1  0 0 0 0.5 0" type="matrix" in="shadowBlurOuter1"></feColorMatrix>
        </filter>
        <path d="M2.90005657,30.7052936 C2.90005657,30.3052936 2.90005657,29.8952936 2.96005657,29.4952936 C2.97290489,29.3107776 2.99627624,29.1271455 3.03005657,28.9452936 C3.03005657,28.7652936 3.09005657,28.5352936 3.13005657,28.3452936 C3.17005657,28.1552936 3.23005657,27.8552936 3.28005657,27.6252936 C3.33005657,27.3952936 3.35005657,27.3852936 3.38005657,27.2652936 C3.46005657,26.9852936 3.54005657,26.7052936 3.64005657,26.4252936 C3.66119044,26.3768952 3.67792464,26.3266926 3.69005657,26.2752936 C4.43736978,24.2648903 5.66260793,22.4665016 7.26005657,21.0352936 L7.26005657,21.0352936 C7.51005657,20.8152936 7.77005657,20.5952936 8.04005657,20.3952936 L8.16005657,20.2952936 C8.41005657,20.1152936 8.66005657,19.9352936 8.92005657,19.7752936 L9.14005657,19.6452936 L9.89005657,19.2052936 L10.1500566,19.0952936 C10.9890481,18.662388 11.8748054,18.3268738 12.7900566,18.0952936 L13.1300566,18.0152936 L13.3200566,18.0152936 C14.1550789,17.8322451 15.00552,17.7284511 15.8600566,17.7052936 C18.7641167,17.692106 21.5859361,18.669161 23.8600566,20.4752936 C24.4908618,20.940767 25.3774028,20.8205772 25.8615063,20.2039537 C26.3456098,19.5873302 26.2519483,18.6975954 25.6500566,18.1952936 C22.8616244,15.9879629 19.4063896,14.7927338 15.8500566,14.8052936 C15.4321626,14.7934186 15.0140119,14.8168351 14.6000566,14.8752936 C16.3539015,8.83078698 22.2932876,5.00249048 28.5225754,5.90138126 C34.7518633,6.80027203 39.3666315,12.1515407 39.3400566,18.4452936 L39.3400566,19.2452936 C39.3527127,19.5282339 39.3223674,19.8114569 39.2500566,20.0852936 L39.2100566,20.7052936 C38.849202,22.7969292 37.9612614,24.7621001 36.6300566,26.4152936 C36.1536663,27.0326595 36.2508604,27.9162423 36.8500566,28.4152936 C37.1032665,28.624169 37.4218194,28.7374323 37.7500566,28.7352936 C38.1887194,28.7341908 38.6036394,28.5359105 38.8800566,28.1952936 C40.3022481,26.4358148 41.3257884,24.3887341 41.8800566,22.1952936 C46.9124795,24.0862323 49.8690139,29.3090818 48.9004112,34.5970624 C47.9318085,39.885043 43.3159925,43.7208604 37.9400566,43.7053408 L15.8700566,43.7053408 C8.70207334,43.6887521 2.90005657,37.8732959 2.90005657,30.7052936 Z M49.2600566,24.3352936 C47.5259566,21.9344303 45.0751512,20.1453423 42.2600566,19.2252936 L42.2600566,18.4752936 C42.2625289,15.9357312 41.6373262,13.4349206 40.4400566,11.1952936 L40.7400566,11.1952936 C45.911059,11.2008123 50.1000566,15.3942882 50.1000566,20.5652936 C50.0932031,21.8804688 49.8068762,23.179166 49.2600566,24.3752936 L49.2600566,24.3352936 Z M2.81826337e-05,30.7052936 C-0.00790731584,34.9203947 1.66027012,38.9657293 4.63704821,41.9500103 C7.6138263,44.9342913 11.6549488,46.6126468 15.8700566,46.6152936 L37.9400566,46.6152936 C45.6720431,46.6152936 51.9400566,40.3472801 51.9400566,32.6152936 C51.9499183,30.8235258 51.6102447,29.0470327 50.9400566,27.3852936 C52.3006262,25.3864626 53.0256279,23.0232357 53.0200884,20.6052936 C53.0227098,17.3484348 51.7314717,14.2239145 49.4304001,11.9190922 C47.1293285,9.61426989 44.0069154,8.3179447 40.7500566,8.31529361 L40.7500566,8.31529361 C40.0321349,8.31694249 39.3158511,8.38388491 38.6100566,8.51529361 C34.7650278,3.94127315 28.6355322,1.98092556 22.8498469,3.47483174 C17.0641617,4.96873793 12.6499761,9.65154102 11.5000566,15.5152936 L11.4000566,15.5152936 C11.1400566,15.5852936 10.8900566,15.6752936 10.6300566,15.7652936 L10.0600566,15.9752936 C9.80005657,16.0752936 9.55005657,16.1852936 9.30005657,16.3052936 L8.83005657,16.5352936 C8.55005657,16.6686269 8.28005657,16.8086269 8.02005657,16.9552936 L7.75005657,17.1252936 C4.53025031,19.0471028 2.09606191,22.0482055 0.880056567,25.5952936 L0.880056567,25.7052936 C0.766176217,26.0333922 0.669379681,26.3671734 0.590056567,26.7052936 L0.470056567,27.1752936 C0.410056567,27.4452936 0.350056567,27.7052936 0.300056567,27.9752936 C0.250056567,28.2452936 0.210056567,28.4352936 0.210056567,28.7052936 C0.204484846,28.9102741 0.181062934,29.1143794 0.140056567,29.3152936 C0.0685097998,29.7757827 0.0217756694,30.2397859 2.81826337e-05,30.7052936 Z" id="path-11"></path>
        <filter x="-17.9%" y="-21.8%" width="135.8%" height="143.5%" filterUnits="objectBoundingBox" id="filter-12">
            <feMorphology radius="0.5" operator="dilate" in="SourceAlpha" result="shadowSpreadOuter1"></feMorphology>
            <feOffset dx="0" dy="0" in="shadowSpreadOuter1" result="shadowOffsetOuter1"></feOffset>
            <feGaussianBlur stdDeviation="3" in="shadowOffsetOuter1" result="shadowBlurOuter1"></feGaussianBlur>
            <feComposite in="shadowBlurOuter1" in2="SourceAlpha" operator="out" result="shadowBlurOuter1"></feComposite>
            <feColorMatrix values="0 0 0 0 1   0 0 0 0 1   0 0 0 0 1  0 0 0 0.5 0" type="matrix" in="shadowBlurOuter1"></feColorMatrix>
        </filter>
        <path d="M17.2100566,48.9552936 C16.8138578,48.7249667 16.307524,48.8331577 16.0400566,49.2052936 L13.1100566,53.5552936 C12.9957372,53.7249484 12.9536304,53.933122 12.9930293,54.1338691 C13.0324283,54.3346161 13.1500939,54.5114325 13.3200566,54.6252936 L13.3700566,54.6252936 C13.7620473,54.8679102 14.2752378,54.7626404 14.5400566,54.3852936 L17.4700566,50.0252936 C17.5843759,49.8556389 17.6264828,49.6474652 17.5870838,49.4467182 C17.5476849,49.2459711 17.4300192,49.0691547 17.2600566,48.9552936 L17.2100566,48.9552936 Z" id="path-13"></path>
        <filter x="-205.5%" y="-160.4%" width="511.0%" height="420.9%" filterUnits="objectBoundingBox" id="filter-14">
            <feMorphology radius="0.5" operator="dilate" in="SourceAlpha" result="shadowSpreadOuter1"></feMorphology>
            <feOffset dx="0" dy="0" in="shadowSpreadOuter1" result="shadowOffsetOuter1"></feOffset>
            <feGaussianBlur stdDeviation="3" in="shadowOffsetOuter1" result="shadowBlurOuter1"></feGaussianBlur>
            <feComposite in="shadowBlurOuter1" in2="SourceAlpha" operator="out" result="shadowBlurOuter1"></feComposite>
            <feColorMatrix values="0 0 0 0 1   0 0 0 0 1   0 0 0 0 1  0 0 0 0.5 0" type="matrix" in="shadowBlurOuter1"></feColorMatrix>
        </filter>
        <path d="M27.0700566,48.9552936 C26.6738578,48.7249667 26.167524,48.8331577 25.9000566,49.2052936 L22.9700566,53.5552936 C22.708188,53.8895564 22.7663467,54.3727209 23.1000566,54.6352936 L23.2100566,54.7052936 C23.3459534,54.787585 23.5012117,54.8324374 23.6600566,54.8352936 C23.9427845,54.8346434 24.2075696,54.6966666 24.3700566,54.4652936 L27.3100566,50.1052936 C27.5789419,49.7789103 27.5342981,49.2967577 27.2100566,49.0252936 L27.0700566,48.9552936 Z" id="path-15"></path>
        <filter x="-203.0%" y="-158.3%" width="506.0%" height="416.6%" filterUnits="objectBoundingBox" id="filter-16">
            <feMorphology radius="0.5" operator="dilate" in="SourceAlpha" result="shadowSpreadOuter1"></feMorphology>
            <feOffset dx="0" dy="0" in="shadowSpreadOuter1" result="shadowOffsetOuter1"></feOffset>
            <feGaussianBlur stdDeviation="3" in="shadowOffsetOuter1" result="shadowBlurOuter1"></feGaussianBlur>
            <feComposite in="shadowBlurOuter1" in2="SourceAlpha" operator="out" result="shadowBlurOuter1"></feComposite>
            <feColorMatrix values="0 0 0 0 1   0 0 0 0 1   0 0 0 0 1  0 0 0 0.5 0" type="matrix" in="shadowBlurOuter1"></feColorMatrix>
        </filter>
        <path d="M36.9700566,48.9552936 C36.5769087,48.7261848 36.0739334,48.8345846 35.8100566,49.2052936 L32.8700566,53.5552936 C32.7557372,53.7249484 32.7136304,53.933122 32.7530293,54.1338691 C32.7924283,54.3346161 32.9100939,54.5114325 33.0800566,54.6252936 L33.1300566,54.6252936 C33.2696259,54.7075415 33.4280828,54.7523228 33.5900566,54.7552936 C33.8727845,54.7546532 34.1375696,54.6166666 34.3000566,54.3852936 L37.2100566,50.0552936 C37.4501296,49.7045568 37.3606111,49.2256328 37.0100566,48.9852936 L36.9700566,48.9552936 Z" id="path-17"></path>
        <filter x="-206.2%" y="-160.5%" width="512.5%" height="421.0%" filterUnits="objectBoundingBox" id="filter-18">
            <feMorphology radius="0.5" operator="dilate" in="SourceAlpha" result="shadowSpreadOuter1"></feMorphology>
            <feOffset dx="0" dy="0" in="shadowSpreadOuter1" result="shadowOffsetOuter1"></feOffset>
            <feGaussianBlur stdDeviation="3" in="shadowOffsetOuter1" result="shadowBlurOuter1"></feGaussianBlur>
            <feComposite in="shadowBlurOuter1" in2="SourceAlpha" operator="out" result="shadowBlurOuter1"></feComposite>
            <feColorMatrix values="0 0 0 0 1   0 0 0 0 1   0 0 0 0 1  0 0 0 0.5 0" type="matrix" in="shadowBlurOuter1"></feColorMatrix>
        </filter>
        <path d="M19.8000566,56.8852936 C19.4077328,56.6510889 18.9010834,56.7602805 18.6400566,57.1352936 L15.7000566,61.4852936 C15.5857372,61.6549484 15.5436304,61.863122 15.5830293,62.0638691 C15.6224283,62.2646161 15.7400939,62.4414325 15.9100566,62.5552936 L15.9600566,62.5552936 C16.0967463,62.6345268 16.2520643,62.6759449 16.4100566,62.6752936 C16.697148,62.6814982 16.9679635,62.5423291 17.1300566,62.3052936 L20.0600566,57.9552936 C20.1743759,57.7856389 20.2164828,57.5774652 20.1770838,57.3767182 C20.1376849,57.1759711 20.0200192,56.9991547 19.8500566,56.8852936 L19.8000566,56.8852936 Z" id="path-19"></path>
        <filter x="-205.5%" y="-160.7%" width="511.0%" height="421.3%" filterUnits="objectBoundingBox" id="filter-20">
            <feMorphology radius="0.5" operator="dilate" in="SourceAlpha" result="shadowSpreadOuter1"></feMorphology>
            <feOffset dx="0" dy="0" in="shadowSpreadOuter1" result="shadowOffsetOuter1"></feOffset>
            <feGaussianBlur stdDeviation="3" in="shadowOffsetOuter1" result="shadowBlurOuter1"></feGaussianBlur>
            <feComposite in="shadowBlurOuter1" in2="SourceAlpha" operator="out" result="shadowBlurOuter1"></feComposite>
            <feColorMatrix values="0 0 0 0 1   0 0 0 0 1   0 0 0 0 1  0 0 0 0.5 0" type="matrix" in="shadowBlurOuter1"></feColorMatrix>
        </filter>
        <path d="M29.0500566,56.8852936 C28.6555513,56.6446893 28.1417781,56.75447 27.8800566,57.1352936 L24.9500566,61.4852936 C24.8402838,61.6610524 24.8059861,61.8736377 24.8549154,62.0750008 C24.9038448,62.2763639 25.0318707,62.4495061 25.2100566,62.5552936 L25.2100566,62.5552936 C25.3467463,62.6345268 25.5020643,62.6759449 25.6600566,62.6753012 C25.9427845,62.6746532 26.2075696,62.5366666 26.3700566,62.3052936 L29.3100566,57.9552936 C29.4243759,57.7856389 29.4664828,57.5774652 29.4270838,57.3767182 C29.3876849,57.1759711 29.2700192,56.9991547 29.1000566,56.8852936 L29.0500566,56.8852936 Z" id="path-21"></path>
        <filter x="-206.3%" y="-160.5%" width="512.5%" height="421.1%" filterUnits="objectBoundingBox" id="filter-22">
            <feMorphology radius="0.5" operator="dilate" in="SourceAlpha" result="shadowSpreadOuter1"></feMorphology>
            <feOffset dx="0" dy="0" in="shadowSpreadOuter1" result="shadowOffsetOuter1"></feOffset>
            <feGaussianBlur stdDeviation="3" in="shadowOffsetOuter1" result="shadowBlurOuter1"></feGaussianBlur>
            <feComposite in="shadowBlurOuter1" in2="SourceAlpha" operator="out" result="shadowBlurOuter1"></feComposite>
            <feColorMatrix values="0 0 0 0 1   0 0 0 0 1   0 0 0 0 1  0 0 0 0.5 0" type="matrix" in="shadowBlurOuter1"></feColorMatrix>
        </filter>
        <path d="M38.9500566,56.8852936 C38.5577328,56.6510889 38.0510834,56.7602805 37.7900566,57.1352936 L34.8500566,61.4852936 C34.736689,61.6561669 34.6961625,61.865202 34.7374606,62.066061 C34.7787587,62.26692 34.8984697,62.4430091 35.0700566,62.5552936 L35.0700566,62.5552936 C35.2067463,62.6345268 35.3620643,62.6759449 35.5200566,62.6753012 C35.8027845,62.6746532 36.0675696,62.5366666 36.2300566,62.3052936 L39.2100566,57.9852936 C39.3243759,57.8156389 39.3664828,57.6074652 39.3270838,57.4067182 C39.2876849,57.2059711 39.1700192,57.0291547 39.0000566,56.9152936 L38.9500566,56.8852936 Z" id="path-23"></path>
        <filter x="-205.6%" y="-160.7%" width="511.3%" height="421.3%" filterUnits="objectBoundingBox" id="filter-24">
            <feMorphology radius="0.5" operator="dilate" in="SourceAlpha" result="shadowSpreadOuter1"></feMorphology>
            <feOffset dx="0" dy="0" in="shadowSpreadOuter1" result="shadowOffsetOuter1"></feOffset>
            <feGaussianBlur stdDeviation="3" in="shadowOffsetOuter1" result="shadowBlurOuter1"></feGaussianBlur>
            <feComposite in="shadowBlurOuter1" in2="SourceAlpha" operator="out" result="shadowBlurOuter1"></feComposite>
            <feColorMatrix values="0 0 0 0 1   0 0 0 0 1   0 0 0 0 1  0 0 0 0.5 0" type="matrix" in="shadowBlurOuter1"></feColorMatrix>
        </filter>
    </defs>
    <g id="草稿" stroke="none" stroke-width="1" fill="none" fill-rule="evenodd">
        <g id="画板" transform="translate(-150.000000, -154.000000)">
            <g id="300_阵雨-01" transform="translate(150.000000, 154.000000)">
                <rect id="矩形" x="0" y="0" width="80" height="80"></rect>
                <g id="形状" transform="translate(9.000000, 9.000000)" fill-rule="nonzero">
                    <g id="路径">
                        <use fill="black" fill-opacity="1" filter="url(#filter-2)" xlink:href="#path-1"></use>
                        <use stroke="#FFFFFF" stroke-width="1" fill="#E0F2FF" xlink:href="#path-1"></use>
                    </g>
                    <g id="路径">
                        <use fill="black" fill-opacity="1" filter="url(#filter-4)" xlink:href="#path-3"></use>
                        <use stroke="#FFFFFF" stroke-width="1" fill="#E0F2FF" xlink:href="#path-3"></use>
                    </g>
                    <g id="路径">
                        <use fill="black" fill-opacity="1" filter="url(#filter-6)" xlink:href="#path-5"></use>
                        <use stroke="#FFFFFF" stroke-width="1" fill="#E0F2FF" xlink:href="#path-5"></use>
                    </g>
                    <g id="路径">
                        <use fill="black" fill-opacity="1" filter="url(#filter-8)" xlink:href="#path-7"></use>
                        <use stroke="#FFFFFF" stroke-width="1" fill="#E0F2FF" xlink:href="#path-7"></use>
                    </g>
                    <g id="路径">
                        <use fill="black" fill-opacity="1" filter="url(#filter-10)" xlink:href="#path-9"></use>
                        <use stroke="#FFFFFF" stroke-width="1" fill="#E0F2FF" xlink:href="#path-9"></use>
                    </g>
                    <g>
                        <use fill="black" fill-opacity="1" filter="url(#filter-12)" xlink:href="#path-11"></use>
                        <use stroke="#FFFFFF" stroke-width="1" fill="#E0F2FF" xlink:href="#path-11"></use>
                    </g>
                    <g id="路径">
                        <use fill="black" fill-opacity="1" filter="url(#filter-14)" xlink:href="#path-13"></use>
                        <use stroke="#FFFFFF" stroke-width="1" fill="#E0F2FF" xlink:href="#path-13"></use>
                    </g>
                    <g id="路径">
                        <use fill="black" fill-opacity="1" filter="url(#filter-16)" xlink:href="#path-15"></use>
                        <use stroke="#FFFFFF" stroke-width="1" fill="#E0F2FF" xlink:href="#path-15"></use>
                    </g>
                    <g id="路径">
                        <use fill="black" fill-opacity="1" filter="url(#filter-18)" xlink:href="#path-17"></use>
                        <use stroke="#FFFFFF" stroke-width="1" fill="#E0F2FF" xlink:href="#path-17"></use>
                    </g>
                    <g id="路径">
                        <use fill="black" fill-opacity="1" filter="url(#filter-20)" xlink:href="#path-19"></use>
                        <use stroke="#FFFFFF" stroke-width="1" fill="#E0F2FF" xlink:href="#path-19"></use>
                    </g>
                    <g id="路径">
                        <use fill="black" fill-opacity="1" filter="url(#filter-22)" xlink:href="#path-21"></use>
                        <use stroke="#FFFFFF" stroke-width="1" fill="#E0F2FF" xlink:href="#path-21"></use>
                    </g>
                    <g id="路径">
                        <use fill="black" fill-opacity="1" filter="url(#filter-24)" xlink:href="#path-23"></use>
                        <use stroke="#FFFFFF" stroke-width="1" fill="#E0F2FF" xlink:href="#path-23"></use>
                    </g>
                </g>
            </g>
        </g>
    </g>
</svg>