<?xml version="1.0" encoding="UTF-8"?>
<svg width="80px" height="80px" viewBox="0 0 80 80" version="1.1" xmlns="http://www.w3.org/2000/svg" xmlns:xlink="http://www.w3.org/1999/xlink">
    <title>305_小雨-01</title>
    <defs>
        <path d="M25.2212332,48.5904567 C24.8122917,48.3389063 24.2782749,48.448336 24.0012332,48.8404567 L20.9312332,53.4104567 C20.6803308,53.7667675 20.765345,54.2589552 21.1212332,54.5104567 L21.2012332,54.5604567 C21.3418402,54.6487646 21.5052321,54.6939581 21.6712332,54.6904567 C21.9674883,54.690478 22.2460286,54.5493509 22.4212332,54.3104567 L25.4912332,49.7404567 C25.6129576,49.5661606 25.6592964,49.3501608 25.6197771,49.1412727 C25.5802577,48.9323847 25.458216,48.7482407 25.2812332,48.6304567 L25.2212332,48.5904567 Z" id="path-1"></path>
        <filter x="-196.0%" y="-152.4%" width="492.0%" height="404.7%" filterUnits="objectBoundingBox" id="filter-2">
            <feMorphology radius="0.5" operator="dilate" in="SourceAlpha" result="shadowSpreadOuter1"></feMorphology>
            <feOffset dx="0" dy="0" in="shadowSpreadOuter1" result="shadowOffsetOuter1"></feOffset>
            <feGaussianBlur stdDeviation="3" in="shadowOffsetOuter1" result="shadowBlurOuter1"></feGaussianBlur>
            <feComposite in="shadowBlurOuter1" in2="SourceAlpha" operator="out" result="shadowBlurOuter1"></feComposite>
            <feColorMatrix values="0 0 0 0 1   0 0 0 0 1   0 0 0 0 1  0 0 0 0.5 0" type="matrix" in="shadowBlurOuter1"></feColorMatrix>
        </filter>
        <path d="M35.6112332,48.5904567 C35.1983307,48.3428448 34.664712,48.4513039 34.3812332,48.8404567 L31.3112332,53.4104567 C31.1909138,53.5887954 31.1474917,53.8080777 31.1907673,54.0188113 C31.234043,54.229545 31.3603689,54.4139683 31.5412332,54.5304567 L31.5412332,54.5304567 C31.9510698,54.7768587 32.4813436,54.6681961 32.7612332,54.2804567 L35.8412332,49.7104567 C35.9615527,49.532118 36.0049748,49.3128358 35.9616991,49.1021021 C35.9184234,48.8913685 35.7920975,48.7069452 35.6112332,48.5904567 L35.6112332,48.5904567 Z" id="path-3"></path>
        <filter x="-197.8%" y="-153.1%" width="495.5%" height="406.2%" filterUnits="objectBoundingBox" id="filter-4">
            <feMorphology radius="0.5" operator="dilate" in="SourceAlpha" result="shadowSpreadOuter1"></feMorphology>
            <feOffset dx="0" dy="0" in="shadowSpreadOuter1" result="shadowOffsetOuter1"></feOffset>
            <feGaussianBlur stdDeviation="3" in="shadowOffsetOuter1" result="shadowBlurOuter1"></feGaussianBlur>
            <feComposite in="shadowBlurOuter1" in2="SourceAlpha" operator="out" result="shadowBlurOuter1"></feComposite>
            <feColorMatrix values="0 0 0 0 1   0 0 0 0 1   0 0 0 0 1  0 0 0 0.5 0" type="matrix" in="shadowBlurOuter1"></feColorMatrix>
        </filter>
        <path d="M27.3012332,56.9004567 C26.8907111,56.6455517 26.3521574,56.7603254 26.0812332,57.1604567 L23.0012332,61.7204567 C22.8809138,61.8987954 22.8374917,62.1180777 22.8807673,62.3288113 C22.924043,62.539545 23.0503689,62.7239683 23.2312332,62.8404567 L23.2312332,62.8404567 C23.3756307,62.9285183 23.5421311,62.9736122 23.7112332,62.9704567 C24.0047485,62.9705439 24.2802848,62.8290523 24.4512332,62.5904567 L27.5312332,58.0204567 C27.6515527,57.842118 27.6949748,57.6228358 27.6516991,57.4121021 C27.6084234,57.2013685 27.4820975,57.0169452 27.3012332,56.9004567 L27.3012332,56.9004567 Z" id="path-5"></path>
        <filter x="-197.8%" y="-153.1%" width="495.5%" height="406.2%" filterUnits="objectBoundingBox" id="filter-6">
            <feMorphology radius="0.5" operator="dilate" in="SourceAlpha" result="shadowSpreadOuter1"></feMorphology>
            <feOffset dx="0" dy="0" in="shadowSpreadOuter1" result="shadowOffsetOuter1"></feOffset>
            <feGaussianBlur stdDeviation="3" in="shadowOffsetOuter1" result="shadowBlurOuter1"></feGaussianBlur>
            <feComposite in="shadowBlurOuter1" in2="SourceAlpha" operator="out" result="shadowBlurOuter1"></feComposite>
            <feColorMatrix values="0 0 0 0 1   0 0 0 0 1   0 0 0 0 1  0 0 0 0.5 0" type="matrix" in="shadowBlurOuter1"></feColorMatrix>
        </filter>
        <path d="M37.6912332,56.9004567 C37.2767217,56.6497902 36.7388461,56.7634875 36.4612332,57.1604567 L33.3912332,61.7204567 C33.2695088,61.8947528 33.22317,62.1107527 33.2626893,62.3196407 C33.3022087,62.5285287 33.4242504,62.7126728 33.6012332,62.8304567 L33.6612332,62.8304567 C33.8018402,62.9187646 33.9652321,62.9639581 34.1312332,62.9604567 C34.428271,62.9637959 34.708241,62.8219444 34.8812332,62.5804567 L38.0012332,58.0504567 C38.1169912,57.8688906 38.1556904,57.6487051 38.1087805,57.4385488 C38.0618706,57.2283926 37.9332128,57.0455636 37.7512332,56.9304567 L37.6912332,56.9004567 Z" id="path-7"></path>
        <filter x="-194.7%" y="-153.4%" width="489.4%" height="406.8%" filterUnits="objectBoundingBox" id="filter-8">
            <feMorphology radius="0.5" operator="dilate" in="SourceAlpha" result="shadowSpreadOuter1"></feMorphology>
            <feOffset dx="0" dy="0" in="shadowSpreadOuter1" result="shadowOffsetOuter1"></feOffset>
            <feGaussianBlur stdDeviation="3" in="shadowOffsetOuter1" result="shadowBlurOuter1"></feGaussianBlur>
            <feComposite in="shadowBlurOuter1" in2="SourceAlpha" operator="out" result="shadowBlurOuter1"></feComposite>
            <feColorMatrix values="0 0 0 0 1   0 0 0 0 1   0 0 0 0 1  0 0 0 0.5 0" type="matrix" in="shadowBlurOuter1"></feColorMatrix>
        </filter>
        <path d="M42.3412332,41.6204567 L16.4512332,41.6204567 C9.27153146,41.6204567 3.45123321,35.8001585 3.45123321,28.6204567 C3.4579782,26.5272736 3.97636017,24.4674777 4.96123321,22.6204567 C5.01123609,22.5021066 5.07146422,22.3883424 5.14123321,22.2804567 C5.4388785,21.7798028 5.7731224,21.301834 6.14123321,20.8504567 L6.41123321,20.4904567 C6.76565437,20.057476 7.14992533,19.6498147 7.56123321,19.2704567 C7.67123321,19.1604567 7.78123321,19.0504567 7.90123321,18.9504567 C8.33525192,18.5916228 8.7893177,18.2577509 9.26123321,17.9504567 L9.59123321,17.7304567 C10.1229793,17.3920879 10.6815076,17.0977736 11.2612332,16.8504567 L11.4312332,16.7704567 C12.0801972,16.4947233 12.7486925,16.2674349 13.4312332,16.0904567 L13.4312332,16.0904567 C15.046824,15.6913297 16.7245608,15.6098202 18.3712332,15.8504567 C18.9696531,15.9397731 19.5702656,15.7030517 19.9468258,15.2294631 C20.323386,14.7558745 20.4186854,14.1173681 20.1968258,13.5544631 C19.9749661,12.9915581 19.4696531,12.5897731 18.8712332,12.5004567 C17.7444394,12.3506931 16.6057817,12.3105052 15.4712332,12.3804567 C17.448326,7.75711566 21.6348574,4.4516552 26.5907353,3.60109483 C31.5466132,2.75053446 36.5957126,4.4709152 40.0012332,8.17045672 C39.0938698,8.28295343 38.1951528,8.45668312 37.3112332,8.69045672 C32.5634693,10.0103837 28.5390127,13.170914 26.1312332,17.4704567 C25.6731722,18.2768343 25.9551642,19.3018529 26.7612332,19.7604567 L26.7612332,19.7604567 C27.0159355,19.8988917 27.3013417,19.9711029 27.5912332,19.9704567 C28.2075654,19.9769508 28.7785549,19.6473864 29.0812332,19.1104567 C31.9029736,14.1280871 37.2808134,11.1494129 43.0012332,11.4004567 L43.1312332,11.4004567 C51.3250438,11.8214093 57.6856901,18.7041544 57.4602841,26.905674 C57.2348781,35.1071937 50.5057959,41.6301879 42.3012332,41.6004567 L42.3412332,41.6204567 Z M51.5512332,10.4604567 C51.5111064,10.4201603 51.4676154,10.3833603 51.4212332,10.3504567 C51.3712332,10.3504567 51.0812332,10.1904567 50.9212332,10.1004567 L50.6812332,10.0004567 C48.6637755,8.98240276 46.4784163,8.33865356 44.2312332,8.10045672 C40.8274239,3.05546926 35.1470637,0.0224490007 29.0612332,0.000227067684 C20.9690288,-0.0400820607 13.8309036,5.29004452 11.5712332,13.0604567 L11.0412332,13.2504567 L10.4312332,13.4704567 C7.43220585,14.6406968 4.84685743,16.6727876 3.00123321,19.3104567 L3.00123321,19.3104567 C2.75123321,19.6604567 2.51123321,20.0304567 2.29123321,20.4104567 L2.21123321,20.5504567 C2.01123321,20.9004567 1.83123321,21.2604567 1.65123321,21.6204567 L1.56123321,21.8204567 C1.39123321,22.1804567 1.24123321,22.5504567 1.10123321,22.9204567 L1.00123321,23.1004567 L1.00123321,23.1004567 C-0.846540321,28.1231213 -0.107756507,33.7331282 2.97734244,38.106181 C6.06244138,42.4792339 11.0997603,45.0567125 16.4512332,45.0004567 L42.3412332,45.0004567 C50.7581025,45.0662489 58.1536752,39.4301125 60.3223078,31.2971518 C62.4909403,23.164191 58.8834185,14.5941085 51.5512332,10.4604567 L51.5512332,10.4604567 Z" id="path-9"></path>
        <filter x="-15.6%" y="-21.1%" width="131.2%" height="142.2%" filterUnits="objectBoundingBox" id="filter-10">
            <feMorphology radius="0.5" operator="dilate" in="SourceAlpha" result="shadowSpreadOuter1"></feMorphology>
            <feOffset dx="0" dy="0" in="shadowSpreadOuter1" result="shadowOffsetOuter1"></feOffset>
            <feGaussianBlur stdDeviation="3" in="shadowOffsetOuter1" result="shadowBlurOuter1"></feGaussianBlur>
            <feComposite in="shadowBlurOuter1" in2="SourceAlpha" operator="out" result="shadowBlurOuter1"></feComposite>
            <feColorMatrix values="0 0 0 0 1   0 0 0 0 1   0 0 0 0 1  0 0 0 0.5 0" type="matrix" in="shadowBlurOuter1"></feColorMatrix>
        </filter>
    </defs>
    <g id="草稿" stroke="none" stroke-width="1" fill="none" fill-rule="evenodd">
        <g id="画板" transform="translate(-670.000000, -154.000000)">
            <g id="305_小雨-01" transform="translate(670.000000, 154.000000)">
                <rect id="矩形" x="0" y="0" width="80" height="80"></rect>
                <g id="形状" transform="translate(9.000000, 9.000000)" fill-rule="nonzero">
                    <g id="路径">
                        <use fill="black" fill-opacity="1" filter="url(#filter-2)" xlink:href="#path-1"></use>
                        <use stroke="#FFFFFF" stroke-width="1" fill="#E0F2FF" xlink:href="#path-1"></use>
                    </g>
                    <g id="路径">
                        <use fill="black" fill-opacity="1" filter="url(#filter-4)" xlink:href="#path-3"></use>
                        <use stroke="#FFFFFF" stroke-width="1" fill="#E0F2FF" xlink:href="#path-3"></use>
                    </g>
                    <g id="路径">
                        <use fill="black" fill-opacity="1" filter="url(#filter-6)" xlink:href="#path-5"></use>
                        <use stroke="#FFFFFF" stroke-width="1" fill="#E0F2FF" xlink:href="#path-5"></use>
                    </g>
                    <g id="路径">
                        <use fill="black" fill-opacity="1" filter="url(#filter-8)" xlink:href="#path-7"></use>
                        <use stroke="#FFFFFF" stroke-width="1" fill="#E0F2FF" xlink:href="#path-7"></use>
                    </g>
                    <g>
                        <use fill="black" fill-opacity="1" filter="url(#filter-10)" xlink:href="#path-9"></use>
                        <use stroke="#FFFFFF" stroke-width="1" fill="#E0F2FF" xlink:href="#path-9"></use>
                    </g>
                </g>
            </g>
        </g>
    </g>
</svg>