<?xml version="1.0" encoding="UTF-8"?>
<svg width="80px" height="80px" viewBox="0 0 80 80" version="1.1" xmlns="http://www.w3.org/2000/svg" xmlns:xlink="http://www.w3.org/1999/xlink">
    <title>311_大暴雨-01</title>
    <defs>
        <path d="M14.8312332,47.5904567 C14.4222917,47.3389063 13.8882749,47.448336 13.6112332,47.8404567 L10.5412332,52.4104567 L10.5412332,52.4904567 L8.54123321,55.4104567 L8.54123321,55.4104567 L6.31123321,58.7204567 L6.31123321,58.8104567 L4.31123321,61.7204567 C4.18950877,61.8947528 4.14316999,62.1107527 4.18268935,62.3196407 C4.2222087,62.5285287 4.34425038,62.7126728 4.52123321,62.8304567 L4.58123321,62.8304567 C4.72184024,62.9187646 4.88523213,62.9639581 5.05123321,62.9604567 C5.34827096,62.9637959 5.62824104,62.8219444 5.80123321,62.5804567 L8.88123321,58.0104567 L8.88123321,58.0004567 L10.0012332,56.3104567 L10.0012332,56.3104567 L13.0812332,51.7404567 L13.0812332,51.6604567 L15.0812332,48.7404567 C15.3331469,48.3809892 15.2483632,47.8856736 14.8912332,47.6304567 L14.8312332,47.5904567 Z" id="path-1"></path>
        <filter x="-85.9%" y="-59.9%" width="271.8%" height="221.2%" filterUnits="objectBoundingBox" id="filter-2">
            <feMorphology radius="0.5" operator="dilate" in="SourceAlpha" result="shadowSpreadOuter1"></feMorphology>
            <feOffset dx="0" dy="0" in="shadowSpreadOuter1" result="shadowOffsetOuter1"></feOffset>
            <feGaussianBlur stdDeviation="3" in="shadowOffsetOuter1" result="shadowBlurOuter1"></feGaussianBlur>
            <feComposite in="shadowBlurOuter1" in2="SourceAlpha" operator="out" result="shadowBlurOuter1"></feComposite>
            <feColorMatrix values="0 0 0 0 1   0 0 0 0 1   0 0 0 0 1  0 0 0 0.5 0" type="matrix" in="shadowBlurOuter1"></feColorMatrix>
        </filter>
        <path d="M23.8312332,47.5904567 C23.4222917,47.3389063 22.8882749,47.448336 22.6112332,47.8404567 L19.5412332,52.4104567 L19.5412332,52.4904567 L17.5412332,55.4104567 L17.5412332,55.4104567 L15.3112332,58.7204567 L15.3112332,58.8104567 L13.3112332,61.7204567 C13.1895088,61.8947528 13.14317,62.1107527 13.1826893,62.3196407 C13.2222087,62.5285287 13.3442504,62.7126728 13.5212332,62.8304567 L13.5812332,62.8304567 C13.7218402,62.9187646 13.8852321,62.9639581 14.0512332,62.9604567 C14.348271,62.9637959 14.628241,62.8219444 14.8012332,62.5804567 L17.8812332,58.0104567 L17.8812332,58.0004567 L19.0012332,56.3104567 L19.0012332,56.3104567 L22.0812332,51.7404567 L22.0812332,51.6604567 L24.0812332,48.7404567 C24.3331469,48.3809892 24.2483632,47.8856736 23.8912332,47.6304567 L23.8312332,47.5904567 Z" id="path-3"></path>
        <filter x="-85.9%" y="-59.9%" width="271.8%" height="221.2%" filterUnits="objectBoundingBox" id="filter-4">
            <feMorphology radius="0.5" operator="dilate" in="SourceAlpha" result="shadowSpreadOuter1"></feMorphology>
            <feOffset dx="0" dy="0" in="shadowSpreadOuter1" result="shadowOffsetOuter1"></feOffset>
            <feGaussianBlur stdDeviation="3" in="shadowOffsetOuter1" result="shadowBlurOuter1"></feGaussianBlur>
            <feComposite in="shadowBlurOuter1" in2="SourceAlpha" operator="out" result="shadowBlurOuter1"></feComposite>
            <feColorMatrix values="0 0 0 0 1   0 0 0 0 1   0 0 0 0 1  0 0 0 0.5 0" type="matrix" in="shadowBlurOuter1"></feColorMatrix>
        </filter>
        <path d="M32.8312332,47.5904567 C32.4222917,47.3389063 31.8882749,47.448336 31.6112332,47.8404567 L28.5412332,52.4104567 L28.5412332,52.4904567 L26.5412332,55.4104567 L26.5412332,55.4104567 L24.3112332,58.7204567 L24.3112332,58.8104567 L22.3112332,61.7204567 C22.1895088,61.8947528 22.14317,62.1107527 22.1826893,62.3196407 C22.2222087,62.5285287 22.3442504,62.7126728 22.5212332,62.8304567 L22.5812332,62.8304567 C22.7218402,62.9187646 22.8852321,62.9639581 23.0512332,62.9604567 C23.348271,62.9637959 23.628241,62.8219444 23.8012332,62.5804567 L26.8812332,58.0104567 L26.8812332,58.0004567 L28.0012332,56.3104567 L28.0012332,56.3104567 L31.0812332,51.7404567 L31.0812332,51.6604567 L33.0812332,48.7404567 C33.3331469,48.3809892 33.2483632,47.8856736 32.8912332,47.6304567 L32.8312332,47.5904567 Z" id="path-5"></path>
        <filter x="-85.9%" y="-59.9%" width="271.8%" height="221.2%" filterUnits="objectBoundingBox" id="filter-6">
            <feMorphology radius="0.5" operator="dilate" in="SourceAlpha" result="shadowSpreadOuter1"></feMorphology>
            <feOffset dx="0" dy="0" in="shadowSpreadOuter1" result="shadowOffsetOuter1"></feOffset>
            <feGaussianBlur stdDeviation="3" in="shadowOffsetOuter1" result="shadowBlurOuter1"></feGaussianBlur>
            <feComposite in="shadowBlurOuter1" in2="SourceAlpha" operator="out" result="shadowBlurOuter1"></feComposite>
            <feColorMatrix values="0 0 0 0 1   0 0 0 0 1   0 0 0 0 1  0 0 0 0.5 0" type="matrix" in="shadowBlurOuter1"></feColorMatrix>
        </filter>
        <path d="M41.8312332,47.5904567 C41.4222917,47.3389063 40.8882749,47.448336 40.6112332,47.8404567 L37.5412332,52.4104567 L37.5412332,52.4904567 L35.5412332,55.4104567 L35.5412332,55.4104567 L33.3112332,58.7204567 L33.3112332,58.8104567 L31.3112332,61.7204567 C31.1895088,61.8947528 31.14317,62.1107527 31.1826893,62.3196407 C31.2222087,62.5285287 31.3442504,62.7126728 31.5212332,62.8304567 L31.5812332,62.8304567 C31.7218402,62.9187646 31.8852321,62.9639581 32.0512332,62.9604567 C32.348271,62.9637959 32.628241,62.8219444 32.8012332,62.5804567 L35.8812332,58.0104567 L35.8812332,58.0004567 L37.0012332,56.3104567 L37.0012332,56.3104567 L40.0812332,51.7404567 L40.0812332,51.6604567 L42.0812332,48.7404567 C42.3331469,48.3809892 42.2483632,47.8856736 41.8912332,47.6304567 L41.8312332,47.5904567 Z" id="path-7"></path>
        <filter x="-85.9%" y="-59.9%" width="271.8%" height="221.2%" filterUnits="objectBoundingBox" id="filter-8">
            <feMorphology radius="0.5" operator="dilate" in="SourceAlpha" result="shadowSpreadOuter1"></feMorphology>
            <feOffset dx="0" dy="0" in="shadowSpreadOuter1" result="shadowOffsetOuter1"></feOffset>
            <feGaussianBlur stdDeviation="3" in="shadowOffsetOuter1" result="shadowBlurOuter1"></feGaussianBlur>
            <feComposite in="shadowBlurOuter1" in2="SourceAlpha" operator="out" result="shadowBlurOuter1"></feComposite>
            <feColorMatrix values="0 0 0 0 1   0 0 0 0 1   0 0 0 0 1  0 0 0 0.5 0" type="matrix" in="shadowBlurOuter1"></feColorMatrix>
        </filter>
        <path d="M50.8312332,47.5904567 C50.4222917,47.3389063 49.8882749,47.448336 49.6112332,47.8404567 L46.5412332,52.4104567 L46.5412332,52.4904567 L44.5412332,55.4104567 L44.5412332,55.4104567 L42.3112332,58.7204567 L42.3112332,58.8104567 L40.3112332,61.7204567 C40.1895088,61.8947528 40.14317,62.1107527 40.1826893,62.3196407 C40.2222087,62.5285287 40.3442504,62.7126728 40.5212332,62.8304567 L40.5812332,62.8304567 C40.7218402,62.9187646 40.8852321,62.9639581 41.0512332,62.9604567 C41.348271,62.9637959 41.628241,62.8219444 41.8012332,62.5804567 L44.8812332,58.0104567 L44.8812332,58.0004567 L46.0012332,56.3104567 L46.0012332,56.3104567 L49.0812332,51.7404567 L49.0812332,51.6604567 L51.0812332,48.7404567 C51.3331469,48.3809892 51.2483632,47.8856736 50.8912332,47.6304567 L50.8312332,47.5904567 Z" id="path-9"></path>
        <filter x="-85.9%" y="-59.9%" width="271.8%" height="221.2%" filterUnits="objectBoundingBox" id="filter-10">
            <feMorphology radius="0.5" operator="dilate" in="SourceAlpha" result="shadowSpreadOuter1"></feMorphology>
            <feOffset dx="0" dy="0" in="shadowSpreadOuter1" result="shadowOffsetOuter1"></feOffset>
            <feGaussianBlur stdDeviation="3" in="shadowOffsetOuter1" result="shadowBlurOuter1"></feGaussianBlur>
            <feComposite in="shadowBlurOuter1" in2="SourceAlpha" operator="out" result="shadowBlurOuter1"></feComposite>
            <feColorMatrix values="0 0 0 0 1   0 0 0 0 1   0 0 0 0 1  0 0 0 0.5 0" type="matrix" in="shadowBlurOuter1"></feColorMatrix>
        </filter>
        <path d="M42.3412332,41.6204567 L16.4512332,41.6204567 C9.27153146,41.6204567 3.45123321,35.8001585 3.45123321,28.6204567 C3.4579782,26.5272736 3.97636017,24.4674777 4.96123321,22.6204567 C5.01123609,22.5021066 5.07146422,22.3883424 5.14123321,22.2804567 C5.4388785,21.7798028 5.7731224,21.301834 6.14123321,20.8504567 L6.41123321,20.4904567 C6.76565437,20.057476 7.14992533,19.6498147 7.56123321,19.2704567 C7.67123321,19.1604567 7.78123321,19.0504567 7.90123321,18.9504567 C8.33525192,18.5916228 8.7893177,18.2577509 9.26123321,17.9504567 L9.59123321,17.7304567 C10.1229793,17.3920879 10.6815076,17.0977736 11.2612332,16.8504567 L11.4312332,16.7704567 C12.0801972,16.4947233 12.7486925,16.2674349 13.4312332,16.0904567 L13.4312332,16.0904567 C15.046824,15.6913297 16.7245608,15.6098202 18.3712332,15.8504567 C18.9696531,15.9397731 19.5702656,15.7030517 19.9468258,15.2294631 C20.323386,14.7558745 20.4186854,14.1173681 20.1968258,13.5544631 C19.9749661,12.9915581 19.4696531,12.5897731 18.8712332,12.5004567 C17.7444394,12.3506931 16.6057817,12.3105052 15.4712332,12.3804567 C17.448326,7.75711566 21.6348574,4.4516552 26.5907353,3.60109483 C31.5466132,2.75053446 36.5957126,4.4709152 40.0012332,8.17045672 C39.0938698,8.28295343 38.1951528,8.45668312 37.3112332,8.69045672 C32.5634693,10.0103837 28.5390127,13.170914 26.1312332,17.4704567 C25.6731722,18.2768343 25.9551642,19.3018529 26.7612332,19.7604567 L26.7612332,19.7604567 C27.0159355,19.8988917 27.3013417,19.9711029 27.5912332,19.9704567 C28.2075654,19.9769508 28.7785549,19.6473864 29.0812332,19.1104567 C31.9029736,14.1280871 37.2808134,11.1494129 43.0012332,11.4004567 L43.1312332,11.4004567 C51.3250438,11.8214093 57.6856901,18.7041544 57.4602841,26.905674 C57.2348781,35.1071937 50.5057959,41.6301879 42.3012332,41.6004567 L42.3412332,41.6204567 Z M51.5512332,10.4604567 C51.5111064,10.4201603 51.4676154,10.3833603 51.4212332,10.3504567 C51.3712332,10.3504567 51.0812332,10.1904567 50.9212332,10.1004567 L50.6812332,10.0004567 C48.6637755,8.98240276 46.4784163,8.33865356 44.2312332,8.10045672 C40.8274239,3.05546926 35.1470637,0.0224490007 29.0612332,0.000227067684 C20.9690288,-0.0400820607 13.8309036,5.29004452 11.5712332,13.0604567 L11.0412332,13.2504567 L10.4312332,13.4704567 C7.43220585,14.6406968 4.84685743,16.6727876 3.00123321,19.3104567 L3.00123321,19.3104567 C2.75123321,19.6604567 2.51123321,20.0304567 2.29123321,20.4104567 L2.21123321,20.5504567 C2.01123321,20.9004567 1.83123321,21.2604567 1.65123321,21.6204567 L1.56123321,21.8204567 C1.39123321,22.1804567 1.24123321,22.5504567 1.10123321,22.9204567 L1.00123321,23.1004567 L1.00123321,23.1004567 C-0.846540321,28.1231213 -0.107756507,33.7331282 2.97734244,38.106181 C6.06244138,42.4792339 11.0997603,45.0567125 16.4512332,45.0004567 L42.3412332,45.0004567 C50.7581025,45.0662489 58.1536752,39.4301125 60.3223078,31.2971518 C62.4909403,23.164191 58.8834185,14.5941085 51.5512332,10.4604567 L51.5512332,10.4604567 Z" id="path-11"></path>
        <filter x="-15.6%" y="-21.1%" width="131.2%" height="142.2%" filterUnits="objectBoundingBox" id="filter-12">
            <feMorphology radius="0.5" operator="dilate" in="SourceAlpha" result="shadowSpreadOuter1"></feMorphology>
            <feOffset dx="0" dy="0" in="shadowSpreadOuter1" result="shadowOffsetOuter1"></feOffset>
            <feGaussianBlur stdDeviation="3" in="shadowOffsetOuter1" result="shadowBlurOuter1"></feGaussianBlur>
            <feComposite in="shadowBlurOuter1" in2="SourceAlpha" operator="out" result="shadowBlurOuter1"></feComposite>
            <feColorMatrix values="0 0 0 0 1   0 0 0 0 1   0 0 0 0 1  0 0 0 0.5 0" type="matrix" in="shadowBlurOuter1"></feColorMatrix>
        </filter>
    </defs>
    <g id="草稿" stroke="none" stroke-width="1" fill="none" fill-rule="evenodd">
        <g id="画板" transform="translate(-1294.000000, -154.000000)">
            <g id="311_大暴雨-01" transform="translate(1294.000000, 154.000000)">
                <rect id="矩形" x="0" y="0" width="80" height="80"></rect>
                <g id="形状" transform="translate(10.000000, 8.000000)" fill-rule="nonzero">
                    <g id="路径">
                        <use fill="black" fill-opacity="1" filter="url(#filter-2)" xlink:href="#path-1"></use>
                        <use stroke="#FFFFFF" stroke-width="1" fill="#E0F2FF" xlink:href="#path-1"></use>
                    </g>
                    <g id="路径">
                        <use fill="black" fill-opacity="1" filter="url(#filter-4)" xlink:href="#path-3"></use>
                        <use stroke="#FFFFFF" stroke-width="1" fill="#E0F2FF" xlink:href="#path-3"></use>
                    </g>
                    <g id="路径">
                        <use fill="black" fill-opacity="1" filter="url(#filter-6)" xlink:href="#path-5"></use>
                        <use stroke="#FFFFFF" stroke-width="1" fill="#E0F2FF" xlink:href="#path-5"></use>
                    </g>
                    <g id="路径">
                        <use fill="black" fill-opacity="1" filter="url(#filter-8)" xlink:href="#path-7"></use>
                        <use stroke="#FFFFFF" stroke-width="1" fill="#E0F2FF" xlink:href="#path-7"></use>
                    </g>
                    <g id="路径">
                        <use fill="black" fill-opacity="1" filter="url(#filter-10)" xlink:href="#path-9"></use>
                        <use stroke="#FFFFFF" stroke-width="1" fill="#E0F2FF" xlink:href="#path-9"></use>
                    </g>
                    <g>
                        <use fill="black" fill-opacity="1" filter="url(#filter-12)" xlink:href="#path-11"></use>
                        <use stroke="#FFFFFF" stroke-width="1" fill="#E0F2FF" xlink:href="#path-11"></use>
                    </g>
                </g>
            </g>
        </g>
    </g>
</svg>