<?xml version="1.0" encoding="UTF-8"?>
<svg width="80px" height="80px" viewBox="0 0 80 80" version="1.1" xmlns="http://www.w3.org/2000/svg" xmlns:xlink="http://www.w3.org/1999/xlink">
    <title>314_小到中雨-01</title>
    <defs>
        <path d="M60.1338047,16.1604329 C59.396161,15.7982053 58.5043853,16.0969501 58.1338047,16.8304329 L56.6138047,19.8304329 C53.36647,12.1094641 46.236906,6.71556169 37.9238047,5.69043293 C37.0953776,5.58826027 36.3409774,6.17700582 36.2388047,7.00543293 C36.136632,7.83386004 36.7253776,8.58826023 37.5538047,8.69043293 C44.8177733,9.58299075 51.0462211,14.300124 53.8738047,21.0504329 L50.9538047,20.0504329 C50.1919502,19.8469772 49.4018206,20.2640068 49.1399222,21.0077982 C48.8780238,21.7515897 49.2325521,22.5716678 49.9538047,22.8904329 L55.9538047,24.8904329 L55.9538047,24.8904329 C56.0931277,24.9338938 56.2378906,24.9574598 56.3838047,24.9604329 L56.3838047,24.9604329 C56.5297187,24.9574598 56.6744817,24.9338938 56.8138047,24.8904329 L56.9438047,24.8904329 L57.2038047,24.7604329 L57.3338047,24.6504329 C57.4020519,24.5922118 57.4655836,24.5286801 57.5238047,24.4604329 L57.6338047,24.3104329 L57.7238047,24.1804329 L60.7238047,18.1804329 C61.1175236,17.4595748 60.8536228,16.55605 60.1338047,16.1604329 Z" id="path-1"></path>
        <filter x="-38.5%" y="-49.3%" width="177.0%" height="194.8%" filterUnits="objectBoundingBox" id="filter-2">
            <feMorphology radius="0.5" operator="dilate" in="SourceAlpha" result="shadowSpreadOuter1"></feMorphology>
            <feOffset dx="0" dy="0" in="shadowSpreadOuter1" result="shadowOffsetOuter1"></feOffset>
            <feGaussianBlur stdDeviation="3" in="shadowOffsetOuter1" result="shadowBlurOuter1"></feGaussianBlur>
            <feComposite in="shadowBlurOuter1" in2="SourceAlpha" operator="out" result="shadowBlurOuter1"></feComposite>
            <feColorMatrix values="0 0 0 0 1   0 0 0 0 1   0 0 0 0 1  0 0 0 0.5 0" type="matrix" in="shadowBlurOuter1"></feColorMatrix>
        </filter>
        <path d="M13.8738047,27.0004329 C13.6421762,26.868882 13.3485933,26.9336429 13.1938047,27.1504329 L11.4838047,29.6804329 C11.3477315,29.8851825 11.4011622,30.1612412 11.6038047,30.3004329 L11.6038047,30.3004329 C11.6820178,30.3480943 11.7722345,30.3723834 11.8638047,30.3704329 C12.0308254,30.378365 12.1899379,30.2988087 12.2838047,30.1604329 L13.9938047,27.6204329 C14.1298779,27.4156834 14.0764471,27.1396246 13.8738047,27.0004329 L13.8738047,27.0004329 Z" id="path-3"></path>
        <filter x="-357.1%" y="-276.3%" width="814.1%" height="652.6%" filterUnits="objectBoundingBox" id="filter-4">
            <feMorphology radius="0.5" operator="dilate" in="SourceAlpha" result="shadowSpreadOuter1"></feMorphology>
            <feOffset dx="0" dy="0" in="shadowSpreadOuter1" result="shadowOffsetOuter1"></feOffset>
            <feGaussianBlur stdDeviation="3" in="shadowOffsetOuter1" result="shadowBlurOuter1"></feGaussianBlur>
            <feComposite in="shadowBlurOuter1" in2="SourceAlpha" operator="out" result="shadowBlurOuter1"></feComposite>
            <feColorMatrix values="0 0 0 0 1   0 0 0 0 1   0 0 0 0 1  0 0 0 0.5 0" type="matrix" in="shadowBlurOuter1"></feColorMatrix>
        </filter>
        <path d="M19.6638047,27.0004329 C19.4321762,26.868882 19.1385933,26.9336429 18.9838047,27.1504329 L17.2738047,29.6704329 C17.1377315,29.8751825 17.1911622,30.1512412 17.3938047,30.2904329 L17.3938047,30.2904329 C17.4757505,30.3379191 17.5691093,30.3621233 17.6638047,30.3604329 C17.8273265,30.3648692 17.98185,30.285723 18.0738047,30.1504329 L19.7838047,27.6104329 C19.9153415,27.4102321 19.8669858,27.142078 19.6738047,27.0004329 L19.6638047,27.0004329 Z" id="path-5"></path>
        <filter x="-357.2%" y="-277.1%" width="814.5%" height="654.3%" filterUnits="objectBoundingBox" id="filter-6">
            <feMorphology radius="0.5" operator="dilate" in="SourceAlpha" result="shadowSpreadOuter1"></feMorphology>
            <feOffset dx="0" dy="0" in="shadowSpreadOuter1" result="shadowOffsetOuter1"></feOffset>
            <feGaussianBlur stdDeviation="3" in="shadowOffsetOuter1" result="shadowBlurOuter1"></feGaussianBlur>
            <feComposite in="shadowBlurOuter1" in2="SourceAlpha" operator="out" result="shadowBlurOuter1"></feComposite>
            <feColorMatrix values="0 0 0 0 1   0 0 0 0 1   0 0 0 0 1  0 0 0 0.5 0" type="matrix" in="shadowBlurOuter1"></feColorMatrix>
        </filter>
        <path d="M15.0438047,31.6104329 C14.8154534,31.4718073 14.5188246,31.5328779 14.3638047,31.7504329 L12.6538047,34.2904329 C12.5866477,34.3892464 12.5625608,34.5111211 12.5870787,34.6280529 C12.6115967,34.7449846 12.6826112,34.8469188 12.7838047,34.9104329 L12.7838047,34.9104329 C12.8620178,34.9580943 12.9522345,34.9823834 13.0438047,34.9804329 C13.2088677,34.9796552 13.3641447,34.9020167 13.4638047,34.7704329 L15.1638047,32.2304329 C15.300885,32.0313958 15.2517738,31.7590513 15.0538047,31.6204329 L15.0438047,31.6104329 Z" id="path-7"></path>
        <filter x="-356.6%" y="-275.8%" width="813.3%" height="651.7%" filterUnits="objectBoundingBox" id="filter-8">
            <feMorphology radius="0.5" operator="dilate" in="SourceAlpha" result="shadowSpreadOuter1"></feMorphology>
            <feOffset dx="0" dy="0" in="shadowSpreadOuter1" result="shadowOffsetOuter1"></feOffset>
            <feGaussianBlur stdDeviation="3" in="shadowOffsetOuter1" result="shadowBlurOuter1"></feGaussianBlur>
            <feComposite in="shadowBlurOuter1" in2="SourceAlpha" operator="out" result="shadowBlurOuter1"></feComposite>
            <feColorMatrix values="0 0 0 0 1   0 0 0 0 1   0 0 0 0 1  0 0 0 0.5 0" type="matrix" in="shadowBlurOuter1"></feColorMatrix>
        </filter>
        <path d="M20.8138047,31.6104329 C20.589488,31.4675302 20.2921304,31.5296646 20.1438047,31.7504329 L18.4338047,34.2904329 C18.2967243,34.4894701 18.3458356,34.7618145 18.5438047,34.9004329 L18.5438047,34.9004329 C18.6384672,34.9718417 18.755427,35.0072841 18.8738047,35.0004329 C19.0388677,34.9996552 19.1941447,34.9220167 19.2938047,34.7904329 L21.0038047,32.2504329 C21.066415,32.1483976 21.0857878,32.0256201 21.0576371,31.9092638 C21.0294863,31.7929075 20.9561326,31.6925639 20.8538047,31.6304329 L20.8138047,31.6104329 Z" id="path-9"></path>
        <filter x="-350.0%" y="-274.0%" width="800.0%" height="647.9%" filterUnits="objectBoundingBox" id="filter-10">
            <feMorphology radius="0.5" operator="dilate" in="SourceAlpha" result="shadowSpreadOuter1"></feMorphology>
            <feOffset dx="0" dy="0" in="shadowSpreadOuter1" result="shadowOffsetOuter1"></feOffset>
            <feGaussianBlur stdDeviation="3" in="shadowOffsetOuter1" result="shadowBlurOuter1"></feGaussianBlur>
            <feComposite in="shadowBlurOuter1" in2="SourceAlpha" operator="out" result="shadowBlurOuter1"></feComposite>
            <feColorMatrix values="0 0 0 0 1   0 0 0 0 1   0 0 0 0 1  0 0 0 0.5 0" type="matrix" in="shadowBlurOuter1"></feColorMatrix>
        </filter>
        <path d="M23.4038047,23.1204329 L9.02380468,23.1204329 C6.49105736,23.1451938 4.13263758,21.8336535 2.81743832,19.6690119 C1.50223905,17.5043704 1.42485825,14.8069097 2.61380468,12.5704329 C2.64328723,12.508373 2.67668802,12.4482516 2.71380468,12.3904329 C2.86582164,12.1082313 3.04322081,11.840459 3.24380468,11.5904329 L3.39380468,11.3904329 C3.59078222,11.15204 3.80111987,10.9250089 4.02380468,10.7104329 L4.21380468,10.5404329 C4.45226371,10.340365 4.70641508,10.1597838 4.97380468,10.0004329 L5.15380468,9.88043293 C5.45290552,9.69424353 5.76353089,9.52724065 6.08380468,9.38043293 L6.18380468,9.38043293 C6.54973067,9.22382334 6.92760366,9.09675101 7.31380468,9.00043293 L7.31380468,9.00043293 C8.21382492,8.78234502 9.14722479,8.73822066 10.0638047,8.87043293 C10.572417,8.91608328 11.0337179,8.57118547 11.1338047,8.07043293 C11.2050485,7.55695178 10.8471396,7.08272258 10.3338047,7.01043293 C9.70611516,6.93718104 9.07223418,6.93382717 8.44380468,7.00043293 C9.539078,4.42546698 11.867662,2.58342866 14.6255988,2.11029286 C17.3835357,1.63715707 20.1929237,2.59775444 22.0838047,4.66043293 C21.5815861,4.73054946 21.0840258,4.83072938 20.5938047,4.96043293 C17.9784494,5.66229068 15.7442118,7.36490903 14.3738047,9.70043293 C14.2094625,9.99517704 14.2148482,10.3552073 14.387933,10.6449039 C14.5610178,10.9346005 14.875506,11.1099515 15.212933,11.1049039 C15.55036,11.0998563 15.8594625,10.915177 16.0238047,10.6204329 L16.0238047,10.6204329 C17.113863,8.66121652 18.9435588,7.22051119 21.1038047,6.62043293 C21.9792985,6.38054708 22.8869727,6.27931948 23.7938047,6.32043293 L23.8738047,6.32043293 C28.5074737,6.44745849 32.16083,10.3067639 32.0338046,14.9404329 C31.9067791,19.5741019 28.0474737,23.2274583 23.4138047,23.1004329 L23.4038047,23.1204329 Z M28.5238047,5.81043293 L28.4438047,5.74043293 L28.1738047,5.61043293 L28.0438047,5.54043293 C26.9167208,4.99469119 25.7007219,4.65597284 24.4538047,4.54043293 C22.5728016,1.7203011 19.4136386,0.0189250364 16.0238047,0.000432927494 C11.5218962,-0.0412479742 7.54718753,2.93057331 6.31380468,7.26043293 L6.01380468,7.37043293 C5.89372838,7.38787027 5.77822474,7.42863626 5.67380468,7.49043293 C4.00290354,8.14074719 2.5622336,9.2717079 1.53380468,10.7404329 L1.53380468,10.7404329 C1.39380468,10.9404329 1.26380468,11.1504329 1.13380468,11.3604329 L1.13380468,11.4304329 C1.02380468,11.6304329 0.913804678,11.8304329 0.813804678,12.0304329 C0.819285574,12.0668948 0.819285574,12.1039711 0.813804678,12.1404329 C0.723804678,12.3404329 0.643804678,12.5504329 0.563804678,12.7504329 L0.563804678,12.8304329 L0.563804678,12.8304329 C-1.16310701,17.5049532 1.2093207,22.6965935 5.87380468,24.4504329 C6.87759634,24.8129607 7.93655486,24.9990397 9.00380468,25.0006634 L23.4038047,25.0006634 C28.0769538,25.0315895 32.180727,21.9008699 33.3854356,17.3855658 C34.5901441,12.8702617 32.5913695,8.111348 28.5238047,5.81043293 Z" id="path-11"></path>
        <filter x="-28.2%" y="-38.0%" width="156.3%" height="176.0%" filterUnits="objectBoundingBox" id="filter-12">
            <feMorphology radius="0.5" operator="dilate" in="SourceAlpha" result="shadowSpreadOuter1"></feMorphology>
            <feOffset dx="0" dy="0" in="shadowSpreadOuter1" result="shadowOffsetOuter1"></feOffset>
            <feGaussianBlur stdDeviation="3" in="shadowOffsetOuter1" result="shadowBlurOuter1"></feGaussianBlur>
            <feComposite in="shadowBlurOuter1" in2="SourceAlpha" operator="out" result="shadowBlurOuter1"></feComposite>
            <feColorMatrix values="0 0 0 0 1   0 0 0 0 1   0 0 0 0 1  0 0 0 0.5 0" type="matrix" in="shadowBlurOuter1"></feColorMatrix>
        </filter>
        <path d="M40.8738047,53.7704329 C40.6393162,53.6294022 40.336013,53.6900628 40.1738047,53.9104329 L38.4138047,56.5204329 C38.3447331,56.6211792 38.3185682,56.7452609 38.3410791,56.865319 C38.36359,56.9853771 38.432928,57.091552 38.5338047,57.1604329 L38.5338047,57.1604329 C38.6157505,57.2079191 38.7091093,57.2321233 38.8038047,57.2304329 C38.9900341,57.2418388 39.1685432,57.1544833 39.2738047,57.0004329 L41.0338047,54.3904329 C41.1009869,54.287246 41.1239963,54.1614325 41.0976838,54.0411469 C41.0713713,53.9208612 40.9979337,53.8161455 40.8938047,53.7504329 L40.8738047,53.7704329 Z" id="path-13"></path>
        <filter x="-342.3%" y="-268.6%" width="784.7%" height="637.2%" filterUnits="objectBoundingBox" id="filter-14">
            <feMorphology radius="0.5" operator="dilate" in="SourceAlpha" result="shadowSpreadOuter1"></feMorphology>
            <feOffset dx="0" dy="0" in="shadowSpreadOuter1" result="shadowOffsetOuter1"></feOffset>
            <feGaussianBlur stdDeviation="3" in="shadowOffsetOuter1" result="shadowBlurOuter1"></feGaussianBlur>
            <feComposite in="shadowBlurOuter1" in2="SourceAlpha" operator="out" result="shadowBlurOuter1"></feComposite>
            <feColorMatrix values="0 0 0 0 1   0 0 0 0 1   0 0 0 0 1  0 0 0 0.5 0" type="matrix" in="shadowBlurOuter1"></feColorMatrix>
        </filter>
        <path d="M46.8738047,53.7704329 C46.6423847,53.6306187 46.3424311,53.6914789 46.1838047,53.9104329 L44.4238047,56.5204329 C44.3561319,56.6251814 44.3328628,56.7525305 44.3591206,56.8744418 C44.3853785,56.9963531 44.4590103,57.1028313 44.5638047,57.1704329 L44.5638047,57.1704329 C44.6457505,57.2179191 44.7391093,57.2421233 44.8338047,57.2404329 C45.0114214,57.2392165 45.17662,57.1491082 45.2738047,57.0004329 L47.0338047,54.3904329 C47.1023706,54.2912683 47.1282779,54.1687378 47.1057195,54.0503063 C47.0831611,53.9318748 47.0140238,53.827448 46.9138047,53.7604329 L46.8738047,53.7704329 Z" id="path-15"></path>
        <filter x="-343.6%" y="-268.0%" width="787.1%" height="636.0%" filterUnits="objectBoundingBox" id="filter-16">
            <feMorphology radius="0.5" operator="dilate" in="SourceAlpha" result="shadowSpreadOuter1"></feMorphology>
            <feOffset dx="0" dy="0" in="shadowSpreadOuter1" result="shadowOffsetOuter1"></feOffset>
            <feGaussianBlur stdDeviation="3" in="shadowOffsetOuter1" result="shadowBlurOuter1"></feGaussianBlur>
            <feComposite in="shadowBlurOuter1" in2="SourceAlpha" operator="out" result="shadowBlurOuter1"></feComposite>
            <feColorMatrix values="0 0 0 0 1   0 0 0 0 1   0 0 0 0 1  0 0 0 0.5 0" type="matrix" in="shadowBlurOuter1"></feColorMatrix>
        </filter>
        <path d="M52.7738047,53.7704329 C52.5393162,53.6294022 52.236013,53.6900628 52.0738047,53.9104329 L50.3138047,56.5204329 C50.2447331,56.6211792 50.2185682,56.7452609 50.2410791,56.865319 C50.26359,56.9853771 50.332928,57.091552 50.4338047,57.1604329 L50.4338047,57.1604329 C50.5157505,57.2079191 50.6091093,57.2321233 50.7038047,57.2304329 C50.8900341,57.2418388 51.0685432,57.1544833 51.1738047,57.0004329 L52.9238047,54.3904329 C52.986415,54.2883976 53.0057878,54.1656201 52.9776371,54.0492638 C52.9494863,53.9329075 52.8761326,53.8325639 52.7738047,53.7704329 L52.7738047,53.7704329 Z" id="path-17"></path>
        <filter x="-344.6%" y="-268.6%" width="789.1%" height="637.2%" filterUnits="objectBoundingBox" id="filter-18">
            <feMorphology radius="0.5" operator="dilate" in="SourceAlpha" result="shadowSpreadOuter1"></feMorphology>
            <feOffset dx="0" dy="0" in="shadowSpreadOuter1" result="shadowOffsetOuter1"></feOffset>
            <feGaussianBlur stdDeviation="3" in="shadowOffsetOuter1" result="shadowBlurOuter1"></feGaussianBlur>
            <feComposite in="shadowBlurOuter1" in2="SourceAlpha" operator="out" result="shadowBlurOuter1"></feComposite>
            <feColorMatrix values="0 0 0 0 1   0 0 0 0 1   0 0 0 0 1  0 0 0 0.5 0" type="matrix" in="shadowBlurOuter1"></feColorMatrix>
        </filter>
        <path d="M42.4838047,58.5204329 C42.2502308,58.3742734 41.9431962,58.4356804 41.7838047,58.6604329 L40.0338047,61.2704329 C39.9661319,61.3751814 39.9428628,61.5025305 39.9691206,61.6244418 C39.9953785,61.7463531 40.0690103,61.8528313 40.1738047,61.9204329 L40.1738047,61.9204329 C40.2557505,61.9679191 40.3491093,61.9921233 40.4438047,61.9904329 C40.6141657,61.9904703 40.7741596,61.908613 40.8738047,61.7704329 L42.6338047,59.1604329 C42.7023706,59.0612683 42.7282779,58.9387378 42.7057195,58.8203063 C42.6831611,58.7018748 42.6140238,58.597448 42.5138047,58.5304329 L42.4838047,58.5204329 Z" id="path-19"></path>
        <filter x="-344.8%" y="-267.7%" width="789.6%" height="635.3%" filterUnits="objectBoundingBox" id="filter-20">
            <feMorphology radius="0.5" operator="dilate" in="SourceAlpha" result="shadowSpreadOuter1"></feMorphology>
            <feOffset dx="0" dy="0" in="shadowSpreadOuter1" result="shadowOffsetOuter1"></feOffset>
            <feGaussianBlur stdDeviation="3" in="shadowOffsetOuter1" result="shadowBlurOuter1"></feGaussianBlur>
            <feComposite in="shadowBlurOuter1" in2="SourceAlpha" operator="out" result="shadowBlurOuter1"></feComposite>
            <feColorMatrix values="0 0 0 0 1   0 0 0 0 1   0 0 0 0 1  0 0 0 0.5 0" type="matrix" in="shadowBlurOuter1"></feColorMatrix>
        </filter>
        <path d="M48.0238047,58.5204329 C47.7902308,58.3742734 47.4831962,58.4356804 47.3238047,58.6604329 L45.5638047,61.2704329 C45.4961319,61.3751814 45.4728628,61.5025305 45.4991206,61.6244418 C45.5253785,61.7463531 45.5990103,61.8528313 45.7038047,61.9204329 L45.7038047,61.9204329 C45.7857505,61.9679191 45.8791093,61.9921233 45.9738047,61.9904329 C46.1441657,61.9904703 46.3041596,61.908613 46.4038047,61.7704329 L48.1638047,59.1604329 C48.2323706,59.0612683 48.2582779,58.9387378 48.2357195,58.8203063 C48.2131611,58.7018748 48.1440238,58.597448 48.0438047,58.5304329 L48.0238047,58.5204329 Z" id="path-21"></path>
        <filter x="-344.8%" y="-267.7%" width="789.6%" height="635.3%" filterUnits="objectBoundingBox" id="filter-22">
            <feMorphology radius="0.5" operator="dilate" in="SourceAlpha" result="shadowSpreadOuter1"></feMorphology>
            <feOffset dx="0" dy="0" in="shadowSpreadOuter1" result="shadowOffsetOuter1"></feOffset>
            <feGaussianBlur stdDeviation="3" in="shadowOffsetOuter1" result="shadowBlurOuter1"></feGaussianBlur>
            <feComposite in="shadowBlurOuter1" in2="SourceAlpha" operator="out" result="shadowBlurOuter1"></feComposite>
            <feColorMatrix values="0 0 0 0 1   0 0 0 0 1   0 0 0 0 1  0 0 0 0.5 0" type="matrix" in="shadowBlurOuter1"></feColorMatrix>
        </filter>
        <path d="M53.9538047,58.5204329 C53.7233149,58.375394 53.4195381,58.4370299 53.2638047,58.6604329 L51.5038047,61.2704329 C51.4361319,61.3751814 51.4128628,61.5025305 51.4391206,61.6244418 C51.4653785,61.7463531 51.5390103,61.8528313 51.6438047,61.9204329 L51.6438047,61.9204329 C51.7292425,61.9682756 51.8259041,61.992441 51.9238047,61.9904329 C52.0914547,61.9905895 52.2484743,61.9083412 52.3438047,61.7704329 L54.1038047,59.1604329 C54.1723706,59.0612683 54.1982779,58.9387378 54.1757195,58.8203063 C54.1531611,58.7018748 54.0840238,58.597448 53.9838047,58.5304329 L53.9538047,58.5204329 Z" id="path-23"></path>
        <filter x="-344.8%" y="-267.7%" width="789.6%" height="635.4%" filterUnits="objectBoundingBox" id="filter-24">
            <feMorphology radius="0.5" operator="dilate" in="SourceAlpha" result="shadowSpreadOuter1"></feMorphology>
            <feOffset dx="0" dy="0" in="shadowSpreadOuter1" result="shadowOffsetOuter1"></feOffset>
            <feGaussianBlur stdDeviation="3" in="shadowOffsetOuter1" result="shadowBlurOuter1"></feGaussianBlur>
            <feComposite in="shadowBlurOuter1" in2="SourceAlpha" operator="out" result="shadowBlurOuter1"></feComposite>
            <feColorMatrix values="0 0 0 0 1   0 0 0 0 1   0 0 0 0 1  0 0 0 0.5 0" type="matrix" in="shadowBlurOuter1"></feColorMatrix>
        </filter>
        <path d="M53.1838047,49.7904329 L38.3938047,49.7904329 C35.7908471,49.8116237 33.3687076,48.4618114 32.0174103,46.2369895 C30.6661129,44.0121676 30.5849726,41.240495 31.8038047,38.9404329 L31.9138047,38.7504329 C32.0727093,38.4637767 32.2532322,38.1896493 32.4538047,37.9304329 C32.5015658,37.8594934 32.5550795,37.7926013 32.6138047,37.7304329 C32.8146922,37.4829293 33.0318393,37.2490786 33.2638047,37.0304329 C33.3338047,36.9704329 33.3938047,36.9004329 33.4638047,36.8504329 C33.7062442,36.6285859 33.967193,36.4278561 34.2438047,36.2504329 L34.4238047,36.1304329 C34.7412191,35.9308759 35.0758933,35.760192 35.4238047,35.6204329 L35.5238047,35.6204329 C35.8992493,35.4591749 36.2871969,35.3287443 36.6838047,35.2304329 L36.6838047,35.2304329 C37.6062515,35.0041944 38.5634855,34.9566722 39.5038047,35.0904329 C39.8889397,35.2589276 40.3383341,35.1685633 40.6284064,34.8642978 C40.9184788,34.5600322 40.9872886,34.1068367 40.8006018,33.7301836 C40.613915,33.3535305 40.2115957,33.1338485 39.7938047,33.1804329 C39.1581357,33.0886587 38.514469,33.0651917 37.8738047,33.1104329 C38.9994777,30.4688864 41.3895477,28.5797407 44.2196583,28.0945789 C47.0497688,27.6094171 49.9325875,28.594639 51.8738047,30.7104329 C51.3582344,30.7795653 50.8473057,30.8797474 50.3438047,31.0104329 C47.6054476,31.739258 45.2744038,33.53708 43.8738047,36.0004329 C43.8033211,36.2563727 43.8374975,36.5298353 43.9688021,36.7605563 C44.1001068,36.9912774 44.3177629,37.1603205 44.5738047,37.2304329 C44.9351433,37.3286091 45.3210532,37.2166952 45.5738047,36.9404329 C47.1852768,34.0691337 50.285617,32.3600712 53.5738047,32.5304329 L53.6538047,32.5304329 C58.2831179,32.8414318 61.8403141,36.7532321 61.7113328,41.3911869 C61.5823514,46.0291417 57.8132472,49.7371978 53.1738047,49.7904329 L53.1838047,49.7904329 Z M58.4538047,32.0004329 L58.3738047,31.9404329 L58.0938047,31.8004329 L57.9538047,31.7304329 C56.7998406,31.1487165 55.5493124,30.7827083 54.2638047,30.6504329 C52.3305611,27.7561687 49.084327,26.0130984 45.6038047,26.0002187 C40.9739906,25.9707803 36.8888005,29.0224173 35.6038047,33.4704329 L35.3038047,33.5804329 L34.9438047,33.7004329 C33.2343893,34.3602313 31.7565152,35.5077571 30.6938047,37.0004329 L30.6938047,37.0004329 C30.5489221,37.2028733 30.4153835,37.4131965 30.2938047,37.6304329 L30.2938047,37.7104329 C30.1838047,37.9104329 30.0738047,38.1104329 29.9738047,38.3204329 L29.9738047,38.4404329 C29.8738047,38.6404329 29.7938047,38.8504329 29.7038047,39.0604329 L29.7038047,39.1404329 L29.7038047,39.1404329 C29.3332422,40.1527681 29.1438046,41.2224074 29.1438046,42.3004329 C29.160349,47.4714368 33.3627861,51.6514968 38.5338047,51.6404548 L53.1838047,51.6404548 C57.9259436,51.60255 62.0600527,48.4051944 63.2890748,43.82493 C64.5180968,39.2446657 62.5399672,34.4072135 58.4538047,32.0004329 Z" id="path-25"></path>
        <filter x="-27.5%" y="-37.1%" width="155.1%" height="174.1%" filterUnits="objectBoundingBox" id="filter-26">
            <feMorphology radius="0.5" operator="dilate" in="SourceAlpha" result="shadowSpreadOuter1"></feMorphology>
            <feOffset dx="0" dy="0" in="shadowSpreadOuter1" result="shadowOffsetOuter1"></feOffset>
            <feGaussianBlur stdDeviation="3" in="shadowOffsetOuter1" result="shadowBlurOuter1"></feGaussianBlur>
            <feComposite in="shadowBlurOuter1" in2="SourceAlpha" operator="out" result="shadowBlurOuter1"></feComposite>
            <feColorMatrix values="0 0 0 0 1   0 0 0 0 1   0 0 0 0 1  0 0 0 0.5 0" type="matrix" in="shadowBlurOuter1"></feColorMatrix>
        </filter>
    </defs>
    <g id="草稿" stroke="none" stroke-width="1" fill="none" fill-rule="evenodd">
        <g id="画板" transform="translate(-1606.000000, -154.000000)">
            <g id="314_小到中雨-01" transform="translate(1606.000000, 154.000000)">
                <rect id="矩形" x="0" y="0" width="80" height="80"></rect>
                <g id="形状" transform="translate(8.000000, 9.000000)" fill-rule="nonzero">
                    <g id="路径">
                        <use fill="black" fill-opacity="1" filter="url(#filter-2)" xlink:href="#path-1"></use>
                        <use stroke="#FFFFFF" stroke-width="1" fill="#E0F2FF" xlink:href="#path-1"></use>
                    </g>
                    <g id="路径">
                        <use fill="black" fill-opacity="1" filter="url(#filter-4)" xlink:href="#path-3"></use>
                        <use stroke="#FFFFFF" stroke-width="1" fill="#E0F2FF" xlink:href="#path-3"></use>
                    </g>
                    <g id="路径">
                        <use fill="black" fill-opacity="1" filter="url(#filter-6)" xlink:href="#path-5"></use>
                        <use stroke="#FFFFFF" stroke-width="1" fill="#E0F2FF" xlink:href="#path-5"></use>
                    </g>
                    <g id="路径">
                        <use fill="black" fill-opacity="1" filter="url(#filter-8)" xlink:href="#path-7"></use>
                        <use stroke="#FFFFFF" stroke-width="1" fill="#E0F2FF" xlink:href="#path-7"></use>
                    </g>
                    <g id="路径">
                        <use fill="black" fill-opacity="1" filter="url(#filter-10)" xlink:href="#path-9"></use>
                        <use stroke="#FFFFFF" stroke-width="1" fill="#E0F2FF" xlink:href="#path-9"></use>
                    </g>
                    <g>
                        <use fill="black" fill-opacity="1" filter="url(#filter-12)" xlink:href="#path-11"></use>
                        <use stroke="#FFFFFF" stroke-width="1" fill="#E0F2FF" xlink:href="#path-11"></use>
                    </g>
                    <g id="路径">
                        <use fill="black" fill-opacity="1" filter="url(#filter-14)" xlink:href="#path-13"></use>
                        <use stroke="#FFFFFF" stroke-width="1" fill="#E0F2FF" xlink:href="#path-13"></use>
                    </g>
                    <g id="路径">
                        <use fill="black" fill-opacity="1" filter="url(#filter-16)" xlink:href="#path-15"></use>
                        <use stroke="#FFFFFF" stroke-width="1" fill="#E0F2FF" xlink:href="#path-15"></use>
                    </g>
                    <g id="路径">
                        <use fill="black" fill-opacity="1" filter="url(#filter-18)" xlink:href="#path-17"></use>
                        <use stroke="#FFFFFF" stroke-width="1" fill="#E0F2FF" xlink:href="#path-17"></use>
                    </g>
                    <g id="路径">
                        <use fill="black" fill-opacity="1" filter="url(#filter-20)" xlink:href="#path-19"></use>
                        <use stroke="#FFFFFF" stroke-width="1" fill="#E0F2FF" xlink:href="#path-19"></use>
                    </g>
                    <g id="路径">
                        <use fill="black" fill-opacity="1" filter="url(#filter-22)" xlink:href="#path-21"></use>
                        <use stroke="#FFFFFF" stroke-width="1" fill="#E0F2FF" xlink:href="#path-21"></use>
                    </g>
                    <g id="路径">
                        <use fill="black" fill-opacity="1" filter="url(#filter-24)" xlink:href="#path-23"></use>
                        <use stroke="#FFFFFF" stroke-width="1" fill="#E0F2FF" xlink:href="#path-23"></use>
                    </g>
                    <g>
                        <use fill="black" fill-opacity="1" filter="url(#filter-26)" xlink:href="#path-25"></use>
                        <use stroke="#FFFFFF" stroke-width="1" fill="#E0F2FF" xlink:href="#path-25"></use>
                    </g>
                </g>
            </g>
        </g>
    </g>
</svg>