<?xml version="1.0" encoding="UTF-8"?>
<svg width="80px" height="80px" viewBox="0 0 80 80" version="1.1" xmlns="http://www.w3.org/2000/svg" xmlns:xlink="http://www.w3.org/1999/xlink">
    <title>315_中到大雨-01</title>
    <defs>
        <path d="M11.4401575,26.8703763 C11.2118063,26.7317507 10.9151775,26.7928213 10.7601575,27.0103763 L9.06015752,29.5403763 C8.92508058,29.742007 8.97877135,30.0149351 9.18015752,30.1503763 L9.18015752,30.1503763 C9.29329106,30.2384273 9.43931042,30.2725171 9.57973684,30.2436623 C9.72016325,30.2148076 9.84090979,30.1259029 9.91015752,30.0003763 L9.91015752,30.0003763 L11.6101575,27.4803763 C11.7311229,27.270437 11.6595952,27.0022082 11.4501575,26.8803763 L11.4401575,26.8703763 Z" id="path-1"></path>
        <filter x="-354.0%" y="-274.8%" width="808.1%" height="649.5%" filterUnits="objectBoundingBox" id="filter-2">
            <feMorphology radius="0.5" operator="dilate" in="SourceAlpha" result="shadowSpreadOuter1"></feMorphology>
            <feOffset dx="0" dy="0" in="shadowSpreadOuter1" result="shadowOffsetOuter1"></feOffset>
            <feGaussianBlur stdDeviation="3" in="shadowOffsetOuter1" result="shadowBlurOuter1"></feGaussianBlur>
            <feComposite in="shadowBlurOuter1" in2="SourceAlpha" operator="out" result="shadowBlurOuter1"></feComposite>
            <feColorMatrix values="0 0 0 0 1   0 0 0 0 1   0 0 0 0 1  0 0 0 0.5 0" type="matrix" in="shadowBlurOuter1"></feColorMatrix>
        </filter>
        <path d="M17.1801575,26.8703763 C16.9558408,26.7274736 16.6584833,26.789608 16.5101575,27.0103763 L14.8101575,29.5403763 C14.7438228,29.6331918 14.7170907,29.7485638 14.7358459,29.8610949 C14.7546011,29.9736261 14.8173061,30.0740918 14.9101575,30.1403763 L14.9601575,30.1403763 C15.0377651,30.1905595 15.1277629,30.2182511 15.2201575,30.2203776 C15.3851469,30.2207461 15.5392452,30.1380592 15.6301575,30.0003763 L17.3301575,27.4803763 C17.4672379,27.2813392 17.4181266,27.0089947 17.2201575,26.8703763 L17.1801575,26.8703763 Z" id="path-3"></path>
        <filter x="-354.8%" y="-277.2%" width="809.5%" height="654.5%" filterUnits="objectBoundingBox" id="filter-4">
            <feMorphology radius="0.5" operator="dilate" in="SourceAlpha" result="shadowSpreadOuter1"></feMorphology>
            <feOffset dx="0" dy="0" in="shadowSpreadOuter1" result="shadowOffsetOuter1"></feOffset>
            <feGaussianBlur stdDeviation="3" in="shadowOffsetOuter1" result="shadowBlurOuter1"></feGaussianBlur>
            <feComposite in="shadowBlurOuter1" in2="SourceAlpha" operator="out" result="shadowBlurOuter1"></feComposite>
            <feColorMatrix values="0 0 0 0 1   0 0 0 0 1   0 0 0 0 1  0 0 0 0.5 0" type="matrix" in="shadowBlurOuter1"></feColorMatrix>
        </filter>
        <path d="M22.9101575,26.8703763 C22.6818063,26.7317507 22.3851775,26.7928213 22.2301575,27.0103763 L20.5301575,29.5403763 C20.3950806,29.742007 20.4487713,30.0149351 20.6501575,30.1503763 L20.6501575,30.1503763 C20.7306343,30.2023599 20.8243517,30.230128 20.9201575,30.2303776 C21.0851469,30.2307461 21.2392452,30.1480592 21.3301575,30.0103763 L23.0301575,27.4903763 C23.1520363,27.2928427 23.099514,27.0346078 22.9101575,26.9003763 L22.9101575,26.8703763 Z" id="path-5"></path>
        <filter x="-359.8%" y="-276.6%" width="819.7%" height="653.3%" filterUnits="objectBoundingBox" id="filter-6">
            <feMorphology radius="0.5" operator="dilate" in="SourceAlpha" result="shadowSpreadOuter1"></feMorphology>
            <feOffset dx="0" dy="0" in="shadowSpreadOuter1" result="shadowOffsetOuter1"></feOffset>
            <feGaussianBlur stdDeviation="3" in="shadowOffsetOuter1" result="shadowBlurOuter1"></feGaussianBlur>
            <feComposite in="shadowBlurOuter1" in2="SourceAlpha" operator="out" result="shadowBlurOuter1"></feComposite>
            <feColorMatrix values="0 0 0 0 1   0 0 0 0 1   0 0 0 0 1  0 0 0 0.5 0" type="matrix" in="shadowBlurOuter1"></feColorMatrix>
        </filter>
        <path d="M12.9701575,31.4703763 C12.7458408,31.3274736 12.4484833,31.389608 12.3001575,31.6103763 L10.5901575,34.1303763 C10.5230005,34.2291898 10.4989136,34.3510645 10.5234316,34.4679963 C10.5479495,34.584928 10.6189641,34.6868622 10.7201575,34.7503763 L10.7201575,34.7503763 C10.9462932,34.8827614 11.2359534,34.8222354 11.3901575,34.6103763 L13.0901575,32.0803763 C13.1564922,31.9875608 13.1832243,31.8721889 13.1644691,31.7596577 C13.1457139,31.6471266 13.0830089,31.5466608 12.9901575,31.4803763 L12.9701575,31.4703763 Z" id="path-7"></path>
        <filter x="-357.6%" y="-277.2%" width="815.3%" height="654.5%" filterUnits="objectBoundingBox" id="filter-8">
            <feMorphology radius="0.5" operator="dilate" in="SourceAlpha" result="shadowSpreadOuter1"></feMorphology>
            <feOffset dx="0" dy="0" in="shadowSpreadOuter1" result="shadowOffsetOuter1"></feOffset>
            <feGaussianBlur stdDeviation="3" in="shadowOffsetOuter1" result="shadowBlurOuter1"></feGaussianBlur>
            <feComposite in="shadowBlurOuter1" in2="SourceAlpha" operator="out" result="shadowBlurOuter1"></feComposite>
            <feColorMatrix values="0 0 0 0 1   0 0 0 0 1   0 0 0 0 1  0 0 0 0.5 0" type="matrix" in="shadowBlurOuter1"></feColorMatrix>
        </filter>
        <path d="M18.3301575,31.4703763 C18.1058408,31.3274736 17.8084833,31.389608 17.6601575,31.6103763 L15.9601575,34.1303763 C15.8230771,34.3294135 15.8721884,34.6017579 16.0701575,34.7403763 L16.0701575,34.7403763 C16.2962932,34.8727614 16.5859534,34.8122354 16.7401575,34.6003763 L18.4401575,32.0703763 C18.5064922,31.9775608 18.5332243,31.8621889 18.5144691,31.7496577 C18.4957139,31.6371266 18.4330089,31.5366608 18.3401575,31.4703763 L18.3301575,31.4703763 Z" id="path-9"></path>
        <filter x="-360.1%" y="-278.0%" width="820.3%" height="656.1%" filterUnits="objectBoundingBox" id="filter-10">
            <feMorphology radius="0.5" operator="dilate" in="SourceAlpha" result="shadowSpreadOuter1"></feMorphology>
            <feOffset dx="0" dy="0" in="shadowSpreadOuter1" result="shadowOffsetOuter1"></feOffset>
            <feGaussianBlur stdDeviation="3" in="shadowOffsetOuter1" result="shadowBlurOuter1"></feGaussianBlur>
            <feComposite in="shadowBlurOuter1" in2="SourceAlpha" operator="out" result="shadowBlurOuter1"></feComposite>
            <feColorMatrix values="0 0 0 0 1   0 0 0 0 1   0 0 0 0 1  0 0 0 0.5 0" type="matrix" in="shadowBlurOuter1"></feColorMatrix>
        </filter>
        <path d="M24.0801575,31.4703763 C23.8527534,31.3264239 23.5522032,31.3883019 23.4001575,31.6103763 L21.7001575,34.1303763 C21.5640843,34.3351259 21.6175151,34.6111846 21.8201575,34.7503763 L21.8201575,34.7503763 C21.8983707,34.7980376 21.9885873,34.8223267 22.0801575,34.8203763 C22.2463648,34.8245591 22.4037794,34.7458518 22.5001575,34.6103763 L24.2001575,32.0803763 C24.3352345,31.8787456 24.2815437,31.6058176 24.0801575,31.4703763 L24.0801575,31.4703763 Z" id="path-11"></path>
        <filter x="-358.5%" y="-277.2%" width="817.0%" height="654.3%" filterUnits="objectBoundingBox" id="filter-12">
            <feMorphology radius="0.5" operator="dilate" in="SourceAlpha" result="shadowSpreadOuter1"></feMorphology>
            <feOffset dx="0" dy="0" in="shadowSpreadOuter1" result="shadowOffsetOuter1"></feOffset>
            <feGaussianBlur stdDeviation="3" in="shadowOffsetOuter1" result="shadowBlurOuter1"></feGaussianBlur>
            <feComposite in="shadowBlurOuter1" in2="SourceAlpha" operator="out" result="shadowBlurOuter1"></feComposite>
            <feColorMatrix values="0 0 0 0 1   0 0 0 0 1   0 0 0 0 1  0 0 0 0.5 0" type="matrix" in="shadowBlurOuter1"></feColorMatrix>
        </filter>
        <path d="M23.3301575,23.0004917 L9.01015752,23.0004917 C5.05800485,23.0225628 1.83316817,19.8424534 1.80013241,15.8903763 C1.79705267,14.7096965 2.08195129,13.5460744 2.63015752,12.5003763 C2.66939405,12.44033 2.70287584,12.3767146 2.73015752,12.3103763 C2.89170429,12.0372081 3.06865669,11.7734488 3.26015752,11.5203763 L3.41015752,11.3203763 C3.60779794,11.079436 3.82162655,10.8522431 4.05015752,10.6403763 L4.23015752,10.4703763 C4.47045393,10.2605322 4.72433911,10.0667778 4.99015752,9.89037632 L5.17015752,9.77037632 C5.46482454,9.585447 5.77226623,9.42170088 6.09015752,9.28037632 L6.19015752,9.28037632 C6.55296049,9.12719689 6.92750286,9.00346414 7.31015752,8.91037632 L7.31015752,8.91037632 C8.2034045,8.6924005 9.13023975,8.64826549 10.0401575,8.78037632 C10.5461514,8.83293114 11.010962,8.49723455 11.1201575,8.00037632 C11.1914013,7.48689516 10.8334925,7.01266597 10.3201575,6.94037632 C9.69760506,6.85201066 9.0675575,6.82855144 8.44015752,6.87037632 C9.53913886,4.31466397 11.8575911,2.48935009 14.5998434,2.02086517 C17.3420956,1.55238025 20.1350375,2.50446628 22.0201575,4.55037632 C21.5181297,4.61710599 21.020566,4.71394724 20.5301575,4.84037632 C17.9034964,5.56948106 15.6779715,7.31965112 14.3501575,9.70037632 C14.2172144,9.91648068 14.1783364,10.1775194 14.2425351,10.4229852 C14.3067339,10.6684511 14.4684352,10.8770306 14.6901575,11.0003763 L14.6901575,11.0003763 C14.9076225,11.1224336 15.1646766,11.1530756 15.4047398,11.0855579 C15.6448031,11.0180401 15.8481987,10.8578965 15.9701575,10.6403763 C17.0480401,8.68299027 18.8679745,7.24145806 21.0201575,6.64037632 C21.8923444,6.40104371 22.7966394,6.29981665 23.7001575,6.34037632 L23.7701575,6.34037632 C28.1015881,6.80534428 31.349958,10.5185387 31.2349453,14.8733359 C31.1199327,19.2281331 27.6800929,22.7646881 23.3301575,23.0004917 L23.3301575,23.0004917 Z M28.4301575,5.76037632 L28.3501575,5.70037632 L28.0801575,5.56037632 L27.9101575,5.56037632 C26.7900441,5.01489132 25.5806455,4.67612423 24.3401575,4.56037632 C22.484445,1.75059275 19.3571675,0.0427621625 15.9901575,0.000186859386 C11.5114452,-0.027054855 7.56070009,2.92681149 6.32015752,7.23037632 L6.02015752,7.34037632 L5.68015752,7.45037632 C4.02113916,8.10703957 2.58944054,9.23293849 1.56015752,10.6903763 L1.56015752,10.6903763 C1.42015752,10.8903763 1.29015752,11.0903763 1.17015752,11.3003763 L1.17015752,11.3703763 C1.06015752,11.5703763 0.960157521,11.7603763 0.860157521,11.9703763 C0.839428151,12.005057 0.822656517,12.0419546 0.810157521,12.0803763 C0.720157521,12.2803763 0.640157521,12.4803763 0.560157521,12.6903763 L0.560157521,12.7603763 L0.560157521,12.7603763 C-1.16190923,17.4216185 1.21959598,22.5964682 5.88015752,24.3203763 C6.89702732,24.6998116 7.97484192,24.8896154 9.06015752,24.8803763 L23.3301575,24.8803763 C27.9839649,24.9165647 32.0733361,21.8010513 33.2739498,17.304635 C34.4745636,12.8082187 32.4825605,8.06888289 28.4301575,5.78037632 L28.4301575,5.76037632 Z" id="path-13"></path>
        <filter x="-28.3%" y="-38.2%" width="156.5%" height="176.4%" filterUnits="objectBoundingBox" id="filter-14">
            <feMorphology radius="0.5" operator="dilate" in="SourceAlpha" result="shadowSpreadOuter1"></feMorphology>
            <feOffset dx="0" dy="0" in="shadowSpreadOuter1" result="shadowOffsetOuter1"></feOffset>
            <feGaussianBlur stdDeviation="3" in="shadowOffsetOuter1" result="shadowBlurOuter1"></feGaussianBlur>
            <feComposite in="shadowBlurOuter1" in2="SourceAlpha" operator="out" result="shadowBlurOuter1"></feComposite>
            <feColorMatrix values="0 0 0 0 1   0 0 0 0 1   0 0 0 0 1  0 0 0 0.5 0" type="matrix" in="shadowBlurOuter1"></feColorMatrix>
        </filter>
        <path d="M38.4901575,53.8703763 C38.2658408,53.7274736 37.9684833,53.789608 37.8201575,54.0103763 L36.1201575,56.5403763 C36.0538228,56.6331918 36.0270907,56.7485638 36.0458459,56.8610949 C36.0646011,56.9736261 36.1273061,57.0740918 36.2201575,57.1403763 L36.2201575,57.1403763 C36.2977651,57.1905595 36.3877629,57.2182511 36.4801575,57.2203763 C36.6513322,57.2238687 36.8128383,57.1412377 36.9101575,57.0003763 L38.6101575,54.4803763 C38.7452345,54.2787456 38.6915437,54.0058176 38.4901575,53.8703763 L38.4901575,53.8703763 Z" id="path-15"></path>
        <filter x="-359.2%" y="-277.2%" width="818.4%" height="654.4%" filterUnits="objectBoundingBox" id="filter-16">
            <feMorphology radius="0.5" operator="dilate" in="SourceAlpha" result="shadowSpreadOuter1"></feMorphology>
            <feOffset dx="0" dy="0" in="shadowSpreadOuter1" result="shadowOffsetOuter1"></feOffset>
            <feGaussianBlur stdDeviation="3" in="shadowOffsetOuter1" result="shadowBlurOuter1"></feGaussianBlur>
            <feComposite in="shadowBlurOuter1" in2="SourceAlpha" operator="out" result="shadowBlurOuter1"></feComposite>
            <feColorMatrix values="0 0 0 0 1   0 0 0 0 1   0 0 0 0 1  0 0 0 0.5 0" type="matrix" in="shadowBlurOuter1"></feColorMatrix>
        </filter>
        <path d="M44.2401575,53.8703763 C44.0118063,53.7317507 43.7151775,53.7928213 43.5601575,54.0103763 L41.9101575,56.5403763 C41.7750806,56.742007 41.8287713,57.0149351 42.0301575,57.1503763 L42.0301575,57.1503763 C42.1077651,57.2005595 42.1977629,57.2282511 42.2901575,57.2303765 C42.4578076,57.2305329 42.6148271,57.1482846 42.7101575,57.0103763 L44.4101575,54.4903763 C44.4719119,54.3871244 44.489749,54.2634433 44.4596861,54.1469496 C44.4296232,54.0304558 44.354164,53.9308513 44.2501575,53.8703763 L44.2401575,53.8703763 Z" id="path-17"></path>
        <filter x="-360.1%" y="-276.6%" width="820.2%" height="653.3%" filterUnits="objectBoundingBox" id="filter-18">
            <feMorphology radius="0.5" operator="dilate" in="SourceAlpha" result="shadowSpreadOuter1"></feMorphology>
            <feOffset dx="0" dy="0" in="shadowSpreadOuter1" result="shadowOffsetOuter1"></feOffset>
            <feGaussianBlur stdDeviation="3" in="shadowOffsetOuter1" result="shadowBlurOuter1"></feGaussianBlur>
            <feComposite in="shadowBlurOuter1" in2="SourceAlpha" operator="out" result="shadowBlurOuter1"></feComposite>
            <feColorMatrix values="0 0 0 0 1   0 0 0 0 1   0 0 0 0 1  0 0 0 0.5 0" type="matrix" in="shadowBlurOuter1"></feColorMatrix>
        </filter>
        <path d="M49.9801575,53.8703763 C49.7558408,53.7274736 49.4584833,53.789608 49.3101575,54.0103763 L47.6101575,56.5403763 C47.5438228,56.6331918 47.5170907,56.7485638 47.5358459,56.8610949 C47.5546011,56.9736261 47.6173061,57.0740918 47.7101575,57.1403763 L47.7601575,57.1403763 C47.8377651,57.1905595 47.9277629,57.2182511 48.0201575,57.2203776 C48.1851469,57.2207461 48.3392452,57.1380592 48.4301575,57.0003763 L50.1301575,54.4803763 C50.2672379,54.2813392 50.2181266,54.0089947 50.0201575,53.8703763 L49.9801575,53.8703763 Z" id="path-19"></path>
        <filter x="-354.8%" y="-277.2%" width="809.5%" height="654.5%" filterUnits="objectBoundingBox" id="filter-20">
            <feMorphology radius="0.5" operator="dilate" in="SourceAlpha" result="shadowSpreadOuter1"></feMorphology>
            <feOffset dx="0" dy="0" in="shadowSpreadOuter1" result="shadowOffsetOuter1"></feOffset>
            <feGaussianBlur stdDeviation="3" in="shadowOffsetOuter1" result="shadowBlurOuter1"></feGaussianBlur>
            <feComposite in="shadowBlurOuter1" in2="SourceAlpha" operator="out" result="shadowBlurOuter1"></feComposite>
            <feColorMatrix values="0 0 0 0 1   0 0 0 0 1   0 0 0 0 1  0 0 0 0.5 0" type="matrix" in="shadowBlurOuter1"></feColorMatrix>
        </filter>
        <path d="M55.3401575,53.8703763 C55.112366,53.7349024 54.8184393,53.8007069 54.6701575,54.0203763 L52.9701575,56.5403763 C52.9038228,56.6331918 52.8770907,56.7485638 52.8958459,56.8610949 C52.9146011,56.9736261 52.9773061,57.0740918 53.0701575,57.1403763 L53.1201575,57.1403763 C53.1977651,57.1905595 53.2877629,57.2182511 53.3801575,57.2203776 C53.5451469,57.2207461 53.6992452,57.1380592 53.7901575,57.0003763 L55.5001575,54.4803763 C55.5673145,54.3815629 55.5914014,54.2596881 55.5668835,54.1427564 C55.5423655,54.0258246 55.471351,53.9238905 55.3701575,53.8603763 L55.3401575,53.8703763 Z" id="path-21"></path>
        <filter x="-353.7%" y="-277.0%" width="807.3%" height="654.8%" filterUnits="objectBoundingBox" id="filter-22">
            <feMorphology radius="0.5" operator="dilate" in="SourceAlpha" result="shadowSpreadOuter1"></feMorphology>
            <feOffset dx="0" dy="0" in="shadowSpreadOuter1" result="shadowOffsetOuter1"></feOffset>
            <feGaussianBlur stdDeviation="3" in="shadowOffsetOuter1" result="shadowBlurOuter1"></feGaussianBlur>
            <feComposite in="shadowBlurOuter1" in2="SourceAlpha" operator="out" result="shadowBlurOuter1"></feComposite>
            <feColorMatrix values="0 0 0 0 1   0 0 0 0 1   0 0 0 0 1  0 0 0 0.5 0" type="matrix" in="shadowBlurOuter1"></feColorMatrix>
        </filter>
        <path d="M40.0301575,58.4703763 C39.8027534,58.3264239 39.5022032,58.3883019 39.3501575,58.6103763 L37.6501575,61.1303763 C37.5130771,61.3294135 37.5621884,61.6017579 37.7601575,61.7403763 L37.7601575,61.7403763 C37.8383707,61.7880376 37.9285873,61.8123267 38.0201575,61.8103763 C38.1852205,61.8095986 38.3404976,61.7319601 38.4401575,61.6003763 L40.1401575,59.0703763 C40.2723791,58.8604519 40.2097548,58.5831158 40.0001575,58.4503763 L40.0301575,58.4703763 Z" id="path-23"></path>
        <filter x="-360.3%" y="-278.0%" width="820.5%" height="655.9%" filterUnits="objectBoundingBox" id="filter-24">
            <feMorphology radius="0.5" operator="dilate" in="SourceAlpha" result="shadowSpreadOuter1"></feMorphology>
            <feOffset dx="0" dy="0" in="shadowSpreadOuter1" result="shadowOffsetOuter1"></feOffset>
            <feGaussianBlur stdDeviation="3" in="shadowOffsetOuter1" result="shadowBlurOuter1"></feGaussianBlur>
            <feComposite in="shadowBlurOuter1" in2="SourceAlpha" operator="out" result="shadowBlurOuter1"></feComposite>
            <feColorMatrix values="0 0 0 0 1   0 0 0 0 1   0 0 0 0 1  0 0 0 0.5 0" type="matrix" in="shadowBlurOuter1"></feColorMatrix>
        </filter>
        <path d="M45.3901575,58.4703763 C45.1627534,58.3264239 44.8622032,58.3883019 44.7101575,58.6103763 L43.0101575,61.1303763 C42.8740843,61.3351259 42.9275151,61.6111846 43.1301575,61.7503763 L43.1301575,61.7503763 C43.2083707,61.7980376 43.2985873,61.8223267 43.3901575,61.8203763 C43.5552205,61.8195986 43.7104976,61.7419601 43.8101575,61.6103763 L45.5101575,59.0803763 C45.6452345,58.8787456 45.5915437,58.6058176 45.3901575,58.4703763 L45.3901575,58.4703763 Z" id="path-25"></path>
        <filter x="-358.5%" y="-277.2%" width="817.0%" height="654.3%" filterUnits="objectBoundingBox" id="filter-26">
            <feMorphology radius="0.5" operator="dilate" in="SourceAlpha" result="shadowSpreadOuter1"></feMorphology>
            <feOffset dx="0" dy="0" in="shadowSpreadOuter1" result="shadowOffsetOuter1"></feOffset>
            <feGaussianBlur stdDeviation="3" in="shadowOffsetOuter1" result="shadowBlurOuter1"></feGaussianBlur>
            <feComposite in="shadowBlurOuter1" in2="SourceAlpha" operator="out" result="shadowBlurOuter1"></feComposite>
            <feColorMatrix values="0 0 0 0 1   0 0 0 0 1   0 0 0 0 1  0 0 0 0.5 0" type="matrix" in="shadowBlurOuter1"></feColorMatrix>
        </filter>
        <path d="M51.1301575,58.4703763 C50.9058408,58.3274736 50.6084833,58.389608 50.4601575,58.6103763 L48.7501575,61.1303763 C48.6830005,61.2291898 48.6589136,61.3510645 48.6834316,61.4679963 C48.7079495,61.584928 48.7789641,61.6868622 48.8801575,61.7503763 L48.8801575,61.7503763 C49.1062932,61.8827614 49.3959534,61.8222354 49.5501575,61.6103763 L51.2501575,59.0803763 C51.3164922,58.9875608 51.3432243,58.8721889 51.3244691,58.7596577 C51.3057139,58.6471266 51.2430089,58.5466608 51.1501575,58.4803763 L51.1301575,58.4703763 Z" id="path-27"></path>
        <filter x="-357.6%" y="-277.2%" width="815.3%" height="654.5%" filterUnits="objectBoundingBox" id="filter-28">
            <feMorphology radius="0.5" operator="dilate" in="SourceAlpha" result="shadowSpreadOuter1"></feMorphology>
            <feOffset dx="0" dy="0" in="shadowSpreadOuter1" result="shadowOffsetOuter1"></feOffset>
            <feGaussianBlur stdDeviation="3" in="shadowOffsetOuter1" result="shadowBlurOuter1"></feGaussianBlur>
            <feComposite in="shadowBlurOuter1" in2="SourceAlpha" operator="out" result="shadowBlurOuter1"></feComposite>
            <feColorMatrix values="0 0 0 0 1   0 0 0 0 1   0 0 0 0 1  0 0 0 0.5 0" type="matrix" in="shadowBlurOuter1"></feColorMatrix>
        </filter>
        <path d="M56.4901575,58.4703763 C56.2658408,58.3274736 55.9684833,58.389608 55.8201575,58.6103763 L54.1201575,61.1303763 C53.9830771,61.3294135 54.0321884,61.6017579 54.2301575,61.7403763 L54.2301575,61.7403763 C54.4562932,61.8727614 54.7459534,61.8122354 54.9001575,61.6003763 L56.6001575,59.0703763 C56.6664922,58.9775608 56.6932243,58.8621889 56.6744691,58.7496577 C56.6557139,58.6371266 56.5930089,58.5366608 56.5001575,58.4703763 L56.4901575,58.4703763 Z" id="path-29"></path>
        <filter x="-360.1%" y="-278.0%" width="820.3%" height="656.1%" filterUnits="objectBoundingBox" id="filter-30">
            <feMorphology radius="0.5" operator="dilate" in="SourceAlpha" result="shadowSpreadOuter1"></feMorphology>
            <feOffset dx="0" dy="0" in="shadowSpreadOuter1" result="shadowOffsetOuter1"></feOffset>
            <feGaussianBlur stdDeviation="3" in="shadowOffsetOuter1" result="shadowBlurOuter1"></feGaussianBlur>
            <feComposite in="shadowBlurOuter1" in2="SourceAlpha" operator="out" result="shadowBlurOuter1"></feComposite>
            <feColorMatrix values="0 0 0 0 1   0 0 0 0 1   0 0 0 0 1  0 0 0 0.5 0" type="matrix" in="shadowBlurOuter1"></feColorMatrix>
        </filter>
        <path d="M53.7001575,50.0003836 L39.3901575,50.0003836 C35.4198531,50.0059441 32.1921803,46.8006236 32.1701556,42.8303763 C32.1692971,41.6678455 32.4579852,40.5234034 33.0101575,39.5003763 C33.0374392,39.434038 33.070921,39.3704226 33.1101575,39.3103763 C33.2624339,39.0337707 33.4363073,38.7696169 33.6301575,38.5203763 L33.7801575,38.3203763 C33.9777979,38.079436 34.1916265,37.8522431 34.4201575,37.6403763 C34.4801575,37.6403763 34.5401575,37.5203763 34.6101575,37.4703763 C34.8489572,37.2629777 35.0993617,37.0693316 35.3601575,36.8903763 L35.5401575,36.7703763 C35.8348245,36.585447 36.1422662,36.4217009 36.4601575,36.2803763 L36.5601575,36.2803763 C36.9263796,36.1271736 37.3042463,36.0034473 37.6901575,35.9103763 L37.6901575,35.9103763 C38.5834045,35.6924005 39.5102398,35.6482655 40.4201575,35.7803763 C40.9225322,35.8275662 41.3813601,35.4930936 41.4901575,35.0003763 C41.5614013,34.4868952 41.2034925,34.012666 40.6901575,33.9403763 C40.07095,33.8521276 39.4442298,33.8286674 38.8201575,33.8703763 C39.9163965,31.3147153 42.2331783,29.4888 44.97426,29.0201699 C47.7153418,28.5515399 50.5071407,29.5040648 52.3901575,31.5503763 C51.8922152,31.6036505 51.3979707,31.6871377 50.9101575,31.8003763 C48.2850345,32.5325174 46.0605596,34.2818617 44.7301575,36.6603763 C44.5207028,37.1078519 44.6934094,37.6411031 45.125429,37.8808212 C45.5574485,38.1205393 46.10131,37.9848961 46.3701575,37.5703763 C47.9287063,34.7964417 50.922271,33.1428167 54.1001575,33.3003763 L54.1801575,33.3003763 C58.6580472,33.6068151 62.0948888,37.3945474 61.9659352,41.8810574 C61.8369816,46.3675673 58.1882557,49.9516426 53.7001575,50.0003836 Z M58.8001575,32.7603763 L58.7301575,32.7003763 L58.4501575,32.5603763 L58.3201575,32.5003763 C57.1995012,31.9563213 55.9903666,31.6176281 54.7501575,31.5003763 C52.874071,28.7004348 49.7304954,27.0143692 46.3601575,27.0001869 C41.8814452,26.9729451 37.9307001,29.9268115 36.6901575,34.2303763 L36.4001575,34.3403763 L36.0601575,34.4503763 C34.3914366,35.0992996 32.9489034,36.2220423 31.9101575,37.6803763 L31.9101575,37.6803763 C31.7701575,37.8803763 31.6401575,38.0803763 31.5201575,38.2903763 L31.5201575,38.3603763 C31.4101575,38.5603763 31.3101575,38.7503763 31.2101575,38.9603763 L31.2101575,39.0703763 C31.1201575,39.2703763 31.0401575,39.4703763 30.9601575,39.6803763 L30.9601575,39.7503763 L30.9601575,39.7503763 C30.601913,40.7307656 30.4191214,41.7665846 30.4201531,42.8103763 C30.45319,47.802352 34.5181002,51.8270157 39.5101575,51.8103763 L53.7001575,51.8103763 C58.3539649,51.8465647 62.4433361,48.7310513 63.6439498,44.234635 C64.8445636,39.7382187 62.8525605,34.9988829 58.8001575,32.7103763 L58.8001575,32.7603763 Z" id="path-31"></path>
        <filter x="-28.3%" y="-38.3%" width="156.6%" height="176.6%" filterUnits="objectBoundingBox" id="filter-32">
            <feMorphology radius="0.5" operator="dilate" in="SourceAlpha" result="shadowSpreadOuter1"></feMorphology>
            <feOffset dx="0" dy="0" in="shadowSpreadOuter1" result="shadowOffsetOuter1"></feOffset>
            <feGaussianBlur stdDeviation="3" in="shadowOffsetOuter1" result="shadowBlurOuter1"></feGaussianBlur>
            <feComposite in="shadowBlurOuter1" in2="SourceAlpha" operator="out" result="shadowBlurOuter1"></feComposite>
            <feColorMatrix values="0 0 0 0 1   0 0 0 0 1   0 0 0 0 1  0 0 0 0.5 0" type="matrix" in="shadowBlurOuter1"></feColorMatrix>
        </filter>
        <path d="M60.1601575,17.2103763 C59.4225139,16.8481487 58.5307382,17.1468935 58.1601575,17.8803763 L56.6501575,20.8803763 C53.3994337,13.1620419 46.2716454,7.76948291 37.9601575,6.74037632 C37.1519672,6.63847372 36.4086243,7.19598088 36.2801575,8.00037632 C36.1800051,8.81996149 36.761051,9.566382 37.5801575,9.67037632 C44.860604,10.5807646 51.0937699,15.3252993 53.9101575,22.1003763 L50.9901575,21.1003763 C50.4711144,20.8709798 49.8672801,20.9519602 49.4270194,21.3100092 C48.9867588,21.6680581 48.7844148,22.2427151 48.9032141,22.7976162 C49.0220135,23.3525173 49.4418956,23.7939612 49.9901575,23.9403763 L55.9901575,25.9403763 L55.9901575,25.9403763 C56.1262409,25.9830447 56.2675916,26.0066032 56.4101575,26.0103763 L56.4101575,26.0103763 C56.5749754,26.0454837 56.7453396,26.0454837 56.9101575,26.0103763 L57.0401575,26.0103763 L57.3101575,25.8803763 L57.4401575,25.7703763 L57.6301575,25.5803763 L57.7401575,25.4303763 L57.8201575,25.3003763 L60.8201575,19.3003763 C61.1909503,18.5856958 60.9357795,17.7057965 60.2401575,17.3003763 L60.1601575,17.2103763 Z" id="path-33"></path>
        <filter x="-38.4%" y="-49.2%" width="176.9%" height="198.4%" filterUnits="objectBoundingBox" id="filter-34">
            <feMorphology radius="0.5" operator="dilate" in="SourceAlpha" result="shadowSpreadOuter1"></feMorphology>
            <feOffset dx="0" dy="0" in="shadowSpreadOuter1" result="shadowOffsetOuter1"></feOffset>
            <feGaussianBlur stdDeviation="3" in="shadowOffsetOuter1" result="shadowBlurOuter1"></feGaussianBlur>
            <feComposite in="shadowBlurOuter1" in2="SourceAlpha" operator="out" result="shadowBlurOuter1"></feComposite>
            <feColorMatrix values="0 0 0 0 1   0 0 0 0 1   0 0 0 0 1  0 0 0 0.5 0" type="matrix" in="shadowBlurOuter1"></feColorMatrix>
        </filter>
    </defs>
    <g id="草稿" stroke="none" stroke-width="1" fill="none" fill-rule="evenodd">
        <g id="画板" transform="translate(-1398.000000, -154.000000)">
            <g id="315_中到大雨-01" transform="translate(1398.000000, 154.000000)">
                <rect id="矩形" x="0" y="0" width="80" height="80"></rect>
                <g id="形状" transform="translate(8.000000, 9.000000)" fill-rule="nonzero">
                    <g id="路径">
                        <use fill="black" fill-opacity="1" filter="url(#filter-2)" xlink:href="#path-1"></use>
                        <use stroke="#FFFFFF" stroke-width="1" fill="#E0F2FF" xlink:href="#path-1"></use>
                    </g>
                    <g id="路径">
                        <use fill="black" fill-opacity="1" filter="url(#filter-4)" xlink:href="#path-3"></use>
                        <use stroke="#FFFFFF" stroke-width="1" fill="#E0F2FF" xlink:href="#path-3"></use>
                    </g>
                    <g id="路径">
                        <use fill="black" fill-opacity="1" filter="url(#filter-6)" xlink:href="#path-5"></use>
                        <use stroke="#FFFFFF" stroke-width="1" fill="#E0F2FF" xlink:href="#path-5"></use>
                    </g>
                    <g id="路径">
                        <use fill="black" fill-opacity="1" filter="url(#filter-8)" xlink:href="#path-7"></use>
                        <use stroke="#FFFFFF" stroke-width="1" fill="#E0F2FF" xlink:href="#path-7"></use>
                    </g>
                    <g id="路径">
                        <use fill="black" fill-opacity="1" filter="url(#filter-10)" xlink:href="#path-9"></use>
                        <use stroke="#FFFFFF" stroke-width="1" fill="#E0F2FF" xlink:href="#path-9"></use>
                    </g>
                    <g id="路径">
                        <use fill="black" fill-opacity="1" filter="url(#filter-12)" xlink:href="#path-11"></use>
                        <use stroke="#FFFFFF" stroke-width="1" fill="#E0F2FF" xlink:href="#path-11"></use>
                    </g>
                    <g>
                        <use fill="black" fill-opacity="1" filter="url(#filter-14)" xlink:href="#path-13"></use>
                        <use stroke="#FFFFFF" stroke-width="1" fill="#E0F2FF" xlink:href="#path-13"></use>
                    </g>
                    <g id="路径">
                        <use fill="black" fill-opacity="1" filter="url(#filter-16)" xlink:href="#path-15"></use>
                        <use stroke="#FFFFFF" stroke-width="1" fill="#E0F2FF" xlink:href="#path-15"></use>
                    </g>
                    <g id="路径">
                        <use fill="black" fill-opacity="1" filter="url(#filter-18)" xlink:href="#path-17"></use>
                        <use stroke="#FFFFFF" stroke-width="1" fill="#E0F2FF" xlink:href="#path-17"></use>
                    </g>
                    <g id="路径">
                        <use fill="black" fill-opacity="1" filter="url(#filter-20)" xlink:href="#path-19"></use>
                        <use stroke="#FFFFFF" stroke-width="1" fill="#E0F2FF" xlink:href="#path-19"></use>
                    </g>
                    <g id="路径">
                        <use fill="black" fill-opacity="1" filter="url(#filter-22)" xlink:href="#path-21"></use>
                        <use stroke="#FFFFFF" stroke-width="1" fill="#E0F2FF" xlink:href="#path-21"></use>
                    </g>
                    <g id="路径">
                        <use fill="black" fill-opacity="1" filter="url(#filter-24)" xlink:href="#path-23"></use>
                        <use stroke="#FFFFFF" stroke-width="1" fill="#E0F2FF" xlink:href="#path-23"></use>
                    </g>
                    <g id="路径">
                        <use fill="black" fill-opacity="1" filter="url(#filter-26)" xlink:href="#path-25"></use>
                        <use stroke="#FFFFFF" stroke-width="1" fill="#E0F2FF" xlink:href="#path-25"></use>
                    </g>
                    <g id="路径">
                        <use fill="black" fill-opacity="1" filter="url(#filter-28)" xlink:href="#path-27"></use>
                        <use stroke="#FFFFFF" stroke-width="1" fill="#E0F2FF" xlink:href="#path-27"></use>
                    </g>
                    <g id="路径">
                        <use fill="black" fill-opacity="1" filter="url(#filter-30)" xlink:href="#path-29"></use>
                        <use stroke="#FFFFFF" stroke-width="1" fill="#E0F2FF" xlink:href="#path-29"></use>
                    </g>
                    <g>
                        <use fill="black" fill-opacity="1" filter="url(#filter-32)" xlink:href="#path-31"></use>
                        <use stroke="#FFFFFF" stroke-width="1" fill="#E0F2FF" xlink:href="#path-31"></use>
                    </g>
                    <g id="路径">
                        <use fill="black" fill-opacity="1" filter="url(#filter-34)" xlink:href="#path-33"></use>
                        <use stroke="#FFFFFF" stroke-width="1" fill="#E0F2FF" xlink:href="#path-33"></use>
                    </g>
                </g>
            </g>
        </g>
    </g>
</svg>