<?xml version="1.0" encoding="UTF-8"?>
<svg width="80px" height="80px" viewBox="0 0 80 80" version="1.1" xmlns="http://www.w3.org/2000/svg" xmlns:xlink="http://www.w3.org/1999/xlink">
    <title>317_暴雨到大暴雨-01</title>
    <defs>
        <path d="M9.79683301,26.4404329 C9.57251631,26.2975302 9.27515875,26.3596646 9.12683301,26.5804329 L7.41683301,29.1204329 L7.41683301,29.1204329 L6.32683301,30.7404329 L6.32683301,30.7404329 L5.08683301,32.5704329 L5.08683301,32.5704329 L3.98683301,34.1904329 C3.919676,34.2892464 3.89558912,34.4111211 3.92010707,34.5280529 C3.94462501,34.6449846 4.01563957,34.7469188 4.11683301,34.8104329 L4.11683301,34.8104329 C4.19504618,34.8580943 4.28526283,34.8823834 4.37683301,34.8804329 C4.54189604,34.8796552 4.69717304,34.8020167 4.79683301,34.6704329 L6.50683301,32.1304329 L6.50683301,32.1304329 L7.12683301,31.2004329 L7.12683301,31.2004329 L8.88683301,28.7404329 L8.88683301,28.7404329 L9.98683301,27.1204329 C10.0573931,27.0237244 10.0865105,26.9028866 10.0677433,26.7846535 C10.0489762,26.6664205 9.98387149,26.5605385 9.88683301,26.4904329 L9.79683301,26.4404329 Z" id="path-1"></path>
        <filter x="-144.5%" y="-126.2%" width="386.9%" height="353.7%" filterUnits="objectBoundingBox" id="filter-2">
            <feMorphology radius="0.5" operator="dilate" in="SourceAlpha" result="shadowSpreadOuter1"></feMorphology>
            <feOffset dx="0" dy="0" in="shadowSpreadOuter1" result="shadowOffsetOuter1"></feOffset>
            <feGaussianBlur stdDeviation="3" in="shadowOffsetOuter1" result="shadowBlurOuter1"></feGaussianBlur>
            <feComposite in="shadowBlurOuter1" in2="SourceAlpha" operator="out" result="shadowBlurOuter1"></feComposite>
            <feColorMatrix values="0 0 0 0 1   0 0 0 0 1   0 0 0 0 1  0 0 0 0.5 0" type="matrix" in="shadowBlurOuter1"></feColorMatrix>
        </filter>
        <path d="M14.806833,26.4404329 C14.5784818,26.3018073 14.281853,26.3628779 14.126833,26.5804329 L12.416833,29.1204329 L12.416833,29.1204329 L11.326833,30.7404329 L11.326833,30.7404329 L10.086833,32.5704329 L10.086833,32.5704329 L8.99683301,34.1904329 C8.85975264,34.3894701 8.90886394,34.6618145 9.10683301,34.8004329 L9.10683301,34.8004329 C9.18504618,34.8480943 9.27526283,34.8723834 9.36683301,34.8704329 C9.53189604,34.8696552 9.68717304,34.7920167 9.78683301,34.6604329 L11.496833,32.1204329 L11.496833,32.1204329 L12.126833,31.1904329 L12.126833,31.1904329 L13.886833,28.7404329 L13.886833,28.7404329 L14.986833,27.1204329 C15.0584415,27.024955 15.0891886,26.9049412 15.0723103,26.7867933 C15.055432,26.6686454 14.9923109,26.5620414 14.896833,26.4904329 L14.806833,26.4404329 Z" id="path-3"></path>
        <filter x="-147.9%" y="-126.4%" width="390.4%" height="335.8%" filterUnits="objectBoundingBox" id="filter-4">
            <feMorphology radius="0.5" operator="dilate" in="SourceAlpha" result="shadowSpreadOuter1"></feMorphology>
            <feOffset dx="0" dy="0" in="shadowSpreadOuter1" result="shadowOffsetOuter1"></feOffset>
            <feGaussianBlur stdDeviation="3" in="shadowOffsetOuter1" result="shadowBlurOuter1"></feGaussianBlur>
            <feComposite in="shadowBlurOuter1" in2="SourceAlpha" operator="out" result="shadowBlurOuter1"></feComposite>
            <feColorMatrix values="0 0 0 0 1   0 0 0 0 1   0 0 0 0 1  0 0 0 0.5 0" type="matrix" in="shadowBlurOuter1"></feColorMatrix>
        </filter>
        <path d="M19.806833,26.4404329 C19.5784818,26.3018073 19.281853,26.3628779 19.126833,26.5804329 L17.416833,29.1204329 L17.416833,29.1204329 L16.326833,30.7404329 L16.326833,30.7404329 L15.086833,32.5704329 L15.086833,32.5704329 L13.996833,34.1904329 C13.8597526,34.3894701 13.9088639,34.6618145 14.106833,34.8004329 L14.106833,34.8004329 C14.1850462,34.8480943 14.2752628,34.8723834 14.366833,34.8704329 C14.5330402,34.8746157 14.6904549,34.7959084 14.786833,34.6604329 L16.496833,32.1204329 L16.496833,32.1204329 L17.126833,31.1904329 L17.126833,31.1904329 L18.886833,28.7404329 L18.886833,28.7404329 L19.986833,27.1204329 C20.0584415,27.024955 20.0891886,26.9049412 20.0723103,26.7867933 C20.055432,26.6686454 19.9923109,26.5620414 19.896833,26.4904329 L19.806833,26.4404329 Z" id="path-5"></path>
        <filter x="-147.9%" y="-126.4%" width="390.4%" height="335.8%" filterUnits="objectBoundingBox" id="filter-6">
            <feMorphology radius="0.5" operator="dilate" in="SourceAlpha" result="shadowSpreadOuter1"></feMorphology>
            <feOffset dx="0" dy="0" in="shadowSpreadOuter1" result="shadowOffsetOuter1"></feOffset>
            <feGaussianBlur stdDeviation="3" in="shadowOffsetOuter1" result="shadowBlurOuter1"></feGaussianBlur>
            <feComposite in="shadowBlurOuter1" in2="SourceAlpha" operator="out" result="shadowBlurOuter1"></feComposite>
            <feColorMatrix values="0 0 0 0 1   0 0 0 0 1   0 0 0 0 1  0 0 0 0.5 0" type="matrix" in="shadowBlurOuter1"></feColorMatrix>
        </filter>
        <path d="M24.806833,26.4404329 C24.5784818,26.3018073 24.281853,26.3628779 24.126833,26.5804329 L22.416833,29.1204329 L22.416833,29.1204329 L21.326833,30.7404329 L21.326833,30.7404329 L20.086833,32.5704329 L20.086833,32.5704329 L18.996833,34.1904329 C18.8597526,34.3894701 18.9088639,34.6618145 19.106833,34.8004329 L19.106833,34.8004329 C19.1850462,34.8480943 19.2752628,34.8723834 19.366833,34.8704329 C19.5330402,34.8746157 19.6904549,34.7959084 19.786833,34.6604329 L21.496833,32.1204329 L21.496833,32.1204329 L22.126833,31.1904329 L22.126833,31.1904329 L23.886833,28.7404329 L23.886833,28.7404329 L24.976833,27.1204329 C25.1259499,26.9216104 25.0856555,26.6395498 24.886833,26.4904329 L24.806833,26.4404329 Z" id="path-7"></path>
        <filter x="-148.2%" y="-126.4%" width="391.0%" height="335.8%" filterUnits="objectBoundingBox" id="filter-8">
            <feMorphology radius="0.5" operator="dilate" in="SourceAlpha" result="shadowSpreadOuter1"></feMorphology>
            <feOffset dx="0" dy="0" in="shadowSpreadOuter1" result="shadowOffsetOuter1"></feOffset>
            <feGaussianBlur stdDeviation="3" in="shadowOffsetOuter1" result="shadowBlurOuter1"></feGaussianBlur>
            <feComposite in="shadowBlurOuter1" in2="SourceAlpha" operator="out" result="shadowBlurOuter1"></feComposite>
            <feColorMatrix values="0 0 0 0 1   0 0 0 0 1   0 0 0 0 1  0 0 0 0.5 0" type="matrix" in="shadowBlurOuter1"></feColorMatrix>
        </filter>
        <path d="M23.416833,23.1204329 L9.03683301,23.1204329 C6.50408569,23.1451938 4.14566592,21.8336535 2.83046665,19.6690119 C1.51526739,17.5043704 1.43788658,14.8069097 2.62683301,12.5704329 C2.65631556,12.508373 2.68971635,12.4482516 2.72683301,12.3904329 C2.87884997,12.1082313 3.05624914,11.840459 3.25683301,11.5904329 L3.40683301,11.3904329 C3.60381056,11.15204 3.81414821,10.9250089 4.03683301,10.7104329 L4.22683301,10.5404329 C4.46529205,10.340365 4.71944342,10.1597838 4.98683301,10.0004329 L5.16683301,9.88043293 C5.46593386,9.69424353 5.77655923,9.52724065 6.09683301,9.38043293 L6.19683301,9.38043293 C6.56275901,9.22382334 6.940632,9.09675101 7.32683301,9.00043293 L7.32683301,9.00043293 C8.22685325,8.78234502 9.16025313,8.73822066 10.076833,8.87043293 C10.5854454,8.91608328 11.0467462,8.57118547 11.146833,8.07043293 C11.2180768,7.55695178 10.860168,7.08272258 10.346833,7.01043293 C9.7191435,6.93718104 9.08526251,6.93382717 8.45683301,7.00043293 C9.55210633,4.42546698 11.8806903,2.58342866 14.6386272,2.11029286 C17.396564,1.63715707 20.2059521,2.59775444 22.096833,4.66043293 C21.5946145,4.73054946 21.0970542,4.83072938 20.606833,4.96043293 C17.9914777,5.66229068 15.7572401,7.36490903 14.386833,9.70043293 C14.2224908,9.99517704 14.2278765,10.3552073 14.4009613,10.6449039 C14.5740461,10.9346005 14.8885343,11.1099515 15.2259613,11.1049039 C15.5633883,11.0998563 15.8724908,10.915177 16.036833,10.6204329 L16.036833,10.6204329 C17.1268914,8.66121652 18.9565871,7.22051119 21.116833,6.62043293 C21.9923268,6.38054708 22.900001,6.27931948 23.806833,6.32043293 L23.886833,6.32043293 C26.8842913,6.40260397 29.6102193,8.07765814 31.0377863,10.7146187 C32.4653532,13.3515793 32.3776777,16.5498293 30.8077863,19.1046188 C29.2378948,21.6594083 26.4242913,23.1826041 23.426833,23.1004329 L23.416833,23.1204329 Z M28.536833,5.81043293 L28.456833,5.74043293 L28.186833,5.61043293 L28.056833,5.54043293 C26.9297491,4.99469119 25.7137503,4.65597284 24.466833,4.54043293 C22.58583,1.7203011 19.4266669,0.0189250364 16.036833,0.000432927494 C11.5349245,-0.0412479742 7.56021587,2.93057331 6.32683301,7.26043293 L6.02683301,7.37043293 C5.90675672,7.38787027 5.79125307,7.42863626 5.68683301,7.49043293 C4.01593187,8.14074719 2.57526193,9.2717079 1.54683301,10.7404329 L1.54683301,10.7404329 C1.40683301,10.9404329 1.27683301,11.1504329 1.14683301,11.3604329 L1.14683301,11.4304329 C1.03683301,11.6304329 0.926833013,11.8304329 0.826833013,12.0304329 C0.83660677,12.0664483 0.83660677,12.1044176 0.826833013,12.1404329 C0.736833013,12.3404329 0.656833013,12.5504329 0.576833013,12.7504329 L0.576833013,12.8304329 L0.576833013,12.8304329 C-0.465839424,15.600922 -0.0794717249,18.7069853 1.61017322,21.1375974 C3.29981816,23.5682096 6.07665917,25.0125305 9.03683301,25.0006634 L23.416833,25.0006634 C28.0899822,25.0315895 32.1937554,21.9008699 33.3984639,17.3855658 C34.6031725,12.8702617 32.6043978,8.111348 28.536833,5.81043293 Z" id="path-9"></path>
        <filter x="-28.2%" y="-38.0%" width="156.3%" height="176.0%" filterUnits="objectBoundingBox" id="filter-10">
            <feMorphology radius="0.5" operator="dilate" in="SourceAlpha" result="shadowSpreadOuter1"></feMorphology>
            <feOffset dx="0" dy="0" in="shadowSpreadOuter1" result="shadowOffsetOuter1"></feOffset>
            <feGaussianBlur stdDeviation="3" in="shadowOffsetOuter1" result="shadowBlurOuter1"></feGaussianBlur>
            <feComposite in="shadowBlurOuter1" in2="SourceAlpha" operator="out" result="shadowBlurOuter1"></feComposite>
            <feColorMatrix values="0 0 0 0 1   0 0 0 0 1   0 0 0 0 1  0 0 0 0.5 0" type="matrix" in="shadowBlurOuter1"></feColorMatrix>
        </filter>
        <path d="M39.256833,53.4404329 C39.0284818,53.3018073 38.731853,53.3628779 38.576833,53.5804329 L36.886833,56.1204329 L36.886833,56.1204329 L35.796833,57.7404329 L35.796833,57.7404329 L34.556833,59.5704329 L34.556833,59.5704329 L33.466833,61.1904329 C33.3297526,61.3894701 33.3788639,61.6618145 33.576833,61.8004329 L33.576833,61.8004329 C33.8067727,61.929381 34.096531,61.8697249 34.256833,61.6604329 L35.966833,59.1204329 L35.966833,59.1204329 L36.586833,58.1904329 L36.586833,58.1904329 L38.296833,55.6504329 L38.296833,55.6504329 L39.386833,54.0304329 C39.5123545,53.8226247 39.4504071,53.552711 39.246833,53.4204329 L39.256833,53.4404329 Z" id="path-11"></path>
        <filter x="-147.4%" y="-127.9%" width="394.4%" height="355.9%" filterUnits="objectBoundingBox" id="filter-12">
            <feMorphology radius="0.5" operator="dilate" in="SourceAlpha" result="shadowSpreadOuter1"></feMorphology>
            <feOffset dx="0" dy="0" in="shadowSpreadOuter1" result="shadowOffsetOuter1"></feOffset>
            <feGaussianBlur stdDeviation="3" in="shadowOffsetOuter1" result="shadowBlurOuter1"></feGaussianBlur>
            <feComposite in="shadowBlurOuter1" in2="SourceAlpha" operator="out" result="shadowBlurOuter1"></feComposite>
            <feColorMatrix values="0 0 0 0 1   0 0 0 0 1   0 0 0 0 1  0 0 0 0.5 0" type="matrix" in="shadowBlurOuter1"></feColorMatrix>
        </filter>
        <path d="M44.256833,53.4404329 C44.0284818,53.3018073 43.731853,53.3628779 43.576833,53.5804329 L41.886833,56.1204329 L41.886833,56.1204329 L40.796833,57.7404329 L40.796833,57.7404329 L39.556833,59.5704329 L39.556833,59.5704329 L38.466833,61.1904329 C38.3297526,61.3894701 38.3788639,61.6618145 38.576833,61.8004329 L38.576833,61.8004329 C38.6587789,61.8479191 38.7521377,61.8721233 38.846833,61.8704329 C39.0103548,61.8748692 39.1648783,61.795723 39.256833,61.6604329 L40.966833,59.1204329 L40.966833,59.1204329 L41.586833,58.1904329 L41.586833,58.1904329 L43.296833,55.6504329 L43.296833,55.6504329 L44.386833,54.0304329 C44.5123545,53.8226247 44.4504071,53.552711 44.246833,53.4204329 L44.256833,53.4404329 Z" id="path-13"></path>
        <filter x="-150.2%" y="-127.8%" width="397.2%" height="337.2%" filterUnits="objectBoundingBox" id="filter-14">
            <feMorphology radius="0.5" operator="dilate" in="SourceAlpha" result="shadowSpreadOuter1"></feMorphology>
            <feOffset dx="0" dy="0" in="shadowSpreadOuter1" result="shadowOffsetOuter1"></feOffset>
            <feGaussianBlur stdDeviation="3" in="shadowOffsetOuter1" result="shadowBlurOuter1"></feGaussianBlur>
            <feComposite in="shadowBlurOuter1" in2="SourceAlpha" operator="out" result="shadowBlurOuter1"></feComposite>
            <feColorMatrix values="0 0 0 0 1   0 0 0 0 1   0 0 0 0 1  0 0 0 0.5 0" type="matrix" in="shadowBlurOuter1"></feColorMatrix>
        </filter>
        <path d="M49.256833,53.4404329 C49.0284818,53.3018073 48.731853,53.3628779 48.576833,53.5804329 L46.886833,56.1204329 L46.886833,56.1204329 L45.786833,57.7404329 L45.786833,57.7404329 L44.546833,59.5704329 L44.546833,59.5704329 L43.456833,61.1904329 C43.3197526,61.3894701 43.3688639,61.6618145 43.566833,61.8004329 L43.566833,61.8004329 C43.6487789,61.8479191 43.7421377,61.8721233 43.836833,61.8704329 C44.0003548,61.8748692 44.1548783,61.795723 44.246833,61.6604329 L45.956833,59.1204329 L45.956833,59.1204329 L46.576833,58.1904329 L46.576833,58.1904329 L48.286833,55.6504329 L48.286833,55.6504329 L49.376833,54.0304329 C49.4398484,53.9311632 49.4605097,53.8108014 49.4342076,53.6961994 C49.4079055,53.5815974 49.3368284,53.4822903 49.236833,53.4204329 L49.256833,53.4404329 Z" id="path-15"></path>
        <filter x="-150.2%" y="-128.1%" width="397.4%" height="337.4%" filterUnits="objectBoundingBox" id="filter-16">
            <feMorphology radius="0.5" operator="dilate" in="SourceAlpha" result="shadowSpreadOuter1"></feMorphology>
            <feOffset dx="0" dy="0" in="shadowSpreadOuter1" result="shadowOffsetOuter1"></feOffset>
            <feGaussianBlur stdDeviation="3" in="shadowOffsetOuter1" result="shadowBlurOuter1"></feGaussianBlur>
            <feComposite in="shadowBlurOuter1" in2="SourceAlpha" operator="out" result="shadowBlurOuter1"></feComposite>
            <feColorMatrix values="0 0 0 0 1   0 0 0 0 1   0 0 0 0 1  0 0 0 0.5 0" type="matrix" in="shadowBlurOuter1"></feColorMatrix>
        </filter>
        <path d="M54.256833,53.4404329 C54.0284818,53.3018073 53.731853,53.3628779 53.576833,53.5804329 L51.886833,56.1204329 L51.886833,56.1204329 L50.786833,57.7404329 L50.786833,57.7404329 L49.546833,59.5704329 L49.546833,59.5704329 L48.456833,61.1904329 C48.3207598,61.3951825 48.3741906,61.6712412 48.576833,61.8104329 L48.576833,61.8104329 C48.6587789,61.8579191 48.7521377,61.8821233 48.846833,61.8804329 C49.0103548,61.8848692 49.1648783,61.805723 49.256833,61.6704329 L50.966833,59.1304329 L50.966833,59.1304329 L51.586833,58.2004329 L51.586833,58.2004329 L53.296833,55.6604329 L53.296833,55.6604329 L54.386833,54.0404329 C54.4498484,53.9411632 54.4705097,53.8208014 54.4442076,53.7061994 C54.4179055,53.5915974 54.3468284,53.4922903 54.246833,53.4304329 L54.256833,53.4404329 Z" id="path-17"></path>
        <filter x="-150.0%" y="-127.6%" width="396.6%" height="336.9%" filterUnits="objectBoundingBox" id="filter-18">
            <feMorphology radius="0.5" operator="dilate" in="SourceAlpha" result="shadowSpreadOuter1"></feMorphology>
            <feOffset dx="0" dy="0" in="shadowSpreadOuter1" result="shadowOffsetOuter1"></feOffset>
            <feGaussianBlur stdDeviation="3" in="shadowOffsetOuter1" result="shadowBlurOuter1"></feGaussianBlur>
            <feComposite in="shadowBlurOuter1" in2="SourceAlpha" operator="out" result="shadowBlurOuter1"></feComposite>
            <feColorMatrix values="0 0 0 0 1   0 0 0 0 1   0 0 0 0 1  0 0 0 0.5 0" type="matrix" in="shadowBlurOuter1"></feColorMatrix>
        </filter>
        <path d="M59.256833,53.4404329 C59.0284818,53.3018073 58.731853,53.3628779 58.576833,53.5804329 L56.886833,56.1204329 L56.886833,56.1204329 L55.786833,57.7404329 L55.786833,57.7404329 L54.546833,59.5704329 L54.546833,59.5704329 L53.456833,61.1904329 C53.3901191,61.2920541 53.3673571,61.4163434 53.3937278,61.5350119 C53.4200986,61.6536803 53.4933585,61.7566314 53.596833,61.8204329 L53.596833,61.8204329 C53.6787789,61.8679191 53.7721377,61.8921233 53.866833,61.8904329 C54.0303548,61.8948692 54.1848783,61.815723 54.276833,61.6804329 L55.986833,59.1404329 L55.986833,59.1404329 L56.606833,58.2104329 L56.606833,58.2104329 L58.316833,55.6704329 L58.316833,55.6704329 L59.406833,54.0504329 C59.4698484,53.9511632 59.4905097,53.8308014 59.4642076,53.7161994 C59.4379055,53.6015974 59.3668284,53.5022903 59.266833,53.4404329 L59.256833,53.4404329 Z" id="path-19"></path>
        <filter x="-145.6%" y="-127.0%" width="391.0%" height="353.9%" filterUnits="objectBoundingBox" id="filter-20">
            <feMorphology radius="0.5" operator="dilate" in="SourceAlpha" result="shadowSpreadOuter1"></feMorphology>
            <feOffset dx="0" dy="0" in="shadowSpreadOuter1" result="shadowOffsetOuter1"></feOffset>
            <feGaussianBlur stdDeviation="3" in="shadowOffsetOuter1" result="shadowBlurOuter1"></feGaussianBlur>
            <feComposite in="shadowBlurOuter1" in2="SourceAlpha" operator="out" result="shadowBlurOuter1"></feComposite>
            <feColorMatrix values="0 0 0 0 1   0 0 0 0 1   0 0 0 0 1  0 0 0 0.5 0" type="matrix" in="shadowBlurOuter1"></feColorMatrix>
        </filter>
        <path d="M54.536833,50.1204329 L40.156833,50.1204329 C37.6240857,50.1451938 35.2656659,48.8336535 33.9504667,46.6690119 C32.6352674,44.5043704 32.5578866,41.8069097 33.746833,39.5704329 C33.7763156,39.508373 33.8097164,39.4482516 33.846833,39.3904329 C33.99885,39.1082313 34.1762491,38.840459 34.376833,38.5904329 L34.526833,38.3904329 C34.7244734,38.1494926 34.938302,37.9222998 35.166833,37.7104329 L35.346833,37.5404329 C35.5871294,37.3305889 35.8410146,37.1368344 36.106833,36.9604329 L36.286833,36.8404329 C36.5859339,36.6542435 36.8965592,36.4872406 37.216833,36.3404329 L37.316833,36.3404329 C37.683931,36.1974396 38.0617795,36.0837507 38.446833,36.0004329 L38.446833,36.0004329 C39.3468533,35.782345 40.2802531,35.7382207 41.196833,35.8704329 C41.7054454,35.9160833 42.1667462,35.5711855 42.266833,35.0704329 C42.3380768,34.5569518 41.980168,34.0827226 41.466833,34.0104329 C40.8409965,33.9205313 40.2071117,33.900408 39.576833,33.9504329 C40.6721063,31.375467 43.0006903,29.5334287 45.7586272,29.0602929 C48.516564,28.5871571 51.3259521,29.5477544 53.216833,31.6104329 C52.7146145,31.6805495 52.2170542,31.7807294 51.726833,31.9104329 C49.086609,32.6385258 46.847072,34.3919896 45.506833,36.7804329 C45.252782,37.2360678 45.4161981,37.8113819 45.871833,38.0654329 C46.3274679,38.3194839 46.902782,38.1560678 47.156833,37.7004329 C48.2468914,35.7412165 50.0765871,34.3005112 52.236833,33.7004329 C53.1123268,33.4605471 54.020001,33.3593195 54.926833,33.4004329 L54.996833,33.4004329 C59.630502,33.5274585 63.2838583,37.3867639 63.1568328,42.0204329 C63.0298073,46.6541019 59.170502,50.3074583 54.536833,50.1804329 L54.536833,50.1204329 Z M59.656833,32.8104329 L59.586833,32.7404329 L59.306833,32.6104329 L59.176833,32.5404329 C58.0497491,31.9946912 56.8337503,31.6559728 55.586833,31.5404329 C53.70583,28.7203011 50.5466669,27.018925 47.156833,27.0004329 C42.6549245,26.958752 38.6802159,29.9305733 37.446833,34.2604329 L37.146833,34.3704329 C37.0267567,34.3878703 36.9112531,34.4286363 36.806833,34.4904329 C35.1359319,35.1407472 33.6952619,36.2717079 32.666833,37.7404329 L32.666833,37.7404329 C32.526833,37.9404329 32.396833,38.1504329 32.266833,38.3604329 L32.266833,38.4304329 C32.156833,38.6304329 32.046833,38.8304329 31.956833,39.0304329 L31.896833,39.1404329 C31.806833,39.3404329 31.726833,39.5504329 31.646833,39.7504329 L31.646833,39.8304329 L31.646833,39.8304329 C29.9269719,44.5247191 32.3346288,49.7248999 37.026833,51.4504329 C38.0306247,51.8129607 39.0895832,51.9990397 40.156833,52.0006634 L54.536833,52.0006634 C59.2099822,52.0315895 63.3137554,48.9008699 64.5184639,44.3855658 C65.7231725,39.8702617 63.7243978,35.111348 59.656833,32.8104329 Z" id="path-21"></path>
        <filter x="-28.1%" y="-38.0%" width="156.2%" height="176.0%" filterUnits="objectBoundingBox" id="filter-22">
            <feMorphology radius="0.5" operator="dilate" in="SourceAlpha" result="shadowSpreadOuter1"></feMorphology>
            <feOffset dx="0" dy="0" in="shadowSpreadOuter1" result="shadowOffsetOuter1"></feOffset>
            <feGaussianBlur stdDeviation="3" in="shadowOffsetOuter1" result="shadowBlurOuter1"></feGaussianBlur>
            <feComposite in="shadowBlurOuter1" in2="SourceAlpha" operator="out" result="shadowBlurOuter1"></feComposite>
            <feColorMatrix values="0 0 0 0 1   0 0 0 0 1   0 0 0 0 1  0 0 0 0.5 0" type="matrix" in="shadowBlurOuter1"></feColorMatrix>
        </filter>
        <path d="M61.136833,17.2104329 C60.3991894,16.8482053 59.5074137,17.1469501 59.136833,17.8804329 L57.626833,20.8804329 C54.3761092,13.1620985 47.2483209,7.76953953 38.936833,6.74043293 C38.1286427,6.63853033 37.3852998,7.19603749 37.256833,8.00043293 C37.1566805,8.8200181 37.7377265,9.56643862 38.556833,9.67043293 C45.8372795,10.5808212 52.0704454,15.3253559 54.886833,22.1004329 L51.966833,21.1004329 C51.4477899,20.8710364 50.8439556,20.9520168 50.4036949,21.3100658 C49.9634343,21.6681147 49.7610903,22.2427717 49.8798896,22.7976728 C49.998689,23.3525739 50.4185711,23.7940178 50.966833,23.9404329 L56.966833,25.9404329 L56.966833,25.9404329 C57.1029164,25.9831013 57.2442671,26.0066598 57.386833,26.0104329 L57.386833,26.0104329 C57.5516509,26.0455403 57.7220151,26.0455403 57.886833,26.0104329 L58.016833,26.0104329 L58.286833,25.8804329 L58.416833,25.7704329 L58.606833,25.5804329 L58.716833,25.4304329 L58.796833,25.3004329 L61.796833,19.3004329 C62.1676258,18.5857524 61.912455,17.7058531 61.216833,17.3004329 L61.136833,17.2104329 Z" id="path-23"></path>
        <filter x="-38.4%" y="-49.2%" width="176.9%" height="198.4%" filterUnits="objectBoundingBox" id="filter-24">
            <feMorphology radius="0.5" operator="dilate" in="SourceAlpha" result="shadowSpreadOuter1"></feMorphology>
            <feOffset dx="0" dy="0" in="shadowSpreadOuter1" result="shadowOffsetOuter1"></feOffset>
            <feGaussianBlur stdDeviation="3" in="shadowOffsetOuter1" result="shadowBlurOuter1"></feGaussianBlur>
            <feComposite in="shadowBlurOuter1" in2="SourceAlpha" operator="out" result="shadowBlurOuter1"></feComposite>
            <feColorMatrix values="0 0 0 0 1   0 0 0 0 1   0 0 0 0 1  0 0 0 0.5 0" type="matrix" in="shadowBlurOuter1"></feColorMatrix>
        </filter>
    </defs>
    <g id="草稿" stroke="none" stroke-width="1" fill="none" fill-rule="evenodd">
        <g id="画板" transform="translate(-1710.000000, -154.000000)">
            <g id="317_暴雨到大暴雨-01" transform="translate(1710.000000, 154.000000)">
                <rect id="矩形" x="0" y="0" width="80" height="80"></rect>
                <g id="形状" transform="translate(7.000000, 9.000000)" fill-rule="nonzero">
                    <g id="路径">
                        <use fill="black" fill-opacity="1" filter="url(#filter-2)" xlink:href="#path-1"></use>
                        <use stroke="#FFFFFF" stroke-width="1" fill="#E0F2FF" xlink:href="#path-1"></use>
                    </g>
                    <g id="路径">
                        <use fill="black" fill-opacity="1" filter="url(#filter-4)" xlink:href="#path-3"></use>
                        <use stroke="#FFFFFF" stroke-width="1" fill="#E0F2FF" xlink:href="#path-3"></use>
                    </g>
                    <g id="路径">
                        <use fill="black" fill-opacity="1" filter="url(#filter-6)" xlink:href="#path-5"></use>
                        <use stroke="#FFFFFF" stroke-width="1" fill="#E0F2FF" xlink:href="#path-5"></use>
                    </g>
                    <g id="路径">
                        <use fill="black" fill-opacity="1" filter="url(#filter-8)" xlink:href="#path-7"></use>
                        <use stroke="#FFFFFF" stroke-width="1" fill="#E0F2FF" xlink:href="#path-7"></use>
                    </g>
                    <g>
                        <use fill="black" fill-opacity="1" filter="url(#filter-10)" xlink:href="#path-9"></use>
                        <use stroke="#FFFFFF" stroke-width="1" fill="#E0F2FF" xlink:href="#path-9"></use>
                    </g>
                    <g id="路径">
                        <use fill="black" fill-opacity="1" filter="url(#filter-12)" xlink:href="#path-11"></use>
                        <use stroke="#FFFFFF" stroke-width="1" fill="#E0F2FF" xlink:href="#path-11"></use>
                    </g>
                    <g id="路径">
                        <use fill="black" fill-opacity="1" filter="url(#filter-14)" xlink:href="#path-13"></use>
                        <use stroke="#FFFFFF" stroke-width="1" fill="#E0F2FF" xlink:href="#path-13"></use>
                    </g>
                    <g id="路径">
                        <use fill="black" fill-opacity="1" filter="url(#filter-16)" xlink:href="#path-15"></use>
                        <use stroke="#FFFFFF" stroke-width="1" fill="#E0F2FF" xlink:href="#path-15"></use>
                    </g>
                    <g id="路径">
                        <use fill="black" fill-opacity="1" filter="url(#filter-18)" xlink:href="#path-17"></use>
                        <use stroke="#FFFFFF" stroke-width="1" fill="#E0F2FF" xlink:href="#path-17"></use>
                    </g>
                    <g id="路径">
                        <use fill="black" fill-opacity="1" filter="url(#filter-20)" xlink:href="#path-19"></use>
                        <use stroke="#FFFFFF" stroke-width="1" fill="#E0F2FF" xlink:href="#path-19"></use>
                    </g>
                    <g>
                        <use fill="black" fill-opacity="1" filter="url(#filter-22)" xlink:href="#path-21"></use>
                        <use stroke="#FFFFFF" stroke-width="1" fill="#E0F2FF" xlink:href="#path-21"></use>
                    </g>
                    <g id="路径">
                        <use fill="black" fill-opacity="1" filter="url(#filter-24)" xlink:href="#path-23"></use>
                        <use stroke="#FFFFFF" stroke-width="1" fill="#E0F2FF" xlink:href="#path-23"></use>
                    </g>
                </g>
            </g>
        </g>
    </g>
</svg>