<?xml version="1.0" encoding="UTF-8"?>
<svg width="80px" height="80px" viewBox="0 0 80 80" version="1.1" xmlns="http://www.w3.org/2000/svg" xmlns:xlink="http://www.w3.org/1999/xlink">
    <title>318_大暴雨到特大暴雨-01</title>
    <defs>
        <path d="M8.19700326,26.4404329 C7.968652,26.3018073 7.67202321,26.3628779 7.51700326,26.5804329 L5.82700326,29.1204329 L5.82700326,29.1204329 L4.73700326,30.7404329 L4.73700326,30.7404329 L3.49700326,32.5704329 L3.49700326,32.5704329 L2.34700326,34.2904329 C2.20992289,34.4894701 2.25903419,34.7618145 2.45700326,34.9004329 L2.45700326,34.9004329 C2.6869429,35.029381 2.97670127,34.9697249 3.13700326,34.7604329 L4.84700326,32.2204329 L4.84700326,32.2204329 L5.46700326,31.2904329 L5.46700326,31.2904329 L7.17700326,28.7504329 L7.17700326,28.7504329 L8.26700326,27.1304329 C8.35134358,27.0493592 8.39900997,26.9374211 8.39900997,26.8204329 C8.39900997,26.7034447 8.35134358,26.5915066 8.26700326,26.5104329 C8.24744223,26.4836098 8.22382637,26.459994 8.19700326,26.4404329 L8.19700326,26.4404329 Z" id="path-1"></path>
        <filter x="-146.8%" y="-127.4%" width="393.0%" height="355.0%" filterUnits="objectBoundingBox" id="filter-2">
            <feMorphology radius="0.5" operator="dilate" in="SourceAlpha" result="shadowSpreadOuter1"></feMorphology>
            <feOffset dx="0" dy="0" in="shadowSpreadOuter1" result="shadowOffsetOuter1"></feOffset>
            <feGaussianBlur stdDeviation="3" in="shadowOffsetOuter1" result="shadowBlurOuter1"></feGaussianBlur>
            <feComposite in="shadowBlurOuter1" in2="SourceAlpha" operator="out" result="shadowBlurOuter1"></feComposite>
            <feColorMatrix values="0 0 0 0 1   0 0 0 0 1   0 0 0 0 1  0 0 0 0.5 0" type="matrix" in="shadowBlurOuter1"></feColorMatrix>
        </filter>
        <path d="M13.1970033,26.4404329 C12.968652,26.3018073 12.6720232,26.3628779 12.5170033,26.5804329 L10.8270033,29.1204329 L10.8270033,29.1204329 L9.73700326,30.7404329 L9.73700326,30.7404329 L8.49700326,32.5704329 L8.49700326,32.5704329 L7.40700326,34.1904329 C7.26992289,34.3894701 7.31903419,34.6618145 7.51700326,34.8004329 L7.51700326,34.8004329 C7.59242043,34.9027462 7.70269943,34.973894 7.82700326,35.0004329 C7.99052509,35.0048692 8.14504855,34.925723 8.23700326,34.7904329 L9.94700326,32.2504329 L9.94700326,32.2504329 L10.5670033,31.3204329 L10.5670033,31.3204329 L12.2770033,28.7804329 L12.2770033,28.7804329 L13.3670033,27.1604329 C13.4391455,27.0678087 13.4712789,26.9501943 13.4562545,26.8337554 C13.4412301,26.7173164 13.3802942,26.6117109 13.2870033,26.5404329 L13.1970033,26.4404329 Z" id="path-3"></path>
        <filter x="-149.1%" y="-124.7%" width="392.3%" height="332.9%" filterUnits="objectBoundingBox" id="filter-4">
            <feMorphology radius="0.5" operator="dilate" in="SourceAlpha" result="shadowSpreadOuter1"></feMorphology>
            <feOffset dx="0" dy="0" in="shadowSpreadOuter1" result="shadowOffsetOuter1"></feOffset>
            <feGaussianBlur stdDeviation="3" in="shadowOffsetOuter1" result="shadowBlurOuter1"></feGaussianBlur>
            <feComposite in="shadowBlurOuter1" in2="SourceAlpha" operator="out" result="shadowBlurOuter1"></feComposite>
            <feColorMatrix values="0 0 0 0 1   0 0 0 0 1   0 0 0 0 1  0 0 0 0.5 0" type="matrix" in="shadowBlurOuter1"></feColorMatrix>
        </filter>
        <path d="M18.1970033,26.4404329 C17.968652,26.3018073 17.6720232,26.3628779 17.5170033,26.5804329 L15.8270033,29.1204329 L15.8270033,29.1204329 L14.7270033,30.7404329 L14.7270033,30.7404329 L13.4870033,32.5704329 L13.4870033,32.5704329 L12.3970033,34.1904329 C12.2599229,34.3894701 12.3090342,34.6618145 12.5070033,34.8004329 L12.5070033,34.8004329 C12.584864,34.9048166 12.6990565,34.976187 12.8270033,35.0004329 C12.9905251,35.0048692 13.1450486,34.925723 13.2370033,34.7904329 L14.9470033,32.2504329 L14.9470033,32.2504329 L15.5670033,31.3204329 L15.5670033,31.3204329 L17.2770033,28.7804329 L17.2770033,28.7804329 L18.3670033,27.1604329 C18.4402466,27.0690553 18.4740407,26.9522493 18.4609022,26.8358798 C18.4477637,26.7195104 18.3887768,26.6131796 18.2970033,26.5404329 L18.1970033,26.4404329 Z" id="path-5"></path>
        <filter x="-148.7%" y="-124.7%" width="391.5%" height="332.9%" filterUnits="objectBoundingBox" id="filter-6">
            <feMorphology radius="0.5" operator="dilate" in="SourceAlpha" result="shadowSpreadOuter1"></feMorphology>
            <feOffset dx="0" dy="0" in="shadowSpreadOuter1" result="shadowOffsetOuter1"></feOffset>
            <feGaussianBlur stdDeviation="3" in="shadowOffsetOuter1" result="shadowBlurOuter1"></feGaussianBlur>
            <feComposite in="shadowBlurOuter1" in2="SourceAlpha" operator="out" result="shadowBlurOuter1"></feComposite>
            <feColorMatrix values="0 0 0 0 1   0 0 0 0 1   0 0 0 0 1  0 0 0 0.5 0" type="matrix" in="shadowBlurOuter1"></feColorMatrix>
        </filter>
        <path d="M23.1970033,26.4404329 C22.968652,26.3018073 22.6720232,26.3628779 22.5170033,26.5804329 L20.8270033,29.1204329 L20.8270033,29.1204329 L19.7270033,30.7404329 L19.7270033,30.7404329 L18.4870033,32.5704329 L18.4870033,32.5704329 L17.3970033,34.1904329 C17.2609301,34.3951825 17.3143608,34.6712412 17.5170033,34.8104329 L17.5170033,34.8104329 C17.5941067,34.9090061 17.7041733,34.9764662 17.8270033,35.0004329 C17.9905251,35.0048692 18.1450486,34.925723 18.2370033,34.7904329 L19.9470033,32.2504329 L19.9470033,32.2504329 L20.5670033,31.3204329 L20.5670033,31.3204329 L22.2770033,28.7804329 L22.2770033,28.7804329 L23.3670033,27.1604329 C23.4402466,27.0690553 23.4740407,26.9522493 23.4609022,26.8358798 C23.4477637,26.7195104 23.3887768,26.6131796 23.2970033,26.5404329 L23.1970033,26.4404329 Z" id="path-7"></path>
        <filter x="-148.8%" y="-124.7%" width="391.6%" height="332.9%" filterUnits="objectBoundingBox" id="filter-8">
            <feMorphology radius="0.5" operator="dilate" in="SourceAlpha" result="shadowSpreadOuter1"></feMorphology>
            <feOffset dx="0" dy="0" in="shadowSpreadOuter1" result="shadowOffsetOuter1"></feOffset>
            <feGaussianBlur stdDeviation="3" in="shadowOffsetOuter1" result="shadowBlurOuter1"></feGaussianBlur>
            <feComposite in="shadowBlurOuter1" in2="SourceAlpha" operator="out" result="shadowBlurOuter1"></feComposite>
            <feColorMatrix values="0 0 0 0 1   0 0 0 0 1   0 0 0 0 1  0 0 0 0.5 0" type="matrix" in="shadowBlurOuter1"></feColorMatrix>
        </filter>
        <path d="M28.1970033,26.4404329 C27.968652,26.3018073 27.6720232,26.3628779 27.5170033,26.5804329 L25.8270033,29.1204329 L25.8270033,29.1204329 L24.7270033,30.7404329 L24.7270033,30.7404329 L23.4870033,32.5704329 L23.4870033,32.5704329 L22.3970033,34.1904329 C22.3302893,34.2920541 22.3075273,34.4163434 22.3338981,34.5350119 C22.3602689,34.6536803 22.4335287,34.7566314 22.5370033,34.8204329 L22.5370033,34.8204329 C22.610664,34.9113529 22.7128375,34.9747709 22.8270033,35.0004329 C22.9905251,35.0048692 23.1450486,34.925723 23.2370033,34.7904329 L24.9470033,32.2504329 L24.9470033,32.2504329 L25.5670033,31.3204329 L25.5670033,31.3204329 L27.2770033,28.7804329 L27.2770033,28.7804329 L28.3670033,27.1604329 C28.4402466,27.0690553 28.4740407,26.9522493 28.4609022,26.8358798 C28.4477637,26.7195104 28.3887768,26.6131796 28.2970033,26.5404329 L28.1970033,26.4404329 Z" id="path-9"></path>
        <filter x="-143.5%" y="-124.7%" width="386.4%" height="349.4%" filterUnits="objectBoundingBox" id="filter-10">
            <feMorphology radius="0.5" operator="dilate" in="SourceAlpha" result="shadowSpreadOuter1"></feMorphology>
            <feOffset dx="0" dy="0" in="shadowSpreadOuter1" result="shadowOffsetOuter1"></feOffset>
            <feGaussianBlur stdDeviation="3" in="shadowOffsetOuter1" result="shadowBlurOuter1"></feGaussianBlur>
            <feComposite in="shadowBlurOuter1" in2="SourceAlpha" operator="out" result="shadowBlurOuter1"></feComposite>
            <feColorMatrix values="0 0 0 0 1   0 0 0 0 1   0 0 0 0 1  0 0 0 0.5 0" type="matrix" in="shadowBlurOuter1"></feColorMatrix>
        </filter>
        <path d="M23.4770033,23.1204329 L9.09700326,23.1204329 C6.56425594,23.1451938 4.20583617,21.8336535 2.8906369,19.6690119 C1.57543763,17.5043704 1.49805683,14.8069097 2.68700326,12.5704329 C2.71648581,12.508373 2.7498866,12.4482516 2.78700326,12.3904329 C2.93902022,12.1082313 3.11641939,11.840459 3.31700326,11.5904329 L3.46700326,11.3904329 C3.66464368,11.1494926 3.87847229,10.9222998 4.10700326,10.7104329 L4.28700326,10.5404329 C4.52729967,10.3305889 4.78118485,10.1368344 5.04700326,9.96043293 L5.22700326,9.84043293 C5.5261041,9.65424353 5.83672947,9.48724065 6.15700326,9.34043293 L6.25700326,9.34043293 C6.62410128,9.19743959 7.00194975,9.08375067 7.38700326,9.00043293 L7.38700326,9.00043293 C8.2870235,8.78234502 9.22042338,8.73822066 10.1370033,8.87043293 C10.6456156,8.91608328 11.1069164,8.57118547 11.2070033,8.07043293 C11.278247,7.55695178 10.9203382,7.08272258 10.4070033,7.01043293 C9.78116672,6.92053131 9.14728191,6.90040798 8.51700326,6.95043293 C9.61227658,4.37546698 11.9408605,2.53342866 14.6987974,2.06029286 C17.4567343,1.58715707 20.2661223,2.54775444 22.1570033,4.61043293 C21.6547847,4.68054946 21.1572244,4.78072938 20.6670033,4.91043293 C18.0267792,5.63852578 15.7872423,7.39198958 14.4470033,9.78043293 C14.2826611,10.075177 14.2880468,10.4352073 14.4611316,10.7249039 C14.6342164,11.0146004 14.9487046,11.1899514 15.2861316,11.1849039 C15.6235585,11.1798563 15.9326611,10.995177 16.0970033,10.7004329 C17.1870616,8.74121652 19.0167574,7.30051119 21.1770033,6.70043293 C22.0524971,6.46054708 22.9601712,6.35931948 23.8670033,6.40043293 L23.9370033,6.40043293 C26.9344616,6.48260397 29.6603896,8.15765814 31.0879565,10.7946187 C32.5155234,13.4315793 32.4278479,16.6298293 30.8579565,19.1846188 C29.2880651,21.7394083 26.4744616,23.2626041 23.4770033,23.1804329 L23.4770033,23.1804329 L23.4770033,23.1204329 Z M28.5970033,5.81043293 L28.5270033,5.74043293 L28.2470033,5.61043293 L28.1170033,5.54043293 C26.9899194,4.99469119 25.7739205,4.65597284 24.5270033,4.54043293 C22.6460002,1.7203011 19.4868372,0.0189250364 16.0970033,0.000432927494 C11.5950947,-0.0412479742 7.62038611,2.93057331 6.38700326,7.26043293 L6.08700326,7.37043293 C5.96692697,7.38787027 5.85142332,7.42863626 5.74700326,7.49043293 C4.07610212,8.14074719 2.63543218,9.2717079 1.60700326,10.7404329 L1.60700326,10.7404329 C1.46700326,10.9404329 1.33700326,11.1504329 1.20700326,11.3604329 L1.20700326,11.4304329 C1.09700326,11.6304329 0.987003261,11.8304329 0.897003261,12.0304329 L0.827003261,12.1404329 C0.737003261,12.3404329 0.657003261,12.5504329 0.577003261,12.7504329 L0.577003261,12.8304329 L0.577003261,12.8304329 C-0.46959451,15.6109044 -0.0765955075,18.7287411 1.62725165,21.1625228 C3.33109881,23.5963045 6.1262518,25.032436 9.09700326,25.0004329 L23.4770033,25.0004329 C28.1501524,25.0315895 32.2539256,21.9008699 33.4586342,17.3855658 C34.6633427,12.8702617 32.6645681,8.111348 28.5970033,5.81043293 L28.5970033,5.81043293 Z" id="path-11"></path>
        <filter x="-28.1%" y="-38.0%" width="156.2%" height="176.0%" filterUnits="objectBoundingBox" id="filter-12">
            <feMorphology radius="0.5" operator="dilate" in="SourceAlpha" result="shadowSpreadOuter1"></feMorphology>
            <feOffset dx="0" dy="0" in="shadowSpreadOuter1" result="shadowOffsetOuter1"></feOffset>
            <feGaussianBlur stdDeviation="3" in="shadowOffsetOuter1" result="shadowBlurOuter1"></feGaussianBlur>
            <feComposite in="shadowBlurOuter1" in2="SourceAlpha" operator="out" result="shadowBlurOuter1"></feComposite>
            <feColorMatrix values="0 0 0 0 1   0 0 0 0 1   0 0 0 0 1  0 0 0 0.5 0" type="matrix" in="shadowBlurOuter1"></feColorMatrix>
        </filter>
        <path d="M38.8270033,53.4404329 C38.6026866,53.2975302 38.305329,53.3596646 38.1570033,53.5804329 L36.4470033,56.1204329 L36.4470033,56.1204329 L35.3570033,57.7404329 L35.3570033,57.7404329 L34.1270033,59.6204329 L34.1270033,59.6204329 L33.0270033,61.2404329 C32.9598462,61.3392464 32.9357594,61.4611211 32.9602773,61.5780529 C32.9847953,61.6949846 33.0558098,61.7969188 33.1570033,61.8604329 L33.1570033,61.8604329 C33.2352164,61.9080943 33.3254331,61.9323834 33.4170033,61.9304329 C33.5820663,61.9296552 33.7373433,61.8520167 33.8370033,61.7204329 L35.5370033,59.1804329 L35.5370033,59.1804329 L36.1570033,58.2504329 L36.1570033,58.2504329 L37.8670033,55.7104329 L37.8670033,55.7104329 L38.9670033,54.0904329 C39.0375633,53.9937244 39.0666807,53.8728866 39.0479136,53.7546535 C39.0291464,53.6364205 38.9640417,53.5305385 38.8670033,53.4604329 L38.8270033,53.4404329 Z" id="path-13"></path>
        <filter x="-145.9%" y="-126.6%" width="391.6%" height="353.5%" filterUnits="objectBoundingBox" id="filter-14">
            <feMorphology radius="0.5" operator="dilate" in="SourceAlpha" result="shadowSpreadOuter1"></feMorphology>
            <feOffset dx="0" dy="0" in="shadowSpreadOuter1" result="shadowOffsetOuter1"></feOffset>
            <feGaussianBlur stdDeviation="3" in="shadowOffsetOuter1" result="shadowBlurOuter1"></feGaussianBlur>
            <feComposite in="shadowBlurOuter1" in2="SourceAlpha" operator="out" result="shadowBlurOuter1"></feComposite>
            <feColorMatrix values="0 0 0 0 1   0 0 0 0 1   0 0 0 0 1  0 0 0 0.5 0" type="matrix" in="shadowBlurOuter1"></feColorMatrix>
        </filter>
        <path d="M43.0970033,53.4404329 C42.868652,53.3018073 42.5720232,53.3628779 42.4170033,53.5804329 L40.7070033,56.1204329 L40.7070033,56.1204329 L39.6170033,57.7404329 L39.6170033,57.7404329 L38.3770033,59.5704329 L38.3770033,59.5704329 L37.2870033,61.1904329 C37.1499229,61.3894701 37.1990342,61.6618145 37.3970033,61.8004329 L37.3970033,61.8004329 C37.4752164,61.8480943 37.5654331,61.8723834 37.6570033,61.8704329 C37.8232105,61.8746157 37.9806252,61.7959084 38.0770033,61.6604329 L39.8270033,59.2504329 L39.8270033,59.2504329 L40.4570033,58.3204329 L40.4570033,58.3204329 L42.1670033,55.7804329 L42.1670033,55.7804329 L43.2570033,54.1604329 C43.3425025,54.0758994 43.3906174,53.9606662 43.3906174,53.8404329 C43.3906174,53.7201997 43.3425025,53.6049665 43.2570033,53.5204329 C43.2082129,53.4855114 43.1542147,53.4585123 43.0970033,53.4404329 L43.0970033,53.4404329 Z" id="path-15"></path>
        <filter x="-147.4%" y="-126.6%" width="389.0%" height="335.9%" filterUnits="objectBoundingBox" id="filter-16">
            <feMorphology radius="0.5" operator="dilate" in="SourceAlpha" result="shadowSpreadOuter1"></feMorphology>
            <feOffset dx="0" dy="0" in="shadowSpreadOuter1" result="shadowOffsetOuter1"></feOffset>
            <feGaussianBlur stdDeviation="3" in="shadowOffsetOuter1" result="shadowBlurOuter1"></feGaussianBlur>
            <feComposite in="shadowBlurOuter1" in2="SourceAlpha" operator="out" result="shadowBlurOuter1"></feComposite>
            <feColorMatrix values="0 0 0 0 1   0 0 0 0 1   0 0 0 0 1  0 0 0 0.5 0" type="matrix" in="shadowBlurOuter1"></feColorMatrix>
        </filter>
        <path d="M47.3170033,53.4404329 C47.088652,53.3018073 46.7920232,53.3628779 46.6370033,53.5804329 L44.9270033,56.1204329 L44.9270033,56.1204329 L43.8270033,57.7804329 L43.8270033,57.7804329 L42.5870033,59.6104329 L42.5870033,59.6104329 L41.4970033,61.2304329 C41.3599229,61.4294701 41.4090342,61.7018145 41.6070033,61.8404329 L41.6070033,61.8404329 C41.6889491,61.8879191 41.7823079,61.9121233 41.8770033,61.9104329 C42.0405251,61.9148692 42.1950486,61.835723 42.2870033,61.7004329 L43.9970033,59.1604329 L43.9970033,59.1604329 L44.6170033,58.2304329 L44.6170033,58.2304329 L46.3270033,55.6904329 L46.3270033,55.6904329 L47.4170033,54.0704329 C47.4902466,53.9790553 47.5240407,53.8622493 47.5109022,53.7458798 C47.4977637,53.6295104 47.4387768,53.5231796 47.3470033,53.4504329 L47.3170033,53.4404329 Z" id="path-17"></path>
        <filter x="-149.5%" y="-127.5%" width="396.1%" height="336.3%" filterUnits="objectBoundingBox" id="filter-18">
            <feMorphology radius="0.5" operator="dilate" in="SourceAlpha" result="shadowSpreadOuter1"></feMorphology>
            <feOffset dx="0" dy="0" in="shadowSpreadOuter1" result="shadowOffsetOuter1"></feOffset>
            <feGaussianBlur stdDeviation="3" in="shadowOffsetOuter1" result="shadowBlurOuter1"></feGaussianBlur>
            <feComposite in="shadowBlurOuter1" in2="SourceAlpha" operator="out" result="shadowBlurOuter1"></feComposite>
            <feColorMatrix values="0 0 0 0 1   0 0 0 0 1   0 0 0 0 1  0 0 0 0.5 0" type="matrix" in="shadowBlurOuter1"></feColorMatrix>
        </filter>
        <path d="M51.5370033,53.4404329 C51.308652,53.3018073 51.0120232,53.3628779 50.8570033,53.5804329 L49.1570033,56.1204329 L49.1570033,56.1204329 L48.0570033,57.7404329 L48.0570033,57.7404329 L46.8270033,59.6204329 L46.8270033,59.6204329 L45.7370033,61.2404329 C45.6702893,61.3420541 45.6475273,61.4663434 45.6738981,61.5850119 C45.7002689,61.7036803 45.7735287,61.8066314 45.8770033,61.8704329 L45.8770033,61.8704329 C45.9589491,61.9179191 46.0523079,61.9421233 46.1470033,61.9404329 C46.3105251,61.9448692 46.4650486,61.865723 46.5570033,61.7304329 L48.2670033,59.1904329 L48.2670033,59.1904329 L48.8870033,58.2604329 L48.8870033,58.2604329 L50.5870033,55.7204329 L50.5870033,55.7204329 L51.6770033,54.1004329 C51.7502466,54.0090553 51.7840407,53.8922493 51.7709022,53.7758798 C51.7577637,53.6595104 51.6987768,53.5531796 51.6070033,53.4804329 L51.5370033,53.4404329 Z" id="path-19"></path>
        <filter x="-145.2%" y="-126.2%" width="389.9%" height="352.4%" filterUnits="objectBoundingBox" id="filter-20">
            <feMorphology radius="0.5" operator="dilate" in="SourceAlpha" result="shadowSpreadOuter1"></feMorphology>
            <feOffset dx="0" dy="0" in="shadowSpreadOuter1" result="shadowOffsetOuter1"></feOffset>
            <feGaussianBlur stdDeviation="3" in="shadowOffsetOuter1" result="shadowBlurOuter1"></feGaussianBlur>
            <feComposite in="shadowBlurOuter1" in2="SourceAlpha" operator="out" result="shadowBlurOuter1"></feComposite>
            <feColorMatrix values="0 0 0 0 1   0 0 0 0 1   0 0 0 0 1  0 0 0 0.5 0" type="matrix" in="shadowBlurOuter1"></feColorMatrix>
        </filter>
        <path d="M55.7570033,53.4404329 C55.5326866,53.2975302 55.235329,53.3596646 55.0870033,53.5804329 L53.3770033,56.1204329 L53.3770033,56.1204329 L52.2870033,57.7404329 L52.2870033,57.7404329 L51.0270033,59.6204329 L51.0270033,59.6204329 L49.9270033,61.2404329 C49.8598462,61.3392464 49.8357594,61.4611211 49.8602773,61.5780529 C49.8847953,61.6949846 49.9558098,61.7969188 50.0570033,61.8604329 L50.0570033,61.8604329 C50.1352164,61.9080943 50.2254331,61.9323834 50.3170033,61.9304329 C50.4820663,61.9296552 50.6373433,61.8520167 50.7370033,61.7204329 L52.4470033,59.1804329 L52.4470033,59.1804329 L53.0670033,58.2504329 L53.0670033,58.2504329 L54.8270033,55.7404329 L54.8270033,55.7404329 L55.9270033,54.1204329 C55.9986117,54.024955 56.0293588,53.9049412 56.0124805,53.7867933 C55.9956023,53.6686454 55.9324812,53.5620414 55.8370033,53.4904329 L55.7570033,53.4404329 Z" id="path-21"></path>
        <filter x="-144.4%" y="-125.9%" width="387.4%" height="352.6%" filterUnits="objectBoundingBox" id="filter-22">
            <feMorphology radius="0.5" operator="dilate" in="SourceAlpha" result="shadowSpreadOuter1"></feMorphology>
            <feOffset dx="0" dy="0" in="shadowSpreadOuter1" result="shadowOffsetOuter1"></feOffset>
            <feGaussianBlur stdDeviation="3" in="shadowOffsetOuter1" result="shadowBlurOuter1"></feGaussianBlur>
            <feComposite in="shadowBlurOuter1" in2="SourceAlpha" operator="out" result="shadowBlurOuter1"></feComposite>
            <feColorMatrix values="0 0 0 0 1   0 0 0 0 1   0 0 0 0 1  0 0 0 0.5 0" type="matrix" in="shadowBlurOuter1"></feColorMatrix>
        </filter>
        <path d="M59.9870033,53.4404329 C59.758652,53.3018073 59.4620232,53.3628779 59.3070033,53.5804329 L57.5970033,56.1204329 L57.5970033,56.1204329 L56.5070033,57.7404329 L56.5070033,57.7404329 L55.2670033,59.5704329 L55.2670033,59.5704329 L54.1770033,61.1904329 C54.0399229,61.3894701 54.0890342,61.6618145 54.2870033,61.8004329 L54.2870033,61.8004329 C54.5169429,61.929381 54.8067013,61.8697249 54.9670033,61.6604329 L56.6770033,59.1204329 L56.6770033,59.1204329 L57.2970033,58.1904329 L57.2970033,58.1904329 L59.0070033,55.6504329 L59.0070033,55.6504329 L60.0970033,54.0304329 C60.2244558,53.8251719 60.1670689,53.555895 59.9670033,53.4204329 L59.9870033,53.4404329 Z" id="path-23"></path>
        <filter x="-147.4%" y="-128.0%" width="394.9%" height="356.0%" filterUnits="objectBoundingBox" id="filter-24">
            <feMorphology radius="0.5" operator="dilate" in="SourceAlpha" result="shadowSpreadOuter1"></feMorphology>
            <feOffset dx="0" dy="0" in="shadowSpreadOuter1" result="shadowOffsetOuter1"></feOffset>
            <feGaussianBlur stdDeviation="3" in="shadowOffsetOuter1" result="shadowBlurOuter1"></feGaussianBlur>
            <feComposite in="shadowBlurOuter1" in2="SourceAlpha" operator="out" result="shadowBlurOuter1"></feComposite>
            <feColorMatrix values="0 0 0 0 1   0 0 0 0 1   0 0 0 0 1  0 0 0 0.5 0" type="matrix" in="shadowBlurOuter1"></feColorMatrix>
        </filter>
        <path d="M54.7070033,50.1204329 L40.3270033,50.1204329 C37.7942559,50.1451938 35.4358362,48.8336535 34.1206369,46.6690119 C32.8054376,44.5043704 32.7280568,41.8069097 33.9170033,39.5704329 C33.9464858,39.508373 33.9798866,39.4482516 34.0170033,39.3904329 C34.1690202,39.1082313 34.3464194,38.840459 34.5470033,38.5904329 L34.6970033,38.3904329 C34.8946437,38.1494926 35.1084723,37.9222998 35.3370033,37.7104329 C35.395529,37.6486122 35.4590801,37.5917507 35.5270033,37.5404329 C35.761313,37.3276192 36.0120957,37.1336805 36.2770033,36.9604329 L36.4570033,36.8404329 C36.7561041,36.6542435 37.0667295,36.4872406 37.3870033,36.3404329 L37.4870033,36.3404329 C37.8541013,36.1974396 38.2319498,36.0837507 38.6170033,36.0004329 L38.6170033,36.0004329 C39.5170235,35.782345 40.4504234,35.7382207 41.3670033,35.8704329 C41.8756156,35.9160833 42.3369164,35.5711855 42.4370033,35.0704329 C42.4772093,34.8248613 42.4173241,34.5734198 42.2707394,34.3723356 C42.1241546,34.1712514 41.9030984,34.037299 41.6570033,34.0004329 L41.6570033,34.0004329 C41.0311667,33.9105313 40.3972819,33.890408 39.7670033,33.9404329 C40.8622766,31.365467 43.1908605,29.5234287 45.9487974,29.0502929 C48.7067343,28.5771571 51.5161223,29.5377544 53.4070033,31.6004329 C52.9047847,31.6705495 52.4072244,31.7707294 51.9170033,31.9004329 C49.2767792,32.6285258 47.0372423,34.3819896 45.6970033,36.7704329 C45.4429523,37.2260678 45.6063684,37.8013819 46.0620033,38.0554329 C46.5176382,38.3094839 47.0929523,38.1460678 47.3470033,37.6904329 C48.4370616,35.7312165 50.2667574,34.2905112 52.4270033,33.6904329 C53.3024971,33.4505471 54.2101712,33.3493195 55.1170033,33.3904329 L55.1870033,33.3904329 C59.8206722,33.5174585 63.4740286,37.3767639 63.3470031,42.0104329 C63.2199776,46.6441019 59.3606722,50.2974583 54.7270033,50.1704329 L54.7070033,50.1204329 Z M59.8270033,32.8104329 L59.7570033,32.7404329 L59.4770033,32.6104329 L59.3470033,32.5404329 C58.2199194,31.9946912 57.0039205,31.6559728 55.7570033,31.5404329 C53.8804305,28.7205315 50.7241902,27.0187107 47.3370033,27.0002208 C42.837005,26.9713405 38.8661886,29.9371972 37.6170033,34.2604329 L37.3170033,34.3704329 C37.196927,34.3878703 37.0814233,34.4286363 36.9770033,34.4904329 C35.3040411,35.1368702 33.85999,36.264274 32.8270033,37.7304329 L32.8270033,37.7304329 C32.6870033,37.9304329 32.5570033,38.1404329 32.4270033,38.3504329 L32.4270033,38.4204329 C32.3170033,38.6204329 32.2070033,38.8204329 32.1170033,39.0204329 L32.1170033,39.1304329 C32.0170033,39.3304329 31.9370033,39.5404329 31.8570033,39.7404329 L31.8570033,39.8204329 L31.8570033,39.8204329 C31.0132936,42.0713404 31.1051058,44.5662279 32.1119767,46.7490338 C33.1188476,48.9318397 34.9570927,50.6211437 37.2170033,51.4404329 C38.2125299,51.8090565 39.2654226,51.9986449 40.3270033,52.0006634 L54.7070033,52.0006634 C59.3801524,52.0315895 63.4839256,48.9008699 64.6886342,44.3855658 C65.8933427,39.8702617 63.8945681,35.111348 59.8270033,32.8104329 L59.8270033,32.8104329 Z" id="path-25"></path>
        <filter x="-28.1%" y="-38.0%" width="156.3%" height="176.0%" filterUnits="objectBoundingBox" id="filter-26">
            <feMorphology radius="0.5" operator="dilate" in="SourceAlpha" result="shadowSpreadOuter1"></feMorphology>
            <feOffset dx="0" dy="0" in="shadowSpreadOuter1" result="shadowOffsetOuter1"></feOffset>
            <feGaussianBlur stdDeviation="3" in="shadowOffsetOuter1" result="shadowBlurOuter1"></feGaussianBlur>
            <feComposite in="shadowBlurOuter1" in2="SourceAlpha" operator="out" result="shadowBlurOuter1"></feComposite>
            <feColorMatrix values="0 0 0 0 1   0 0 0 0 1   0 0 0 0 1  0 0 0 0.5 0" type="matrix" in="shadowBlurOuter1"></feColorMatrix>
        </filter>
        <path d="M61.0770033,17.2104329 C60.3393596,16.8482053 59.4475839,17.1469501 59.0770033,17.8804329 L57.5670033,20.8804329 C54.3162795,13.1620985 47.1884912,7.76953953 38.8770033,6.74043293 C38.0688129,6.63853033 37.3254701,7.19603749 37.1970033,8.00043293 C37.0968508,8.8200181 37.6778967,9.56643862 38.4970033,9.67043293 C45.7774497,10.5808212 52.0106156,15.3253559 54.8270033,22.1004329 L51.9070033,21.1004329 C51.3879602,20.8710364 50.7841258,20.9520168 50.3438652,21.3100658 C49.9036045,21.6681147 49.7012605,22.2427717 49.8200599,22.7976728 C49.9388592,23.3525739 50.3587414,23.7940178 50.9070033,23.9404329 L56.9070033,25.9404329 L56.9070033,25.9404329 C57.0430866,25.9831013 57.1844374,26.0066598 57.3270033,26.0104329 L57.3270033,26.0104329 C57.4918211,26.0455403 57.6621854,26.0455403 57.8270033,26.0104329 L57.9570033,26.0104329 L58.2270033,25.8804329 L58.3570033,25.7704329 L58.5470033,25.5804329 L58.6570033,25.4304329 L58.7370033,25.3004329 L61.7370033,19.3004329 C62.1077961,18.5857524 61.8526253,17.7058531 61.1570033,17.3004329 L61.0770033,17.2104329 Z" id="path-27"></path>
        <filter x="-38.4%" y="-49.2%" width="176.9%" height="198.4%" filterUnits="objectBoundingBox" id="filter-28">
            <feMorphology radius="0.5" operator="dilate" in="SourceAlpha" result="shadowSpreadOuter1"></feMorphology>
            <feOffset dx="0" dy="0" in="shadowSpreadOuter1" result="shadowOffsetOuter1"></feOffset>
            <feGaussianBlur stdDeviation="3" in="shadowOffsetOuter1" result="shadowBlurOuter1"></feGaussianBlur>
            <feComposite in="shadowBlurOuter1" in2="SourceAlpha" operator="out" result="shadowBlurOuter1"></feComposite>
            <feColorMatrix values="0 0 0 0 1   0 0 0 0 1   0 0 0 0 1  0 0 0 0.5 0" type="matrix" in="shadowBlurOuter1"></feColorMatrix>
        </filter>
    </defs>
    <g id="草稿" stroke="none" stroke-width="1" fill="none" fill-rule="evenodd">
        <g id="画板" transform="translate(-1814.000000, -154.000000)">
            <g id="318_大暴雨到特大暴雨-01" transform="translate(1814.000000, 154.000000)">
                <rect id="矩形" x="0" y="0" width="80" height="80"></rect>
                <g id="形状" transform="translate(7.000000, 9.000000)" fill-rule="nonzero">
                    <g id="路径">
                        <use fill="black" fill-opacity="1" filter="url(#filter-2)" xlink:href="#path-1"></use>
                        <use stroke="#FFFFFF" stroke-width="1" fill="#E0F2FF" xlink:href="#path-1"></use>
                    </g>
                    <g id="路径">
                        <use fill="black" fill-opacity="1" filter="url(#filter-4)" xlink:href="#path-3"></use>
                        <use stroke="#FFFFFF" stroke-width="1" fill="#E0F2FF" xlink:href="#path-3"></use>
                    </g>
                    <g id="路径">
                        <use fill="black" fill-opacity="1" filter="url(#filter-6)" xlink:href="#path-5"></use>
                        <use stroke="#FFFFFF" stroke-width="1" fill="#E0F2FF" xlink:href="#path-5"></use>
                    </g>
                    <g id="路径">
                        <use fill="black" fill-opacity="1" filter="url(#filter-8)" xlink:href="#path-7"></use>
                        <use stroke="#FFFFFF" stroke-width="1" fill="#E0F2FF" xlink:href="#path-7"></use>
                    </g>
                    <g id="路径">
                        <use fill="black" fill-opacity="1" filter="url(#filter-10)" xlink:href="#path-9"></use>
                        <use stroke="#FFFFFF" stroke-width="1" fill="#E0F2FF" xlink:href="#path-9"></use>
                    </g>
                    <g>
                        <use fill="black" fill-opacity="1" filter="url(#filter-12)" xlink:href="#path-11"></use>
                        <use stroke="#FFFFFF" stroke-width="1" fill="#E0F2FF" xlink:href="#path-11"></use>
                    </g>
                    <g id="路径">
                        <use fill="black" fill-opacity="1" filter="url(#filter-14)" xlink:href="#path-13"></use>
                        <use stroke="#FFFFFF" stroke-width="1" fill="#E0F2FF" xlink:href="#path-13"></use>
                    </g>
                    <g id="路径">
                        <use fill="black" fill-opacity="1" filter="url(#filter-16)" xlink:href="#path-15"></use>
                        <use stroke="#FFFFFF" stroke-width="1" fill="#E0F2FF" xlink:href="#path-15"></use>
                    </g>
                    <g id="路径">
                        <use fill="black" fill-opacity="1" filter="url(#filter-18)" xlink:href="#path-17"></use>
                        <use stroke="#FFFFFF" stroke-width="1" fill="#E0F2FF" xlink:href="#path-17"></use>
                    </g>
                    <g id="路径">
                        <use fill="black" fill-opacity="1" filter="url(#filter-20)" xlink:href="#path-19"></use>
                        <use stroke="#FFFFFF" stroke-width="1" fill="#E0F2FF" xlink:href="#path-19"></use>
                    </g>
                    <g id="路径">
                        <use fill="black" fill-opacity="1" filter="url(#filter-22)" xlink:href="#path-21"></use>
                        <use stroke="#FFFFFF" stroke-width="1" fill="#E0F2FF" xlink:href="#path-21"></use>
                    </g>
                    <g id="路径">
                        <use fill="black" fill-opacity="1" filter="url(#filter-24)" xlink:href="#path-23"></use>
                        <use stroke="#FFFFFF" stroke-width="1" fill="#E0F2FF" xlink:href="#path-23"></use>
                    </g>
                    <g>
                        <use fill="black" fill-opacity="1" filter="url(#filter-26)" xlink:href="#path-25"></use>
                        <use stroke="#FFFFFF" stroke-width="1" fill="#E0F2FF" xlink:href="#path-25"></use>
                    </g>
                    <g id="路径">
                        <use fill="black" fill-opacity="1" filter="url(#filter-28)" xlink:href="#path-27"></use>
                        <use stroke="#FFFFFF" stroke-width="1" fill="#E0F2FF" xlink:href="#path-27"></use>
                    </g>
                </g>
            </g>
        </g>
    </g>
</svg>