<?xml version="1.0" encoding="UTF-8"?>
<svg width="80px" height="80px" viewBox="0 0 80 80" version="1.1" xmlns="http://www.w3.org/2000/svg" xmlns:xlink="http://www.w3.org/1999/xlink">
    <title>397_冰雹-01</title>
    <defs>
        <path d="M43.0876786,42.640371 L16.7376786,42.640371 C12.0887929,42.6467531 7.77609031,40.2180793 5.37132691,36.239475 C2.96656351,32.2608707 2.82099692,27.3134805 4.98767858,23.200371 L5.16767858,22.850371 C5.47090284,22.3405514 5.80485264,21.8496452 6.16767858,21.380371 L6.44767858,21.020371 C6.81122537,20.5765611 7.20197711,20.1557515 7.61767858,19.760371 L7.96767858,19.440371 C8.39727581,19.0503388 8.85519744,18.692692 9.33767858,18.370371 L9.66767858,18.150371 C10.2010467,17.8061085 10.759249,17.5019384 11.3376786,17.240371 L11.5176786,17.160371 C12.1868877,16.8812087 12.8753357,16.6506121 13.5776786,16.470371 L13.5776786,16.470371 C15.2124071,16.0638806 16.9105557,15.9789732 18.5776786,16.220371 C19.5248469,16.3556807 20.4023688,15.6975393 20.5376786,14.750371 C20.6729883,13.8032027 20.0148469,12.9256808 19.0676786,12.790371 C17.9241383,12.6404242 16.7688737,12.6002411 15.6176786,12.670371 C17.5881706,7.91495347 21.8594381,4.50208078 26.9324526,3.62952229 C32.0054671,2.75696379 37.1715677,4.54660917 40.6176786,8.37037099 C39.7125117,8.49970739 38.8171333,8.69014233 37.9376786,8.94037099 C33.0907338,10.2974934 28.9888778,13.5386439 26.5476786,17.940371 C26.0899314,18.7781044 26.388031,19.8281268 27.2176786,20.300371 C27.4791081,20.4400499 27.77128,20.5122335 28.0676786,20.510371 C28.6912313,20.5143399 29.2669126,20.1766068 29.5676786,19.630371 C32.438072,14.5194447 37.9416538,11.4601803 43.7976786,11.720371 L43.9376786,11.720371 C52.3363851,12.1462001 58.8589269,19.1993036 58.627984,27.6056266 C58.397041,36.0119497 51.4970966,42.6963035 43.0876786,42.6605152 L43.0876786,42.640371 Z M52.4776786,10.720371 C52.4341587,10.6768395 52.3873539,10.6367211 52.3376786,10.600371 L51.8276786,10.350371 L51.5876786,10.230371 C49.5332129,9.19299532 47.3067943,8.53896367 45.0176786,8.30037099 C41.5741765,3.13530534 35.7853414,0.0234315286 29.5776786,0.000184561068 C21.3095553,-0.0366293469 14.0286787,5.43731437 11.7676786,13.390371 C11.5576786,13.450371 11.3576786,13.540371 11.1476786,13.610371 L10.6176786,13.790371 C7.54342533,14.9937041 4.89510021,17.0817397 3.00767858,19.790371 L3.00767858,19.790371 C2.74767858,20.150371 2.50767858,20.540371 2.27767858,20.930371 C2.24521632,20.9734783 2.21833637,21.0205182 2.19767858,21.070371 C1.99767858,21.420371 1.79767858,21.790371 1.62767858,22.170371 L1.52767858,22.370371 C1.35767858,22.740371 1.20767858,23.110371 1.06767858,23.490371 L1.00767858,23.640371 L1.00767858,23.640371 C-0.858060636,28.7719447 -0.103845001,34.4909682 3.02845614,38.9634083 C6.16075729,43.4358485 11.277456,46.09958 16.7376786,46.100385 L43.0876786,46.100385 C51.6807511,46.1107812 59.2028527,40.3319076 61.4071772,32.0263699 C63.6115016,23.7208322 59.9449932,14.9724547 52.4776786,10.720371 L52.4776786,10.720371 Z" id="path-1"></path>
        <filter x="-15.3%" y="-20.6%" width="130.6%" height="141.2%" filterUnits="objectBoundingBox" id="filter-2">
            <feMorphology radius="0.5" operator="dilate" in="SourceAlpha" result="shadowSpreadOuter1"></feMorphology>
            <feOffset dx="0" dy="0" in="shadowSpreadOuter1" result="shadowOffsetOuter1"></feOffset>
            <feGaussianBlur stdDeviation="3" in="shadowOffsetOuter1" result="shadowBlurOuter1"></feGaussianBlur>
            <feComposite in="shadowBlurOuter1" in2="SourceAlpha" operator="out" result="shadowBlurOuter1"></feComposite>
            <feColorMatrix values="0 0 0 0 1   0 0 0 0 1   0 0 0 0 1  0 0 0 0.5 0" type="matrix" in="shadowBlurOuter1"></feColorMatrix>
        </filter>
        <rect id="path-3" x="16.2400201" y="52.7234691" width="4.83" height="4.83" rx="0.86"></rect>
        <filter x="-196.7%" y="-196.7%" width="493.4%" height="493.4%" filterUnits="objectBoundingBox" id="filter-4">
            <feMorphology radius="0.5" operator="dilate" in="SourceAlpha" result="shadowSpreadOuter1"></feMorphology>
            <feOffset dx="0" dy="0" in="shadowSpreadOuter1" result="shadowOffsetOuter1"></feOffset>
            <feGaussianBlur stdDeviation="3" in="shadowOffsetOuter1" result="shadowBlurOuter1"></feGaussianBlur>
            <feComposite in="shadowBlurOuter1" in2="SourceAlpha" operator="out" result="shadowBlurOuter1"></feComposite>
            <feColorMatrix values="0 0 0 0 1   0 0 0 0 1   0 0 0 0 1  0 0 0 0.5 0" type="matrix" in="shadowBlurOuter1"></feColorMatrix>
        </filter>
        <rect id="path-5" x="28.7388549" y="52.7146343" width="4.83" height="4.83" rx="0.86"></rect>
        <filter x="-196.7%" y="-196.7%" width="493.4%" height="493.4%" filterUnits="objectBoundingBox" id="filter-6">
            <feMorphology radius="0.5" operator="dilate" in="SourceAlpha" result="shadowSpreadOuter1"></feMorphology>
            <feOffset dx="0" dy="0" in="shadowSpreadOuter1" result="shadowOffsetOuter1"></feOffset>
            <feGaussianBlur stdDeviation="3" in="shadowOffsetOuter1" result="shadowBlurOuter1"></feGaussianBlur>
            <feComposite in="shadowBlurOuter1" in2="SourceAlpha" operator="out" result="shadowBlurOuter1"></feComposite>
            <feColorMatrix values="0 0 0 0 1   0 0 0 0 1   0 0 0 0 1  0 0 0 0.5 0" type="matrix" in="shadowBlurOuter1"></feColorMatrix>
        </filter>
        <rect id="path-7" x="41.2306186" y="52.7228706" width="4.83" height="4.83" rx="0.86"></rect>
        <filter x="-196.7%" y="-196.7%" width="493.4%" height="493.4%" filterUnits="objectBoundingBox" id="filter-8">
            <feMorphology radius="0.5" operator="dilate" in="SourceAlpha" result="shadowSpreadOuter1"></feMorphology>
            <feOffset dx="0" dy="0" in="shadowSpreadOuter1" result="shadowOffsetOuter1"></feOffset>
            <feGaussianBlur stdDeviation="3" in="shadowOffsetOuter1" result="shadowBlurOuter1"></feGaussianBlur>
            <feComposite in="shadowBlurOuter1" in2="SourceAlpha" operator="out" result="shadowBlurOuter1"></feComposite>
            <feColorMatrix values="0 0 0 0 1   0 0 0 0 1   0 0 0 0 1  0 0 0 0.5 0" type="matrix" in="shadowBlurOuter1"></feColorMatrix>
        </filter>
    </defs>
    <g id="草稿" stroke="none" stroke-width="1" fill="none" fill-rule="evenodd">
        <g id="画板" transform="translate(-150.000000, -258.000000)">
            <g id="397_冰雹-01" transform="translate(150.000000, 258.000000)">
                <rect id="矩形" x="0" y="0" width="80" height="80"></rect>
                <g id="形状" transform="translate(8.000000, 11.000000)" fill-rule="nonzero">
                    <g>
                        <use fill="black" fill-opacity="1" filter="url(#filter-2)" xlink:href="#path-1"></use>
                        <use stroke="#FFFFFF" stroke-width="1" fill="#E0F2FF" xlink:href="#path-1"></use>
                    </g>
                    <g id="矩形" transform="translate(18.655020, 55.138469) rotate(-45.000000) translate(-18.655020, -55.138469) ">
                        <use fill="black" fill-opacity="1" filter="url(#filter-4)" xlink:href="#path-3"></use>
                        <use stroke="#FFFFFF" stroke-width="1" fill="#E0F2FF" xlink:href="#path-3"></use>
                    </g>
                    <g id="矩形" transform="translate(31.153855, 55.129634) rotate(-45.000000) translate(-31.153855, -55.129634) ">
                        <use fill="black" fill-opacity="1" filter="url(#filter-6)" xlink:href="#path-5"></use>
                        <use stroke="#FFFFFF" stroke-width="1" fill="#E0F2FF" xlink:href="#path-5"></use>
                    </g>
                    <g id="矩形" transform="translate(43.645619, 55.137871) rotate(-45.000000) translate(-43.645619, -55.137871) ">
                        <use fill="black" fill-opacity="1" filter="url(#filter-8)" xlink:href="#path-7"></use>
                        <use stroke="#FFFFFF" stroke-width="1" fill="#E0F2FF" xlink:href="#path-7"></use>
                    </g>
                </g>
            </g>
        </g>
    </g>
</svg>