<?xml version="1.0" encoding="UTF-8"?>
<svg width="80px" height="80px" viewBox="0 0 80 80" version="1.1" xmlns="http://www.w3.org/2000/svg" xmlns:xlink="http://www.w3.org/1999/xlink">
    <title>401_中雪-01</title>
    <defs>
        <path d="M42.1012332,53.8904567 L40.8012332,53.4204567 L41.8012332,52.3504567 C41.9539195,52.2000908 42.0398955,51.9947533 42.0398955,51.7804567 C42.0398955,51.5661602 41.9539195,51.3608226 41.8012332,51.2104567 C41.8012332,51.2104567 41.8012332,51.2104567 41.8012332,51.2104567 C41.4499873,50.8900645 40.9124791,50.8900645 40.5612332,51.2104567 L39.8512332,51.9504567 L39.6412332,50.8604567 C39.5987456,50.6406196 39.4671549,50.4481759 39.2777106,50.328826 C39.0882663,50.2094761 38.8578693,50.1738676 38.6412332,50.2304567 L38.6412332,50.2304567 C38.1965571,50.3470787 37.9062195,50.7740457 37.9612332,51.2304567 L38.1812332,52.3804567 L36.9312332,52.0004567 C36.5040721,51.8836952 36.0613731,52.1271796 35.9312332,52.5504567 C35.8905973,52.7112626 35.8905973,52.8796509 35.9312332,53.0404567 C35.998341,53.3288793 36.2045076,53.5650338 36.4812332,53.6704567 L37.7812332,54.1404567 L36.7812332,55.2104567 C36.4697266,55.5227187 36.4697266,56.0281947 36.7812332,56.3404567 L36.8412332,56.3404567 C36.9683283,56.4456855 37.1194873,56.5178296 37.2812332,56.5504567 C37.5746141,56.6032318 37.8749347,56.5056276 38.0812332,56.2904567 L38.7912332,55.5504567 L39.0012332,56.7004567 C39.0437209,56.9202938 39.1753115,57.1127376 39.3647558,57.2320875 C39.5542001,57.3514374 39.7845971,57.3870458 40.0012332,57.3304567 L40.0012332,57.3304567 C40.4459093,57.2138348 40.7362469,56.7868677 40.6812332,56.3304567 L40.4612332,55.1804567 L41.6412332,55.6204567 C41.8441238,55.6828606 42.0634978,55.6620715 42.2510544,55.5626665 C42.438611,55.4632615 42.578972,55.2933911 42.6412332,55.0904567 L42.6412332,55.0904567 C42.8096742,54.6129848 42.5652095,54.0884968 42.0912332,53.9104567 L42.1012332,53.8904567 Z" id="path-1"></path>
        <filter x="-139.2%" y="-132.6%" width="379.0%" height="365.3%" filterUnits="objectBoundingBox" id="filter-2">
            <feMorphology radius="0.5" operator="dilate" in="SourceAlpha" result="shadowSpreadOuter1"></feMorphology>
            <feOffset dx="0" dy="0" in="shadowSpreadOuter1" result="shadowOffsetOuter1"></feOffset>
            <feGaussianBlur stdDeviation="3" in="shadowOffsetOuter1" result="shadowBlurOuter1"></feGaussianBlur>
            <feComposite in="shadowBlurOuter1" in2="SourceAlpha" operator="out" result="shadowBlurOuter1"></feComposite>
            <feColorMatrix values="0 0 0 0 1   0 0 0 0 1   0 0 0 0 1  0 0 0 0.5 0" type="matrix" in="shadowBlurOuter1"></feColorMatrix>
        </filter>
        <path d="M26.1012332,53.8904567 L24.8012332,53.4204567 L25.8012332,52.3504567 C25.9539195,52.2000908 26.0398955,51.9947533 26.0398955,51.7804567 C26.0398955,51.5661602 25.9539195,51.3608226 25.8012332,51.2104567 C25.8012332,51.2104567 25.8012332,51.2104567 25.8012332,51.2104567 C25.4499873,50.8900645 24.9124791,50.8900645 24.5612332,51.2104567 L23.8512332,51.9504567 L23.6412332,50.8604567 C23.5987456,50.6406196 23.4671549,50.4481759 23.2777106,50.328826 C23.0882663,50.2094761 22.8578693,50.1738676 22.6412332,50.2304567 L22.6412332,50.2304567 C22.1965571,50.3470787 21.9062195,50.7740457 21.9612332,51.2304567 L22.1812332,52.3804567 L20.9312332,52.0004567 C20.5160497,51.8850964 20.0816393,52.1066457 19.9312332,52.5104567 L19.9312332,52.5104567 C19.8905973,52.6712626 19.8905973,52.8396509 19.9312332,53.0004567 C19.998341,53.2888793 20.2045076,53.5250338 20.4812332,53.6304567 L21.7812332,54.1004567 L20.7812332,55.1704567 C20.4697266,55.4827187 20.4697266,55.9881947 20.7812332,56.3004567 L20.8412332,56.3004567 C20.9683283,56.4056855 21.1194873,56.4778296 21.2812332,56.5104567 C21.5746141,56.5632318 21.8749347,56.4656276 22.0812332,56.2504567 L22.7912332,55.5104567 L23.0012332,56.7004567 C23.0437209,56.9202938 23.1753115,57.1127376 23.3647558,57.2320875 C23.5542001,57.3514374 23.7845971,57.3870458 24.0012332,57.3304567 L24.0012332,57.3304567 C24.4459093,57.2138348 24.7362469,56.7868677 24.6812332,56.3304567 L24.4612332,55.1804567 L25.6412332,55.6204567 C25.8441238,55.6828606 26.0634978,55.6620715 26.2510544,55.5626665 C26.438611,55.4632615 26.578972,55.2933911 26.6412332,55.0904567 L26.6412332,55.0904567 C26.7317133,54.8599216 26.7254282,54.602644 26.6237993,54.376802 C26.5221704,54.1509599 26.3337816,53.975629 26.1012332,53.8904567 Z" id="path-3"></path>
        <filter x="-139.0%" y="-132.6%" width="378.6%" height="365.3%" filterUnits="objectBoundingBox" id="filter-4">
            <feMorphology radius="0.5" operator="dilate" in="SourceAlpha" result="shadowSpreadOuter1"></feMorphology>
            <feOffset dx="0" dy="0" in="shadowSpreadOuter1" result="shadowOffsetOuter1"></feOffset>
            <feGaussianBlur stdDeviation="3" in="shadowOffsetOuter1" result="shadowBlurOuter1"></feGaussianBlur>
            <feComposite in="shadowBlurOuter1" in2="SourceAlpha" operator="out" result="shadowBlurOuter1"></feComposite>
            <feColorMatrix values="0 0 0 0 1   0 0 0 0 1   0 0 0 0 1  0 0 0 0.5 0" type="matrix" in="shadowBlurOuter1"></feColorMatrix>
        </filter>
        <path d="M42.3412332,41.6204567 L16.4512332,41.6204567 C9.27153146,41.6204567 3.45123321,35.8001585 3.45123321,28.6204567 C3.4579782,26.5272736 3.97636017,24.4674777 4.96123321,22.6204567 C5.01123609,22.5021066 5.07146422,22.3883424 5.14123321,22.2804567 C5.4388785,21.7798028 5.7731224,21.301834 6.14123321,20.8504567 L6.41123321,20.4904567 C6.76565437,20.057476 7.14992533,19.6498147 7.56123321,19.2704567 C7.67123321,19.1604567 7.78123321,19.0504567 7.90123321,18.9504567 C8.33525192,18.5916228 8.7893177,18.2577509 9.26123321,17.9504567 L9.59123321,17.7304567 C10.1229793,17.3920879 10.6815076,17.0977736 11.2612332,16.8504567 L11.4312332,16.7704567 C12.0801972,16.4947233 12.7486925,16.2674349 13.4312332,16.0904567 L13.4312332,16.0904567 C15.046824,15.6913297 16.7245608,15.6098202 18.3712332,15.8504567 C18.9696531,15.9397731 19.5702656,15.7030517 19.9468258,15.2294631 C20.323386,14.7558745 20.4186854,14.1173681 20.1968258,13.5544631 C19.9749661,12.9915581 19.4696531,12.5897731 18.8712332,12.5004567 C17.7444394,12.3506931 16.6057817,12.3105052 15.4712332,12.3804567 C17.448326,7.75711566 21.6348574,4.4516552 26.5907353,3.60109483 C31.5466132,2.75053446 36.5957126,4.4709152 40.0012332,8.17045672 C39.0938698,8.28295343 38.1951528,8.45668312 37.3112332,8.69045672 C32.5634693,10.0103837 28.5390127,13.170914 26.1312332,17.4704567 C25.6731722,18.2768343 25.9551642,19.3018529 26.7612332,19.7604567 L26.7612332,19.7604567 C27.0159355,19.8988917 27.3013417,19.9711029 27.5912332,19.9704567 C28.2075654,19.9769508 28.7785549,19.6473864 29.0812332,19.1104567 C31.9029736,14.1280871 37.2808134,11.1494129 43.0012332,11.4004567 L43.1312332,11.4004567 C51.3250438,11.8214093 57.6856901,18.7041544 57.4602841,26.905674 C57.2348781,35.1071937 50.5057959,41.6301879 42.3012332,41.6004567 L42.3412332,41.6204567 Z M51.5512332,10.4604567 C51.5111064,10.4201603 51.4676154,10.3833603 51.4212332,10.3504567 C51.3712332,10.3504567 51.0812332,10.1904567 50.9212332,10.1004567 L50.6812332,10.0004567 C48.6637755,8.98240276 46.4784163,8.33865356 44.2312332,8.10045672 C40.8274239,3.05546926 35.1470637,0.0224490007 29.0612332,0.000227067684 C20.9690288,-0.0400820607 13.8309036,5.29004452 11.5712332,13.0604567 L11.0412332,13.2504567 L10.4312332,13.4704567 C7.43220585,14.6406968 4.84685743,16.6727876 3.00123321,19.3104567 L3.00123321,19.3104567 C2.75123321,19.6604567 2.51123321,20.0304567 2.29123321,20.4104567 L2.21123321,20.5504567 C2.01123321,20.9004567 1.83123321,21.2604567 1.65123321,21.6204567 L1.56123321,21.8204567 C1.39123321,22.1804567 1.24123321,22.5504567 1.10123321,22.9204567 L1.00123321,23.1004567 L1.00123321,23.1004567 C-0.846540321,28.1231213 -0.107756507,33.7331282 2.97734244,38.106181 C6.06244138,42.4792339 11.0997603,45.0567125 16.4512332,45.0004567 L42.3412332,45.0004567 C50.7581025,45.0662489 58.1536752,39.4301125 60.3223078,31.2971518 C62.4909403,23.164191 58.8834185,14.5941085 51.5512332,10.4604567 L51.5512332,10.4604567 Z" id="path-5"></path>
        <filter x="-15.6%" y="-21.1%" width="131.2%" height="142.2%" filterUnits="objectBoundingBox" id="filter-6">
            <feMorphology radius="0.5" operator="dilate" in="SourceAlpha" result="shadowSpreadOuter1"></feMorphology>
            <feOffset dx="0" dy="0" in="shadowSpreadOuter1" result="shadowOffsetOuter1"></feOffset>
            <feGaussianBlur stdDeviation="3" in="shadowOffsetOuter1" result="shadowBlurOuter1"></feGaussianBlur>
            <feComposite in="shadowBlurOuter1" in2="SourceAlpha" operator="out" result="shadowBlurOuter1"></feComposite>
            <feColorMatrix values="0 0 0 0 1   0 0 0 0 1   0 0 0 0 1  0 0 0 0.5 0" type="matrix" in="shadowBlurOuter1"></feColorMatrix>
        </filter>
    </defs>
    <g id="草稿" stroke="none" stroke-width="1" fill="none" fill-rule="evenodd">
        <g id="画板" transform="translate(-774.000000, -258.000000)">
            <g id="401_中雪-01" transform="translate(774.000000, 258.000000)">
                <rect id="矩形" x="0" y="0" width="80" height="80"></rect>
                <g id="形状" transform="translate(10.000000, 11.000000)" fill-rule="nonzero">
                    <g id="路径">
                        <use fill="black" fill-opacity="1" filter="url(#filter-2)" xlink:href="#path-1"></use>
                        <use stroke="#FFFFFF" stroke-width="1" fill="#E0F2FF" xlink:href="#path-1"></use>
                    </g>
                    <g id="路径">
                        <use fill="black" fill-opacity="1" filter="url(#filter-4)" xlink:href="#path-3"></use>
                        <use stroke="#FFFFFF" stroke-width="1" fill="#E0F2FF" xlink:href="#path-3"></use>
                    </g>
                    <g>
                        <use fill="black" fill-opacity="1" filter="url(#filter-6)" xlink:href="#path-5"></use>
                        <use stroke="#FFFFFF" stroke-width="1" fill="#E0F2FF" xlink:href="#path-5"></use>
                    </g>
                </g>
            </g>
        </g>
    </g>
</svg>