<?xml version="1.0" encoding="UTF-8"?>
<svg width="80px" height="80px" viewBox="0 0 80 80" version="1.1" xmlns="http://www.w3.org/2000/svg" xmlns:xlink="http://www.w3.org/1999/xlink">
    <title>403_暴雪-01</title>
    <defs>
        <path d="M24.6012332,51.8904567 L23.3012332,51.4204567 L24.3012332,50.3504567 C24.4539195,50.2000908 24.5398955,49.9947533 24.5398955,49.7804567 C24.5398955,49.5661602 24.4539195,49.3608226 24.3012332,49.2104567 C24.3012332,49.2104567 24.3012332,49.2104567 24.3012332,49.2104567 C23.9499873,48.8900645 23.4124791,48.8900645 23.0612332,49.2104567 L22.3512332,49.9504567 L22.1412332,48.8604567 C22.0987456,48.6406196 21.9671549,48.4481759 21.7777106,48.328826 C21.5882663,48.2094761 21.3578693,48.1738676 21.1412332,48.2304567 L21.1412332,48.2304567 C20.6965571,48.3470787 20.4062195,48.7740457 20.4612332,49.2304567 L20.6812332,50.3804567 L19.4312332,50.0004567 C19.0160497,49.8850964 18.5816393,50.1066457 18.4312332,50.5104567 L18.4312332,50.5104567 C18.3905973,50.6712626 18.3905973,50.8396509 18.4312332,51.0004567 C18.498341,51.2888793 18.7045076,51.5250338 18.9812332,51.6304567 L20.2812332,52.1004567 L19.2812332,53.1704567 C18.9697266,53.4827187 18.9697266,53.9881947 19.2812332,54.3004567 L19.3412332,54.3004567 C19.4683283,54.4056855 19.6194873,54.4778296 19.7812332,54.5104567 C20.0746141,54.5632318 20.3749347,54.4656276 20.5812332,54.2504567 L21.2912332,53.5104567 L21.5012332,54.6104567 C21.5437209,54.8302938 21.6753115,55.0227376 21.8647558,55.1420875 C22.0542001,55.2614374 22.2845971,55.2970458 22.5012332,55.2404567 L22.5012332,55.2404567 C22.9459093,55.1238348 23.2362469,54.6968677 23.1812332,54.2404567 L22.9612332,53.0904567 L24.1412332,53.5304567 C24.3441238,53.5928606 24.5634978,53.5720715 24.7510544,53.4726665 C24.938611,53.3732615 25.078972,53.2033911 25.1412332,53.0004567 L25.1412332,53.0004567 C25.2729904,52.5466849 25.0395736,52.0668838 24.6012332,51.8904567 L24.6012332,51.8904567 Z" id="path-1"></path>
        <filter x="-139.5%" y="-134.3%" width="379.7%" height="368.6%" filterUnits="objectBoundingBox" id="filter-2">
            <feMorphology radius="0.5" operator="dilate" in="SourceAlpha" result="shadowSpreadOuter1"></feMorphology>
            <feOffset dx="0" dy="0" in="shadowSpreadOuter1" result="shadowOffsetOuter1"></feOffset>
            <feGaussianBlur stdDeviation="3" in="shadowOffsetOuter1" result="shadowBlurOuter1"></feGaussianBlur>
            <feComposite in="shadowBlurOuter1" in2="SourceAlpha" operator="out" result="shadowBlurOuter1"></feComposite>
            <feColorMatrix values="0 0 0 0 1   0 0 0 0 1   0 0 0 0 1  0 0 0 0.5 0" type="matrix" in="shadowBlurOuter1"></feColorMatrix>
        </filter>
        <path d="M16.1012332,59.8904567 L14.8012332,59.4204567 L15.8012332,58.3504567 C15.9539195,58.2000908 16.0398955,57.9947533 16.0398955,57.7804567 C16.0398955,57.5661602 15.9539195,57.3608226 15.8012332,57.2104567 L15.8012332,57.2104567 C15.4499873,56.8900645 14.9124791,56.8900645 14.5612332,57.2104567 L13.8512332,57.9504567 L13.6412332,56.8604567 C13.5987456,56.6406196 13.4671549,56.4481759 13.2777106,56.328826 C13.0882663,56.2094761 12.8578693,56.1738676 12.6412332,56.2304567 L12.6412332,56.2304567 C12.1965571,56.3470787 11.9062195,56.7740457 11.9612332,57.2304567 L12.1812332,58.3804567 L10.9312332,58.0004567 C10.5160497,57.8850964 10.0816393,58.1066457 9.93123321,58.5104567 L9.93123321,58.5104567 C9.89059731,58.6712626 9.89059731,58.8396509 9.93123321,59.0004567 C9.99834099,59.2888793 10.2045076,59.5250338 10.4812332,59.6304567 L11.7812332,60.1004567 L10.7812332,61.1704567 C10.4697266,61.4827187 10.4697266,61.9881947 10.7812332,62.3004567 L10.8412332,62.3004567 C10.9683283,62.4056855 11.1194873,62.4778296 11.2812332,62.5104567 C11.5746141,62.5632318 11.8749347,62.4656276 12.0812332,62.2504567 L12.7912332,61.5104567 L13.0012332,62.7004567 C13.0437209,62.9202938 13.1753115,63.1127376 13.3647558,63.2320875 C13.5542001,63.3514374 13.7845971,63.3870458 14.0012332,63.3304567 L14.0012332,63.3304567 C14.4459093,63.2138348 14.7362469,62.7868677 14.6812332,62.3304567 L14.4612332,61.1804567 L15.6412332,61.6204567 C16.0608132,61.7512274 16.5073194,61.5190441 16.6412332,61.1004567 C16.6412332,61.1004567 16.6412332,61.0404567 16.6412332,61.0104567 C16.7789284,60.5535762 16.5444515,60.0672539 16.1012332,59.8904567 L16.1012332,59.8904567 Z" id="path-3"></path>
        <filter x="-139.5%" y="-132.6%" width="379.6%" height="365.3%" filterUnits="objectBoundingBox" id="filter-4">
            <feMorphology radius="0.5" operator="dilate" in="SourceAlpha" result="shadowSpreadOuter1"></feMorphology>
            <feOffset dx="0" dy="0" in="shadowSpreadOuter1" result="shadowOffsetOuter1"></feOffset>
            <feGaussianBlur stdDeviation="3" in="shadowOffsetOuter1" result="shadowBlurOuter1"></feGaussianBlur>
            <feComposite in="shadowBlurOuter1" in2="SourceAlpha" operator="out" result="shadowBlurOuter1"></feComposite>
            <feColorMatrix values="0 0 0 0 1   0 0 0 0 1   0 0 0 0 1  0 0 0 0.5 0" type="matrix" in="shadowBlurOuter1"></feColorMatrix>
        </filter>
        <path d="M50.1012332,59.8904567 L48.8012332,59.4204567 L49.8012332,58.3504567 C49.9539195,58.2000908 50.0398955,57.9947533 50.0398955,57.7804567 C50.0398955,57.5661602 49.9539195,57.3608226 49.8012332,57.2104567 C49.8012332,57.2104567 49.8012332,57.2104567 49.8012332,57.2104567 C49.4499873,56.8900645 48.9124791,56.8900645 48.5612332,57.2104567 L47.8512332,57.9504567 L47.6412332,56.8604567 C47.5987456,56.6406196 47.4671549,56.4481759 47.2777106,56.328826 C47.0882663,56.2094761 46.8578693,56.1738676 46.6412332,56.2304567 L46.6412332,56.2304567 C46.1965571,56.3470787 45.9062195,56.7740457 45.9612332,57.2304567 L46.1812332,58.3804567 L44.9312332,58.0004567 C44.5040721,57.8836952 44.0613731,58.1271796 43.9312332,58.5504567 C43.8905973,58.7112626 43.8905973,58.8796509 43.9312332,59.0404567 C43.998341,59.3288793 44.2045076,59.5650338 44.4812332,59.6704567 L45.7812332,60.1404567 L44.7812332,61.2104567 C44.4697266,61.5227187 44.4697266,62.0281947 44.7812332,62.3404567 L44.8412332,62.3404567 C44.9683283,62.4456855 45.1194873,62.5178296 45.2812332,62.5504567 C45.5746141,62.6032318 45.8749347,62.5056276 46.0812332,62.2904567 L46.7912332,61.5504567 L47.0012332,62.7004567 C47.0437209,62.9202938 47.1753115,63.1127376 47.3647558,63.2320875 C47.5542001,63.3514374 47.7845971,63.3870458 48.0012332,63.3304567 L48.0012332,63.3304567 C48.4459093,63.2138348 48.7362469,62.7868677 48.6812332,62.3304567 L48.4612332,61.1804567 L49.6412332,61.6204567 C49.8441238,61.6828606 50.0634978,61.6620715 50.2510544,61.5626665 C50.438611,61.4632615 50.578972,61.2933911 50.6412332,61.0904567 L50.6412332,61.0904567 C50.8096742,60.6129848 50.5652095,60.0884968 50.0912332,59.9104567 L50.1012332,59.8904567 Z" id="path-5"></path>
        <filter x="-139.2%" y="-132.6%" width="379.0%" height="365.3%" filterUnits="objectBoundingBox" id="filter-6">
            <feMorphology radius="0.5" operator="dilate" in="SourceAlpha" result="shadowSpreadOuter1"></feMorphology>
            <feOffset dx="0" dy="0" in="shadowSpreadOuter1" result="shadowOffsetOuter1"></feOffset>
            <feGaussianBlur stdDeviation="3" in="shadowOffsetOuter1" result="shadowBlurOuter1"></feGaussianBlur>
            <feComposite in="shadowBlurOuter1" in2="SourceAlpha" operator="out" result="shadowBlurOuter1"></feComposite>
            <feColorMatrix values="0 0 0 0 1   0 0 0 0 1   0 0 0 0 1  0 0 0 0.5 0" type="matrix" in="shadowBlurOuter1"></feColorMatrix>
        </filter>
        <path d="M41.6012332,51.8904567 L40.3012332,51.4204567 L41.3012332,50.3504567 C41.4539195,50.2000908 41.5398955,49.9947533 41.5398955,49.7804567 C41.5398955,49.5661602 41.4539195,49.3608226 41.3012332,49.2104567 C41.3012332,49.2104567 41.3012332,49.2104567 41.3012332,49.2104567 C40.9499873,48.8900645 40.4124791,48.8900645 40.0612332,49.2104567 L39.3512332,49.9504567 L39.1412332,48.8604567 C39.0987456,48.6406196 38.9671549,48.4481759 38.7777106,48.328826 C38.5882663,48.2094761 38.3578693,48.1738676 38.1412332,48.2304567 L38.1412332,48.2304567 C37.6965571,48.3470787 37.4062195,48.7740457 37.4612332,49.2304567 L37.6812332,50.3804567 L36.4312332,50.0004567 C36.0040721,49.8836952 35.5613731,50.1271796 35.4312332,50.5504567 C35.3905973,50.7112626 35.3905973,50.8796509 35.4312332,51.0404567 C35.498341,51.3288793 35.7045076,51.5650338 35.9812332,51.6704567 L37.2812332,52.1404567 L36.2812332,53.2104567 C35.9697266,53.5227187 35.9697266,54.0281947 36.2812332,54.3404567 L36.3412332,54.3404567 C36.4683283,54.4456855 36.6194873,54.5178296 36.7812332,54.5504567 C37.0746141,54.6032318 37.3749347,54.5056276 37.5812332,54.2904567 L38.2912332,53.5504567 L38.5012332,54.6504567 C38.5437209,54.8702938 38.6753115,55.0627376 38.8647558,55.1820875 C39.0542001,55.3014374 39.2845971,55.3370458 39.5012332,55.2804567 L39.5012332,55.2804567 C39.9459093,55.1638348 40.2362469,54.7368677 40.1812332,54.2804567 L40.0012332,53.1704567 L41.1812332,53.6104567 C41.3841238,53.6728606 41.6034978,53.6520715 41.7910544,53.5526665 C41.978611,53.4532615 42.118972,53.2833911 42.1812332,53.0804567 L42.1812332,53.0804567 C42.3496742,52.6029848 42.1052095,52.0784968 41.6312332,51.9004567 L41.6012332,51.8904567 Z" id="path-7"></path>
        <filter x="-138.4%" y="-133.6%" width="377.4%" height="367.1%" filterUnits="objectBoundingBox" id="filter-8">
            <feMorphology radius="0.5" operator="dilate" in="SourceAlpha" result="shadowSpreadOuter1"></feMorphology>
            <feOffset dx="0" dy="0" in="shadowSpreadOuter1" result="shadowOffsetOuter1"></feOffset>
            <feGaussianBlur stdDeviation="3" in="shadowOffsetOuter1" result="shadowBlurOuter1"></feGaussianBlur>
            <feComposite in="shadowBlurOuter1" in2="SourceAlpha" operator="out" result="shadowBlurOuter1"></feComposite>
            <feColorMatrix values="0 0 0 0 1   0 0 0 0 1   0 0 0 0 1  0 0 0 0.5 0" type="matrix" in="shadowBlurOuter1"></feColorMatrix>
        </filter>
        <path d="M33.1012332,59.8904567 L31.8012332,59.4204567 L32.8012332,58.3504567 C32.9539195,58.2000908 33.0398955,57.9947533 33.0398955,57.7804567 C33.0398955,57.5661602 32.9539195,57.3608226 32.8012332,57.2104567 C32.8012332,57.2104567 32.8012332,57.2104567 32.8012332,57.2104567 C32.4499873,56.8900645 31.9124791,56.8900645 31.5612332,57.2104567 L30.8512332,57.9504567 L30.6412332,56.8604567 C30.5987456,56.6406196 30.4671549,56.4481759 30.2777106,56.328826 C30.0882663,56.2094761 29.8578693,56.1738676 29.6412332,56.2304567 L29.6412332,56.2304567 C29.1965571,56.3470787 28.9062195,56.7740457 28.9612332,57.2304567 L29.1812332,58.3804567 L27.9312332,58.0004567 C27.5040721,57.8836952 27.0613731,58.1271796 26.9312332,58.5504567 C26.8905973,58.7112626 26.8905973,58.8796509 26.9312332,59.0404567 C26.998341,59.3288793 27.2045076,59.5650338 27.4812332,59.6704567 L28.7812332,60.1404567 L27.7812332,61.2104567 C27.4697266,61.5227187 27.4697266,62.0281947 27.7812332,62.3404567 L27.8412332,62.3404567 C27.9683283,62.4456855 28.1194873,62.5178296 28.2812332,62.5504567 C28.5746141,62.6032318 28.8749347,62.5056276 29.0812332,62.2904567 L29.7912332,61.5504567 L30.0012332,62.7004567 C30.0437209,62.9202938 30.1753115,63.1127376 30.3647558,63.2320875 C30.5542001,63.3514374 30.7845971,63.3870458 31.0012332,63.3304567 L31.0012332,63.3304567 C31.4459093,63.2138348 31.7362469,62.7868677 31.6812332,62.3304567 L31.4612332,61.1804567 L32.6412332,61.6204567 C32.8441238,61.6828606 33.0634978,61.6620715 33.2510544,61.5626665 C33.438611,61.4632615 33.578972,61.2933911 33.6412332,61.0904567 L33.6412332,61.0904567 C33.8096742,60.6129848 33.5652095,60.0884968 33.0912332,59.9104567 L33.1012332,59.8904567 Z" id="path-9"></path>
        <filter x="-139.2%" y="-132.6%" width="379.0%" height="365.3%" filterUnits="objectBoundingBox" id="filter-10">
            <feMorphology radius="0.5" operator="dilate" in="SourceAlpha" result="shadowSpreadOuter1"></feMorphology>
            <feOffset dx="0" dy="0" in="shadowSpreadOuter1" result="shadowOffsetOuter1"></feOffset>
            <feGaussianBlur stdDeviation="3" in="shadowOffsetOuter1" result="shadowBlurOuter1"></feGaussianBlur>
            <feComposite in="shadowBlurOuter1" in2="SourceAlpha" operator="out" result="shadowBlurOuter1"></feComposite>
            <feColorMatrix values="0 0 0 0 1   0 0 0 0 1   0 0 0 0 1  0 0 0 0.5 0" type="matrix" in="shadowBlurOuter1"></feColorMatrix>
        </filter>
        <path d="M42.3412332,41.6204567 L16.4512332,41.6204567 C9.27153146,41.6204567 3.45123321,35.8001585 3.45123321,28.6204567 C3.4579782,26.5272736 3.97636017,24.4674777 4.96123321,22.6204567 C5.01123609,22.5021066 5.07146422,22.3883424 5.14123321,22.2804567 C5.4388785,21.7798028 5.7731224,21.301834 6.14123321,20.8504567 L6.41123321,20.4904567 C6.76565437,20.057476 7.14992533,19.6498147 7.56123321,19.2704567 C7.67123321,19.1604567 7.78123321,19.0504567 7.90123321,18.9504567 C8.33525192,18.5916228 8.7893177,18.2577509 9.26123321,17.9504567 L9.59123321,17.7304567 C10.1229793,17.3920879 10.6815076,17.0977736 11.2612332,16.8504567 L11.4312332,16.7704567 C12.0801972,16.4947233 12.7486925,16.2674349 13.4312332,16.0904567 L13.4312332,16.0904567 C15.046824,15.6913297 16.7245608,15.6098202 18.3712332,15.8504567 C18.9696531,15.9397731 19.5702656,15.7030517 19.9468258,15.2294631 C20.323386,14.7558745 20.4186854,14.1173681 20.1968258,13.5544631 C19.9749661,12.9915581 19.4696531,12.5897731 18.8712332,12.5004567 C17.7444394,12.3506931 16.6057817,12.3105052 15.4712332,12.3804567 C17.448326,7.75711566 21.6348574,4.4516552 26.5907353,3.60109483 C31.5466132,2.75053446 36.5957126,4.4709152 40.0012332,8.17045672 C39.0938698,8.28295343 38.1951528,8.45668312 37.3112332,8.69045672 C32.5634693,10.0103837 28.5390127,13.170914 26.1312332,17.4704567 C25.6731722,18.2768343 25.9551642,19.3018529 26.7612332,19.7604567 L26.7612332,19.7604567 C27.0159355,19.8988917 27.3013417,19.9711029 27.5912332,19.9704567 C28.2075654,19.9769508 28.7785549,19.6473864 29.0812332,19.1104567 C31.9029736,14.1280871 37.2808134,11.1494129 43.0012332,11.4004567 L43.1312332,11.4004567 C51.3250438,11.8214093 57.6856901,18.7041544 57.4602841,26.905674 C57.2348781,35.1071937 50.5057959,41.6301879 42.3012332,41.6004567 L42.3412332,41.6204567 Z M51.5512332,10.4604567 C51.5111064,10.4201603 51.4676154,10.3833603 51.4212332,10.3504567 C51.3712332,10.3504567 51.0812332,10.1904567 50.9212332,10.1004567 L50.6812332,10.0004567 C48.6637755,8.98240276 46.4784163,8.33865356 44.2312332,8.10045672 C40.8274239,3.05546926 35.1470637,0.0224490007 29.0612332,0.000227067684 C20.9690288,-0.0400820607 13.8309036,5.29004452 11.5712332,13.0604567 L11.0412332,13.2504567 L10.4312332,13.4704567 C7.43220585,14.6406968 4.84685743,16.6727876 3.00123321,19.3104567 L3.00123321,19.3104567 C2.75123321,19.6604567 2.51123321,20.0304567 2.29123321,20.4104567 L2.21123321,20.5504567 C2.01123321,20.9004567 1.83123321,21.2604567 1.65123321,21.6204567 L1.56123321,21.8204567 C1.39123321,22.1804567 1.24123321,22.5504567 1.10123321,22.9204567 L1.00123321,23.1004567 L1.00123321,23.1004567 C-0.846540321,28.1231213 -0.107756507,33.7331282 2.97734244,38.106181 C6.06244138,42.4792339 11.0997603,45.0567125 16.4512332,45.0004567 L42.3412332,45.0004567 C50.7581025,45.0662489 58.1536752,39.4301125 60.3223078,31.2971518 C62.4909403,23.164191 58.8834185,14.5941085 51.5512332,10.4604567 L51.5512332,10.4604567 Z" id="path-11"></path>
        <filter x="-15.6%" y="-21.1%" width="131.2%" height="142.2%" filterUnits="objectBoundingBox" id="filter-12">
            <feMorphology radius="0.5" operator="dilate" in="SourceAlpha" result="shadowSpreadOuter1"></feMorphology>
            <feOffset dx="0" dy="0" in="shadowSpreadOuter1" result="shadowOffsetOuter1"></feOffset>
            <feGaussianBlur stdDeviation="3" in="shadowOffsetOuter1" result="shadowBlurOuter1"></feGaussianBlur>
            <feComposite in="shadowBlurOuter1" in2="SourceAlpha" operator="out" result="shadowBlurOuter1"></feComposite>
            <feColorMatrix values="0 0 0 0 1   0 0 0 0 1   0 0 0 0 1  0 0 0 0.5 0" type="matrix" in="shadowBlurOuter1"></feColorMatrix>
        </filter>
    </defs>
    <g id="草稿" stroke="none" stroke-width="1" fill="none" fill-rule="evenodd">
        <g id="画板" transform="translate(-982.000000, -258.000000)">
            <g id="403_暴雪-01" transform="translate(982.000000, 258.000000)">
                <rect id="矩形" x="0" y="0" width="80" height="80"></rect>
                <g id="形状" transform="translate(9.000000, 8.000000)" fill-rule="nonzero">
                    <g id="路径">
                        <use fill="black" fill-opacity="1" filter="url(#filter-2)" xlink:href="#path-1"></use>
                        <use stroke="#FFFFFF" stroke-width="1" fill="#E0F2FF" xlink:href="#path-1"></use>
                    </g>
                    <g id="路径">
                        <use fill="black" fill-opacity="1" filter="url(#filter-4)" xlink:href="#path-3"></use>
                        <use stroke="#FFFFFF" stroke-width="1" fill="#E0F2FF" xlink:href="#path-3"></use>
                    </g>
                    <g id="路径">
                        <use fill="black" fill-opacity="1" filter="url(#filter-6)" xlink:href="#path-5"></use>
                        <use stroke="#FFFFFF" stroke-width="1" fill="#E0F2FF" xlink:href="#path-5"></use>
                    </g>
                    <g id="路径">
                        <use fill="black" fill-opacity="1" filter="url(#filter-8)" xlink:href="#path-7"></use>
                        <use stroke="#FFFFFF" stroke-width="1" fill="#E0F2FF" xlink:href="#path-7"></use>
                    </g>
                    <g id="路径">
                        <use fill="black" fill-opacity="1" filter="url(#filter-10)" xlink:href="#path-9"></use>
                        <use stroke="#FFFFFF" stroke-width="1" fill="#E0F2FF" xlink:href="#path-9"></use>
                    </g>
                    <g>
                        <use fill="black" fill-opacity="1" filter="url(#filter-12)" xlink:href="#path-11"></use>
                        <use stroke="#FFFFFF" stroke-width="1" fill="#E0F2FF" xlink:href="#path-11"></use>
                    </g>
                </g>
            </g>
        </g>
    </g>
</svg>