<?xml version="1.0" encoding="UTF-8"?>
<svg width="80px" height="80px" viewBox="0 0 80 80" version="1.1" xmlns="http://www.w3.org/2000/svg" xmlns:xlink="http://www.w3.org/1999/xlink">
    <title>407_阵雪-01</title>
    <defs>
        <path d="M40.7400566,6.18529361 C40.3407619,6.18529361 40.0155264,5.86455084 40.0100566,5.46529361 L40.0100566,0.815293611 C39.9771922,0.535945121 40.1077452,0.262564395 40.3456624,0.112527598 C40.5835796,-0.0375091993 40.8865335,-0.0375091993 41.1244508,0.112527598 C41.362368,0.262564395 41.4929209,0.535945121 41.4600566,0.815293611 L41.4600566,5.46529361 C41.4600566,5.86293863 41.1377016,6.18529361 40.7400566,6.18529361 L40.7400566,6.18529361 Z" id="path-1"></path>
        <filter x="-650.7%" y="-153.6%" width="1401.3%" height="407.2%" filterUnits="objectBoundingBox" id="filter-2">
            <feMorphology radius="0.5" operator="dilate" in="SourceAlpha" result="shadowSpreadOuter1"></feMorphology>
            <feOffset dx="0" dy="0" in="shadowSpreadOuter1" result="shadowOffsetOuter1"></feOffset>
            <feGaussianBlur stdDeviation="3" in="shadowOffsetOuter1" result="shadowBlurOuter1"></feGaussianBlur>
            <feComposite in="shadowBlurOuter1" in2="SourceAlpha" operator="out" result="shadowBlurOuter1"></feComposite>
            <feColorMatrix values="0 0 0 0 1   0 0 0 0 1   0 0 0 0 1  0 0 0 0.5 0" type="matrix" in="shadowBlurOuter1"></feColorMatrix>
        </filter>
        <path d="M48.9200566,7.84529361 C48.7978465,8.07391725 48.5592922,8.21628031 48.3000566,8.21529361 C48.1697544,8.21757056 48.0414715,8.1828995 47.9300566,8.11529361 C47.7628441,8.01727925 47.6414745,7.85679065 47.5927024,7.66920569 C47.5439303,7.48162073 47.5717599,7.28234034 47.6700566,7.11529361 L47.6700566,7.11529361 L49.9900566,3.11529361 C50.0880709,2.94808111 50.2485595,2.82671155 50.4361445,2.77793946 C50.6237294,2.72916737 50.8230098,2.75699699 50.9900566,2.85529361 L50.9900566,2.85529361 C51.1627506,2.94792233 51.2902269,3.10694135 51.3430656,3.29565108 C51.3959043,3.48436081 51.3695398,3.68645528 51.2700566,3.85529361 L51.2700566,3.85529361 L48.9200566,7.84529361 Z" id="path-3"></path>
        <filter x="-251.5%" y="-173.7%" width="601.3%" height="442.6%" filterUnits="objectBoundingBox" id="filter-4">
            <feMorphology radius="0.5" operator="dilate" in="SourceAlpha" result="shadowSpreadOuter1"></feMorphology>
            <feOffset dx="0" dy="0" in="shadowSpreadOuter1" result="shadowOffsetOuter1"></feOffset>
            <feGaussianBlur stdDeviation="3" in="shadowOffsetOuter1" result="shadowBlurOuter1"></feGaussianBlur>
            <feComposite in="shadowBlurOuter1" in2="SourceAlpha" operator="out" result="shadowBlurOuter1"></feComposite>
            <feColorMatrix values="0 0 0 0 1   0 0 0 0 1   0 0 0 0 1  0 0 0 0.5 0" type="matrix" in="shadowBlurOuter1"></feColorMatrix>
        </filter>
        <path d="M53.4700566,12.3952936 L57.4700566,10.0652936 C57.817996,9.86094825 58.2657112,9.97735422 58.4700566,10.3252936 C58.6744019,10.673233 58.557996,11.1209483 58.2100566,11.3252936 L58.2100566,11.3252936 L54.2100566,13.6452936 C54.1024294,13.7131408 53.9772572,13.7479109 53.8500566,13.7452936 C53.5250484,13.7429224 53.2407535,13.5259669 53.1526895,13.213108 C53.0646255,12.9002492 53.1940062,12.5668516 53.4700566,12.3952936 L53.4700566,12.3952936 Z" id="path-5"></path>
        <filter x="-174.6%" y="-251.3%" width="449.1%" height="600.5%" filterUnits="objectBoundingBox" id="filter-6">
            <feMorphology radius="0.5" operator="dilate" in="SourceAlpha" result="shadowSpreadOuter1"></feMorphology>
            <feOffset dx="0" dy="0" in="shadowSpreadOuter1" result="shadowOffsetOuter1"></feOffset>
            <feGaussianBlur stdDeviation="3" in="shadowOffsetOuter1" result="shadowBlurOuter1"></feGaussianBlur>
            <feComposite in="shadowBlurOuter1" in2="SourceAlpha" operator="out" result="shadowBlurOuter1"></feComposite>
            <feColorMatrix values="0 0 0 0 1   0 0 0 0 1   0 0 0 0 1  0 0 0 0.5 0" type="matrix" in="shadowBlurOuter1"></feColorMatrix>
        </filter>
        <path d="M55.1300566,20.5852936 C55.1300566,20.1821257 55.4568887,19.8552936 55.8600566,19.8552936 L60.5100566,19.8552936 C60.9093138,19.8607634 61.2300566,20.1859989 61.2300566,20.5852936 C61.2300566,20.9829386 60.9077016,21.3052936 60.5100566,21.3052936 L55.8600566,21.3052936 C55.4607619,21.3053311 55.1355264,20.9845508 55.1300566,20.5852936 L55.1300566,20.5852936 Z" id="path-7"></path>
        <filter x="-155.7%" y="-655.2%" width="411.5%" height="1410.3%" filterUnits="objectBoundingBox" id="filter-8">
            <feMorphology radius="0.5" operator="dilate" in="SourceAlpha" result="shadowSpreadOuter1"></feMorphology>
            <feOffset dx="0" dy="0" in="shadowSpreadOuter1" result="shadowOffsetOuter1"></feOffset>
            <feGaussianBlur stdDeviation="3" in="shadowOffsetOuter1" result="shadowBlurOuter1"></feGaussianBlur>
            <feComposite in="shadowBlurOuter1" in2="SourceAlpha" operator="out" result="shadowBlurOuter1"></feComposite>
            <feColorMatrix values="0 0 0 0 1   0 0 0 0 1   0 0 0 0 1  0 0 0 0.5 0" type="matrix" in="shadowBlurOuter1"></feColorMatrix>
        </filter>
        <path d="M54.2100566,27.5152936 L58.2100566,29.8352936 C58.3849206,29.9257851 58.514356,30.0848261 58.5674438,30.2744252 C58.6205315,30.4640243 58.5925041,30.6671549 58.4900566,30.8352936 L58.4900566,30.8352936 C58.3678465,31.0639173 58.1292922,31.2062803 57.8700566,31.2052987 C57.7435421,31.2028631 57.6196993,31.1684623 57.5100566,31.1052936 L53.5100566,28.7752936 C53.3373626,28.6826649 53.2098863,28.5236459 53.1570475,28.3349361 C53.1042088,28.1462264 53.1305734,27.9441319 53.2300566,27.7752936 L53.2300566,27.7752936 C53.43344,27.4389066 53.8666679,27.3239686 54.2100566,27.5152936 L54.2100566,27.5152936 Z" id="path-9"></path>
        <filter x="-173.1%" y="-250.8%" width="446.1%" height="602.0%" filterUnits="objectBoundingBox" id="filter-10">
            <feMorphology radius="0.5" operator="dilate" in="SourceAlpha" result="shadowSpreadOuter1"></feMorphology>
            <feOffset dx="0" dy="0" in="shadowSpreadOuter1" result="shadowOffsetOuter1"></feOffset>
            <feGaussianBlur stdDeviation="3" in="shadowOffsetOuter1" result="shadowBlurOuter1"></feGaussianBlur>
            <feComposite in="shadowBlurOuter1" in2="SourceAlpha" operator="out" result="shadowBlurOuter1"></feComposite>
            <feColorMatrix values="0 0 0 0 1   0 0 0 0 1   0 0 0 0 1  0 0 0 0.5 0" type="matrix" in="shadowBlurOuter1"></feColorMatrix>
        </filter>
        <path d="M2.90005657,30.7052936 C2.90005657,30.3052936 2.90005657,29.8952936 2.96005657,29.4952936 C2.97290489,29.3107776 2.99627624,29.1271455 3.03005657,28.9452936 C3.03005657,28.7652936 3.09005657,28.5352936 3.13005657,28.3452936 C3.17005657,28.1552936 3.23005657,27.8552936 3.28005657,27.6252936 C3.33005657,27.3952936 3.35005657,27.3852936 3.38005657,27.2652936 C3.46005657,26.9852936 3.54005657,26.7052936 3.64005657,26.4252936 C3.66119044,26.3768952 3.67792464,26.3266926 3.69005657,26.2752936 C4.43736978,24.2648903 5.66260793,22.4665016 7.26005657,21.0352936 L7.26005657,21.0352936 C7.51005657,20.8152936 7.77005657,20.5952936 8.04005657,20.3952936 L8.16005657,20.2952936 C8.41005657,20.1152936 8.66005657,19.9352936 8.92005657,19.7752936 L9.14005657,19.6452936 L9.89005657,19.2052936 L10.1500566,19.0952936 C10.9890481,18.662388 11.8748054,18.3268738 12.7900566,18.0952936 L13.1300566,18.0152936 L13.3200566,18.0152936 C14.1550789,17.8322451 15.00552,17.7284511 15.8600566,17.7052936 C18.7641167,17.692106 21.5859361,18.669161 23.8600566,20.4752936 C24.4908618,20.940767 25.3774028,20.8205772 25.8615063,20.2039537 C26.3456098,19.5873302 26.2519483,18.6975954 25.6500566,18.1952936 C22.8616244,15.9879629 19.4063896,14.7927338 15.8500566,14.8052936 C15.4321626,14.7934186 15.0140119,14.8168351 14.6000566,14.8752936 C16.3539015,8.83078698 22.2932876,5.00249048 28.5225754,5.90138126 C34.7518633,6.80027203 39.3666315,12.1515407 39.3400566,18.4452936 L39.3400566,19.2452936 C39.3527127,19.5282339 39.3223674,19.8114569 39.2500566,20.0852936 L39.2100566,20.7052936 C38.849202,22.7969292 37.9612614,24.7621001 36.6300566,26.4152936 C36.1536663,27.0326595 36.2508604,27.9162423 36.8500566,28.4152936 C37.1032665,28.624169 37.4218194,28.7374323 37.7500566,28.7352936 C38.1887194,28.7341908 38.6036394,28.5359105 38.8800566,28.1952936 C40.3022481,26.4358148 41.3257884,24.3887341 41.8800566,22.1952936 C46.9124795,24.0862323 49.8690139,29.3090818 48.9004112,34.5970624 C47.9318085,39.885043 43.3159925,43.7208604 37.9400566,43.7053408 L15.8700566,43.7053408 C8.70207334,43.6887521 2.90005657,37.8732959 2.90005657,30.7052936 L2.90005657,30.7052936 Z M49.2600566,24.3352936 C47.5259566,21.9344303 45.0751512,20.1453423 42.2600566,19.2252936 L42.2600566,18.4752936 C42.2625289,15.9357312 41.6373262,13.4349206 40.4400566,11.1952936 L40.7400566,11.1952936 C45.911059,11.2008123 50.1000566,15.3942882 50.1000566,20.5652936 C50.0932031,21.8804688 49.8068762,23.179166 49.2600566,24.3752936 L49.2600566,24.3352936 Z M2.81826337e-05,30.7052936 C-0.00790731584,34.9203947 1.66027012,38.9657293 4.63704821,41.9500103 C7.6138263,44.9342913 11.6549488,46.6126468 15.8700566,46.6152936 L37.9400566,46.6152936 C45.6720431,46.6152936 51.9400566,40.3472801 51.9400566,32.6152936 C51.9499183,30.8235258 51.6102447,29.0470327 50.9400566,27.3852936 C52.3006262,25.3864626 53.0256279,23.0232357 53.0200884,20.6052936 C53.0227098,17.3484348 51.7314717,14.2239145 49.4304001,11.9190922 C47.1293285,9.61426989 44.0069154,8.3179447 40.7500566,8.31529361 L40.7500566,8.31529361 C40.0321349,8.31694249 39.3158511,8.38388491 38.6100566,8.51529361 C34.7650278,3.94127315 28.6355322,1.98092556 22.8498469,3.47483174 C17.0641617,4.96873793 12.6499761,9.65154102 11.5000566,15.5152936 L11.4000566,15.5152936 C11.1400566,15.5852936 10.8900566,15.6752936 10.6300566,15.7652936 L10.0600566,15.9752936 C9.80005657,16.0752936 9.55005657,16.1852936 9.30005657,16.3052936 L8.83005657,16.5352936 C8.55005657,16.6686269 8.28005657,16.8086269 8.02005657,16.9552936 L7.75005657,17.1252936 C4.53025031,19.0471028 2.09606191,22.0482055 0.880056567,25.5952936 L0.880056567,25.7052936 C0.766176217,26.0333922 0.669379681,26.3671734 0.590056567,26.7052936 L0.470056567,27.1752936 C0.410056567,27.4452936 0.350056567,27.7052936 0.300056567,27.9752936 C0.250056567,28.2452936 0.210056567,28.4352936 0.210056567,28.7052936 C0.204484846,28.9102741 0.181062934,29.1143794 0.140056567,29.3152936 C0.0685097998,29.7757827 0.0217756694,30.2397859 2.81826337e-05,30.7052936 Z" id="path-11"></path>
        <filter x="-17.9%" y="-21.8%" width="135.8%" height="143.5%" filterUnits="objectBoundingBox" id="filter-12">
            <feMorphology radius="0.5" operator="dilate" in="SourceAlpha" result="shadowSpreadOuter1"></feMorphology>
            <feOffset dx="0" dy="0" in="shadowSpreadOuter1" result="shadowOffsetOuter1"></feOffset>
            <feGaussianBlur stdDeviation="3" in="shadowOffsetOuter1" result="shadowBlurOuter1"></feGaussianBlur>
            <feComposite in="shadowBlurOuter1" in2="SourceAlpha" operator="out" result="shadowBlurOuter1"></feComposite>
            <feColorMatrix values="0 0 0 0 1   0 0 0 0 1   0 0 0 0 1  0 0 0 0.5 0" type="matrix" in="shadowBlurOuter1"></feColorMatrix>
        </filter>
        <path d="M20.7000566,59.1152936 L19.4100566,58.6452936 L20.4100566,57.5752936 C20.5621562,57.4266519 20.6479017,57.2229639 20.6479017,57.0102936 C20.6479017,56.7976233 20.5621562,56.5939353 20.4100566,56.4452936 C20.4100566,56.4452936 20.4100566,56.4452936 20.3600566,56.4452936 C20.0055095,56.1235286 19.4646036,56.1235286 19.1100566,56.4452936 L18.4000566,57.1852936 L18.2300566,56.1852936 C18.1914914,55.9757472 18.0699192,55.7906627 17.892928,55.672041 C17.7159369,55.5534192 17.4985349,55.5113189 17.2900566,55.5552936 L17.2100566,55.5552936 C16.7613651,55.6677616 16.4659521,56.0958964 16.5200566,56.5552936 L16.7200566,57.7852936 L15.5300566,57.3552936 C15.1250171,57.2250032 14.688213,57.4303011 14.5300566,57.8252936 C14.5300566,57.8252936 14.5300566,57.8252936 14.5300566,57.8952936 C14.4894207,58.0560995 14.4894207,58.2244877 14.5300566,58.3852936 C14.5971643,58.6737162 14.803331,58.9098707 15.0800566,59.0152936 L16.3800566,59.4852936 L15.3800566,60.5552936 C15.2279569,60.7039353 15.1422114,60.9076233 15.1422114,61.1202936 C15.1422114,61.3329639 15.2279569,61.5366519 15.3800566,61.6852936 C15.3800566,61.6852936 15.3800566,61.6852936 15.4300566,61.6852936 C15.5571517,61.7905224 15.7083107,61.8626665 15.8700566,61.8952936 C16.1665613,61.9497559 16.4706417,61.8521499 16.6800566,61.6352936 L17.3800566,60.8952936 L17.6000566,61.9952936 C17.6386217,62.2048401 17.7601939,62.3899245 17.9371851,62.5085463 C18.1141763,62.627168 18.3315782,62.6692684 18.5400566,62.6252936 L18.6000566,62.6252936 C19.0447327,62.5086717 19.3350703,62.0817046 19.2800566,61.6252936 L19.0600566,60.4852936 L20.2500566,60.9152936 C20.4583499,60.9762896 20.682487,60.9500366 20.8710469,60.8425574 C21.0596069,60.7350782 21.1964047,60.5555984 21.2500566,60.3452936 C21.2500566,60.3452936 21.2500566,60.3452936 21.2500566,60.2852936 C21.406589,59.8111145 21.1650528,59.2973011 20.7000566,59.1152936 Z" id="path-13"></path>
        <filter x="-139.1%" y="-133.7%" width="378.9%" height="367.4%" filterUnits="objectBoundingBox" id="filter-14">
            <feMorphology radius="0.5" operator="dilate" in="SourceAlpha" result="shadowSpreadOuter1"></feMorphology>
            <feOffset dx="0" dy="0" in="shadowSpreadOuter1" result="shadowOffsetOuter1"></feOffset>
            <feGaussianBlur stdDeviation="3" in="shadowOffsetOuter1" result="shadowBlurOuter1"></feGaussianBlur>
            <feComposite in="shadowBlurOuter1" in2="SourceAlpha" operator="out" result="shadowBlurOuter1"></feComposite>
            <feColorMatrix values="0 0 0 0 1   0 0 0 0 1   0 0 0 0 1  0 0 0 0.5 0" type="matrix" in="shadowBlurOuter1"></feColorMatrix>
        </filter>
        <path d="M41.7000566,59.1152936 L40.4100566,58.6452936 L41.4100566,57.5752936 C41.5621562,57.4266519 41.6479017,57.2229639 41.6479017,57.0102936 C41.6479017,56.7976233 41.5621562,56.5939353 41.4100566,56.4452936 L41.4100566,56.4452936 C41.0555095,56.1235286 40.5146036,56.1235286 40.1600566,56.4452936 L39.4500566,57.1852936 L39.2800566,56.1852936 C39.2414914,55.9757472 39.1199192,55.7906627 38.942928,55.672041 C38.7659369,55.5534192 38.5485349,55.5113189 38.3400566,55.5552936 L38.2100566,55.5552936 C37.7613651,55.6677616 37.4659521,56.0958964 37.5200566,56.5552936 L37.7200566,57.7852936 L36.5300566,57.3552936 C36.327166,57.2928897 36.107792,57.3136789 35.9202354,57.4130839 C35.7326788,57.5124888 35.5923178,57.6823592 35.5300566,57.8852936 L35.5300566,57.8852936 C35.4894207,58.0460995 35.4894207,58.2144877 35.5300566,58.3752936 C35.5971643,58.6637162 35.803331,58.8998707 36.0800566,59.0052936 L37.3800566,59.4752936 L36.3800566,60.5452936 C36.2279569,60.6939353 36.1422114,60.8976233 36.1422114,61.1102936 C36.1422114,61.3229639 36.2279569,61.5266519 36.3800566,61.6752936 L36.4300566,61.6752936 C36.5571517,61.7805224 36.7083107,61.8526665 36.8700566,61.8852936 C37.1665613,61.9397559 37.4706417,61.8421499 37.6800566,61.6252936 L38.3800566,60.8852936 L38.6000566,61.9852936 C38.6386217,62.1948401 38.7601939,62.3799245 38.9371851,62.4985463 C39.1141763,62.617168 39.3315782,62.6592684 39.5400566,62.6152936 L39.6000566,62.6152936 C40.0447327,62.4986717 40.3350703,62.0717046 40.2800566,61.6152936 L40.0600566,60.4752936 L41.2500566,60.9052936 C41.4529471,60.9676975 41.6723211,60.9469084 41.8598777,60.8475034 C42.0474343,60.7480984 42.1877953,60.578228 42.2500566,60.3752936 L42.2500566,60.3752936 C42.3410377,60.1460408 42.336156,59.8898566 42.236507,59.6642363 C42.1368581,59.438616 41.9507881,59.2624567 41.7200566,59.1752936 L41.7000566,59.1152936 Z" id="path-15"></path>
        <filter x="-138.8%" y="-133.9%" width="378.1%" height="367.7%" filterUnits="objectBoundingBox" id="filter-16">
            <feMorphology radius="0.5" operator="dilate" in="SourceAlpha" result="shadowSpreadOuter1"></feMorphology>
            <feOffset dx="0" dy="0" in="shadowSpreadOuter1" result="shadowOffsetOuter1"></feOffset>
            <feGaussianBlur stdDeviation="3" in="shadowOffsetOuter1" result="shadowBlurOuter1"></feGaussianBlur>
            <feComposite in="shadowBlurOuter1" in2="SourceAlpha" operator="out" result="shadowBlurOuter1"></feComposite>
            <feColorMatrix values="0 0 0 0 1   0 0 0 0 1   0 0 0 0 1  0 0 0 0.5 0" type="matrix" in="shadowBlurOuter1"></feColorMatrix>
        </filter>
        <path d="M31.2100566,52.1152936 L29.9200566,51.6452936 L30.9200566,50.5752936 C31.0721562,50.4266519 31.1579017,50.2229639 31.1579017,50.0102936 C31.1579017,49.7976233 31.0721562,49.5939353 30.9200566,49.4452936 C30.9200566,49.4452936 30.9200566,49.4452936 30.9200566,49.3952936 C30.5544231,49.0825214 30.0095401,49.1043167 29.6700566,49.4452936 L28.9600566,50.1852936 L28.7500566,49.0952936 C28.7114914,48.8857472 28.5899192,48.7006627 28.412928,48.582041 C28.2359369,48.4634192 28.0185349,48.4213189 27.8100566,48.4652936 L27.7500566,48.4652936 C27.3013651,48.5777616 27.0059521,49.0058964 27.0600566,49.4652936 L27.2100566,50.7052936 L26.0200566,50.2752936 C25.817166,50.2128897 25.597792,50.2336789 25.4102354,50.3330839 C25.2226788,50.4324888 25.0823178,50.6023592 25.0200566,50.8052936 L25.0200566,50.8052936 C24.9794207,50.9660995 24.9794207,51.1344877 25.0200566,51.2952936 C25.0871643,51.5837162 25.293331,51.8198707 25.5700566,51.9252936 L26.8700566,52.3952936 L25.8700566,53.4652936 C25.7179569,53.6139353 25.6322114,53.8176233 25.6322114,54.0302936 C25.6322114,54.2429639 25.7179569,54.4466519 25.8700566,54.5952936 C25.8700566,54.5952936 25.8700566,54.5952936 25.8700566,54.6452936 C25.9971517,54.7505224 26.1483107,54.8226665 26.3100566,54.8552936 C26.6332035,54.9463483 26.9801681,54.8499693 27.2100566,54.6052936 L27.9100566,53.8652936 L28.1300566,54.9652936 C28.1686217,55.1748401 28.2901939,55.3599245 28.4671851,55.4785463 C28.6441763,55.597168 28.8615782,55.6392684 29.0700566,55.5952936 L29.1300566,55.5952936 C29.5747327,55.4786717 29.8650703,55.0517046 29.8100566,54.5952936 L29.5900566,53.4552936 L30.7800566,53.8852936 C30.9829471,53.9476975 31.2023211,53.9269084 31.3898777,53.8275034 C31.5774343,53.7280984 31.7177953,53.558228 31.7800566,53.3552936 L31.7800566,53.3552936 C31.8792432,53.1159858 31.8741222,52.8461527 31.765927,52.6107806 C31.6577318,52.3754085 31.4562682,52.1958297 31.2100566,52.1152936 L31.2100566,52.1152936 Z" id="path-17"></path>
        <filter x="-137.8%" y="-132.6%" width="376.3%" height="365.1%" filterUnits="objectBoundingBox" id="filter-18">
            <feMorphology radius="0.5" operator="dilate" in="SourceAlpha" result="shadowSpreadOuter1"></feMorphology>
            <feOffset dx="0" dy="0" in="shadowSpreadOuter1" result="shadowOffsetOuter1"></feOffset>
            <feGaussianBlur stdDeviation="3" in="shadowOffsetOuter1" result="shadowBlurOuter1"></feGaussianBlur>
            <feComposite in="shadowBlurOuter1" in2="SourceAlpha" operator="out" result="shadowBlurOuter1"></feComposite>
            <feColorMatrix values="0 0 0 0 1   0 0 0 0 1   0 0 0 0 1  0 0 0 0.5 0" type="matrix" in="shadowBlurOuter1"></feColorMatrix>
        </filter>
    </defs>
    <g id="草稿" stroke="none" stroke-width="1" fill="none" fill-rule="evenodd">
        <g id="画板" transform="translate(-1398.000000, -258.000000)">
            <g id="407_阵雪-01" transform="translate(1398.000000, 258.000000)">
                <rect id="矩形" x="0" y="0" width="80" height="80"></rect>
                <g id="形状" transform="translate(9.000000, 9.000000)" fill-rule="nonzero">
                    <g id="路径">
                        <use fill="black" fill-opacity="1" filter="url(#filter-2)" xlink:href="#path-1"></use>
                        <use stroke="#FFFFFF" stroke-width="1" fill="#E0F2FF" xlink:href="#path-1"></use>
                    </g>
                    <g id="路径">
                        <use fill="black" fill-opacity="1" filter="url(#filter-4)" xlink:href="#path-3"></use>
                        <use stroke="#FFFFFF" stroke-width="1" fill="#E0F2FF" xlink:href="#path-3"></use>
                    </g>
                    <g id="路径">
                        <use fill="black" fill-opacity="1" filter="url(#filter-6)" xlink:href="#path-5"></use>
                        <use stroke="#FFFFFF" stroke-width="1" fill="#E0F2FF" xlink:href="#path-5"></use>
                    </g>
                    <g id="路径">
                        <use fill="black" fill-opacity="1" filter="url(#filter-8)" xlink:href="#path-7"></use>
                        <use stroke="#FFFFFF" stroke-width="1" fill="#E0F2FF" xlink:href="#path-7"></use>
                    </g>
                    <g id="路径">
                        <use fill="black" fill-opacity="1" filter="url(#filter-10)" xlink:href="#path-9"></use>
                        <use stroke="#FFFFFF" stroke-width="1" fill="#E0F2FF" xlink:href="#path-9"></use>
                    </g>
                    <g>
                        <use fill="black" fill-opacity="1" filter="url(#filter-12)" xlink:href="#path-11"></use>
                        <use stroke="#FFFFFF" stroke-width="1" fill="#E0F2FF" xlink:href="#path-11"></use>
                    </g>
                    <g id="路径">
                        <use fill="black" fill-opacity="1" filter="url(#filter-14)" xlink:href="#path-13"></use>
                        <use stroke="#FFFFFF" stroke-width="1" fill="#E0F2FF" xlink:href="#path-13"></use>
                    </g>
                    <g id="路径">
                        <use fill="black" fill-opacity="1" filter="url(#filter-16)" xlink:href="#path-15"></use>
                        <use stroke="#FFFFFF" stroke-width="1" fill="#E0F2FF" xlink:href="#path-15"></use>
                    </g>
                    <g id="路径">
                        <use fill="black" fill-opacity="1" filter="url(#filter-18)" xlink:href="#path-17"></use>
                        <use stroke="#FFFFFF" stroke-width="1" fill="#E0F2FF" xlink:href="#path-17"></use>
                    </g>
                </g>
            </g>
        </g>
    </g>
</svg>