<?xml version="1.0" encoding="UTF-8"?>
<svg width="80px" height="80px" viewBox="0 0 80 80" version="1.1" xmlns="http://www.w3.org/2000/svg" xmlns:xlink="http://www.w3.org/1999/xlink">
    <title>408_小到中雪-01</title>
    <defs>
        <path d="M18.25,30.6304925 L17.52,30.3604925 L18.09,29.7504925 C18.1754992,29.665959 18.2236142,29.5507258 18.2236142,29.4304925 C18.2236142,29.3102593 18.1754992,29.1950261 18.09,29.1104925 L18.09,29.1104925 C17.8883021,28.928548 17.5816979,28.928548 17.38,29.1104925 L16.98,29.5304925 L16.86,28.9104925 C16.8144341,28.6683818 16.5826549,28.5079192 16.34,28.5504925 L16.29,28.5504925 C16.1943567,28.5706183 16.1071364,28.6194617 16.04,28.6904925 C15.9226708,28.808644 15.8704078,28.9766322 15.9,29.1404925 L16.03,29.7904925 L15.35,29.5504925 C15.112544,29.4628388 14.848887,29.5834954 14.76,29.8204925 L14.76,29.8204925 C14.7399742,29.9127517 14.7399742,30.0082334 14.76,30.1004925 C14.7977196,30.2642331 14.9136718,30.3988873 15.07,30.4604925 L15.81,30.7304925 L15.23,31.3404925 C15.0507174,31.520072 15.0507174,31.8109131 15.23,31.9904925 L15.23,31.9904925 C15.3024044,32.0501188 15.3881895,32.0912956 15.48,32.1104925 C15.6605208,32.1696701 15.8589075,32.1277036 16,32.0004925 L16.41,31.5804925 L16.53,32.2004925 C16.5804098,32.4495059 16.8195819,32.6133831 17.07,32.5704925 L17.07,32.5704925 C17.3328825,32.4977004 17.5002002,32.2402884 17.46,31.9704925 L17.33,31.3204925 L18,31.5604925 C18.2291658,31.6496139 18.4874372,31.53829 18.58,31.3104925 C18.58,31.3104925 18.58,31.3104925 18.58,31.3104925 C18.6306171,31.1767466 18.6239205,31.0280583 18.5614853,30.8994041 C18.4990502,30.7707498 18.3863877,30.6734861 18.25,30.6304925 Z" id="path-1"></path>
        <filter x="-245.6%" y="-234.5%" width="591.1%" height="569.8%" filterUnits="objectBoundingBox" id="filter-2">
            <feMorphology radius="0.5" operator="dilate" in="SourceAlpha" result="shadowSpreadOuter1"></feMorphology>
            <feOffset dx="0" dy="0" in="shadowSpreadOuter1" result="shadowOffsetOuter1"></feOffset>
            <feGaussianBlur stdDeviation="3" in="shadowOffsetOuter1" result="shadowBlurOuter1"></feGaussianBlur>
            <feComposite in="shadowBlurOuter1" in2="SourceAlpha" operator="out" result="shadowBlurOuter1"></feComposite>
            <feColorMatrix values="0 0 0 0 1   0 0 0 0 1   0 0 0 0 1  0 0 0 0.5 0" type="matrix" in="shadowBlurOuter1"></feColorMatrix>
        </filter>
        <path d="M24.07,23.6504925 L9.36,23.6504925 C6.76808603,23.6793007 4.35315529,22.3388958 3.00658665,20.1240367 C1.660018,17.9091776 1.58149447,15.1483064 2.8,12.8604925 L2.9,12.6704925 C3.06486416,12.3907028 3.24514183,12.1202863 3.44,11.8604925 C3.5,11.7904925 3.54,11.7204925 3.6,11.6604925 C3.80088755,11.4129889 4.01803467,11.1791382 4.25,10.9604925 L4.44,10.7804925 C4.69333333,10.5671592 4.95333333,10.3671592 5.22,10.1804925 L5.4,10.0604925 C5.70811734,9.87806436 6.02518149,9.7111885 6.35,9.56049254 L6.45,9.56049254 C6.8260148,9.40073092 7.2138419,9.27034078 7.61,9.17049254 L7.61,9.17049254 C8.52712077,8.93429491 9.48109328,8.87658127 10.42,9.00049254 C10.7451117,9.14875778 11.1246258,9.11231548 11.4155831,8.90489311 C11.7065404,8.69747073 11.8647375,8.35058069 11.8305831,7.99489309 C11.7964287,7.63920549 11.5751117,7.32875775 11.25,7.18049254 C11.0789214,7.09899733 10.8872061,7.07111147 10.7,7.10049254 C10.0616821,7.0021882 9.41505944,6.96868443 8.77,7.00049254 C9.88770716,4.34982355 12.2813056,2.45321267 15.1173021,1.97109326 C17.9532986,1.48897385 20.8391682,2.48807518 22.77,4.62049254 C22.2544297,4.68962492 21.7435011,4.789807 21.24,4.92049254 C18.538918,5.66906093 16.2512679,7.47036024 14.89,9.92049254 C14.7635764,10.1349022 14.728377,10.3910421 14.792277,10.6316065 C14.8561769,10.8721709 15.0138427,11.0770809 15.23,11.2004925 L15.23,11.2004925 C15.3744437,11.2784599 15.5358591,11.3196724 15.7,11.3204925 C16.049894,11.3282256 16.3745038,11.1388699 16.54,10.8304925 C18.168747,7.97898433 21.2599054,6.28271114 24.54,6.44049254 L24.61,6.44049254 C29.3486032,6.57027946 33.0847869,10.5168894 32.955,15.2554925 C32.8252131,19.9940957 28.8786032,23.7302795 24.14,23.6004925 L24.07,23.6504925 Z M29.31,5.94049254 C29.2745299,5.9362191 29.2440341,5.91334723 29.23,5.88049254 L29,5.74049254 L28.86,5.67049254 C27.7138273,5.09776373 26.4741831,4.73535407 25.2,4.60049254 C23.2534038,1.72231619 20.0046413,-0.0013640416 16.53,0.000492542405 C11.9080098,-0.0444640826 7.82095124,2.99222044 6.53,7.43049254 L6.23,7.54049254 L5.88,7.66049254 C4.18709762,8.3406999 2.73047763,9.50182419 1.69,11.0004925 L1.69,11.0004925 C1.55,11.2004925 1.42,11.4104925 1.29,11.6304925 L1.29,11.7104925 C1.18,11.9104925 1.08,12.1104925 0.98,12.3204925 L0.92,12.4304925 C0.83,12.6404925 0.74,12.8404925 0.66,13.0604925 L0.66,13.1404925 L0.66,13.1404925 C0.256422811,14.1434955 0.0329973605,15.2098443 8.17124146e-14,16.2904925 C0.0220480573,21.4338867 4.20658537,25.5870959 9.35,25.5704925 L24.07,25.5704925 C28.8558794,25.6128628 33.0636213,22.4105078 34.2979849,17.7863556 C35.5323485,13.1622033 33.4803165,8.2888745 29.31,5.94049254 Z" id="path-3"></path>
        <filter x="-27.4%" y="-37.2%" width="154.8%" height="174.3%" filterUnits="objectBoundingBox" id="filter-4">
            <feMorphology radius="0.5" operator="dilate" in="SourceAlpha" result="shadowSpreadOuter1"></feMorphology>
            <feOffset dx="0" dy="0" in="shadowSpreadOuter1" result="shadowOffsetOuter1"></feOffset>
            <feGaussianBlur stdDeviation="3" in="shadowOffsetOuter1" result="shadowBlurOuter1"></feGaussianBlur>
            <feComposite in="shadowBlurOuter1" in2="SourceAlpha" operator="out" result="shadowBlurOuter1"></feComposite>
            <feColorMatrix values="0 0 0 0 1   0 0 0 0 1   0 0 0 0 1  0 0 0 0.5 0" type="matrix" in="shadowBlurOuter1"></feColorMatrix>
        </filter>
        <path d="M53.69,60.6304925 L53,60.3604925 L53.57,59.7504925 C53.6554992,59.665959 53.7036142,59.5507258 53.7036142,59.4304925 C53.7036142,59.3102593 53.6554992,59.1950261 53.57,59.1104925 L53.57,59.1104925 C53.3683021,58.928548 53.0616979,58.928548 52.86,59.1104925 L52.46,59.5304925 L52.34,58.9104925 C52.2944341,58.6683818 52.0626549,58.5079192 51.82,58.5504925 L51.82,58.5504925 C51.7243567,58.5706183 51.6371364,58.6194617 51.57,58.6904925 C51.4526708,58.808644 51.4004078,58.9766322 51.43,59.1404925 L51.56,59.7904925 L50.88,59.5504925 C50.6563363,59.4609492 50.4022516,59.5679322 50.31,59.7904925 C50.3056639,59.8102575 50.3056639,59.8307276 50.31,59.8504925 C50.2899742,59.9427517 50.2899742,60.0382334 50.31,60.1304925 C50.3477196,60.2942331 50.4636718,60.4288873 50.62,60.4904925 L51.36,60.7604925 L50.78,61.3704925 C50.6007174,61.550072 50.6007174,61.8409131 50.78,62.0204925 L50.78,62.0204925 C50.8524044,62.0801188 50.9381895,62.1212956 51.03,62.1404925 C51.1982727,62.1642437 51.3680747,62.1088735 51.49,61.9904925 L51.89,61.5704925 L52.01,62.1904925 C52.0604098,62.4395059 52.2995819,62.6033831 52.55,62.5604925 L52.55,62.5604925 C52.8204216,62.5151471 53.0139309,62.2743356 53,62.0004925 L52.87,61.3504925 L53.54,61.5904925 C53.7691658,61.6796139 54.0274372,61.56829 54.12,61.3404925 C54.12,61.3404925 54.12,61.3404925 54.12,61.2904925 C54.165788,61.1450376 54.144086,60.986725 54.0608438,60.8589579 C53.9776016,60.7311908 53.8415541,60.6473762 53.69,60.6304925 L53.69,60.6304925 Z" id="path-5"></path>
        <filter x="-246.2%" y="-236.1%" width="593.0%" height="572.0%" filterUnits="objectBoundingBox" id="filter-6">
            <feMorphology radius="0.5" operator="dilate" in="SourceAlpha" result="shadowSpreadOuter1"></feMorphology>
            <feOffset dx="0" dy="0" in="shadowSpreadOuter1" result="shadowOffsetOuter1"></feOffset>
            <feGaussianBlur stdDeviation="3" in="shadowOffsetOuter1" result="shadowBlurOuter1"></feGaussianBlur>
            <feComposite in="shadowBlurOuter1" in2="SourceAlpha" operator="out" result="shadowBlurOuter1"></feComposite>
            <feColorMatrix values="0 0 0 0 1   0 0 0 0 1   0 0 0 0 1  0 0 0 0.5 0" type="matrix" in="shadowBlurOuter1"></feColorMatrix>
        </filter>
        <path d="M44.6,60.6304925 L43.86,60.3604925 L44.44,59.7504925 C44.6192826,59.5709131 44.6192826,59.280072 44.44,59.1004925 L44.44,59.1004925 C44.2415985,58.9199295 43.9384015,58.9199295 43.74,59.1004925 L43.34,59.5204925 L43.21,58.9004925 C43.1644341,58.6583818 42.9326549,58.4979192 42.69,58.5404925 L42.69,58.5404925 C42.4313794,58.6128254 42.2652098,58.8642102 42.3,59.1304925 L42.43,59.7804925 L41.76,59.5404925 C41.522544,59.4528388 41.258887,59.5734954 41.17,59.8104925 L41.17,59.8104925 C41.1499742,59.9027517 41.1499742,59.9982334 41.17,60.0904925 C41.2097116,60.2564765 41.3298166,60.3915946 41.49,60.4504925 L42.23,60.7204925 L41.65,61.3304925 C41.5645008,61.4150261 41.5163858,61.5302593 41.5163858,61.6504925 C41.5163858,61.7707258 41.5645008,61.885959 41.65,61.9704925 L41.65,61.9704925 C41.7224044,62.0301188 41.8081895,62.0712956 41.9,62.0904925 C42.0399496,62.1131683 42.1832499,62.0809257 42.3,62.0004925 L42.7,61.5804925 L42.82,62.2004925 C42.8438053,62.3239911 42.91714,62.4323566 43.0229367,62.5003688 C43.1287334,62.5683809 43.2577644,62.5901077 43.38,62.5604925 L43.38,62.5604925 C43.6488288,62.4959665 43.8201685,62.2323669 43.77,61.9604925 L43.65,61.3104925 L44.32,61.5504925 C44.5491658,61.6396139 44.8074372,61.52829 44.9,61.3004925 C44.9,61.3004925 44.9,61.3004925 44.9,61.2504925 C44.9708235,60.9977289 44.8421554,60.7318148 44.6,60.6304925 L44.6,60.6304925 Z" id="path-7"></path>
        <filter x="-252.4%" y="-235.2%" width="604.7%" height="570.0%" filterUnits="objectBoundingBox" id="filter-8">
            <feMorphology radius="0.5" operator="dilate" in="SourceAlpha" result="shadowSpreadOuter1"></feMorphology>
            <feOffset dx="0" dy="0" in="shadowSpreadOuter1" result="shadowOffsetOuter1"></feOffset>
            <feGaussianBlur stdDeviation="3" in="shadowOffsetOuter1" result="shadowBlurOuter1"></feGaussianBlur>
            <feComposite in="shadowBlurOuter1" in2="SourceAlpha" operator="out" result="shadowBlurOuter1"></feComposite>
            <feColorMatrix values="0 0 0 0 1   0 0 0 0 1   0 0 0 0 1  0 0 0 0.5 0" type="matrix" in="shadowBlurOuter1"></feColorMatrix>
        </filter>
        <path d="M53.83,53.6504925 L39.11,53.6504925 C36.5198637,53.6757319 34.10819,52.3339041 32.7640627,50.1196853 C31.4199354,47.9054664 31.3423846,45.1467244 32.56,42.8604925 C32.5872817,42.7941542 32.6207635,42.7305388 32.66,42.6704925 C32.821336,42.3885053 33.0017564,42.1178747 33.2,41.8604925 L33.35,41.6604925 C33.5486919,41.4234857 33.766054,41.2027795 34,41.0004925 L34.19,40.8204925 C34.4363233,40.6033153 34.6969056,40.4028674 34.97,40.2204925 L35.15,40.1004925 C35.4730386,39.9139857 35.8069714,39.7470194 36.15,39.6004925 L36.25,39.6004925 C36.6225869,39.4407294 37.0070912,39.3103323 37.4,39.2104925 L37.4,39.2104925 C38.304311,38.9610521 39.2484794,38.88973 40.18,39.0004925 C40.5090986,39.1739193 40.9072641,39.1503339 41.2135872,38.939268 C41.5199104,38.7282021 41.683756,38.3645447 41.6389097,37.9952596 C41.5940634,37.6259745 41.3479382,37.3121044 41,37.1804925 C40.8289214,37.0989973 40.6372061,37.0711115 40.45,37.1004925 C39.8116821,37.0021882 39.1650594,36.9686844 38.52,37.0004925 C40.3407022,32.7462432 45.2562512,30.7621489 49.52,32.5604925 C50.6276155,33.0285355 51.6204638,33.7313765 52.43,34.6204925 C51.9178852,34.6905779 51.4103406,34.7907512 50.91,34.9204925 C48.2077685,35.6717722 45.9179194,37.471968 44.55,39.9204925 C44.3174853,40.3842019 44.4781548,40.9487164 44.92,41.2204925 C45.0644437,41.2984599 45.2258591,41.3396724 45.39,41.3404925 C45.7394949,41.3369257 46.0617665,41.1511455 46.24,40.8504925 C47.8520677,38.0120174 50.9188747,36.3163898 54.18,36.4604925 L54.26,36.4604925 C58.8609687,36.7697895 62.3968777,40.6567098 62.2706234,45.2663342 C62.1443691,49.8759586 58.401001,53.5635048 53.79,53.6204925 L53.83,53.6504925 Z M59.06,35.9404925 L59,35.8804925 L58.71,35.7404925 L58.58,35.6704925 C57.4294454,35.0908765 56.1819642,34.7281578 54.9,34.6004925 C52.9681786,31.7315707 49.7386974,30.0081817 46.28,30.0003419 C41.6779633,29.9757162 37.6190408,33.0096996 36.34,37.4304925 L36.04,37.5404925 L35.69,37.6604925 C33.977261,38.3296666 32.5016338,39.4920711 31.45,41.0004925 L31.45,41.0004925 C31.3051174,41.2029329 31.1715788,41.4132561 31.05,41.6304925 L31.05,41.7104925 C30.94,41.9104925 30.83,42.1104925 30.73,42.3204925 C30.7337443,42.3570636 30.7337443,42.3939215 30.73,42.4304925 C30.63,42.6404925 30.55,42.8404925 30.47,43.0604925 L30.47,43.1404925 L30.47,43.1404925 C29.4400547,45.9943884 29.8702537,49.1715373 31.622056,51.6487731 C33.3738583,54.126009 36.2260075,55.5904513 39.26,55.5704925 L53.83,55.5704925 C58.6139961,55.6082163 62.8174503,52.4043315 64.0491196,47.78145 C65.280789,43.1585686 63.2286029,38.2880002 59.06,35.9404925 Z" id="path-9"></path>
        <filter x="-27.5%" y="-37.2%" width="155.1%" height="174.3%" filterUnits="objectBoundingBox" id="filter-10">
            <feMorphology radius="0.5" operator="dilate" in="SourceAlpha" result="shadowSpreadOuter1"></feMorphology>
            <feOffset dx="0" dy="0" in="shadowSpreadOuter1" result="shadowOffsetOuter1"></feOffset>
            <feGaussianBlur stdDeviation="3" in="shadowOffsetOuter1" result="shadowBlurOuter1"></feGaussianBlur>
            <feComposite in="shadowBlurOuter1" in2="SourceAlpha" operator="out" result="shadowBlurOuter1"></feComposite>
            <feColorMatrix values="0 0 0 0 1   0 0 0 0 1   0 0 0 0 1  0 0 0 0.5 0" type="matrix" in="shadowBlurOuter1"></feColorMatrix>
        </filter>
        <path d="M60.25,15.2104925 C59.5123563,14.8482649 58.6205807,15.1470097 58.25,15.8804925 L56.74,18.8804925 C53.4892762,11.1621581 46.3614879,5.76959914 38.05,4.74049254 C37.2418097,4.63858994 36.4984668,5.19609711 36.37,6.00049254 C36.2698475,6.82007771 36.8508934,7.56649823 37.67,7.67049254 C44.9504465,8.58088084 51.1836123,13.3254155 54,20.1004925 L51.08,19.1004925 C50.3181455,18.8970368 49.5280159,19.3140664 49.2661175,20.0578579 C49.0042191,20.8016493 49.3587474,21.6217275 50.08,21.9404925 L50.08,21.9404925 L56.08,23.9404925 L56.08,23.9404925 C56.2160834,23.9831609 56.3574341,24.0067194 56.5,24.0104925 L56.5,24.0104925 C56.6648179,24.0455999 56.8351821,24.0455999 57,24.0104925 L57.13,24.0104925 L57.4,23.8804925 L57.53,23.7704925 L57.72,23.5804925 L57.83,23.4304925 L57.91,23.3004925 L60.91,17.3004925 C61.2807928,16.585812 61.025622,15.7059128 60.33,15.3004925 L60.25,15.2104925 Z" id="path-11"></path>
        <filter x="-38.4%" y="-49.2%" width="176.9%" height="198.4%" filterUnits="objectBoundingBox" id="filter-12">
            <feMorphology radius="0.5" operator="dilate" in="SourceAlpha" result="shadowSpreadOuter1"></feMorphology>
            <feOffset dx="0" dy="0" in="shadowSpreadOuter1" result="shadowOffsetOuter1"></feOffset>
            <feGaussianBlur stdDeviation="3" in="shadowOffsetOuter1" result="shadowBlurOuter1"></feGaussianBlur>
            <feComposite in="shadowBlurOuter1" in2="SourceAlpha" operator="out" result="shadowBlurOuter1"></feComposite>
            <feColorMatrix values="0 0 0 0 1   0 0 0 0 1   0 0 0 0 1  0 0 0 0.5 0" type="matrix" in="shadowBlurOuter1"></feColorMatrix>
        </filter>
    </defs>
    <g id="草稿" stroke="none" stroke-width="1" fill="none" fill-rule="evenodd">
        <g id="画板" transform="translate(-1502.000000, -258.000000)">
            <g id="408_小到中雪-01" transform="translate(1502.000000, 258.000000)">
                <rect id="矩形" x="0" y="0" width="80" height="80"></rect>
                <g id="形状" transform="translate(8.000000, 8.000000)" fill-rule="nonzero">
                    <g id="路径">
                        <use fill="black" fill-opacity="1" filter="url(#filter-2)" xlink:href="#path-1"></use>
                        <use stroke="#FFFFFF" stroke-width="1" fill="#E0F2FF" xlink:href="#path-1"></use>
                    </g>
                    <g>
                        <use fill="black" fill-opacity="1" filter="url(#filter-4)" xlink:href="#path-3"></use>
                        <use stroke="#FFFFFF" stroke-width="1" fill="#E0F2FF" xlink:href="#path-3"></use>
                    </g>
                    <g id="路径">
                        <use fill="black" fill-opacity="1" filter="url(#filter-6)" xlink:href="#path-5"></use>
                        <use stroke="#FFFFFF" stroke-width="1" fill="#E0F2FF" xlink:href="#path-5"></use>
                    </g>
                    <g id="路径">
                        <use fill="black" fill-opacity="1" filter="url(#filter-8)" xlink:href="#path-7"></use>
                        <use stroke="#FFFFFF" stroke-width="1" fill="#E0F2FF" xlink:href="#path-7"></use>
                    </g>
                    <g>
                        <use fill="black" fill-opacity="1" filter="url(#filter-10)" xlink:href="#path-9"></use>
                        <use stroke="#FFFFFF" stroke-width="1" fill="#E0F2FF" xlink:href="#path-9"></use>
                    </g>
                    <g id="路径">
                        <use fill="black" fill-opacity="1" filter="url(#filter-12)" xlink:href="#path-11"></use>
                        <use stroke="#FFFFFF" stroke-width="1" fill="#E0F2FF" xlink:href="#path-11"></use>
                    </g>
                </g>
            </g>
        </g>
    </g>
</svg>