<?xml version="1.0" encoding="UTF-8"?>
<svg width="80px" height="80px" viewBox="0 0 80 80" version="1.1" xmlns="http://www.w3.org/2000/svg" xmlns:xlink="http://www.w3.org/1999/xlink">
    <title>409_中到大雪-01</title>
    <defs>
        <path d="M23.8211068,30.6302994 L23.1311068,30.3602994 L23.7011068,29.7502994 C23.786606,29.6657659 23.8347209,29.5505327 23.8347209,29.4302994 C23.8347209,29.3100662 23.786606,29.194833 23.7011068,29.1102994 L23.7011068,29.1102994 C23.4994089,28.9283549 23.1928046,28.9283549 22.9911068,29.1102994 L22.5911068,29.5302994 L22.4711068,28.9102994 C22.4255409,28.6681887 22.1937616,28.5077261 21.9511068,28.5502994 L21.9011068,28.5502994 C21.8054635,28.5704252 21.7182432,28.6192686 21.6511068,28.6902994 C21.5337775,28.8084509 21.4815145,28.9764391 21.5111068,29.1402994 L21.6411068,29.7902994 L20.9611068,29.5502994 C20.7374431,29.4607561 20.4833584,29.5677391 20.3911068,29.7902994 C20.3867707,29.8100644 20.3867707,29.8305345 20.3911068,29.8502994 C20.3710809,29.9425586 20.3710809,30.0380403 20.3911068,30.1302994 C20.4288263,30.29404 20.5447785,30.4286942 20.7011068,30.4902994 L21.4411068,30.7602994 L20.8611068,31.3702994 C20.6818241,31.5498789 20.6818241,31.84072 20.8611068,32.0202994 L20.8611068,32.0202994 C20.9335112,32.0799257 21.0192963,32.1211025 21.1111068,32.1402994 C21.2793795,32.1640506 21.4491815,32.1086804 21.5711068,31.9902994 L21.9711068,31.5702994 L22.0911068,32.1902994 C22.1415165,32.4393128 22.3806887,32.60319 22.6311068,32.5602994 L22.6311068,32.5602994 C22.9214934,32.5389612 23.1426738,32.2912392 23.1311068,32.0002994 L23.0011068,31.3502994 L23.6711068,31.5902994 C23.9002725,31.6794208 24.1585439,31.5680969 24.2511068,31.3402994 C24.2511068,31.3402994 24.2511068,31.3402994 24.2511068,31.3402994 C24.3161738,31.1889745 24.304147,31.0155402 24.2188158,30.8746446 C24.1334847,30.7337491 23.985357,30.6427421 23.8211068,30.6302994 Z" id="path-1"></path>
        <filter x="-241.9%" y="-235.1%" width="584.5%" height="571.0%" filterUnits="objectBoundingBox" id="filter-2">
            <feMorphology radius="0.5" operator="dilate" in="SourceAlpha" result="shadowSpreadOuter1"></feMorphology>
            <feOffset dx="0" dy="0" in="shadowSpreadOuter1" result="shadowOffsetOuter1"></feOffset>
            <feGaussianBlur stdDeviation="3" in="shadowOffsetOuter1" result="shadowBlurOuter1"></feGaussianBlur>
            <feComposite in="shadowBlurOuter1" in2="SourceAlpha" operator="out" result="shadowBlurOuter1"></feComposite>
            <feColorMatrix values="0 0 0 0 1   0 0 0 0 1   0 0 0 0 1  0 0 0 0.5 0" type="matrix" in="shadowBlurOuter1"></feColorMatrix>
        </filter>
        <path d="M14.7311068,30.6302994 L13.9911068,30.3602994 L14.5711068,29.7502994 C14.7503894,29.57072 14.7503894,29.2798789 14.5711068,29.1002994 L14.5711068,29.1002994 C14.3727052,28.9197364 14.0695083,28.9197364 13.8711068,29.1002994 L13.4711068,29.5202994 L13.3411068,28.9002994 C13.2955409,28.6581887 13.0637616,28.4977261 12.8211068,28.5402994 L12.7711068,28.5402994 C12.5124862,28.6126323 12.3463166,28.8640171 12.3811068,29.1302994 L12.5111068,29.7802994 L11.8411068,29.5402994 C11.6036508,29.4526457 11.3399937,29.5733023 11.2511068,29.8102994 L11.2511068,29.8102994 C11.2310809,29.9025586 11.2310809,29.9980403 11.2511068,30.0902994 C11.2908184,30.2562834 11.4109234,30.3914015 11.5711068,30.4502994 L12.3111068,30.7202994 L11.7311068,31.3302994 C11.6456076,31.414833 11.5974926,31.5300662 11.5974926,31.6502994 C11.5974926,31.7705327 11.6456076,31.8857659 11.7311068,31.9702994 L11.7311068,31.9702994 C11.8035112,32.0299257 11.8892963,32.0711025 11.9811068,32.0902994 C12.1493795,32.1140506 12.3191815,32.0586804 12.4411068,31.9402994 L12.8411068,31.5202994 L12.9611068,32.1402994 C12.9849121,32.263798 13.0582468,32.3721635 13.1640435,32.4401757 C13.2698402,32.5081878 13.3988712,32.5299146 13.5211068,32.5002994 L13.5211068,32.5002994 C13.7899356,32.4357734 13.9612753,32.1721738 13.9111068,31.9002994 L13.7911068,31.2502994 L14.4611068,31.4902994 C14.6902725,31.5794208 14.9485439,31.4680969 15.0411068,31.2402994 C15.0411068,31.2402994 15.0411068,31.2402994 15.0411068,31.2402994 C15.1049513,30.9880435 14.9725085,30.7274303 14.7311068,30.6302994 L14.7311068,30.6302994 Z" id="path-3"></path>
        <filter x="-248.6%" y="-238.7%" width="597.2%" height="577.1%" filterUnits="objectBoundingBox" id="filter-4">
            <feMorphology radius="0.5" operator="dilate" in="SourceAlpha" result="shadowSpreadOuter1"></feMorphology>
            <feOffset dx="0" dy="0" in="shadowSpreadOuter1" result="shadowOffsetOuter1"></feOffset>
            <feGaussianBlur stdDeviation="3" in="shadowOffsetOuter1" result="shadowBlurOuter1"></feGaussianBlur>
            <feComposite in="shadowBlurOuter1" in2="SourceAlpha" operator="out" result="shadowBlurOuter1"></feComposite>
            <feColorMatrix values="0 0 0 0 1   0 0 0 0 1   0 0 0 0 1  0 0 0 0.5 0" type="matrix" in="shadowBlurOuter1"></feColorMatrix>
        </filter>
        <path d="M23.9611068,23.6502994 L9.24110676,23.6502994 C6.65097042,23.6755388 4.23929673,22.333711 2.89516944,20.1194922 C1.55104215,17.9052733 1.47349133,15.1465313 2.69110676,12.8602994 C2.71838844,12.7939611 2.75187023,12.7303457 2.79110676,12.6702994 C2.95244271,12.3883122 3.13286314,12.1176816 3.33110676,11.8602994 L3.48110676,11.6602994 C3.67979865,11.4232926 3.89716078,11.2025864 4.13110676,11.0002994 L4.32110676,10.8202994 C4.56743007,10.6031222 4.82801238,10.4026743 5.10110676,10.2202994 L5.28110676,10.1002994 C5.5892241,9.91787126 5.90628824,9.7509954 6.23110676,9.60029944 L6.33110676,9.60029944 C6.7036937,9.44053626 7.08819795,9.31013916 7.48110676,9.21029944 L7.48110676,9.21029944 C8.40248119,8.96084627 9.36300504,8.88957065 10.3111068,9.00029944 C10.845667,8.90835612 11.2094694,8.4070187 11.1311068,7.87029944 C11.0844161,7.53340025 10.8696892,7.24333067 10.5611068,7.10029944 C9.92278889,7.00199509 9.2761662,6.96849133 8.63110676,7.00029944 C10.4518089,2.74605011 15.3673579,0.761955791 19.6311068,2.56029944 C20.7387223,3.02834235 21.7315705,3.7311834 22.5411068,4.62029944 C22.028992,4.69038477 21.5214473,4.79055806 21.0211068,4.92029944 C18.3188753,5.67157908 16.0290262,7.47177489 14.6611068,9.92029944 C14.4285921,10.3840088 14.5892616,10.9485232 15.0311068,11.2202994 C15.1755505,11.2982668 15.3369659,11.3394792 15.5011068,11.3402994 C15.8506016,11.3367326 16.1728733,11.1509524 16.3511068,10.8502994 C17.9631745,8.01182426 21.0299815,6.31619673 24.2911068,6.46029944 L24.3711068,6.46029944 C28.9720755,6.76959637 32.5079845,10.6565167 32.3817302,15.2661411 C32.2554759,19.8757655 28.5121077,23.5633117 23.9011068,23.6202994 L23.9611068,23.6502994 Z M29.1911068,5.94029944 L29.1311068,5.88029944 L28.8411068,5.74029944 L28.7111068,5.67029944 C27.5605521,5.0906834 26.313071,4.7279647 25.0311068,4.60029944 C23.0992853,1.73137761 19.8698041,0.00798855888 16.4111068,0.00014881016 C11.8090701,-0.0244768665 7.75014751,3.00950652 6.47110676,7.43029944 L6.17110676,7.54029944 L5.82110676,7.66029944 C4.10836774,8.32947352 2.63274052,9.49187798 1.58110676,11.0002994 L1.58110676,11.0002994 C1.43622414,11.2027398 1.30268556,11.413063 1.18110676,11.6302994 L1.18110676,11.7102994 C1.07110676,11.9102994 0.961106757,12.1102994 0.861106757,12.3202994 C0.848607761,12.3587212 0.831836127,12.3956188 0.811106757,12.4302994 C0.711106757,12.6402994 0.631106757,12.8402994 0.551106757,13.0602994 L0.551106757,13.1402994 L0.551106757,13.1402994 C-0.478838539,15.9941953 -0.0486395788,19.1713442 1.70316275,21.64858 C3.45496508,24.1258159 6.30711427,25.5902582 9.34110676,25.5702994 L23.9611068,25.5702994 C28.7451029,25.6080232 32.948557,22.4041383 34.1802264,17.7812569 C35.4118958,13.1583755 33.3597096,8.28780707 29.1911068,5.94029944 Z" id="path-5"></path>
        <filter x="-27.5%" y="-37.2%" width="155.0%" height="174.3%" filterUnits="objectBoundingBox" id="filter-6">
            <feMorphology radius="0.5" operator="dilate" in="SourceAlpha" result="shadowSpreadOuter1"></feMorphology>
            <feOffset dx="0" dy="0" in="shadowSpreadOuter1" result="shadowOffsetOuter1"></feOffset>
            <feGaussianBlur stdDeviation="3" in="shadowOffsetOuter1" result="shadowBlurOuter1"></feGaussianBlur>
            <feComposite in="shadowBlurOuter1" in2="SourceAlpha" operator="out" result="shadowBlurOuter1"></feComposite>
            <feColorMatrix values="0 0 0 0 1   0 0 0 0 1   0 0 0 0 1  0 0 0 0.5 0" type="matrix" in="shadowBlurOuter1"></feColorMatrix>
        </filter>
        <path d="M47.9211068,55.4902994 L47.1811068,55.2202994 L47.7611068,54.6202994 C47.9403894,54.44072 47.9403894,54.1498789 47.7611068,53.9702994 L47.7611068,53.9702994 C47.5632931,53.7785161 47.2489204,53.7785161 47.0511068,53.9702994 L46.6511068,54.3902994 L46.5311068,53.7702994 C46.4715029,53.5193165 46.2241831,53.3603252 45.9711068,53.4102994 C45.876361,53.4381977 45.7903091,53.4898289 45.7211068,53.5602994 C45.5986095,53.6755275 45.5422458,53.8446186 45.5711068,54.0102994 L45.7011068,54.6602994 L45.0211068,54.4202994 C44.7809255,54.3410894 44.5218475,54.4706284 44.4411068,54.7102994 L44.4411068,54.7102994 C44.4113309,54.8012579 44.4113309,54.8993409 44.4411068,54.9902994 C44.4808184,55.1562834 44.6009234,55.2914015 44.7611068,55.3502994 L45.4911068,55.6102994 L44.9211068,56.2202994 C44.8356076,56.304833 44.7874926,56.4200662 44.7874926,56.5402994 C44.7874926,56.6605327 44.8356076,56.7757659 44.9211068,56.8602994 L44.9211068,56.8602994 C44.9790652,56.9228991 45.0510307,56.9708761 45.1311068,57.0002994 C45.3000341,57.0327562 45.4737845,56.9760985 45.5911068,56.8502994 L45.9911068,56.4302994 L46.1111068,57.0602994 C46.1566726,57.3024102 46.3884519,57.4628728 46.6311068,57.4202994 L46.6311068,57.4202994 C46.8999356,57.3557734 47.0712753,57.0921738 47.0211068,56.8202994 L46.8911068,56.1702994 L47.5711068,56.4202994 C47.6837878,56.462074 47.808497,56.4570418 47.9174459,56.4063242 C48.0263948,56.3556066 48.1105309,56.2634177 48.1511068,56.1502994 C48.1511068,56.1502994 48.1511068,56.1502994 48.1511068,56.1502994 C48.2557631,55.9038939 48.1562362,55.6182948 47.9211068,55.4902994 L47.9211068,55.4902994 Z" id="path-7"></path>
        <filter x="-251.7%" y="-235.0%" width="603.5%" height="570.8%" filterUnits="objectBoundingBox" id="filter-8">
            <feMorphology radius="0.5" operator="dilate" in="SourceAlpha" result="shadowSpreadOuter1"></feMorphology>
            <feOffset dx="0" dy="0" in="shadowSpreadOuter1" result="shadowOffsetOuter1"></feOffset>
            <feGaussianBlur stdDeviation="3" in="shadowOffsetOuter1" result="shadowBlurOuter1"></feGaussianBlur>
            <feComposite in="shadowBlurOuter1" in2="SourceAlpha" operator="out" result="shadowBlurOuter1"></feComposite>
            <feColorMatrix values="0 0 0 0 1   0 0 0 0 1   0 0 0 0 1  0 0 0 0.5 0" type="matrix" in="shadowBlurOuter1"></feColorMatrix>
        </filter>
        <path d="M41.6611068,60.0002994 L40.9311068,59.7302994 L41.5011068,59.1202994 C41.586606,59.0357659 41.6347209,58.9205327 41.6347209,58.8002994 C41.6347209,58.6800662 41.586606,58.564833 41.5011068,58.4802994 L41.5011068,58.4802994 C41.2994089,58.2983549 40.9928046,58.2983549 40.7911068,58.4802994 L40.3911068,58.9002994 L40.2711068,58.2802994 C40.2255409,58.0381887 39.9937616,57.8777261 39.7511068,57.9202994 L39.7511068,57.9202994 C39.6583419,57.9404818 39.5743363,57.9894851 39.5111068,58.0602994 C39.3886095,58.1755275 39.3322458,58.3446186 39.3611068,58.5102994 L39.4911068,59.1602994 L38.7211068,59.0002994 C38.4974431,58.9107561 38.2433584,59.0177391 38.1511068,59.2402994 C38.1467707,59.2600644 38.1467707,59.2805345 38.1511068,59.3002994 C38.1310809,59.3925586 38.1310809,59.4880403 38.1511068,59.5802994 C38.1817219,59.7475359 38.3002669,59.885201 38.4611068,59.9402994 L39.2011068,60.2102994 L38.6211068,60.8202994 C38.4418241,60.9998789 38.4418241,61.29072 38.6211068,61.4702994 L38.6211068,61.4702994 C38.6935112,61.5299257 38.7792963,61.5711025 38.8711068,61.5902994 C39.0393795,61.6140506 39.2091815,61.5586804 39.3311068,61.4402994 L39.7311068,61.0202994 L39.8511068,61.6402994 C39.9015165,61.8893128 40.1406887,62.05319 40.3911068,62.0102994 L40.3911068,62.0102994 C40.6599356,61.9457734 40.8312753,61.6821738 40.7811068,61.4102994 L40.6511068,60.7602994 L41.3211068,61.0102994 C41.4364529,61.0519073 41.5636375,61.0457399 41.6744167,60.9931667 C41.7851958,60.9405936 41.8703996,60.8459666 41.9111068,60.7302994 L41.9111068,60.7302994 C41.9730088,60.6057929 41.9824682,60.4616811 41.9373722,60.3301513 C41.8922763,60.1986215 41.7963818,60.090631 41.6711068,60.0302994 L41.6611068,60.0002994 Z" id="path-9"></path>
        <filter x="-247.4%" y="-231.5%" width="595.5%" height="562.8%" filterUnits="objectBoundingBox" id="filter-10">
            <feMorphology radius="0.5" operator="dilate" in="SourceAlpha" result="shadowSpreadOuter1"></feMorphology>
            <feOffset dx="0" dy="0" in="shadowSpreadOuter1" result="shadowOffsetOuter1"></feOffset>
            <feGaussianBlur stdDeviation="3" in="shadowOffsetOuter1" result="shadowBlurOuter1"></feGaussianBlur>
            <feComposite in="shadowBlurOuter1" in2="SourceAlpha" operator="out" result="shadowBlurOuter1"></feComposite>
            <feColorMatrix values="0 0 0 0 1   0 0 0 0 1   0 0 0 0 1  0 0 0 0.5 0" type="matrix" in="shadowBlurOuter1"></feColorMatrix>
        </filter>
        <path d="M54.1311068,60.0002994 L53.3911068,59.7302994 L53.9711068,59.1202994 C54.060305,59.0336776 54.1106383,58.9146363 54.1106383,58.7902994 C54.1106383,58.6659625 54.060305,58.5469213 53.9711068,58.4602994 L53.9711068,58.4602994 C53.7694089,58.2783549 53.4628046,58.2783549 53.2611068,58.4602994 L52.8611068,58.8802994 L52.7311068,58.2602994 C52.6888537,58.1440325 52.6006005,58.0502874 52.4870929,58.0011007 C52.3735852,57.9519141 52.2448347,57.9516243 52.1311068,58.0002994 L52.1311068,58.0002994 C51.8724862,58.0726323 51.7063166,58.3240171 51.7411068,58.5902994 L51.8711068,59.2402994 L51.2311068,59.0002994 C50.9936508,58.9126457 50.7299937,59.0333023 50.6411068,59.2702994 L50.6411068,59.2702994 C50.6210809,59.3625586 50.6210809,59.4580403 50.6411068,59.5502994 C50.6808184,59.7162834 50.8009234,59.8514015 50.9611068,59.9102994 L51.7011068,60.1802994 L51.1211068,60.7902994 C51.0356076,60.874833 50.9874926,60.9900662 50.9874926,61.1102994 C50.9874926,61.2305327 51.0356076,61.3457659 51.1211068,61.4302994 L51.1211068,61.4302994 C51.1935112,61.4899257 51.2792963,61.5311025 51.3711068,61.5502994 C51.5393795,61.5740506 51.7091815,61.5186804 51.8311068,61.4002994 L52.2311068,60.9802994 L52.3511068,61.6002994 C52.4015165,61.8493128 52.6406887,62.01319 52.8911068,61.9702994 L52.8911068,61.9702994 C53.1599356,61.9057734 53.3312753,61.6421738 53.2811068,61.3702994 L53.1611068,60.7202994 L53.8311068,60.9702994 C53.9464529,61.0119073 54.0736375,61.0057399 54.1844167,60.9531667 C54.2951958,60.9005936 54.3803996,60.8059666 54.4211068,60.6902994 L54.4211068,60.6902994 C54.4785131,60.5643713 54.4833522,60.4207541 54.4345526,60.2912474 C54.385753,60.1617407 54.2873409,60.0570297 54.1611068,60.0002994 L54.1311068,60.0002994 Z" id="path-11"></path>
        <filter x="-247.3%" y="-236.7%" width="594.5%" height="573.2%" filterUnits="objectBoundingBox" id="filter-12">
            <feMorphology radius="0.5" operator="dilate" in="SourceAlpha" result="shadowSpreadOuter1"></feMorphology>
            <feOffset dx="0" dy="0" in="shadowSpreadOuter1" result="shadowOffsetOuter1"></feOffset>
            <feGaussianBlur stdDeviation="3" in="shadowOffsetOuter1" result="shadowBlurOuter1"></feGaussianBlur>
            <feComposite in="shadowBlurOuter1" in2="SourceAlpha" operator="out" result="shadowBlurOuter1"></feComposite>
            <feColorMatrix values="0 0 0 0 1   0 0 0 0 1   0 0 0 0 1  0 0 0 0.5 0" type="matrix" in="shadowBlurOuter1"></feColorMatrix>
        </filter>
        <path d="M53.7311068,49.6504579 L39.0211068,49.6504579 C36.4340095,49.6672404 34.0279984,48.3245919 32.6839864,46.113938 C31.3399744,43.903284 31.2553538,41.149299 32.4611068,38.8602994 L32.5711068,38.6702994 C32.7324427,38.3883122 32.9128631,38.1176816 33.1111068,37.8602994 L33.2611068,37.6602994 C33.4619943,37.4127958 33.6791414,37.1789451 33.9111068,36.9602994 L34.1111068,36.7802994 C34.3611068,36.5702994 34.6111068,36.3702994 34.8811068,36.1802994 L35.0711068,36.0602994 C35.3941454,35.8737926 35.7280781,35.7068263 36.0711068,35.5602994 L36.1311068,35.5602994 C36.5036937,35.4005363 36.8881979,35.2701392 37.2811068,35.1702994 L37.2811068,35.1702994 C38.2110247,34.9289145 39.179088,34.8711704 40.1311068,35.0002994 C40.5190917,35.1766329 40.9762004,35.0876975 41.2697706,34.77876 C41.5633408,34.4698224 41.6288581,34.0087744 41.4329752,33.630283 C41.2370923,33.2517916 40.8228559,33.0390334 40.4011068,33.1002994 C39.7394653,33.000132 39.0694401,32.9666307 38.4011068,33.0002994 C39.5188139,30.3496304 41.9124124,28.4530196 44.7484089,27.9709002 C47.5844054,27.4887807 50.4702749,28.4878821 52.4011068,30.6202994 C51.888992,30.6903848 51.3814473,30.7905581 50.8811068,30.9202994 C48.1788753,31.6715791 45.8890262,33.4717749 44.5211068,35.9202994 C44.2885921,36.3840088 44.4492616,36.9485232 44.8911068,37.2202994 C45.0355505,37.2982668 45.1969659,37.3394792 45.3611068,37.3402994 C45.7106016,37.3367326 46.0328733,37.1509524 46.2111068,36.8502994 C47.822496,34.0222734 50.8791633,32.3318438 54.1311068,32.4702994 L54.2111068,32.4702994 C58.8133741,32.780492 62.3490697,36.6701348 62.2200933,41.2810403 C62.0911169,45.8919458 58.3435177,49.5778602 53.7311068,49.6302994 L53.7311068,49.6504579 Z M58.9711068,31.9402994 L58.9011068,31.8802994 L58.6111068,31.7402994 L58.4811068,31.6702994 C57.3319215,31.0962219 56.0887518,30.7337719 54.8111068,30.6002994 C52.8792853,27.7313776 49.6498041,26.0079886 46.1911068,26.0001488 C41.5890701,25.9755231 37.5301475,29.0095065 36.2511068,33.4302994 L35.9511068,33.5402994 L35.6011068,33.6602994 C33.8883677,34.3294735 32.4127405,35.491878 31.3611068,37.0002994 L31.3611068,37.0002994 C31.2095067,37.2001939 31.0724862,37.4107376 30.9511068,37.6302994 L30.9511068,37.7102994 C30.8411068,37.9102994 30.7311068,38.1102994 30.6311068,38.3202994 L30.6311068,38.4302994 C30.5311068,38.6402994 30.4511068,38.8402994 30.3711068,39.0602994 L30.3711068,39.1402994 L30.3711068,39.1402994 C30.0045022,40.1499306 29.8183328,41.2161736 29.8210762,42.2902994 C29.8431116,47.4180662 34.0032957,51.5648447 39.1311068,51.5702994 L53.7311068,51.5702994 C58.5169862,51.6126697 62.7247281,48.4103147 63.9590917,43.7861625 C65.1934553,39.1620102 63.1414232,34.2886814 58.9711068,31.9402994 Z" id="path-13"></path>
        <filter x="-27.5%" y="-37.2%" width="155.1%" height="174.3%" filterUnits="objectBoundingBox" id="filter-14">
            <feMorphology radius="0.5" operator="dilate" in="SourceAlpha" result="shadowSpreadOuter1"></feMorphology>
            <feOffset dx="0" dy="0" in="shadowSpreadOuter1" result="shadowOffsetOuter1"></feOffset>
            <feGaussianBlur stdDeviation="3" in="shadowOffsetOuter1" result="shadowBlurOuter1"></feGaussianBlur>
            <feComposite in="shadowBlurOuter1" in2="SourceAlpha" operator="out" result="shadowBlurOuter1"></feComposite>
            <feColorMatrix values="0 0 0 0 1   0 0 0 0 1   0 0 0 0 1  0 0 0 0.5 0" type="matrix" in="shadowBlurOuter1"></feColorMatrix>
        </filter>
        <path d="M59.3811068,15.2102994 C58.6434631,14.8480718 57.7516874,15.1468166 57.3811068,15.8802994 L55.8711068,18.8802994 C52.620383,11.161965 45.4925947,5.76940604 37.1811068,4.74029944 C36.3729164,4.63839684 35.6295736,5.19590401 35.5011068,6.00029944 C35.4009543,6.81988461 35.9820002,7.56630513 36.8011068,7.67029944 C44.0815532,8.58068774 50.3147191,13.3252224 53.1311068,20.1002994 L50.2111068,19.1002994 C49.4492522,18.8968437 48.6591227,19.3138733 48.3972243,20.0576648 C48.1353259,20.8014562 48.4898541,21.6215344 49.2111068,21.9402994 L49.2111068,21.9402994 L55.2111068,23.9402994 L55.2111068,23.9402994 C55.3471901,23.9829678 55.4885409,24.0065263 55.6311068,24.0102994 L55.6311068,24.0102994 C55.7959246,24.0454068 55.9662889,24.0454068 56.1311068,24.0102994 L56.2611068,24.0102994 L56.5311068,23.8802994 L56.6611068,23.7702994 L56.8511068,23.5802994 L56.9611068,23.4302994 L57.0411068,23.3002994 L60.0411068,17.3002994 C60.4118996,16.5856189 60.1567288,15.7057197 59.4611068,15.3002994 L59.3811068,15.2102994 Z" id="path-15"></path>
        <filter x="-38.4%" y="-49.2%" width="176.9%" height="194.9%" filterUnits="objectBoundingBox" id="filter-16">
            <feMorphology radius="0.5" operator="dilate" in="SourceAlpha" result="shadowSpreadOuter1"></feMorphology>
            <feOffset dx="0" dy="0" in="shadowSpreadOuter1" result="shadowOffsetOuter1"></feOffset>
            <feGaussianBlur stdDeviation="3" in="shadowOffsetOuter1" result="shadowBlurOuter1"></feGaussianBlur>
            <feComposite in="shadowBlurOuter1" in2="SourceAlpha" operator="out" result="shadowBlurOuter1"></feComposite>
            <feColorMatrix values="0 0 0 0 1   0 0 0 0 1   0 0 0 0 1  0 0 0 0.5 0" type="matrix" in="shadowBlurOuter1"></feColorMatrix>
        </filter>
    </defs>
    <g id="草稿" stroke="none" stroke-width="1" fill="none" fill-rule="evenodd">
        <g id="画板" transform="translate(-1606.000000, -258.000000)">
            <g id="409_中到大雪-01" transform="translate(1606.000000, 258.000000)">
                <rect id="矩形" x="0" y="0" width="80" height="80"></rect>
                <g id="形状" transform="translate(8.000000, 8.000000)" fill-rule="nonzero">
                    <g id="路径">
                        <use fill="black" fill-opacity="1" filter="url(#filter-2)" xlink:href="#path-1"></use>
                        <use stroke="#FFFFFF" stroke-width="1" fill="#E0F2FF" xlink:href="#path-1"></use>
                    </g>
                    <g id="路径">
                        <use fill="black" fill-opacity="1" filter="url(#filter-4)" xlink:href="#path-3"></use>
                        <use stroke="#FFFFFF" stroke-width="1" fill="#E0F2FF" xlink:href="#path-3"></use>
                    </g>
                    <g>
                        <use fill="black" fill-opacity="1" filter="url(#filter-6)" xlink:href="#path-5"></use>
                        <use stroke="#FFFFFF" stroke-width="1" fill="#E0F2FF" xlink:href="#path-5"></use>
                    </g>
                    <g id="路径">
                        <use fill="black" fill-opacity="1" filter="url(#filter-8)" xlink:href="#path-7"></use>
                        <use stroke="#FFFFFF" stroke-width="1" fill="#E0F2FF" xlink:href="#path-7"></use>
                    </g>
                    <g id="路径">
                        <use fill="black" fill-opacity="1" filter="url(#filter-10)" xlink:href="#path-9"></use>
                        <use stroke="#FFFFFF" stroke-width="1" fill="#E0F2FF" xlink:href="#path-9"></use>
                    </g>
                    <g id="路径">
                        <use fill="black" fill-opacity="1" filter="url(#filter-12)" xlink:href="#path-11"></use>
                        <use stroke="#FFFFFF" stroke-width="1" fill="#E0F2FF" xlink:href="#path-11"></use>
                    </g>
                    <g>
                        <use fill="black" fill-opacity="1" filter="url(#filter-14)" xlink:href="#path-13"></use>
                        <use stroke="#FFFFFF" stroke-width="1" fill="#E0F2FF" xlink:href="#path-13"></use>
                    </g>
                    <g id="路径">
                        <use fill="black" fill-opacity="1" filter="url(#filter-16)" xlink:href="#path-15"></use>
                        <use stroke="#FFFFFF" stroke-width="1" fill="#E0F2FF" xlink:href="#path-15"></use>
                    </g>
                </g>
            </g>
        </g>
    </g>
</svg>