<?xml version="1.0" encoding="UTF-8"?>
<svg width="80px" height="80px" viewBox="0 0 80 80" version="1.1" xmlns="http://www.w3.org/2000/svg" xmlns:xlink="http://www.w3.org/1999/xlink">
    <title>410_大到暴雪-01</title>
    <defs>
        <path d="M44.0400604,55.4902994 L43.3100604,55.2202994 L43.8800604,54.6202994 C43.9655596,54.5357659 44.0136746,54.4205327 44.0136746,54.3002994 C44.0136746,54.1800662 43.9655596,54.064833 43.8800604,53.9802994 L43.8800604,53.9802994 C43.6822468,53.7885161 43.3678741,53.7885161 43.1700604,53.9802994 L42.7700604,54.4002994 L42.6500604,53.7802994 C42.6044946,53.5381887 42.3727153,53.3777261 42.1300604,53.4202994 L42.1300604,53.4202994 C42.0344172,53.4404252 41.9471968,53.4892686 41.8800604,53.5602994 C41.7706656,53.6830814 41.7196291,53.8471271 41.7400604,54.0102994 L41.8700604,54.6602994 L41.1900604,54.4202994 C41.0747143,54.3786915 40.9475297,54.384859 40.8367505,54.4374321 C40.7259714,54.4900053 40.6407676,54.5846323 40.6000604,54.7002994 L40.6000604,54.7002994 C40.5800346,54.7925586 40.5800346,54.8880403 40.6000604,54.9802994 C40.63778,55.14404 40.7537322,55.2786942 40.9100604,55.3402994 L41.6500604,55.6002994 L41.0700604,56.2102994 C40.8907778,56.3898789 40.8907778,56.68072 41.0700604,56.8602994 L41.0700604,56.8602994 C41.1372877,56.9260484 41.2197371,56.9741439 41.3100604,57.0002994 C41.4761408,57.0352106 41.6481428,56.9778766 41.7600604,56.8502994 L42.1700604,56.4302994 L42.2900604,57.0602994 C42.3356263,57.3024102 42.5674056,57.4628728 42.8100604,57.4202994 L42.8100604,57.4202994 C43.0788892,57.3557734 43.250229,57.0921738 43.2000604,56.8202994 L43.0700604,56.1702994 L43.7400604,56.4202994 C43.8554066,56.4619073 43.9825912,56.4557399 44.0933703,56.4031667 C44.2041495,56.3505936 44.2893532,56.2559666 44.3300604,56.1402994 L44.3300604,56.1402994 C44.4200496,55.881054 44.2930961,55.5965031 44.0400604,55.4902994 L44.0400604,55.4902994 Z" id="path-1"></path>
        <filter x="-251.7%" y="-236.7%" width="603.5%" height="573.2%" filterUnits="objectBoundingBox" id="filter-2">
            <feMorphology radius="0.5" operator="dilate" in="SourceAlpha" result="shadowSpreadOuter1"></feMorphology>
            <feOffset dx="0" dy="0" in="shadowSpreadOuter1" result="shadowOffsetOuter1"></feOffset>
            <feGaussianBlur stdDeviation="3" in="shadowOffsetOuter1" result="shadowBlurOuter1"></feGaussianBlur>
            <feComposite in="shadowBlurOuter1" in2="SourceAlpha" operator="out" result="shadowBlurOuter1"></feComposite>
            <feColorMatrix values="0 0 0 0 1   0 0 0 0 1   0 0 0 0 1  0 0 0 0.5 0" type="matrix" in="shadowBlurOuter1"></feColorMatrix>
        </filter>
        <path d="M39.2100604,60.0002994 L38.4700604,59.7302994 L39.0500604,59.1202994 C39.1355596,59.0357659 39.1836746,58.9205327 39.1836746,58.8002994 C39.1836746,58.6800662 39.1355596,58.564833 39.0500604,58.4802994 L39.0500604,58.4802994 C38.8483626,58.2983549 38.5417583,58.2983549 38.3400604,58.4802994 L37.9400604,58.9002994 L37.8200604,58.2802994 C37.7757976,58.1658387 37.6867078,58.0744206 37.5734268,58.0272202 C37.4601458,57.9800198 37.3325017,57.9811321 37.2200604,58.0302994 L37.2200604,58.0302994 C37.1244172,58.0504252 37.0371968,58.0992686 36.9700604,58.1702994 C36.8461286,58.2843753 36.7927188,58.4560496 36.8300604,58.6202994 L36.9500604,59.2702994 L36.3100604,59.0002994 C36.0726044,58.9126457 35.8089474,59.0333023 35.7200604,59.2702994 L35.7200604,59.2702994 C35.6902846,59.3612579 35.6902846,59.4593409 35.7200604,59.5502994 C35.7506756,59.7175359 35.8692205,59.855201 36.0300604,59.9102994 L36.7700604,60.1802994 L36.1900604,60.7902994 C36.1008622,60.8769213 36.0505288,60.9959625 36.0505288,61.1202994 C36.0505288,61.2446363 36.1008622,61.3636776 36.1900604,61.4502994 L36.1900604,61.4502994 C36.2672269,61.5083011 36.3558585,61.549208 36.4500604,61.5702994 C36.6153128,61.5939594 36.7820545,61.5383789 36.9000604,61.4202994 L37.3100604,61.0002994 L37.4400604,61.6202994 C37.4904702,61.8693128 37.7296424,62.03319 37.9800604,61.9902994 L37.9800604,61.9902994 C38.2429429,61.9175073 38.4102607,61.6600953 38.3700604,61.3902994 L38.3100604,60.7302994 L38.9800604,60.9802994 C39.0954066,61.0219073 39.2225912,61.0157399 39.3333703,60.9631667 C39.4441495,60.9105936 39.5293532,60.8159666 39.5700604,60.7002994 L39.5700604,60.7002994 C39.618056,60.5717522 39.6122279,60.4292877 39.5538927,60.3050903 C39.4955576,60.1808929 39.3896373,60.0854415 39.2600604,60.0402994 L39.2100604,60.0002994 Z" id="path-3"></path>
        <filter x="-242.9%" y="-236.7%" width="586.2%" height="573.7%" filterUnits="objectBoundingBox" id="filter-4">
            <feMorphology radius="0.5" operator="dilate" in="SourceAlpha" result="shadowSpreadOuter1"></feMorphology>
            <feOffset dx="0" dy="0" in="shadowSpreadOuter1" result="shadowOffsetOuter1"></feOffset>
            <feGaussianBlur stdDeviation="3" in="shadowOffsetOuter1" result="shadowBlurOuter1"></feGaussianBlur>
            <feComposite in="shadowBlurOuter1" in2="SourceAlpha" operator="out" result="shadowBlurOuter1"></feComposite>
            <feColorMatrix values="0 0 0 0 1   0 0 0 0 1   0 0 0 0 1  0 0 0 0.5 0" type="matrix" in="shadowBlurOuter1"></feColorMatrix>
        </filter>
        <path d="M58.5400604,60.0002994 L57.8000604,59.7302994 L58.3800604,59.1202994 C58.5593431,58.94072 58.5593431,58.6498789 58.3800604,58.4702994 L58.3800604,58.4702994 C58.1783626,58.2883549 57.8717583,58.2883549 57.6700604,58.4702994 L57.2700604,58.8902994 L57.1500604,58.2702994 C57.0904565,58.0193165 56.8431368,57.8603252 56.5900604,57.9102994 C56.4905447,57.9157442 56.394111,57.9467407 56.3100604,58.0002994 C56.1875632,58.1155275 56.1311995,58.2846186 56.1600604,58.4502994 L56.2900604,59.1002994 L55.6000604,59.0002994 C55.3626044,58.9126457 55.0989474,59.0333023 55.0100604,59.2702994 L55.0100604,59.2702994 C54.9900346,59.3625586 54.9900346,59.4580403 55.0100604,59.5502994 C55.049772,59.7162834 55.1698771,59.8514015 55.3300604,59.9102994 L56.0600604,60.1802994 L55.4900604,60.7902994 C55.4045612,60.874833 55.3564463,60.9900662 55.3564463,61.1102994 C55.3564463,61.2305327 55.4045612,61.3457659 55.4900604,61.4302994 L55.4900604,61.4302994 C55.5624648,61.4899257 55.64825,61.5311025 55.7400604,61.5502994 C55.9083332,61.5740506 56.0781352,61.5186804 56.2000604,61.4002994 L56.6000604,60.9802994 L56.7200604,61.6002994 C56.7703041,61.8484668 57.0116584,62.0093697 57.2600604,61.9602994 L57.3100604,62.0002994 C57.5788892,61.9357734 57.750229,61.6721738 57.7000604,61.4002994 L57.5700604,60.7502994 L58.2500604,61.0002994 C58.3627415,61.042074 58.4874506,61.0370418 58.5963995,60.9863242 C58.7053485,60.9356066 58.7894846,60.8434177 58.8300604,60.7302994 C58.8300604,60.7302994 58.8300604,60.7302994 58.8300604,60.7302994 C58.9421999,60.4734637 58.8260921,60.1742628 58.5700604,60.0602994 L58.5400604,60.0002994 Z" id="path-5"></path>
        <filter x="-245.0%" y="-231.3%" width="590.0%" height="563.4%" filterUnits="objectBoundingBox" id="filter-6">
            <feMorphology radius="0.5" operator="dilate" in="SourceAlpha" result="shadowSpreadOuter1"></feMorphology>
            <feOffset dx="0" dy="0" in="shadowSpreadOuter1" result="shadowOffsetOuter1"></feOffset>
            <feGaussianBlur stdDeviation="3" in="shadowOffsetOuter1" result="shadowBlurOuter1"></feGaussianBlur>
            <feComposite in="shadowBlurOuter1" in2="SourceAlpha" operator="out" result="shadowBlurOuter1"></feComposite>
            <feColorMatrix values="0 0 0 0 1   0 0 0 0 1   0 0 0 0 1  0 0 0 0.5 0" type="matrix" in="shadowBlurOuter1"></feColorMatrix>
        </filter>
        <path d="M53.7000604,55.4902994 L52.9700604,55.2202994 L53.5400604,54.6202994 C53.6255596,54.5357659 53.6736746,54.4205327 53.6736746,54.3002994 C53.6736746,54.1800662 53.6255596,54.064833 53.5400604,53.9802994 L53.5400604,53.9802994 C53.3422468,53.7885161 53.0278741,53.7885161 52.8300604,53.9802994 L52.4300604,54.4002994 L52.3100604,53.8002994 C52.2644946,53.5581887 52.0327153,53.3977261 51.7900604,53.4402994 L51.7900604,53.4402994 C51.6972956,53.4604818 51.61329,53.5094851 51.5500604,53.5802994 C51.4071103,53.6734982 51.3177801,53.8298261 51.3100604,54.0002994 L51.4400604,54.6502994 L50.7600604,54.4102994 C50.6473793,54.3685249 50.5226702,54.3735571 50.4137213,54.4242747 C50.3047724,54.4749923 50.2206362,54.5671812 50.1800604,54.6802994 L50.1800604,54.6802994 C50.1502846,54.7712579 50.1502846,54.8693409 50.1800604,54.9602994 C50.219772,55.1262834 50.3398771,55.2614015 50.5000604,55.3202994 L51.2300604,55.5802994 L50.6600604,56.1902994 C50.5745612,56.274833 50.5264463,56.3900662 50.5264463,56.5102994 C50.5264463,56.6305327 50.5745612,56.7457659 50.6600604,56.8302994 L50.6600604,56.8302994 C50.7324648,56.8899257 50.81825,56.9311025 50.9100604,56.9502994 C51.0789878,56.9827562 51.2527382,56.9260985 51.3700604,56.8002994 L51.7700604,56.3802994 L51.8900604,57.0102994 C51.9356263,57.2524102 52.1674056,57.4128728 52.4100604,57.3702994 L52.4100604,57.3702994 C52.6788892,57.3057734 52.850229,57.0421738 52.8000604,56.7702994 L52.6700604,56.1202994 L53.3500604,56.3702994 C53.4627415,56.412074 53.5874506,56.4070418 53.6963995,56.3563242 C53.8053485,56.3056066 53.8894846,56.2134177 53.9300604,56.1002994 L53.9300604,56.1002994 C54.006192,55.8681832 53.910491,55.6143676 53.7000604,55.4902994 L53.7000604,55.4902994 Z" id="path-7"></path>
        <filter x="-250.1%" y="-239.3%" width="600.2%" height="580.0%" filterUnits="objectBoundingBox" id="filter-8">
            <feMorphology radius="0.5" operator="dilate" in="SourceAlpha" result="shadowSpreadOuter1"></feMorphology>
            <feOffset dx="0" dy="0" in="shadowSpreadOuter1" result="shadowOffsetOuter1"></feOffset>
            <feGaussianBlur stdDeviation="3" in="shadowOffsetOuter1" result="shadowBlurOuter1"></feGaussianBlur>
            <feComposite in="shadowBlurOuter1" in2="SourceAlpha" operator="out" result="shadowBlurOuter1"></feComposite>
            <feColorMatrix values="0 0 0 0 1   0 0 0 0 1   0 0 0 0 1  0 0 0 0.5 0" type="matrix" in="shadowBlurOuter1"></feColorMatrix>
        </filter>
        <path d="M48.8700604,60.0002994 L48.1400604,59.7302994 L48.7100604,59.1202994 C48.7955596,59.0357659 48.8436746,58.9205327 48.8436746,58.8002994 C48.8436746,58.6800662 48.7955596,58.564833 48.7100604,58.4802994 L48.7100604,58.4802994 C48.5083626,58.2983549 48.2017583,58.2983549 48.0000604,58.4802994 L47.6000604,58.9002994 L47.4800604,58.2802994 C47.4344946,58.0381887 47.2027153,57.8777261 46.9600604,57.9202994 L46.9600604,57.9202994 C46.8672956,57.9404818 46.78329,57.9894851 46.7200604,58.0602994 C46.5975632,58.1755275 46.5411995,58.3446186 46.5700604,58.5102994 L46.7000604,59.1602994 L45.9300604,59.0002994 C45.7063967,58.9107561 45.4523121,59.0177391 45.3600604,59.2402994 C45.3557244,59.2600644 45.3557244,59.2805345 45.3600604,59.3002994 C45.3400346,59.3925586 45.3400346,59.4880403 45.3600604,59.5802994 C45.3906756,59.7475359 45.5092205,59.885201 45.6700604,59.9402994 L46.4100604,60.2102994 L45.8300604,60.8202994 C45.6507778,60.9998789 45.6507778,61.29072 45.8300604,61.4702994 L45.8300604,61.4702994 C45.9024648,61.5299257 45.98825,61.5711025 46.0800604,61.5902994 C46.2483332,61.6140506 46.4181352,61.5586804 46.5400604,61.4402994 L46.9400604,61.0202994 L47.0600604,61.6402994 C47.1104702,61.8893128 47.3496424,62.05319 47.6000604,62.0102994 L47.6000604,62.0102994 C47.8688892,61.9457734 48.040229,61.6821738 47.9900604,61.4102994 L47.8600604,60.7602994 L48.5300604,61.0102994 C48.6454066,61.0519073 48.7725912,61.0457399 48.8833703,60.9931667 C48.9941495,60.9405936 49.0793532,60.8459666 49.1200604,60.7302994 L49.1200604,60.7302994 C49.1819624,60.6057929 49.1914218,60.4616811 49.1463259,60.3301513 C49.1012299,60.1986215 49.0053355,60.090631 48.8800604,60.0302994 L48.8700604,60.0002994 Z" id="path-9"></path>
        <filter x="-247.4%" y="-231.5%" width="595.5%" height="562.8%" filterUnits="objectBoundingBox" id="filter-10">
            <feMorphology radius="0.5" operator="dilate" in="SourceAlpha" result="shadowSpreadOuter1"></feMorphology>
            <feOffset dx="0" dy="0" in="shadowSpreadOuter1" result="shadowOffsetOuter1"></feOffset>
            <feGaussianBlur stdDeviation="3" in="shadowOffsetOuter1" result="shadowBlurOuter1"></feGaussianBlur>
            <feComposite in="shadowBlurOuter1" in2="SourceAlpha" operator="out" result="shadowBlurOuter1"></feComposite>
            <feColorMatrix values="0 0 0 0 1   0 0 0 0 1   0 0 0 0 1  0 0 0 0.5 0" type="matrix" in="shadowBlurOuter1"></feColorMatrix>
        </filter>
        <path d="M54.1200604,49.6504579 L39.4100604,49.6504579 C36.8229632,49.6672404 34.4169521,48.3245919 33.0729401,46.113938 C31.728928,43.903284 31.6443074,41.149299 32.8500604,38.8602994 L32.9600604,38.6702994 C33.1190347,38.3868587 33.2995667,38.1160606 33.5000604,37.8602994 L33.6500604,37.6602994 C33.8567271,37.4336328 34.0767271,37.2136328 34.3100604,37.0002994 L34.5100604,36.8202994 C34.7600604,36.6102994 35.0100604,36.4102994 35.2800604,36.2202994 L35.4700604,36.1002994 C35.7909548,35.909836 36.1251531,35.7427369 36.4700604,35.6002994 L36.5700604,35.6002994 C36.9426474,35.4405363 37.3271516,35.3101392 37.7200604,35.2102994 L37.7200604,35.2102994 C38.6357301,34.9841683 39.5864009,34.9366348 40.5200604,35.0702994 C40.8532712,35.2681636 41.2708021,35.2556953 41.5916124,35.0383008 C41.9124227,34.8209062 42.0787464,34.4377301 42.0184658,34.054917 C41.9581852,33.6721039 41.6821546,33.3585841 41.3100604,33.2502994 C41.1389818,33.1688042 40.9472665,33.1409184 40.7600604,33.1702994 C40.1013614,33.0424894 39.4308814,32.9854986 38.7600604,33.0002994 C39.8777676,30.3496304 42.271366,28.4530196 45.1073626,27.9709002 C47.9433591,27.4887807 50.8292286,28.4878821 52.7600604,30.6202994 C52.2444901,30.6894318 51.7335615,30.7896139 51.2300604,30.9202994 C48.5289784,31.6688678 46.2413283,33.4701671 44.8800604,35.9202994 C44.6475458,36.3840088 44.8082153,36.9485232 45.2500604,37.2202994 C45.3945042,37.2982668 45.5559195,37.3394792 45.7200604,37.3402994 C46.0695553,37.3367326 46.391827,37.1509524 46.5700604,36.8502994 C48.1821282,34.0118243 51.2489351,32.3161967 54.5100604,32.4602994 L54.5900604,32.4602994 C59.1923278,32.770492 62.7280234,36.6601348 62.599047,41.2710403 C62.4700706,45.8819458 58.7224714,49.5678602 54.1100604,49.6202994 L54.1200604,49.6504579 Z M59.3600604,31.9402994 L59.3100604,31.8802994 L59.0300604,31.7402994 L58.9000604,31.6702994 C57.7508752,31.0962219 56.5077054,30.7337719 55.2300604,30.6002994 C53.292301,27.7225761 50.0493828,25.9980184 46.5800604,26.0001488 C41.9780238,25.9755231 37.9191012,29.0095065 36.6400604,33.4302994 C36.5300604,33.4302994 36.4400604,33.5102994 36.3400604,33.5402994 L35.9900604,33.6602994 C34.2773214,34.3294735 32.8016942,35.491878 31.7500604,37.0002994 L31.7500604,37.0002994 C31.5984603,37.2001939 31.4614399,37.4107376 31.3400604,37.6302994 L31.3400604,37.7102994 C31.2200604,37.9102994 31.1200604,38.1102994 31.0200604,38.3202994 L31.0200604,38.4302994 C30.9200604,38.6402994 30.8400604,38.8402994 30.7500604,39.0602994 L30.7500604,39.1402994 L30.7500604,39.1402994 C30.3834558,40.1499306 30.1972864,41.2161736 30.2000299,42.2902994 C30.2221066,47.4297792 34.4005454,51.5813758 39.5400604,51.5702994 L54.1200604,51.5702994 C58.9059399,51.6126697 63.1136818,48.4103147 64.3480454,43.7861625 C65.582409,39.1620102 63.5303769,34.2886814 59.3600604,31.9402994 L59.3600604,31.9402994 Z" id="path-11"></path>
        <filter x="-27.5%" y="-37.2%" width="155.1%" height="174.3%" filterUnits="objectBoundingBox" id="filter-12">
            <feMorphology radius="0.5" operator="dilate" in="SourceAlpha" result="shadowSpreadOuter1"></feMorphology>
            <feOffset dx="0" dy="0" in="shadowSpreadOuter1" result="shadowOffsetOuter1"></feOffset>
            <feGaussianBlur stdDeviation="3" in="shadowOffsetOuter1" result="shadowBlurOuter1"></feGaussianBlur>
            <feComposite in="shadowBlurOuter1" in2="SourceAlpha" operator="out" result="shadowBlurOuter1"></feComposite>
            <feColorMatrix values="0 0 0 0 1   0 0 0 0 1   0 0 0 0 1  0 0 0 0.5 0" type="matrix" in="shadowBlurOuter1"></feColorMatrix>
        </filter>
        <path d="M18.1000604,29.4902994 L17.3600604,29.2202994 L17.9400604,28.6202994 C18.1193431,28.44072 18.1193431,28.1498789 17.9400604,27.9702994 L17.9400604,27.9702994 C17.7422468,27.7785161 17.4278741,27.7785161 17.2300604,27.9702994 L16.8300604,28.3902994 L16.7100604,27.7702994 C16.6504565,27.5193165 16.4031368,27.3603252 16.1500604,27.4102994 C16.0553147,27.4381977 15.9692628,27.4898289 15.9000604,27.5602994 C15.7775632,27.6755275 15.7211995,27.8446186 15.7500604,28.0102994 L15.8800604,28.6602994 L15.2000604,28.4202994 C14.9598792,28.3410894 14.7008012,28.4706284 14.6200604,28.7102994 L14.6200604,28.7102994 C14.5902846,28.8012579 14.5902846,28.8993409 14.6200604,28.9902994 C14.659772,29.1562834 14.7798771,29.2914015 14.9400604,29.3502994 L15.6700604,29.6102994 L15.1000604,30.2202994 C15.0145612,30.304833 14.9664463,30.4200662 14.9664463,30.5402994 C14.9664463,30.6605327 15.0145612,30.7757659 15.1000604,30.8602994 L15.1000604,30.8602994 C15.1580189,30.9228991 15.2299844,30.9708761 15.3100604,31.0002994 C15.4789878,31.0327562 15.6527382,30.9760985 15.7700604,30.8502994 L16.1700604,30.4302994 L16.2900604,31.0602994 C16.3356263,31.3024102 16.5674056,31.4628728 16.8100604,31.4202994 L16.8600604,31.4202994 C17.1288892,31.3557734 17.300229,31.0921738 17.2500604,30.8202994 L17.1200604,30.1702994 L17.8000604,30.4202994 C17.9127415,30.462074 18.0374506,30.4570418 18.1463995,30.4063242 C18.2553485,30.3556066 18.3394846,30.2634177 18.3800604,30.1502994 L18.3800604,30.1502994 C18.4775402,29.8908353 18.3543751,29.6005175 18.1000604,29.4902994 L18.1000604,29.4902994 Z" id="path-13"></path>
        <filter x="-249.0%" y="-235.0%" width="597.9%" height="571.0%" filterUnits="objectBoundingBox" id="filter-14">
            <feMorphology radius="0.5" operator="dilate" in="SourceAlpha" result="shadowSpreadOuter1"></feMorphology>
            <feOffset dx="0" dy="0" in="shadowSpreadOuter1" result="shadowOffsetOuter1"></feOffset>
            <feGaussianBlur stdDeviation="3" in="shadowOffsetOuter1" result="shadowBlurOuter1"></feGaussianBlur>
            <feComposite in="shadowBlurOuter1" in2="SourceAlpha" operator="out" result="shadowBlurOuter1"></feComposite>
            <feColorMatrix values="0 0 0 0 1   0 0 0 0 1   0 0 0 0 1  0 0 0 0.5 0" type="matrix" in="shadowBlurOuter1"></feColorMatrix>
        </filter>
        <path d="M11.8400604,34.0002994 L11.1100604,33.7302994 L11.6800604,33.1202994 C11.7655596,33.0357659 11.8136746,32.9205327 11.8136746,32.8002994 C11.8136746,32.6800662 11.7655596,32.564833 11.6800604,32.4802994 L11.6800604,32.4802994 C11.4783626,32.2983549 11.1717583,32.2983549 10.9700604,32.4802994 L10.5700604,32.9002994 L10.4500604,32.2802994 C10.4044946,32.0381887 10.1727153,31.8777261 9.93006043,31.9202994 L9.88006043,31.9202994 C9.78729558,31.9404818 9.70328996,31.9894851 9.64006043,32.0602994 C9.51756318,32.1755275 9.46119949,32.3446186 9.49006043,32.5102994 L9.62006043,33.1602994 L8.90006043,33.0002994 C8.67639673,32.9107561 8.42231208,33.0177391 8.33006043,33.2402994 C8.32572436,33.2600644 8.32572436,33.2805345 8.33006043,33.3002994 C8.31003459,33.3925586 8.31003459,33.4880403 8.33006043,33.5802994 C8.36067559,33.7475359 8.47922053,33.885201 8.64006043,33.9402994 L9.38006043,34.2102994 L8.80006043,34.8202994 C8.62077779,34.9998789 8.62077779,35.29072 8.80006043,35.4702994 L8.80006043,35.4702994 C8.87246484,35.5299257 8.95824996,35.5711025 9.05006043,35.5902994 C9.21833316,35.6140506 9.38813516,35.5586804 9.51006043,35.4402994 L9.91006043,35.0202994 L10.0300604,35.6402994 C10.0804702,35.8893128 10.3196424,36.05319 10.5700604,36.0102994 L10.5700604,36.0102994 C10.8388892,35.9457734 11.010229,35.6821738 10.9600604,35.4102994 L10.8300604,34.7602994 L11.5000604,35.0102994 C11.6154066,35.0519073 11.7425912,35.0457399 11.8533703,34.9931667 C11.9641495,34.9405936 12.0493532,34.8459666 12.0900604,34.7302994 L12.0900604,34.7302994 C12.1474668,34.6043713 12.1523059,34.4607541 12.1035063,34.3312474 C12.0547067,34.2017407 11.9562946,34.0970297 11.8300604,34.0402994 L11.8400604,34.0002994 Z" id="path-15"></path>
        <filter x="-247.9%" y="-230.5%" width="596.5%" height="561.8%" filterUnits="objectBoundingBox" id="filter-16">
            <feMorphology radius="0.5" operator="dilate" in="SourceAlpha" result="shadowSpreadOuter1"></feMorphology>
            <feOffset dx="0" dy="0" in="shadowSpreadOuter1" result="shadowOffsetOuter1"></feOffset>
            <feGaussianBlur stdDeviation="3" in="shadowOffsetOuter1" result="shadowBlurOuter1"></feGaussianBlur>
            <feComposite in="shadowBlurOuter1" in2="SourceAlpha" operator="out" result="shadowBlurOuter1"></feComposite>
            <feColorMatrix values="0 0 0 0 1   0 0 0 0 1   0 0 0 0 1  0 0 0 0.5 0" type="matrix" in="shadowBlurOuter1"></feColorMatrix>
        </filter>
        <path d="M24.3100604,34.0002994 L23.5700604,33.7302994 L24.1500604,33.1202994 C24.2392586,33.0336776 24.289592,32.9146363 24.289592,32.7902994 C24.289592,32.6659625 24.2392586,32.5469213 24.1500604,32.4602994 L24.1500604,32.4602994 C23.9483626,32.2783549 23.6417583,32.2783549 23.4400604,32.4602994 L23.0400604,32.8802994 L22.9100604,32.2602994 C22.8678074,32.1440325 22.7795542,32.0502874 22.6660465,32.0011007 C22.5525389,31.9519141 22.4237884,31.9516243 22.3100604,32.0002994 L22.3100604,32.0002994 C22.0514399,32.0726323 21.8852703,32.3240171 21.9200604,32.5902994 L22.0500604,33.2402994 L21.4100604,33.0002994 C21.1726044,32.9126457 20.9089474,33.0333023 20.8200604,33.2702994 L20.8200604,33.2702994 C20.8000346,33.3625586 20.8000346,33.4580403 20.8200604,33.5502994 C20.859772,33.7162834 20.9798771,33.8514015 21.1400604,33.9102994 L21.8800604,34.1802994 L21.3000604,34.7902994 C21.2145612,34.874833 21.1664463,34.9900662 21.1664463,35.1102994 C21.1664463,35.2305327 21.2145612,35.3457659 21.3000604,35.4302994 L21.3000604,35.4302994 C21.3724648,35.4899257 21.45825,35.5311025 21.5500604,35.5502994 C21.7183332,35.5740506 21.8881352,35.5186804 22.0100604,35.4002994 L22.4100604,34.9802994 L22.5300604,35.6002994 C22.5804702,35.8493128 22.8196424,36.01319 23.0700604,35.9702994 L23.0700604,35.9702994 C23.3388892,35.9057734 23.510229,35.6421738 23.4600604,35.3702994 L23.3400604,34.7202994 L24.0100604,34.9702994 C24.1254066,35.0119073 24.2525912,35.0057399 24.3633703,34.9531667 C24.4741495,34.9005936 24.5593532,34.8059666 24.6000604,34.6902994 L24.6000604,34.6902994 C24.6574668,34.5643713 24.6623059,34.4207541 24.6135063,34.2912474 C24.5647067,34.1617407 24.4662946,34.0570297 24.3400604,34.0002994 L24.3100604,34.0002994 Z" id="path-17"></path>
        <filter x="-247.3%" y="-236.7%" width="594.5%" height="573.2%" filterUnits="objectBoundingBox" id="filter-18">
            <feMorphology radius="0.5" operator="dilate" in="SourceAlpha" result="shadowSpreadOuter1"></feMorphology>
            <feOffset dx="0" dy="0" in="shadowSpreadOuter1" result="shadowOffsetOuter1"></feOffset>
            <feGaussianBlur stdDeviation="3" in="shadowOffsetOuter1" result="shadowBlurOuter1"></feGaussianBlur>
            <feComposite in="shadowBlurOuter1" in2="SourceAlpha" operator="out" result="shadowBlurOuter1"></feComposite>
            <feColorMatrix values="0 0 0 0 1   0 0 0 0 1   0 0 0 0 1  0 0 0 0.5 0" type="matrix" in="shadowBlurOuter1"></feColorMatrix>
        </filter>
        <path d="M23.9100604,23.6504579 L9.20006043,23.6504579 C6.61296319,23.6672404 4.20695209,22.3245919 2.86294006,20.113938 C1.51892803,17.903284 1.43430744,15.149299 2.64006043,12.8602994 L2.75006043,12.6702994 C2.91139639,12.3883122 3.09181681,12.1176816 3.29006043,11.8602994 L3.44006043,11.6602994 C3.64094798,11.4127958 3.8580951,11.1789451 4.09006043,10.9602994 L4.29006043,10.7802994 C4.54006043,10.5702994 4.79006043,10.3702994 5.06006043,10.1802994 L5.25006043,10.0602994 C5.57309907,9.87379264 5.90703181,9.70682627 6.25006043,9.56029944 L6.31006043,9.56029944 C6.68264737,9.40053626 7.06715162,9.27013916 7.46006043,9.17029944 L7.46006043,9.17029944 C8.3899784,8.92891452 9.35804163,8.87117039 10.3100604,9.00029944 C10.6980454,9.17663295 11.1551541,9.08769746 11.4487243,8.77875995 C11.7422945,8.46982244 11.8078118,8.00877437 11.6119289,7.63028299 C11.416046,7.25179161 11.0018096,7.03903341 10.5800604,7.10029944 C9.91841893,7.00013199 9.24839374,6.96663073 8.58006043,7.00029944 C9.69776759,4.34963045 12.091366,2.45301956 14.9273626,1.97090016 C17.7633591,1.48878075 20.6492286,2.48788208 22.5800604,4.62029944 C22.0679457,4.69038477 21.560401,4.79055806 21.0600604,4.92029944 C18.357829,5.67157908 16.0679799,7.47177489 14.7000604,9.92029944 C14.4675458,10.3840088 14.6282153,10.9485232 15.0700604,11.2202994 C15.2145042,11.2982668 15.3759195,11.3394792 15.5400604,11.3402994 C15.8895553,11.3367326 16.211827,11.1509524 16.3900604,10.8502994 C18.0014497,8.02227343 21.058117,6.33184378 24.3100604,6.47029944 L24.3900604,6.47029944 C28.9923278,6.78049196 32.5280234,10.6701348 32.399047,15.2810403 C32.2700706,19.8919458 28.5224714,23.5778602 23.9100604,23.6302994 L23.9100604,23.6504579 Z M29.1500604,5.94029944 L29.0800604,5.88029944 L28.7900604,5.74029944 L28.6600604,5.67029944 C27.5108752,5.09622194 26.2677054,4.73377189 24.9900604,4.60029944 C23.058239,1.73137761 19.8287578,0.00798855888 16.3700604,0.00014881016 C11.7680238,-0.0244768665 7.70910118,3.00950652 6.43006043,7.43029944 L6.13006043,7.54029944 L5.78006043,7.66029944 C4.06732141,8.32947352 2.5916942,9.49187798 1.54006043,11.0002994 L1.54006043,11.0002994 C1.38846034,11.2001939 1.25143989,11.4107376 1.13006043,11.6302994 L1.13006043,11.7102994 C1.02006043,11.9102994 0.910060432,12.1102994 0.810060432,12.3202994 L0.810060432,12.4302994 C0.710060432,12.6402994 0.630060432,12.8402994 0.550060432,13.0602994 L0.550060432,13.1402994 L0.550060432,13.1402994 C0.183455842,14.1499306 -0.00271355715,15.2161736 2.98839675e-05,16.2902994 C0.0220653163,21.4180662 4.18224937,25.5648447 9.31006043,25.5702994 L23.9100604,25.5702994 C28.6959399,25.6126697 32.9036818,22.4103147 34.1380454,17.7861625 C35.372409,13.1620102 33.3203769,8.28868139 29.1500604,5.94029944 Z" id="path-19"></path>
        <filter x="-27.5%" y="-37.2%" width="155.1%" height="174.3%" filterUnits="objectBoundingBox" id="filter-20">
            <feMorphology radius="0.5" operator="dilate" in="SourceAlpha" result="shadowSpreadOuter1"></feMorphology>
            <feOffset dx="0" dy="0" in="shadowSpreadOuter1" result="shadowOffsetOuter1"></feOffset>
            <feGaussianBlur stdDeviation="3" in="shadowOffsetOuter1" result="shadowBlurOuter1"></feGaussianBlur>
            <feComposite in="shadowBlurOuter1" in2="SourceAlpha" operator="out" result="shadowBlurOuter1"></feComposite>
            <feColorMatrix values="0 0 0 0 1   0 0 0 0 1   0 0 0 0 1  0 0 0 0.5 0" type="matrix" in="shadowBlurOuter1"></feColorMatrix>
        </filter>
        <path d="M59.5600604,15.2102994 C58.8224168,14.8480718 57.9306411,15.1468166 57.5600604,15.8802994 L56.0500604,18.8802994 C52.7993367,11.161965 45.6715484,5.76940604 37.3600604,4.74029944 C36.5518701,4.63839684 35.8085272,5.19590401 35.6800604,6.00029944 C35.579908,6.81988461 36.1609539,7.56630513 36.9800604,7.67029944 C44.2605069,8.58068774 50.4936728,13.3252224 53.3100604,20.1002994 L50.3900604,19.1002994 C49.6282059,18.8968437 48.8380763,19.3138733 48.5761779,20.0576648 C48.3142795,20.8014562 48.6688078,21.6215344 49.3900604,21.9402994 L49.3900604,21.9402994 L55.3900604,23.9402994 L55.3900604,23.9402994 C55.5261438,23.9829678 55.6674945,24.0065263 55.8100604,24.0102994 L55.8100604,24.0102994 C55.9748783,24.0454068 56.1452426,24.0454068 56.3100604,24.0102994 L56.4400604,24.0102994 L56.7100604,23.8802994 L56.8400604,23.7702994 L57.0300604,23.5802994 L57.1400604,23.4302994 L57.2200604,23.3002994 L60.2200604,17.3002994 C60.5908532,16.5856189 60.3356824,15.7057197 59.6400604,15.3002994 L59.5600604,15.2102994 Z" id="path-21"></path>
        <filter x="-38.4%" y="-49.2%" width="176.9%" height="194.9%" filterUnits="objectBoundingBox" id="filter-22">
            <feMorphology radius="0.5" operator="dilate" in="SourceAlpha" result="shadowSpreadOuter1"></feMorphology>
            <feOffset dx="0" dy="0" in="shadowSpreadOuter1" result="shadowOffsetOuter1"></feOffset>
            <feGaussianBlur stdDeviation="3" in="shadowOffsetOuter1" result="shadowBlurOuter1"></feGaussianBlur>
            <feComposite in="shadowBlurOuter1" in2="SourceAlpha" operator="out" result="shadowBlurOuter1"></feComposite>
            <feColorMatrix values="0 0 0 0 1   0 0 0 0 1   0 0 0 0 1  0 0 0 0.5 0" type="matrix" in="shadowBlurOuter1"></feColorMatrix>
        </filter>
    </defs>
    <g id="草稿" stroke="none" stroke-width="1" fill="none" fill-rule="evenodd">
        <g id="画板" transform="translate(-1710.000000, -258.000000)">
            <g id="410_大到暴雪-01" transform="translate(1710.000000, 258.000000)">
                <rect id="矩形" x="0" y="0" width="80" height="80"></rect>
                <g id="形状" transform="translate(7.000000, 9.000000)" fill-rule="nonzero">
                    <g id="路径">
                        <use fill="black" fill-opacity="1" filter="url(#filter-2)" xlink:href="#path-1"></use>
                        <use stroke="#FFFFFF" stroke-width="1" fill="#E0F2FF" xlink:href="#path-1"></use>
                    </g>
                    <g id="路径">
                        <use fill="black" fill-opacity="1" filter="url(#filter-4)" xlink:href="#path-3"></use>
                        <use stroke="#FFFFFF" stroke-width="1" fill="#E0F2FF" xlink:href="#path-3"></use>
                    </g>
                    <g id="路径">
                        <use fill="black" fill-opacity="1" filter="url(#filter-6)" xlink:href="#path-5"></use>
                        <use stroke="#FFFFFF" stroke-width="1" fill="#E0F2FF" xlink:href="#path-5"></use>
                    </g>
                    <g id="路径">
                        <use fill="black" fill-opacity="1" filter="url(#filter-8)" xlink:href="#path-7"></use>
                        <use stroke="#FFFFFF" stroke-width="1" fill="#E0F2FF" xlink:href="#path-7"></use>
                    </g>
                    <g id="路径">
                        <use fill="black" fill-opacity="1" filter="url(#filter-10)" xlink:href="#path-9"></use>
                        <use stroke="#FFFFFF" stroke-width="1" fill="#E0F2FF" xlink:href="#path-9"></use>
                    </g>
                    <g>
                        <use fill="black" fill-opacity="1" filter="url(#filter-12)" xlink:href="#path-11"></use>
                        <use stroke="#FFFFFF" stroke-width="1" fill="#E0F2FF" xlink:href="#path-11"></use>
                    </g>
                    <g id="路径">
                        <use fill="black" fill-opacity="1" filter="url(#filter-14)" xlink:href="#path-13"></use>
                        <use stroke="#FFFFFF" stroke-width="1" fill="#E0F2FF" xlink:href="#path-13"></use>
                    </g>
                    <g id="路径">
                        <use fill="black" fill-opacity="1" filter="url(#filter-16)" xlink:href="#path-15"></use>
                        <use stroke="#FFFFFF" stroke-width="1" fill="#E0F2FF" xlink:href="#path-15"></use>
                    </g>
                    <g id="路径">
                        <use fill="black" fill-opacity="1" filter="url(#filter-18)" xlink:href="#path-17"></use>
                        <use stroke="#FFFFFF" stroke-width="1" fill="#E0F2FF" xlink:href="#path-17"></use>
                    </g>
                    <g>
                        <use fill="black" fill-opacity="1" filter="url(#filter-20)" xlink:href="#path-19"></use>
                        <use stroke="#FFFFFF" stroke-width="1" fill="#E0F2FF" xlink:href="#path-19"></use>
                    </g>
                    <g id="路径">
                        <use fill="black" fill-opacity="1" filter="url(#filter-22)" xlink:href="#path-21"></use>
                        <use stroke="#FFFFFF" stroke-width="1" fill="#E0F2FF" xlink:href="#path-21"></use>
                    </g>
                </g>
            </g>
        </g>
    </g>
</svg>