<?xml version="1.0" encoding="UTF-8"?>
<svg width="80px" height="80px" viewBox="0 0 80 80" version="1.1" xmlns="http://www.w3.org/2000/svg" xmlns:xlink="http://www.w3.org/1999/xlink">
    <title>499_雪</title>
    <defs>
        <path d="M50.8199999,40.009459 L45.5499999,40.009459 L48.4599999,34.729459 C48.7858479,34.1385143 48.5709445,33.395307 47.9799999,33.069459 C47.3890552,32.7436111 46.6458479,32.9585143 46.3199999,33.549459 L43.4799999,38.699459 L40.6299999,33.549459 C40.3041519,32.9585143 39.5609446,32.7436111 38.9699999,33.069459 C38.3790553,33.395307 38.1641519,34.1385143 38.4899999,34.729459 L41.3999999,40.009459 L36.1399999,40.009459 C35.6759245,39.9674866 35.2279757,40.19136 34.9829652,40.5877153 C34.7379547,40.9840706 34.7379547,41.4848474 34.9829652,41.8812027 C35.2279757,42.277558 35.6759245,42.5014313 36.1399999,42.459459 L41.3999999,42.459459 L38.4899999,47.739459 C38.3330094,48.023133 38.2953909,48.3576295 38.3854511,48.6690876 C38.4755112,48.9805456 38.6858421,49.243346 38.9699999,49.399459 C39.1488231,49.5045859 39.3525649,49.559838 39.5599999,49.5594619 C40.0075848,49.5604449 40.4191547,49.3142723 40.6299999,48.919459 L43.4799999,43.769459 L46.3199999,48.919459 C46.5308451,49.3142723 46.942415,49.5604449 47.3899999,49.5594619 C47.5974349,49.559838 47.8011767,49.5045859 47.9799999,49.399459 C48.2641577,49.243346 48.4744886,48.9805456 48.5645487,48.6690876 C48.6546089,48.3576295 48.6169904,48.023133 48.4599999,47.739459 L45.5499999,42.459459 L50.8199999,42.459459 C51.453791,42.4021371 51.9392073,41.870837 51.9392073,41.234459 C51.9392073,40.598081 51.453791,40.0667809 50.8199999,40.009459 L50.8199999,40.009459 Z M43.4799999,42.469459 C42.797842,42.4747603 42.2395155,41.9280521 42.2304727,41.2459336 C42.2214299,40.563815 42.7650674,40.0024982 43.4471261,39.9897142 C44.1291848,39.9769301 44.693475,40.5174807 44.7099999,41.199459 C44.7208379,41.5325492 44.5960495,41.8557803 44.3641946,42.0951751 C44.1323397,42.33457 43.8132664,42.4696353 43.4799999,42.469459 L43.4799999,42.469459 Z" id="path-1"></path>
        <filter x="-55.4%" y="-57.1%" width="210.9%" height="214.2%" filterUnits="objectBoundingBox" id="filter-2">
            <feMorphology radius="0.5" operator="dilate" in="SourceAlpha" result="shadowSpreadOuter1"></feMorphology>
            <feOffset dx="0" dy="0" in="shadowSpreadOuter1" result="shadowOffsetOuter1"></feOffset>
            <feGaussianBlur stdDeviation="3" in="shadowOffsetOuter1" result="shadowBlurOuter1"></feGaussianBlur>
            <feComposite in="shadowBlurOuter1" in2="SourceAlpha" operator="out" result="shadowBlurOuter1"></feComposite>
            <feColorMatrix values="0 0 0 0 1   0 0 0 0 1   0 0 0 0 1  0 0 0 0.5 0" type="matrix" in="shadowBlurOuter1"></feColorMatrix>
        </filter>
        <path d="M62.7699999,7.09945899 L57.5099999,7.09945899 L60.4199999,1.81945899 C60.6325729,1.43718481 60.6250577,0.970542523 60.4002851,0.595311777 C60.1755124,0.22008103 59.7676307,-0.00673169637 59.330285,0.000152362536 C58.8929393,0.00735521767 58.4925729,0.24718479 58.2799999,0.629458993 L55.4299999,5.78945899 L52.5899999,0.629458993 C52.3774269,0.247184812 51.9770604,0.00735526069 51.5397148,0.000152362536 C51.1023691,-0.00673163917 50.6944874,0.220081079 50.4697148,0.595311811 C50.2449421,0.970542542 50.2374269,1.43718481 50.4499999,1.81945899 L53.3599999,7.09945899 L48.0899999,7.09945899 C47.4162125,7.09945899 46.8699999,7.6456716 46.8699999,8.31945899 C46.8699999,8.99324639 47.4162125,9.53945899 48.0899999,9.53945899 L53.3599999,9.53945899 L50.4499999,14.829459 C50.2392132,15.2117332 50.2483791,15.6774224 50.4740449,16.0511062 C50.6997107,16.4247899 51.1075924,16.6496966 51.5440449,16.6411062 C51.9804974,16.6325157 52.3792132,16.3917332 52.5899999,16.009459 L55.4299999,10.849459 L58.2799999,16.009459 C58.4951326,16.3988321 58.9051484,16.6402432 59.3499999,16.639459 C59.5559707,16.6384345 59.7585498,16.5869313 59.9399999,16.489459 C60.2241577,16.333346 60.4344886,16.0705456 60.5245487,15.7590876 C60.6146089,15.4476295 60.5769904,15.113133 60.4199999,14.829459 L57.5099999,9.53945899 L62.7699999,9.53945899 C63.4437873,9.53945899 63.9899999,8.99324639 63.9899999,8.31945899 C63.9899999,7.6456716 63.4437873,7.09945899 62.7699999,7.09945899 Z M55.4299999,9.55945899 C54.9284667,9.55945899 54.4763177,9.25734269 54.2843893,8.79398645 C54.0924608,8.33063021 54.19855,7.7972841 54.5531875,7.44264658 C54.907825,7.08800907 55.4411711,6.98191993 55.9045274,7.17384837 C56.3678836,7.36577681 56.6699999,7.81792581 56.6699999,8.31945899 C56.6699999,9.00429208 56.114833,9.55945899 55.4299999,9.55945899 Z" id="path-3"></path>
        <filter x="-55.5%" y="-57.1%" width="211.0%" height="214.2%" filterUnits="objectBoundingBox" id="filter-4">
            <feMorphology radius="0.5" operator="dilate" in="SourceAlpha" result="shadowSpreadOuter1"></feMorphology>
            <feOffset dx="0" dy="0" in="shadowSpreadOuter1" result="shadowOffsetOuter1"></feOffset>
            <feGaussianBlur stdDeviation="3" in="shadowOffsetOuter1" result="shadowBlurOuter1"></feGaussianBlur>
            <feComposite in="shadowBlurOuter1" in2="SourceAlpha" operator="out" result="shadowBlurOuter1"></feComposite>
            <feColorMatrix values="0 0 0 0 1   0 0 0 0 1   0 0 0 0 1  0 0 0 0.5 0" type="matrix" in="shadowBlurOuter1"></feColorMatrix>
        </filter>
        <path d="M15.9099999,49.519459 L10.6299999,49.519459 L13.5499999,44.199459 C13.8412386,43.610376 13.6179843,42.8964097 13.0430329,42.5781808 C12.4680815,42.2599519 11.744535,42.4498749 11.3999999,43.009459 L8.5599999,48.199459 L5.7199999,43.039459 C5.36158079,42.5293709 4.67821957,42.3680996 4.12956118,42.66412 C3.58090278,42.9601403 3.340477,43.6198269 3.5699999,44.199459 L6.4899999,49.479459 L1.2199999,49.479459 C0.546212543,49.479459 1.77635684e-14,50.0256716 1.77635684e-14,50.699459 C1.77635684e-14,51.3732463 0.546212543,51.9194589 1.2199999,51.919459 L6.4899999,51.919459 L3.5699999,57.209459 C3.30581114,57.7947577 3.5363413,58.4847964 4.09928888,58.793763 C4.66223646,59.1027295 5.36813208,58.9266362 5.7199999,58.389459 L8.5599999,53.229459 L11.3999999,58.389459 C11.732745,58.9779483 12.4755593,59.1914518 13.0699999,58.869459 C13.6571943,58.5406243 13.8710824,57.800928 13.5499999,57.209459 L10.6299999,51.919459 L15.9099999,51.919459 C16.5837873,51.919459 17.1299999,51.3732464 17.1299999,50.699459 C17.1299999,50.0256716 16.5837873,49.479459 15.9099999,49.479459 L15.9099999,49.519459 Z M8.5699999,51.979459 C8.06846671,51.979459 7.61631772,51.6773427 7.42438928,51.2139864 C7.23246084,50.7506302 7.33854997,50.2172841 7.69318749,49.8626466 C8.047825,49.5080091 8.58117111,49.4019199 9.04452735,49.5938484 C9.5078836,49.7857768 9.8099999,50.2379258 9.8099999,50.739459 C9.8099999,51.0700674 9.67799634,51.3869912 9.44328393,51.619826 C9.20857151,51.8526607 8.89059756,51.9821252 8.5599999,51.979459 L8.5699999,51.979459 Z" id="path-5"></path>
        <filter x="-55.5%" y="-57.2%" width="210.9%" height="214.5%" filterUnits="objectBoundingBox" id="filter-6">
            <feMorphology radius="0.5" operator="dilate" in="SourceAlpha" result="shadowSpreadOuter1"></feMorphology>
            <feOffset dx="0" dy="0" in="shadowSpreadOuter1" result="shadowOffsetOuter1"></feOffset>
            <feGaussianBlur stdDeviation="3" in="shadowOffsetOuter1" result="shadowBlurOuter1"></feGaussianBlur>
            <feComposite in="shadowBlurOuter1" in2="SourceAlpha" operator="out" result="shadowBlurOuter1"></feComposite>
            <feColorMatrix values="0 0 0 0 1   0 0 0 0 1   0 0 0 0 1  0 0 0 0.5 0" type="matrix" in="shadowBlurOuter1"></feColorMatrix>
        </filter>
        <path d="M26.9099999,17.599459 L21.5899999,17.599459 L24.4999999,12.319459 C24.7107866,11.9371848 24.7016207,11.4714955 24.4759549,11.0978118 C24.2502891,10.7241281 23.8424074,10.4992214 23.4059549,10.5078118 C22.9695024,10.5164023 22.5707866,10.7571848 22.3599999,11.139459 L19.5199999,16.289459 L16.6799999,11.139459 C16.3281321,10.6022818 15.6222365,10.4261884 15.0592889,10.735155 C14.4963413,11.0441216 14.2658111,11.7341602 14.5299999,12.319459 L17.4499999,17.599459 L12.1799999,17.599459 C11.7159245,17.5574866 11.2679757,17.78136 11.0229652,18.1777153 C10.7779547,18.5740706 10.7779547,19.0748474 11.0229652,19.4712027 C11.2679757,19.867558 11.7159245,20.0914313 12.1799999,20.049459 L17.4499999,20.049459 L14.5299999,25.329459 C14.2089174,25.920928 14.4228055,26.6606243 15.0099999,26.989459 C15.1888231,27.0945859 15.3925649,27.149838 15.5999999,27.149484 C16.0493729,27.1475822 16.4625633,26.9027286 16.6799999,26.509459 L19.5199999,21.359459 L22.3599999,26.509459 C22.5724962,26.9026956 22.9830231,27.1482444 23.4299999,27.149484 C23.6375654,27.1508335 23.8415671,27.095511 24.0199999,26.989459 C24.3061827,26.835321 24.5183138,26.572521 24.6086059,26.2602607 C24.698898,25.9480005 24.6597569,25.6125435 24.4999999,25.329459 L21.5899999,20.049459 L26.9099999,20.049459 C27.543791,19.9921371 28.0292073,19.460837 28.0292073,18.824459 C28.0292073,18.188081 27.543791,17.6567809 26.9099999,17.599459 L26.9099999,17.599459 Z M19.5699999,20.069459 C18.8851668,20.069459 18.3299999,19.5142921 18.3299999,18.829459 C18.3299999,18.1446259 18.8851668,17.589459 19.5699999,17.589459 C20.254833,17.589459 20.8100003,18.1446259 20.8100003,18.829459 C20.8102746,19.1671767 20.672791,19.4903962 20.4293166,19.7244336 C20.1858422,19.9584711 19.857443,20.0830768 19.5199999,20.069459 L19.5699999,20.069459 Z" id="path-7"></path>
        <filter x="-55.3%" y="-57.1%" width="210.5%" height="214.2%" filterUnits="objectBoundingBox" id="filter-8">
            <feMorphology radius="0.5" operator="dilate" in="SourceAlpha" result="shadowSpreadOuter1"></feMorphology>
            <feOffset dx="0" dy="0" in="shadowSpreadOuter1" result="shadowOffsetOuter1"></feOffset>
            <feGaussianBlur stdDeviation="3" in="shadowOffsetOuter1" result="shadowBlurOuter1"></feGaussianBlur>
            <feComposite in="shadowBlurOuter1" in2="SourceAlpha" operator="out" result="shadowBlurOuter1"></feComposite>
            <feColorMatrix values="0 0 0 0 1   0 0 0 0 1   0 0 0 0 1  0 0 0 0.5 0" type="matrix" in="shadowBlurOuter1"></feColorMatrix>
        </filter>
    </defs>
    <g id="草稿" stroke="none" stroke-width="1" fill="none" fill-rule="evenodd">
        <g id="画板" transform="translate(-1814.000000, -258.000000)">
            <g id="499_雪" transform="translate(1814.000000, 258.000000)">
                <rect id="矩形" x="0" y="0" width="80" height="80"></rect>
                <g id="形状" transform="translate(8.000000, 10.000000)" fill-rule="nonzero">
                    <g>
                        <use fill="black" fill-opacity="1" filter="url(#filter-2)" xlink:href="#path-1"></use>
                        <use stroke="#FFFFFF" stroke-width="1" fill="#E0F2FF" xlink:href="#path-1"></use>
                    </g>
                    <g>
                        <use fill="black" fill-opacity="1" filter="url(#filter-4)" xlink:href="#path-3"></use>
                        <use stroke="#FFFFFF" stroke-width="1" fill="#E0F2FF" xlink:href="#path-3"></use>
                    </g>
                    <g>
                        <use fill="black" fill-opacity="1" filter="url(#filter-6)" xlink:href="#path-5"></use>
                        <use stroke="#FFFFFF" stroke-width="1" fill="#E0F2FF" xlink:href="#path-5"></use>
                    </g>
                    <g>
                        <use fill="black" fill-opacity="1" filter="url(#filter-8)" xlink:href="#path-7"></use>
                        <use stroke="#FFFFFF" stroke-width="1" fill="#E0F2FF" xlink:href="#path-7"></use>
                    </g>
                </g>
            </g>
        </g>
    </g>
</svg>