<?xml version="1.0" encoding="UTF-8"?>
<svg width="81px" height="80px" viewBox="0 0 81 80" version="1.1" xmlns="http://www.w3.org/2000/svg" xmlns:xlink="http://www.w3.org/1999/xlink">
    <title>500_薄雾-01</title>
    <defs>
        <path d="M51.86,64.8010275 C52.552641,64.8610306 53.0843497,65.4407923 53.0843497,66.1360275 C53.0843497,66.8312627 52.552641,67.4110244 51.86,67.4710275 L26.26,67.4710275 C25.567359,67.4110244 25.0356503,66.8312627 25.0356503,66.1360275 C25.0356503,65.4407923 25.567359,64.8610306 26.26,64.8010275 L51.86,64.8010275 Z M62.32,57.8410275 C63.0600616,57.8410275 63.66,58.440966 63.66,59.1810275 C63.66,59.9210891 63.0600616,60.5210275 62.32,60.5210275 L15.81,60.5210275 C15.0699384,60.5210275 14.47,59.9210891 14.47,59.1810275 C14.47,58.440966 15.0699384,57.8410275 15.81,57.8410275 L62.32,57.8410275 Z M39.32,26.6010275 C51.53,26.6010275 61.53,36.8610275 61.53,49.3910275 C61.5238485,49.8918192 61.5049764,50.3922579 61.4734197,50.8918606 L70.82,50.8910275 C71.512641,50.9510306 72.0443497,51.5307923 72.0443497,52.2260275 C72.0443497,52.9212627 71.512641,53.5010244 70.82,53.5610275 L7.28,53.5610275 C6.58735897,53.5010244 6.05565034,52.9212627 6.05565034,52.2260275 C6.05565034,51.5307923 6.58735897,50.9510306 7.28,50.8910275 L17.1690642,50.8916775 C17.1378023,50.4020943 17.118104,49.911741 17.11,49.4210275 C17.11,36.8810275 27.11,26.6010275 39.32,26.6010275 Z M39.32,29.2810275 C28.52,29.2810275 19.73,38.3310275 19.73,49.3910275 C19.7382262,49.8918595 19.7599994,50.3922457 19.7952743,50.8916385 L58.8958689,50.8911163 C58.9313116,50.4019499 58.952706,49.9117186 58.96,49.4210275 C58.96,38.3610275 50.12,29.2810275 39.32,29.2810275 Z M14.78,43.2110275 C15.431696,43.2110275 15.96,43.7393315 15.96,44.3910275 C15.96,45.0427235 15.431696,45.5710275 14.78,45.5710275 L14.78,45.5710275 L7.18,45.5710275 C6.528304,45.5710275 6,45.0427235 6,44.3910275 C6,43.7393315 6.528304,43.2110275 7.18,43.2110275 L7.18,43.2110275 Z M71.8,43.2110275 C72.451696,43.2110275 72.98,43.7393315 72.98,44.3910275 C72.98,45.0427235 72.451696,45.5710275 71.8,45.5710275 L71.8,45.5710275 L64.2,45.5710275 C63.548304,45.5710275 63.02,45.0427235 63.02,44.3910275 C63.02,43.7393315 63.548304,43.2110275 64.2,43.2110275 L64.2,43.2110275 Z M67.24,29.0510275 C67.6402326,28.8800106 68.1021093,28.9431967 68.4417047,29.2154244 C68.7813001,29.4876521 68.9434683,29.9247151 68.8636317,30.3525692 C68.7837952,30.7804232 68.4749183,31.1295903 68.06,31.2610275 L68.06,31.2610275 L61.48,35.0710275 C61.3021855,35.1785322 61.0977658,35.233968 60.89,35.2310275 C60.4691237,35.2401649 60.0757857,35.0224925 59.86,34.6610275 L59.86,34.6610275 L59.8004939,34.5416399 C59.6956032,34.2975049 59.6757504,34.0236927 59.7464819,33.7648797 C59.829002,33.4629312 60.0281146,33.2061429 60.3,33.0510275 L60.3,33.0510275 L66.88,29.2610275 C66.9880246,29.1722649 67.1095624,29.1013678 67.24,29.0510275 Z M10.8108079,29.053809 C11.2352697,28.8464689 11.7424817,28.9122584 12.1,29.2210275 L12.1,29.2210275 L18.69,33.0110275 L18.69,33.0010275 C19.0513407,33.2048709 19.276308,33.5861714 19.28,34.0010275 C19.28,34.6582464 18.7472189,35.1910275 18.09,35.1910275 C17.8822342,35.193968 17.6778145,35.1385322 17.5,35.0310275 L17.5,35.0310275 L10.92,31.2210275 C10.4768476,31.0574009 10.1739895,30.645249 10.1502187,30.1734518 C10.1264479,29.7016545 10.3863461,29.261149 10.8108079,29.053809 Z M22.8587367,17.3317256 C23.1015704,17.2272068 23.3740783,17.2075129 23.6314991,17.2783036 C23.9318234,17.3608928 24.18682,17.5598237 24.34,17.8310275 L24.34,17.8310275 L28.14,24.4110275 L28.1995061,24.5304151 C28.3043968,24.7745502 28.3242496,25.0483623 28.2535181,25.3071753 C28.170998,25.6091239 27.9718854,25.8659121 27.7,26.0210275 C27.5221855,26.1285322 27.3177658,26.183968 27.11,26.1810275 C26.6968293,26.1713527 26.3182652,25.9479998 26.11,25.5910275 L26.11,25.5910275 L22.29,19.0010275 L22.2309036,18.881139 C22.1269021,18.6360437 22.1083535,18.3615375 22.180728,18.1025975 C22.265165,17.8005008 22.4664091,17.544455 22.74,17.3910275 L22.74,17.3910275 Z M54.65,17.8210275 C55.0315776,17.4095089 55.6487998,17.3205144 56.1310882,17.607476 C56.6133766,17.8944376 56.8296256,18.4793474 56.65,19.0110275 L56.65,19.0110275 L52.85,25.5910275 C52.6417348,25.9479998 52.2631707,26.1713527 51.85,26.1810275 C51.6422342,26.183968 51.4378145,26.1285322 51.26,26.0210275 L51.26,26.0210275 L51.29,26.0110275 C51.0181146,25.8559121 50.819002,25.5991239 50.7364819,25.2971753 C50.6539618,24.9952268 50.6947371,24.6728628 50.85,24.4010275 L50.85,24.4010275 Z M39.495,13 C40.1099963,13 40.6236826,13.4686152 40.68,14.0810275 L40.68,14.0810275 L40.68,21.7110275 L40.6713442,21.8441119 C40.6391475,22.1078151 40.5186165,22.3544228 40.3273272,22.5424971 C40.1041565,22.7619171 39.8029588,22.883691 39.49,22.8810703 L39.49,22.8810703 L39.48,22.8810703 C39.167041,22.8783866 38.8679504,22.7515255 38.6485304,22.5283548 C38.4291104,22.305184 38.3073366,22.0039863 38.31,21.6910275 L38.31,21.6910275 L38.31,14.0810275 C38.3663174,13.4686152 38.8800037,13 39.495,13 Z" id="path-1"></path>
        <filter x="-14.2%" y="-17.4%" width="128.4%" height="134.9%" filterUnits="objectBoundingBox" id="filter-2">
            <feMorphology radius="0.5" operator="dilate" in="SourceAlpha" result="shadowSpreadOuter1"></feMorphology>
            <feOffset dx="0" dy="0" in="shadowSpreadOuter1" result="shadowOffsetOuter1"></feOffset>
            <feGaussianBlur stdDeviation="3" in="shadowOffsetOuter1" result="shadowBlurOuter1"></feGaussianBlur>
            <feComposite in="shadowBlurOuter1" in2="SourceAlpha" operator="out" result="shadowBlurOuter1"></feComposite>
            <feColorMatrix values="0 0 0 0 1   0 0 0 0 1   0 0 0 0 1  0 0 0 0.5 0" type="matrix" in="shadowBlurOuter1"></feColorMatrix>
        </filter>
    </defs>
    <g id="草稿" stroke="none" stroke-width="1" fill="none" fill-rule="evenodd">
        <g id="画板" transform="translate(-1917.000000, -258.000000)">
            <g id="500_薄雾-01" transform="translate(1918.000000, 258.000000)">
                <rect id="矩形" x="0" y="0" width="80" height="80"></rect>
                <g id="形状结合" fill-rule="nonzero">
                    <use fill="black" fill-opacity="1" filter="url(#filter-2)" xlink:href="#path-1"></use>
                    <use stroke="#FFFFFF" stroke-width="1" fill="#E0F2FF" xlink:href="#path-1"></use>
                </g>
            </g>
        </g>
    </g>
</svg>