<?xml version="1.0" encoding="UTF-8"?>
<svg width="80px" height="80px" viewBox="0 0 80 80" version="1.1" xmlns="http://www.w3.org/2000/svg" xmlns:xlink="http://www.w3.org/1999/xlink">
    <title>501_雾</title>
    <defs>
        <path d="M64.9468843,49.7100958 L13.2368843,49.7100958 C12.0865032,49.7100958 11.1523885,48.7804638 11.1468843,47.6300958 L11.1468843,47.4900958 C11.1578063,46.3420023 12.0887516,45.4155112 13.2368843,45.4100958 L64.9468843,45.4100958 C66.0988849,45.4155686 67.0314115,46.3480952 67.0368843,47.5000958 L67.0368843,47.6400958 C67.0205496,48.7842786 66.0911712,49.7047634 64.9468843,49.7100958 L64.9468843,49.7100958 Z M64.8768843,64.4100958 L36.7768843,64.4100958 C35.6435886,64.3328507 34.7637686,63.391021 34.7637686,62.2550958 C34.7637686,61.1191707 35.6435886,60.177341 36.7768843,60.1000958 L64.8768843,60.1000958 C65.6818301,60.0452309 66.4502528,60.443552 66.8694047,61.1329427 C67.2885566,61.8223334 67.2885566,62.6878582 66.8694047,63.3772489 C66.4502528,64.0666396 65.6818301,64.4649607 64.8768843,64.4100958 Z M41.1768843,35.0100958 L13.3068843,35.0100958 C12.5019385,35.0649607 11.7335159,34.6666396 11.3143639,33.9772489 C10.895212,33.2878582 10.895212,32.4223334 11.3143639,31.7329427 C11.7335159,31.043552 12.5019385,30.6452309 13.3068843,30.7000958 L41.1768843,30.7000958 C41.9818301,30.6452309 42.7502528,31.043552 43.1694047,31.7329427 C43.5885566,32.4223334 43.5885566,33.2878582 43.1694047,33.9772489 C42.7502528,34.6666396 41.9818301,35.0649607 41.1768843,35.0100958 L41.1768843,35.0100958 Z M64.7468843,35.0100958 L49.8068843,35.0100958 C49.0019385,35.0649607 48.2335159,34.6666396 47.8143639,33.9772489 C47.395212,33.2878582 47.395212,32.4223334 47.8143639,31.7329427 C48.2335159,31.043552 49.0019385,30.6452309 49.8068843,30.7000958 L64.7468843,30.7000958 C65.5518301,30.6452309 66.3202528,31.043552 66.7394047,31.7329427 C67.1585566,32.4223334 67.1585566,33.2878582 66.7394047,33.9772489 C66.3202528,34.6666396 65.5518301,35.0649607 64.7468843,35.0100958 L64.7468843,35.0100958 Z M64.8368843,20.3100958 L13.1168843,20.3100958 C11.9665163,20.3045916 11.0368843,19.370477 11.0368843,18.2200958 L11.0368843,18.0900958 C11.0368843,16.9397147 11.9665163,16.0056 13.1168843,16.0000958 L64.8368843,16.0000958 C65.3946439,15.9947582 65.9313961,16.2125953 66.3276834,16.6051264 C66.7239707,16.9976575 66.9468843,17.5323107 66.9468843,18.0900958 L66.9468843,18.2200958 C66.9468843,18.777881 66.7239707,19.3125342 66.3276834,19.7050653 C65.9313961,20.0975963 65.3946439,20.3154335 64.8368843,20.3100958 L64.8368843,20.3100958 Z M28.2468843,64.4100958 L13.3068843,64.4100958 C12.5019385,64.4649607 11.7335159,64.0666396 11.3143639,63.3772489 C10.895212,62.6878582 10.895212,61.8223334 11.3143639,61.1329427 C11.7335159,60.443552 12.5019385,60.0452309 13.3068843,60.1000958 L28.2468843,60.1000958 C29.0518301,60.0452309 29.8202528,60.443552 30.2394047,61.1329427 C30.6585566,61.8223334 30.6585566,62.6878582 30.2394047,63.3772489 C29.8202528,64.0666396 29.0518301,64.4649607 28.2468843,64.4100958 Z" id="path-1"></path>
        <filter x="-16.9%" y="-19.6%" width="133.8%" height="139.2%" filterUnits="objectBoundingBox" id="filter-2">
            <feMorphology radius="0.5" operator="dilate" in="SourceAlpha" result="shadowSpreadOuter1"></feMorphology>
            <feOffset dx="0" dy="0" in="shadowSpreadOuter1" result="shadowOffsetOuter1"></feOffset>
            <feGaussianBlur stdDeviation="3" in="shadowOffsetOuter1" result="shadowBlurOuter1"></feGaussianBlur>
            <feComposite in="shadowBlurOuter1" in2="SourceAlpha" operator="out" result="shadowBlurOuter1"></feComposite>
            <feColorMatrix values="0 0 0 0 1   0 0 0 0 1   0 0 0 0 1  0 0 0 0.5 0" type="matrix" in="shadowBlurOuter1"></feColorMatrix>
        </filter>
    </defs>
    <g id="草稿" stroke="none" stroke-width="1" fill="none" fill-rule="evenodd">
        <g id="画板" transform="translate(-150.000000, -362.000000)">
            <g id="501_雾" transform="translate(150.000000, 362.000000)">
                <rect id="矩形" x="0" y="0" width="80" height="80"></rect>
                <g id="形状" fill-rule="nonzero">
                    <use fill="black" fill-opacity="1" filter="url(#filter-2)" xlink:href="#path-1"></use>
                    <use stroke="#FFFFFF" stroke-width="1" fill="#E0F2FF" xlink:href="#path-1"></use>
                </g>
            </g>
        </g>
    </g>
</svg>