<?xml version="1.0" encoding="UTF-8"?>
<svg width="80px" height="80px" viewBox="0 0 80 80" version="1.1" xmlns="http://www.w3.org/2000/svg" xmlns:xlink="http://www.w3.org/1999/xlink">
    <title>502_霾</title>
    <defs>
        <path d="M65.43,58.0200312 C66.589798,58.0200312 67.53,58.9602332 67.53,60.1200312 C67.53,61.2798291 66.589798,62.2200312 65.43,62.2200312 L35.99,62.2200312 C34.830202,62.2200312 33.89,61.2798291 33.89,60.1200312 C33.89,58.9602332 34.830202,58.0200312 35.99,58.0200312 L65.43,58.0200312 Z M27.67,58.0200312 C28.829798,58.0200312 29.77,58.9602332 29.77,60.1200312 C29.77,61.2798291 28.829798,62.2200312 27.67,62.2200312 L13.1,62.2200312 C11.940202,62.2200312 11,61.2798291 11,60.1200312 C11,58.9602332 11.940202,58.0200312 13.1,58.0200312 L27.67,58.0200312 Z M16.14,43.2200148 C17.4441681,43.2241379 18.6170687,44.0145119 19.1104986,45.2217394 C19.6039285,46.4289669 19.3204325,47.8146136 18.3925141,48.7310408 C17.4645957,49.6474679 16.075524,49.9136759 14.8745387,49.4052416 C13.6735534,48.8968072 12.8978558,47.7141492 12.91,46.4100312 C12.9264876,44.639496 14.3693968,43.2144556 16.14,43.2200148 Z M32.17,43.220016 C33.4759892,43.2160319 34.6550462,44.0012707 35.1547911,45.2078687 C35.6545361,46.4144668 35.3759774,47.8034162 34.4496179,48.724004 C33.5232584,49.6445918 32.1325951,49.9144642 30.929144,49.4071879 C29.7256929,48.8999116 28.9478385,47.7159698 28.96,46.4100312 C28.9764155,44.6472916 30.4071922,43.2254293 32.17,43.220016 Z M48.2,43.220016 C49.5059892,43.2160319 50.6850462,44.0012707 51.1847911,45.2078687 C51.6845361,46.4144668 51.4059774,47.8034162 50.4796179,48.724004 C49.5532584,49.6445918 48.1625951,49.9144642 46.959144,49.4071879 C45.7556929,48.8999116 44.9778385,47.7159698 44.99,46.4100312 C45.0009972,44.6450126 46.4349472,43.220016 48.2,43.220016 Z M64.23,43.2200312 C65.5350863,43.2200312 66.7110685,44.0079013 67.2076543,45.21482 C67.7042401,46.4217387 67.4232073,47.8090399 66.496063,48.7275462 C65.5689188,49.6460524 64.1790478,49.9140876 62.9768301,49.4062266 C61.7746124,48.8983656 60.9978408,47.7150608 61.01,46.4100312 C61.02646,44.6434011 62.4632933,43.2199545 64.23,43.2200312 Z M42.37,30.7400312 C43.1202578,30.7400312 43.8135245,31.1402889 44.1886534,31.7900311 C44.5637823,32.4397734 44.5637823,33.2402889 44.1886534,33.8900312 C43.8135245,34.5397735 43.1202578,34.9400312 42.37,34.9400312 L13.1,34.9400312 C11.940202,34.9400312 11,33.9998291 11,32.8400312 C11,31.6802332 11.940202,30.7400312 13.1,30.7400312 L42.37,30.7400312 Z M65.35,30.7400312 C66.1002578,30.7400312 66.7935245,31.1402889 67.1686534,31.7900311 C67.5437823,32.4397734 67.5437823,33.2402889 67.1686534,33.8900312 C66.7935245,34.5397735 66.1002578,34.9400312 65.35,34.9400312 L50.77,34.9400312 C49.610202,34.9400312 48.67,33.9998291 48.67,32.8400312 C48.67,31.6802332 49.610202,30.7400312 50.77,30.7400312 L65.35,30.7400312 Z M16.12,17.0000155 C17.4232708,16.9959837 18.6004652,17.7779401 19.1020124,18.9808456 C19.6035596,20.1837511 19.3305438,21.5703675 18.4104221,22.4933557 C17.4903004,23.4163438 16.1045399,23.6936712 14.9000802,23.195868 C13.6956205,22.6980648 12.9099844,21.5233082 12.9099844,20.2200312 C12.9073424,19.3669549 13.2443643,18.5479075 13.8466444,17.9437512 C14.4489244,17.3395948 15.2669196,17.0000155 16.12,17.0000155 Z M32.17,17.0000155 C33.4732708,16.9959837 34.6504652,17.7779401 35.1520124,18.9808456 C35.6535596,20.1837511 35.3805438,21.5703675 34.4604221,22.4933557 C33.5403004,23.4163438 32.1545399,23.6936712 30.9500802,23.195868 C29.7456205,22.6980648 28.9599844,21.5233082 28.9599844,20.2200312 C28.9573424,19.3669549 29.2943643,18.5479075 29.8966444,17.9437512 C30.4989244,17.3395948 31.3169196,17.0000155 32.17,17.0000155 Z M48.2,17.0000155 C49.5032708,16.9959837 50.6804652,17.7779401 51.1820124,18.9808456 C51.6835596,20.1837511 51.4105438,21.5703675 50.4904221,22.4933557 C49.5703004,23.4163438 48.1845399,23.6936712 46.9800802,23.195868 C45.7756205,22.6980648 44.9899844,21.5233082 44.9899844,20.2200312 C44.9873424,19.3669549 45.3243643,18.5479075 45.9266444,17.9437512 C46.5289244,17.3395948 47.3469196,17.0000155 48.2,17.0000155 Z M64.23,17.0000312 C65.5323684,17.0000312 66.7064973,17.784559 67.2048921,18.9877905 C67.7032869,20.191022 67.4277974,21.5760014 66.5068838,22.496915 C65.5859703,23.4178285 64.2009909,23.6933181 62.9977593,23.1949232 C61.7945278,22.6965284 61.01,21.5223996 61.01,20.2200312 C61.01,18.4416743 62.4516431,17.0000312 64.23,17.0000312 Z" id="path-1"></path>
        <filter x="-16.8%" y="-21.0%" width="133.6%" height="142.0%" filterUnits="objectBoundingBox" id="filter-2">
            <feMorphology radius="0.5" operator="dilate" in="SourceAlpha" result="shadowSpreadOuter1"></feMorphology>
            <feOffset dx="0" dy="0" in="shadowSpreadOuter1" result="shadowOffsetOuter1"></feOffset>
            <feGaussianBlur stdDeviation="3" in="shadowOffsetOuter1" result="shadowBlurOuter1"></feGaussianBlur>
            <feComposite in="shadowBlurOuter1" in2="SourceAlpha" operator="out" result="shadowBlurOuter1"></feComposite>
            <feColorMatrix values="0 0 0 0 1   0 0 0 0 1   0 0 0 0 1  0 0 0 0.5 0" type="matrix" in="shadowBlurOuter1"></feColorMatrix>
        </filter>
    </defs>
    <g id="草稿" stroke="none" stroke-width="1" fill="none" fill-rule="evenodd">
        <g id="画板" transform="translate(-254.000000, -362.000000)">
            <g id="502_霾" transform="translate(254.000000, 362.000000)">
                <rect id="矩形" x="0" y="0" width="80" height="80"></rect>
                <g id="形状结合" fill-rule="nonzero">
                    <use fill="black" fill-opacity="1" filter="url(#filter-2)" xlink:href="#path-1"></use>
                    <use stroke="#FFFFFF" stroke-width="1" fill="#E0F2FF" xlink:href="#path-1"></use>
                </g>
            </g>
        </g>
    </g>
</svg>