<?xml version="1.0" encoding="UTF-8"?>
<svg width="80px" height="80px" viewBox="0 0 80 80" version="1.1" xmlns="http://www.w3.org/2000/svg" xmlns:xlink="http://www.w3.org/1999/xlink">
    <title>503_扬沙</title>
    <defs>
        <path d="M64.8,62.0800276 C65.9542751,62.0800276 66.89,63.0157525 66.89,64.1700276 L66.89,64.3000276 C66.89,65.4543027 65.9542751,66.3900276 64.8,66.3900276 L13.09,66.3900276 C11.9357249,66.3900276 11,65.4543027 11,64.3000276 L11,64.1700276 C11,63.0157525 11.9357249,62.0800276 13.09,62.0800276 L64.8,62.0800276 Z M62.46,34.0700276 C65.76,36.1700276 67.32,39.8700276 67.09,45.0700276 C67.225963,49.9460647 63.8609185,54.2238776 59.09,55.2400276 C58.3884538,55.4081175 57.6711762,55.5019669 56.95,55.5200276 C54.4354,55.5893276 38.071987,55.6782296 14.1764075,55.7576246 L13.459,55.76 L13.3093124,55.7547298 C12.2143189,55.6774645 11.35,54.7646823 11.35,53.6500276 C11.35,52.4847068 12.2946792,51.5400276 13.46,51.5400276 C37.35,51.4600276 54.38,51.3700276 56.86,51.3000276 C57.2909917,51.2902822 57.7198707,51.2366723 58.14,51.1400276 C59.4607979,50.8394066 60.6578228,50.1414329 61.57,49.1400276 C62.476993,47.9238277 62.9457482,46.436499 62.9,44.9200276 C62.96,43.5900276 63.14,39.5400276 60.22,37.6700276 C58.15,36.3500276 54.7,36.2700276 52.87,38.2400276 C52.0855609,39.1270777 51.6300848,40.2569409 51.58,41.4400276 C51.5109644,42.6053484 50.5103208,43.4940632 49.345,43.4250276 C48.1796792,43.355992 47.2909644,42.3553484 47.36,41.1900276 C47.4531198,39.0156863 48.2978289,36.9410243 49.75,35.3200276 C52.81,32.0200276 58.4,31.4700276 62.46,34.0700276 Z M15.03,36.7100137 C17.0347936,36.7100137 18.66,38.335234 18.66,40.3400276 C18.66,42.3448212 17.0347936,43.9700276 15.03,43.9700276 C13.0252064,43.9700276 11.3999861,42.3448212 11.3999861,40.3400276 C11.3973346,39.3764771 11.7789239,38.4516229 12.4602596,37.7702872 C13.1415953,37.0889515 14.0664495,36.7073622 15.03,36.7100137 Z M30.87,36.7100276 C32.8747936,36.7100276 34.5,38.335234 34.5,40.3400276 C34.5,42.3448212 32.8747936,43.9700276 30.87,43.9700276 C28.8652064,43.9700276 27.24,42.3448212 27.24,40.3400276 C27.24,39.3772917 27.6224453,38.453987 28.3032024,37.77323 C28.9839594,37.0924729 29.9072641,36.7100276 30.87,36.7100276 Z M23.32,24.8100276 C24.7881979,24.8100276 26.1118277,25.6944487 26.6736827,27.0508867 C27.2355377,28.4073248 26.9249703,29.9686525 25.8867976,31.0068252 C24.8486249,32.0449979 23.2872972,32.3555653 21.9308591,31.7937103 C20.5744211,31.2318553 19.69,29.9082255 19.69,28.4400276 C19.69,26.435234 21.3152064,24.8100276 23.32,24.8100276 Z M39.96,24.8100276 C41.9647936,24.8100276 43.59,26.435234 43.59,28.4400276 C43.59,30.4448212 41.9647936,32.0700276 39.96,32.0700276 C37.9552064,32.0700276 36.33,30.4448212 36.33,28.4400276 C36.33,26.435234 37.9552064,24.8100276 39.96,24.8100276 Z M14.84,13.0000137 C16.8447936,13.0000137 18.47,14.625234 18.47,16.6300276 C18.47,18.6348212 16.8447936,20.2600276 14.84,20.2600276 C12.8352064,20.2600276 11.2099861,18.6348212 11.2099861,16.6300276 C11.2073346,15.6664771 11.5889239,14.7416229 12.2702596,14.0602872 C12.9515953,13.3789515 13.8764495,12.9973622 14.84,13.0000137 Z M30.87,13.0000276 C32.8747936,13.0000276 34.5,14.625234 34.5,16.6300276 C34.5,18.6348212 32.8747936,20.2600276 30.87,20.2600276 C28.8652064,20.2600276 27.24,18.6348212 27.24,16.6300276 C27.24,14.625234 28.8652064,13.0000276 30.87,13.0000276 Z M46.91,13.0000276 C48.9147936,13.0000276 50.54,14.625234 50.54,16.6300276 C50.54,18.6348212 48.9147936,20.2600276 46.91,20.2600276 C44.9052064,20.2600276 43.28,18.6348212 43.28,16.6300276 C43.28,14.625234 44.9052064,13.0000276 46.91,13.0000276 Z M62.95,13.0000137 C64.9547936,13.0000137 66.58,14.625234 66.58,16.6300276 C66.58,18.6348212 64.9547936,20.2600276 62.95,20.2600276 C60.9452064,20.2600276 59.3199861,18.6348212 59.3199861,16.6300276 C59.3173346,15.6664771 59.6989239,14.7416229 60.3802596,14.0602872 C61.0615953,13.3789515 61.9864495,12.9973622 62.95,13.0000137 Z" id="path-1"></path>
        <filter x="-16.9%" y="-17.8%" width="133.9%" height="135.6%" filterUnits="objectBoundingBox" id="filter-2">
            <feMorphology radius="0.5" operator="dilate" in="SourceAlpha" result="shadowSpreadOuter1"></feMorphology>
            <feOffset dx="0" dy="0" in="shadowSpreadOuter1" result="shadowOffsetOuter1"></feOffset>
            <feGaussianBlur stdDeviation="3" in="shadowOffsetOuter1" result="shadowBlurOuter1"></feGaussianBlur>
            <feComposite in="shadowBlurOuter1" in2="SourceAlpha" operator="out" result="shadowBlurOuter1"></feComposite>
            <feColorMatrix values="0 0 0 0 1   0 0 0 0 1   0 0 0 0 1  0 0 0 0.5 0" type="matrix" in="shadowBlurOuter1"></feColorMatrix>
        </filter>
    </defs>
    <g id="草稿" stroke="none" stroke-width="1" fill="none" fill-rule="evenodd">
        <g id="画板" transform="translate(-358.000000, -362.000000)">
            <g id="503_扬沙" transform="translate(358.000000, 362.000000)">
                <rect id="矩形" x="0" y="0" width="80" height="80"></rect>
                <g id="形状结合" fill-rule="nonzero">
                    <use fill="black" fill-opacity="1" filter="url(#filter-2)" xlink:href="#path-1"></use>
                    <use stroke="#FFFFFF" stroke-width="1" fill="#E0F2FF" xlink:href="#path-1"></use>
                </g>
            </g>
        </g>
    </g>
</svg>