<?xml version="1.0" encoding="UTF-8"?>
<svg width="80px" height="80px" viewBox="0 0 80 80" version="1.1" xmlns="http://www.w3.org/2000/svg" xmlns:xlink="http://www.w3.org/1999/xlink">
    <title>504_浮尘</title>
    <defs>
        <path d="M71.6855426,58.2718433 C72.1344636,59.0115227 72.1344636,59.9395564 71.6855426,60.6792358 C71.2366215,61.4189151 70.4133841,61.8473153 69.55,61.7905396 L9.32,61.7905396 C8.10043047,61.7103412 7.15223337,60.6977431 7.15223337,59.4755396 C7.15223337,58.253336 8.10043047,57.2407379 9.32,57.1605396 L69.55,57.1605396 C70.4133841,57.1037638 71.2366215,57.532164 71.6855426,58.2718433 Z M69.55,44.8005396 C70.8313006,44.8005396 71.87,45.8392389 71.87,47.1205396 C71.87,48.4018402 70.8313006,49.4405396 69.55,49.4405396 L9.32,49.4405396 C8.03869938,49.4405396 7,48.4018402 7,47.1205396 C7,45.8392389 8.03869938,44.8005396 9.32,44.8005396 L69.55,44.8005396 Z M10.92,35.5405396 C12.195727,35.5680507 13.2097694,36.6206355 13.1896936,37.8965011 C13.1696177,39.1723668 12.1229605,40.1925263 10.8469995,40.1798865 C9.57103853,40.1672466 8.5447965,39.1265525 8.5499803,37.8505396 C8.55253781,37.2282115 8.80499679,36.6329958 9.25065795,36.1986172 C9.6963191,35.7642386 10.2978114,35.527122 10.92,35.5405396 Z M29.4,35.5405396 C30.3392605,35.5405396 31.1858425,36.1068862 31.5443406,36.9750392 C31.9028387,37.8431921 31.7025096,38.8418451 31.0369192,39.5045666 C30.3713288,40.1672881 29.3718197,40.3633015 28.5052234,40.0010567 C27.6386272,39.6388118 27.0759515,38.7897914 27.0799783,37.8505396 C27.0855061,36.5731459 28.1225945,35.5405396 29.4,35.5405396 Z M47.92,35.5405179 C48.8601601,35.5364958 49.7098106,36.1002581 50.0714648,36.9680851 C50.433119,37.8359121 50.235266,38.8362061 49.5704663,39.5010058 C48.9056665,40.1658056 47.9053725,40.3636585 47.0375455,40.0020043 C46.1697185,39.6403502 45.6059562,38.7906997 45.6099784,37.8505396 C45.6154775,36.5770375 46.646498,35.5460171 47.92,35.5405179 Z M66.46,35.5405179 C67.4001601,35.5364958 68.2498106,36.1002581 68.6114648,36.9680851 C68.973119,37.8359121 68.775266,38.8362061 68.1104663,39.5010058 C67.4456665,40.1658056 66.4453725,40.3636585 65.5775455,40.0020043 C64.7097185,39.6403502 64.1459562,38.7906997 64.1499784,37.8505396 C64.1499784,36.5747618 65.1842222,35.5405179 66.46,35.5405179 Z M18.9313038,26.454997 C19.6709832,26.0060759 20.5990168,26.0060759 21.3386962,26.454997 C22.0783756,26.903918 22.5067758,27.7271554 22.45,28.5905396 L22.45,28.5905396 L22.4549377,28.7625821 C22.4482723,29.5620251 22.0290636,30.3070892 21.3386962,30.7260821 C20.5990168,31.1750032 19.6709832,31.1750032 18.9313038,30.7260821 C18.1916244,30.2771611 17.7632242,29.4539237 17.82,28.5905396 C17.7632242,27.7271554 18.1916244,26.903918 18.9313038,26.454997 Z M38.67,26.2705178 C39.9513006,26.2705178 40.99,27.3092389 40.99,28.5905396 C40.99,29.8718402 39.9513006,30.9105396 38.67,30.9105396 C37.3886994,30.9105396 36.3499782,29.8718402 36.3499782,28.5905396 C36.347327,27.9744218 36.5908964,27.3827663 37.0265616,26.9471012 C37.4622268,26.511436 38.0538822,26.2678666 38.67,26.2705178 Z M57.24,26.2705178 C58.5213006,26.2705178 59.56,27.3092389 59.56,28.5905396 C59.56,29.8718402 58.5213006,30.9105396 57.24,30.9105396 C55.9586994,30.9105396 54.9199782,29.8718402 54.9199782,28.5905396 C54.917327,27.9744218 55.1608964,27.3827663 55.5965616,26.9471012 C56.0322268,26.511436 56.6238822,26.2678666 57.24,26.2705178 Z M29.4,17.0005396 C30.6813006,17.0005396 31.72,18.0392389 31.72,19.3205396 C31.72,20.6018402 30.6813006,21.6405396 29.4,21.6405396 C28.1186994,21.6405396 27.08,20.6018402 27.08,19.3205396 C27.08,18.0392389 28.1186994,17.0005396 29.4,17.0005396 Z M47.92,17.0005179 C48.8592518,16.996491 49.7082723,17.5591668 50.0705171,18.425763 C50.432762,19.2923592 50.2367486,20.2918683 49.5740271,20.9574588 C48.9113056,21.6230492 47.9126525,21.8233783 47.0444996,21.4648802 C46.1763467,21.1063821 45.61,20.2598001 45.61,19.3205396 C45.61,18.043134 46.6426064,17.0060456 47.92,17.0005179 Z M66.46,17.0005179 C67.3992518,16.996491 68.2482723,17.5591668 68.6105171,18.425763 C68.972762,19.2923592 68.7767486,20.2918683 68.1140271,20.9574588 C67.4513056,21.6230492 66.4526525,21.8233783 65.5844996,21.4648802 C64.7163467,21.1063821 64.1499783,20.2598001 64.1499783,19.3205396 C64.1473403,18.7061587 64.38954,18.1160288 64.8230376,17.6806546 C65.2565353,17.2452803 65.8456134,17.0005179 66.46,17.0005179 Z M10.92,17.0005396 C12.1944301,17.0280121 13.2079802,18.0785599 13.189763,19.3531559 C13.1715459,20.6277519 12.128386,21.6489042 10.8536913,21.6399434 C9.57899667,21.6309826 8.55029608,20.5952657 8.54999994,19.3205396 C8.54985505,18.6964755 8.80113453,18.0986687 9.24709364,17.662118 C9.69305274,17.2255673 10.2960808,16.9870899 10.92,17.0005396 Z" id="path-1"></path>
        <filter x="-14.6%" y="-21.2%" width="129.2%" height="142.4%" filterUnits="objectBoundingBox" id="filter-2">
            <feMorphology radius="0.5" operator="dilate" in="SourceAlpha" result="shadowSpreadOuter1"></feMorphology>
            <feOffset dx="0" dy="0" in="shadowSpreadOuter1" result="shadowOffsetOuter1"></feOffset>
            <feGaussianBlur stdDeviation="3" in="shadowOffsetOuter1" result="shadowBlurOuter1"></feGaussianBlur>
            <feComposite in="shadowBlurOuter1" in2="SourceAlpha" operator="out" result="shadowBlurOuter1"></feComposite>
            <feColorMatrix values="0 0 0 0 1   0 0 0 0 1   0 0 0 0 1  0 0 0 0.5 0" type="matrix" in="shadowBlurOuter1"></feColorMatrix>
        </filter>
    </defs>
    <g id="草稿" stroke="none" stroke-width="1" fill="none" fill-rule="evenodd">
        <g id="画板" transform="translate(-462.000000, -362.000000)">
            <g id="504_浮尘" transform="translate(462.000000, 362.000000)">
                <rect id="矩形" x="0" y="0" width="80" height="80"></rect>
                <g id="形状结合" fill-rule="nonzero">
                    <use fill="black" fill-opacity="1" filter="url(#filter-2)" xlink:href="#path-1"></use>
                    <use stroke="#FFFFFF" stroke-width="1" fill="#E0F2FF" xlink:href="#path-1"></use>
                </g>
            </g>
        </g>
    </g>
</svg>