<?xml version="1.0" encoding="UTF-8"?>
<svg width="81px" height="80px" viewBox="0 0 81 80" version="1.1" xmlns="http://www.w3.org/2000/svg" xmlns:xlink="http://www.w3.org/1999/xlink">
    <title>507_沙尘暴</title>
    <defs>
        <path d="M6.33853832,46.0967215 C6.78992274,45.4231158 7.60335304,45.0887111 8.39799497,45.25007 L8.39799497,45.25007 L58.927995,45.25007 L58.927995,45.26007 C63.7087942,45.2631024 67.8015326,48.6887484 68.6462738,53.3943263 C69.491015,58.0999042 66.8453729,62.7352182 62.3641506,64.4009605 C57.8829283,66.0667027 52.8519458,64.2849132 50.417995,60.17007 C50.1067783,59.2724795 50.469937,58.2798169 51.2869098,57.7949665 C52.1038827,57.3101162 53.1491987,57.4668888 53.787995,58.17007 C55.2475085,60.6977279 58.3142417,61.8083825 61.0538379,60.8014831 C63.7934341,59.7945837 65.4109913,56.9622851 64.8862274,54.0910734 C64.3614636,51.2198616 61.8466405,49.1428274 58.927995,49.17007 L58.927995,49.17007 L8.39799497,49.17007 C7.60335304,49.331429 6.78992274,48.9970243 6.33853832,48.3234186 C5.88715389,47.649813 5.88715389,46.7703271 6.33853832,46.0967215 Z M26.597995,57.38007 C28.2217121,57.38007 29.537995,58.6963529 29.537995,60.32007 C29.537995,61.9437872 28.2217121,63.26007 26.597995,63.26007 C24.9742778,63.26007 23.657995,61.9437872 23.657995,60.32007 C23.657995,58.6963529 24.9742778,57.38007 26.597995,57.38007 Z M11.527995,57.38007 C13.1517121,57.38007 14.467995,58.6963529 14.467995,60.32007 C14.467995,61.509189 13.751687,62.5812197 12.6530843,63.0362759 C11.5544816,63.491332 10.2899351,63.2397981 9.44910104,62.398964 C8.60826693,61.5581299 8.35673301,60.2935835 8.81178915,59.1949808 C9.26684529,58.096378 10.338876,57.38007 11.527995,57.38007 Z M41.822,57.38 L41.9907423,57.3850438 C43.5340534,57.4744665 44.757995,58.7543428 44.757995,60.32007 C44.757995,61.5100976 44.0405933,62.5827555 42.9407624,63.0372195 C41.8409315,63.4916834 40.5756043,63.2383112 39.7355625,62.3954024 C38.8955207,61.5524936 38.6464611,60.2863105 39.1046698,59.1880344 C39.5628784,58.0897583 40.6379743,57.3760223 41.827995,57.3800529 L41.822,57.38 Z M62.4152276,36.2229206 C63.5150585,35.7684566 64.7803857,36.0218288 65.6204274,36.8647377 C66.4604692,37.7076465 66.7095288,38.9738296 66.2513202,40.0721057 C65.7931116,41.1703818 64.7180156,41.8841178 63.527995,41.8800872 C62.7491749,41.8800872 62.0023985,41.5700067 61.4526285,41.0183604 C60.9028586,40.4667141 60.5953369,39.7188855 60.5979779,38.94007 C60.5979779,37.7500425 61.3153967,36.6773846 62.4152276,36.2229206 Z M38.027995,22.01007 C40.4737154,17.9084641 45.5029889,16.1431791 49.9756872,17.8164064 C54.4483855,19.4896337 57.0841617,24.1223982 56.2373159,28.8221398 C55.3904701,33.5218815 51.3034189,36.9432606 46.527995,36.95007 L46.527995,36.95007 L8.39799497,36.95007 L8.39799497,36.93007 C7.60335304,37.091429 6.78992274,36.7570243 6.33853832,36.0834186 C5.88715389,35.409813 5.88715389,34.5303271 6.33853832,33.8567215 C6.78992274,33.1831158 7.60335304,32.8487111 8.39799497,33.01007 L8.39799497,33.01007 L46.527995,33.01007 C49.4478284,33.0421625 51.9667891,30.967569 52.4949668,28.0957254 C53.0231445,25.2238819 51.4071504,22.3888044 48.6669628,21.379929 C45.9267753,20.3710536 42.8581762,21.4813692 41.397995,24.01007 C41.1321227,24.7768813 40.4292105,25.3069914 39.6188544,25.3518312 C38.8084984,25.3966711 38.0513907,24.947349 37.7025399,24.2145526 C37.353689,23.4817561 37.4822716,22.6107975 38.027995,22.01007 Z M69.4152276,25.2229206 C70.5150585,24.7684566 71.7803857,25.0218288 72.6204274,25.8647377 C73.4604692,26.7076465 73.7095288,27.9738296 73.2513202,29.0721057 C72.7931116,30.1703818 71.7180156,30.8841178 70.527995,30.8800872 C69.7491749,30.8800872 69.0023985,30.5700067 68.4526285,30.0183604 C67.9028586,29.4667141 67.5953369,28.7188855 67.5979779,27.94007 C67.5979779,26.7500425 68.3153967,25.6773846 69.4152276,25.2229206 Z M17.4152276,24.2229206 C18.5150585,23.7684566 19.7803857,24.0218288 20.6204274,24.8647377 C21.4604692,25.7076465 21.7095288,26.9738296 21.2513202,28.0721057 C20.7931116,29.1703818 19.7180156,29.8841178 18.527995,29.8800872 C17.7491749,29.8800872 17.0023985,29.5700067 16.4526285,29.0183604 C15.9028586,28.4667141 15.5953369,27.7188855 15.5979779,26.94007 C15.5979779,25.7500425 16.3153967,24.6773846 17.4152276,24.2229206 Z M10.4152276,14.2229206 C11.5150585,13.7684566 12.7803857,14.0218288 13.6204274,14.8647377 C14.4604692,15.7076465 14.7095288,16.9738296 14.2513202,18.0721057 C13.7931116,19.1703818 12.7180156,19.8841178 11.527995,19.8800872 C10.7491749,19.8800872 10.0023985,19.5700067 9.45262854,19.0183604 C8.90285859,18.4667141 8.59533689,17.7188855 8.59797789,16.94007 C8.59797789,15.7500425 9.31539668,14.6773846 10.4152276,14.2229206 Z M62.4152276,14.2229206 C63.5150585,13.7684566 64.7803857,14.0218288 65.6204274,14.8647377 C66.4604692,15.7076465 66.7095288,16.9738296 66.2513202,18.0721057 C65.7931116,19.1703818 64.7180156,19.8841178 63.527995,19.8800872 C62.7491749,19.8800872 62.0023985,19.5700067 61.4526285,19.0183604 C60.9028586,18.4667141 60.5953369,17.7188855 60.5979779,16.94007 C60.5979779,15.7500425 61.3153967,14.6773846 62.4152276,14.2229206 Z M26.597995,14.00007 C28.2217121,14.00007 29.537995,15.3163529 29.537995,16.94007 C29.537995,18.5637872 28.2217121,19.88007 26.597995,19.88007 C24.9742778,19.88007 23.657995,18.5637872 23.657995,16.94007 C23.657995,15.3163529 24.9742778,14.00007 26.597995,14.00007 Z" id="path-1"></path>
        <filter x="-14.1%" y="-18.6%" width="128.2%" height="137.2%" filterUnits="objectBoundingBox" id="filter-2">
            <feMorphology radius="0.5" operator="dilate" in="SourceAlpha" result="shadowSpreadOuter1"></feMorphology>
            <feOffset dx="0" dy="0" in="shadowSpreadOuter1" result="shadowOffsetOuter1"></feOffset>
            <feGaussianBlur stdDeviation="3" in="shadowOffsetOuter1" result="shadowBlurOuter1"></feGaussianBlur>
            <feComposite in="shadowBlurOuter1" in2="SourceAlpha" operator="out" result="shadowBlurOuter1"></feComposite>
            <feColorMatrix values="0 0 0 0 1   0 0 0 0 1   0 0 0 0 1  0 0 0 0.5 0" type="matrix" in="shadowBlurOuter1"></feColorMatrix>
        </filter>
    </defs>
    <g id="草稿" stroke="none" stroke-width="1" fill="none" fill-rule="evenodd">
        <g id="画板" transform="translate(-565.000000, -362.000000)">
            <g id="507_沙尘暴" transform="translate(566.000000, 362.000000)">
                <rect id="矩形" x="0" y="0" width="80" height="80"></rect>
                <g id="形状结合" fill-rule="nonzero">
                    <use fill="black" fill-opacity="1" filter="url(#filter-2)" xlink:href="#path-1"></use>
                    <use stroke="#FFFFFF" stroke-width="1" fill="#E0F2FF" xlink:href="#path-1"></use>
                </g>
            </g>
        </g>
    </g>
</svg>