<?xml version="1.0" encoding="UTF-8"?>
<svg width="80px" height="80px" viewBox="0 0 80 80" version="1.1" xmlns="http://www.w3.org/2000/svg" xmlns:xlink="http://www.w3.org/1999/xlink">
    <title>508_强沙尘暴</title>
    <defs>
        <path d="M61.132005,50.0612087 L61.132005,50.0712087 C65.9128043,50.0742411 70.0055427,53.4998871 70.8502839,58.205465 C71.695025,62.9110429 69.049383,67.5463569 64.5681606,69.2120992 C60.0869383,70.8778414 55.0559559,69.0960518 52.622005,64.9812087 C52.3107884,64.0836182 52.673947,63.0909556 53.4909199,62.6061052 C54.3078927,62.1212549 55.3532088,62.2780275 55.992005,62.9812087 C57.4515185,65.5088666 60.5182517,66.6195212 63.2578479,65.6126218 C65.9974442,64.6057224 67.6150013,61.7734238 67.0902375,58.9022121 C66.5654736,56.0310003 64.0506506,53.9539661 61.132005,53.9812087 L61.132005,53.9812087 L10.602005,53.9812087 C9.66987543,53.7919317 9,52.9723614 9,52.0212087 C9,51.0700561 9.66987543,50.2504857 10.602005,50.0612087 L10.602005,50.0612087 L61.132005,50.0612087 Z M13.732005,61.1912087 C15.3557222,61.1912087 16.672005,62.5074916 16.672005,64.1312087 C16.672005,65.7549259 15.3557222,67.0712087 13.732005,67.0712087 C12.1082879,67.0712087 10.792005,65.7549259 10.792005,64.1312087 C10.792005,62.5074916 12.1082879,61.1912087 13.732005,61.1912087 Z M28.802005,61.1912087 C29.5817415,61.1912087 30.329542,61.5009578 30.880899,62.0523148 C31.4322559,62.6036717 31.742005,63.3514723 31.742005,64.1312087 C31.742005,65.7549259 30.4257222,67.0712087 28.802005,67.0712087 C27.1782879,67.0712087 25.862005,65.7549259 25.862005,64.1312087 C25.862005,62.5074916 27.1782879,61.1912087 28.802005,61.1912087 Z M44.027,61.191 L44.1947524,61.1961825 C45.7380635,61.2856051 46.962005,62.5654815 46.962005,64.1312087 C46.962005,65.3212363 46.2446033,66.3938942 45.1447724,66.8483581 C44.0449415,67.3028221 42.7796143,67.0494499 41.9395726,66.2065411 C41.0995308,65.3636323 40.8504712,64.0974492 41.3086798,62.9991731 C41.7668884,61.900897 42.8419844,61.187161 44.032005,61.1911916 L44.027,61.191 Z M13.732005,38.0911916 C14.9220257,38.087161 15.9971216,38.800897 16.4553302,39.8991731 C16.9135389,40.9974492 16.6644793,42.2636323 15.8244375,43.1065411 C14.9843957,43.9494499 13.7190685,44.2028221 12.6192376,43.7483581 C11.5194067,43.2938942 10.8019879,42.2212363 10.8019879,41.0312087 C10.7993469,40.2523932 11.1068686,39.5045647 11.6566386,38.9529184 C12.2064085,38.4012721 12.953185,38.0911916 13.732005,38.0911916 Z M62.7412405,23.8866453 C63.4207543,23.4408357 64.3024726,23.4505444 64.972005,23.9112087 C69.3263876,25.7254248 71.7908758,30.3647984 70.8563978,34.9885176 C69.9219198,39.6122367 65.8491715,42.9304004 61.132005,42.9112916 L61.132005,42.9112916 L24.512005,42.9112916 C23.5798754,42.7219317 22.91,41.9023614 22.91,40.9512087 C22.91,40.0000561 23.5798754,39.1804857 24.512005,38.9912087 L24.512005,38.9912087 L61.132005,38.9912087 L61.132005,38.9712087 C63.9163761,38.8860669 66.2759304,36.8957121 66.8291222,34.1655198 C67.382314,31.4353275 65.9836257,28.6834773 63.452005,27.5212087 C62.6546095,27.3642191 62.0314994,26.740316 61.8755242,25.9427215 C61.7195489,25.1451269 62.0617266,24.332455 62.7412405,23.8866453 Z M40.232005,15.8212087 C42.6777254,11.7196028 47.7069989,9.95431781 52.1796972,11.6275451 C56.6523955,13.3007724 59.2881718,17.9335368 58.441326,22.6332785 C57.5944802,27.3330202 53.5074289,30.7543993 48.732005,30.7612087 L48.732005,30.7612087 L10.602005,30.7612087 L10.602005,30.7412087 C9.66987543,30.5519317 9,29.7323614 9,28.7812087 C9,27.8300561 9.66987543,27.0104857 10.602005,26.8212087 L10.602005,26.8212087 L48.732005,26.8212087 C51.6518384,26.8533012 54.1707992,24.7787077 54.6989769,21.9068641 C55.2271546,19.0350206 53.6111604,16.1999431 50.8709729,15.1910677 C48.1307854,14.1821923 45.0621863,15.2925079 43.602005,17.8212087 C42.9632088,18.52439 41.9178927,18.6811626 41.1009199,18.1963122 C40.283947,17.7114619 39.9207884,16.7187992 40.232005,15.8212087 Z M12.6192376,15.0340593 C13.7190685,14.5795953 14.9843957,14.8329675 15.8244375,15.6758764 C16.6644793,16.5187852 16.9135389,17.7849683 16.4553302,18.8832444 C15.9971216,19.9815205 14.9220257,20.6952564 13.732005,20.6912259 C12.953185,20.6912259 12.2064085,20.3811454 11.6566386,19.8294991 C11.1068686,19.2778528 10.7993469,18.5300242 10.8019879,17.7512087 C10.8019879,16.5611812 11.5194067,15.4885233 12.6192376,15.0340593 Z M28.802005,14.8112087 C30.4257222,14.8112087 31.742005,16.1274916 31.742005,17.7512087 C31.742005,19.3749259 30.4257222,20.6912087 28.802005,20.6912087 C27.1782879,20.6912087 25.862005,19.3749259 25.862005,17.7512087 C25.862005,16.1274916 27.1782879,14.8112087 28.802005,14.8112087 Z M66.802005,14.8112087 C68.4257222,14.8112087 69.742005,16.1274916 69.742005,17.7512087 C69.742005,19.3749259 68.4257222,20.6912087 66.802005,20.6912087 C66.0222685,20.6912087 65.274468,20.3814596 64.7231111,19.8301027 C64.1717541,19.2787457 63.862005,18.5309452 63.862005,17.7512087 C63.862005,16.1274916 65.1782879,14.8112087 66.802005,14.8112087 Z" id="path-1"></path>
        <filter x="-15.3%" y="-16.1%" width="130.6%" height="132.3%" filterUnits="objectBoundingBox" id="filter-2">
            <feMorphology radius="0.5" operator="dilate" in="SourceAlpha" result="shadowSpreadOuter1"></feMorphology>
            <feOffset dx="0" dy="0" in="shadowSpreadOuter1" result="shadowOffsetOuter1"></feOffset>
            <feGaussianBlur stdDeviation="3" in="shadowOffsetOuter1" result="shadowBlurOuter1"></feGaussianBlur>
            <feComposite in="shadowBlurOuter1" in2="SourceAlpha" operator="out" result="shadowBlurOuter1"></feComposite>
            <feColorMatrix values="0 0 0 0 1   0 0 0 0 1   0 0 0 0 1  0 0 0 0.5 0" type="matrix" in="shadowBlurOuter1"></feColorMatrix>
        </filter>
    </defs>
    <g id="草稿" stroke="none" stroke-width="1" fill="none" fill-rule="evenodd">
        <g id="画板" transform="translate(-670.000000, -362.000000)">
            <g id="508_强沙尘暴" transform="translate(670.000000, 362.000000)">
                <rect id="矩形" x="0" y="0" width="80" height="80"></rect>
                <g id="形状结合" fill-rule="nonzero">
                    <use fill="black" fill-opacity="1" filter="url(#filter-2)" xlink:href="#path-1"></use>
                    <use stroke="#FFFFFF" stroke-width="1" fill="#E0F2FF" xlink:href="#path-1"></use>
                </g>
            </g>
        </g>
    </g>
</svg>