<?xml version="1.0" encoding="UTF-8"?>
<svg width="80px" height="80px" viewBox="0 0 80 80" version="1.1" xmlns="http://www.w3.org/2000/svg" xmlns:xlink="http://www.w3.org/1999/xlink">
    <title>509_浓雾</title>
    <defs>
        <path d="M64.9468843,63.7100958 L13.2368843,63.7100958 C12.0865032,63.7100958 11.1523885,62.7804638 11.1468843,61.6300958 L11.1468843,61.4900958 C11.1578063,60.3420023 12.0887516,59.4155112 13.2368843,59.4100958 L64.9468843,59.4100958 C66.0988849,59.4155686 67.0314115,60.3480952 67.0368843,61.5000958 L67.0368843,61.6400958 C67.0205496,62.7842786 66.0911712,63.7047634 64.9468843,63.7100958 Z M41.1768843,42.0100958 L13.3068843,42.0100958 C12.5019385,42.0649607 11.7335159,41.6666396 11.3143639,40.9772489 C10.895212,40.2878582 10.895212,39.4223334 11.3143639,38.7329427 C11.7335159,38.043552 12.5019385,37.6452309 13.3068843,37.7000958 L41.1768843,37.7000958 C41.9818301,37.6452309 42.7502528,38.043552 43.1694047,38.7329427 C43.5885566,39.4223334 43.5885566,40.2878582 43.1694047,40.9772489 C42.7502528,41.6666396 41.9818301,42.0649607 41.1768843,42.0100958 L41.1768843,42.0100958 Z M64.7468843,42.0100958 L49.8068843,42.0100958 C49.0019385,42.0649607 48.2335159,41.6666396 47.8143639,40.9772489 C47.395212,40.2878582 47.395212,39.4223334 47.8143639,38.7329427 C48.2335159,38.043552 49.0019385,37.6452309 49.8068843,37.7000958 L64.7468843,37.7000958 C65.5518301,37.6452309 66.3202528,38.043552 66.7394047,38.7329427 C67.1585566,39.4223334 67.1585566,40.2878582 66.7394047,40.9772489 C66.3202528,41.6666396 65.5518301,42.0649607 64.7468843,42.0100958 L64.7468843,42.0100958 Z M64.8368843,20.3100958 L13.1168843,20.3100958 C11.9665163,20.3045916 11.0368843,19.370477 11.0368843,18.2200958 L11.0368843,18.0900958 C11.0368843,16.9397147 11.9665163,16.0056 13.1168843,16.0000958 L64.8368843,16.0000958 C65.3946439,15.9947582 65.9313961,16.2125953 66.3276834,16.6051264 C66.7239707,16.9976575 66.9468843,17.5323107 66.9468843,18.0900958 L66.9468843,18.2200958 C66.9468843,18.777881 66.7239707,19.3125342 66.3276834,19.7050653 C65.9313961,20.0975963 65.3946439,20.3154335 64.8368843,20.3100958 L64.8368843,20.3100958 Z" id="path-1"></path>
        <filter x="-16.9%" y="-19.9%" width="133.9%" height="139.8%" filterUnits="objectBoundingBox" id="filter-2">
            <feMorphology radius="0.5" operator="dilate" in="SourceAlpha" result="shadowSpreadOuter1"></feMorphology>
            <feOffset dx="0" dy="0" in="shadowSpreadOuter1" result="shadowOffsetOuter1"></feOffset>
            <feGaussianBlur stdDeviation="3" in="shadowOffsetOuter1" result="shadowBlurOuter1"></feGaussianBlur>
            <feComposite in="shadowBlurOuter1" in2="SourceAlpha" operator="out" result="shadowBlurOuter1"></feComposite>
            <feColorMatrix values="0 0 0 0 1   0 0 0 0 1   0 0 0 0 1  0 0 0 0.5 0" type="matrix" in="shadowBlurOuter1"></feColorMatrix>
        </filter>
    </defs>
    <g id="草稿" stroke="none" stroke-width="1" fill="none" fill-rule="evenodd">
        <g id="画板" transform="translate(-774.000000, -362.000000)">
            <g id="509_浓雾" transform="translate(774.000000, 362.000000)">
                <rect id="矩形" x="0" y="0" width="80" height="80"></rect>
                <g id="形状" fill-rule="nonzero">
                    <use fill="black" fill-opacity="1" filter="url(#filter-2)" xlink:href="#path-1"></use>
                    <use stroke="#FFFFFF" stroke-width="1" fill="#E0F2FF" xlink:href="#path-1"></use>
                </g>
            </g>
        </g>
    </g>
</svg>