<?xml version="1.0" encoding="UTF-8"?>
<svg width="80px" height="80px" viewBox="0 0 80 80" version="1.1" xmlns="http://www.w3.org/2000/svg" xmlns:xlink="http://www.w3.org/1999/xlink">
    <title>513_严重霾</title>
    <defs>
        <path d="M15.41,58.7400587 C16.8680317,58.7400587 18.05,59.9220269 18.05,61.3800587 C18.05,62.8380904 16.8680317,64.0200587 15.41,64.0200587 C13.9519683,64.0200587 12.77,62.8380904 12.77,61.3800587 C12.77,59.9220269 13.9519683,58.7400587 15.41,58.7400587 Z M31.7,58.7400587 C33.1580317,58.7400587 34.34,59.9220269 34.34,61.3800587 C34.34,62.8380904 33.1580317,64.0200587 31.7,64.0200587 C30.2419683,64.0200587 29.06,62.8380904 29.06,61.3800587 C29.06,59.9220269 30.2419683,58.7400587 31.7,58.7400587 Z M48,58.7400587 C49.454125,58.7455668 50.63,59.9259233 50.63,61.3800587 C50.63,62.8380904 49.4480317,64.0200587 47.99,64.0200587 C46.5319683,64.0200587 45.35,62.8380904 45.35,61.3800587 C45.35,59.9220269 46.5319683,58.7400587 47.99,58.7400587 L47.99,58.7400587 Z M64.28,58.7400587 C65.7380317,58.7400587 66.92,59.9220269 66.92,61.3800587 C66.92,62.8380904 65.7380317,64.0200587 64.28,64.0200587 C62.8219683,64.0200587 61.64,62.8380904 61.64,61.3800587 C61.64,59.9220269 62.8219683,58.7400587 64.28,58.7400587 Z M56.03,25.0700587 C62.95,25.0700587 68.59,31.4300587 68.59,39.2500587 L68.59,39.2500587 L68.56,39.2500587 C68.56,47.0600587 62.92,53.4200587 56,53.4200587 C53,53.4200587 49.2,51.2400587 44.35,46.7500587 C42.5,45.0300587 40.88,43.3300587 39.77,42.1200587 C38.67,43.3300587 37.05,45.0300587 35.2,46.7500587 C30.35,51.2400587 26.57,53.4200587 23.57,53.4200587 C16.65,53.4200587 11,47.0700587 11,39.2500587 C11,31.4300587 16.65,25.0700587 23.62,25.0700587 C26.6,25.0700587 30.4,27.2600587 35.25,31.7500587 C37.1,33.4600587 38.72,35.1600587 39.82,36.3800587 C40.93,35.1600587 42.55,33.4600587 44.4,31.7500587 C49.25,27.2600587 53.03,25.0700587 56.03,25.0700587 Z M56,28.5900587 C52.55,28.5900587 45.93,34.7200587 41.93,39.2500587 C46,43.7800587 52.55,49.9000587 56,49.9000587 C61,49.9000587 65,45.1300587 65,39.2500587 C65,33.3700587 61,28.5900587 56,28.5900587 Z M23.59,28.5900587 C18.65,28.5900587 14.59,33.3800587 14.59,39.2500587 C14.59,45.1200587 18.59,49.9000587 23.59,49.9000587 C27.04,49.9000587 33.66,43.7800587 37.66,39.2500587 C33.59,34.7200587 27.04,28.5900587 23.59,28.5900587 Z M14.4012612,15.2037109 C15.3924014,14.7909786 16.5346348,15.0170651 17.2938142,15.7762445 C18.0529936,16.5354239 18.27908,17.6776573 17.8663478,18.6687975 C17.4536156,19.6599377 16.4836342,20.3041025 15.41,20.3000776 C13.9519683,20.3000776 12.7699811,19.1180904 12.7699811,17.6600587 C12.7659561,16.5864245 13.410121,15.6164431 14.4012612,15.2037109 Z M30.6912612,15.2037109 C31.6824014,14.7909786 32.8246348,15.0170651 33.5838142,15.7762445 C34.3429936,16.5354239 34.56908,17.6776573 34.1563478,18.6687975 C33.7436156,19.6599377 32.7736342,20.3041025 31.7,20.3000776 C30.2419683,20.3000776 29.0599811,19.1180904 29.0599811,17.6600587 C29.0559561,16.5864245 29.700121,15.6164431 30.6912612,15.2037109 Z M46.9912612,15.2037109 C47.9824014,14.7909786 49.1246348,15.0170651 49.8838142,15.7762445 C50.6429936,16.5354239 50.86908,17.6776573 50.4563478,18.6687975 C50.0436156,19.6599377 49.0736342,20.3041025 48,20.3000776 C46.5442455,20.2945755 45.3654831,19.1158132 45.3599811,17.6600587 C45.3559561,16.5864245 46.000121,15.6164431 46.9912612,15.2037109 Z M63.2612612,15.2037109 C64.2524014,14.7909786 65.3946348,15.0170651 66.1538142,15.7762445 C66.9129936,16.5354239 67.13908,17.6776573 66.7263478,18.6687975 C66.3136156,19.6599377 65.3436342,20.3041025 64.27,20.3000776 C62.8119683,20.3000776 61.6299811,19.1180904 61.6299811,17.6600587 C61.6259561,16.5864245 62.270121,15.6164431 63.2612612,15.2037109 Z" id="path-1"></path>
        <filter x="-16.5%" y="-19.4%" width="133.0%" height="138.8%" filterUnits="objectBoundingBox" id="filter-2">
            <feMorphology radius="0.5" operator="dilate" in="SourceAlpha" result="shadowSpreadOuter1"></feMorphology>
            <feOffset dx="0" dy="0" in="shadowSpreadOuter1" result="shadowOffsetOuter1"></feOffset>
            <feGaussianBlur stdDeviation="3" in="shadowOffsetOuter1" result="shadowBlurOuter1"></feGaussianBlur>
            <feComposite in="shadowBlurOuter1" in2="SourceAlpha" operator="out" result="shadowBlurOuter1"></feComposite>
            <feColorMatrix values="0 0 0 0 1   0 0 0 0 1   0 0 0 0 1  0 0 0 0.5 0" type="matrix" in="shadowBlurOuter1"></feColorMatrix>
        </filter>
    </defs>
    <g id="草稿" stroke="none" stroke-width="1" fill="none" fill-rule="evenodd">
        <g id="画板" transform="translate(-1190.000000, -362.000000)">
            <g id="513_严重霾" transform="translate(1190.000000, 362.000000)">
                <rect id="矩形" x="0" y="0" width="80" height="80"></rect>
                <g id="形状结合" fill-rule="nonzero">
                    <use fill="black" fill-opacity="1" filter="url(#filter-2)" xlink:href="#path-1"></use>
                    <use stroke="#FFFFFF" stroke-width="1" fill="#E0F2FF" xlink:href="#path-1"></use>
                </g>
            </g>
        </g>
    </g>
</svg>