<?xml version="1.0" encoding="UTF-8"?>
<svg width="80px" height="80px" viewBox="0 0 80 80" version="1.1" xmlns="http://www.w3.org/2000/svg" xmlns:xlink="http://www.w3.org/1999/xlink">
    <title>514_大雾</title>
    <defs>
        <path d="M64.9468843,48.7100958 L13.2368843,48.7100958 C12.0865032,48.7100958 11.1523885,47.7804638 11.1468843,46.6300958 L11.1468843,46.4900958 C11.1578063,45.3420023 12.0887516,44.4155112 13.2368843,44.4100958 L64.9468843,44.4100958 C66.0988849,44.4155686 67.0314115,45.3480952 67.0368843,46.5000958 L67.0368843,46.6400958 C67.0205496,47.7842786 66.0911712,48.7047634 64.9468843,48.7100958 Z M64.8768843,63.4100958 L36.7768843,63.4100958 C35.6435886,63.3328507 34.7637686,62.391021 34.7637686,61.2550958 C34.7637686,60.1191707 35.6435886,59.177341 36.7768843,59.1000958 L64.8768843,59.1000958 C65.6818301,59.0452309 66.4502528,59.443552 66.8694047,60.1329427 C67.2885566,60.8223334 67.2885566,61.6878582 66.8694047,62.3772489 C66.4502528,63.0666396 65.6818301,63.4649607 64.8768843,63.4100958 Z M41.1768843,34.0100958 L13.3068843,34.0100958 C12.5019385,34.0649607 11.7335159,33.6666396 11.3143639,32.9772489 C10.895212,32.2878582 10.895212,31.4223334 11.3143639,30.7329427 C11.7335159,30.043552 12.5019385,29.6452309 13.3068843,29.7000958 L41.1768843,29.7000958 C41.9818301,29.6452309 42.7502528,30.043552 43.1694047,30.7329427 C43.5885566,31.4223334 43.5885566,32.2878582 43.1694047,32.9772489 C42.7502528,33.6666396 41.9818301,34.0649607 41.1768843,34.0100958 Z M64.7468843,34.0100958 L49.8068843,34.0100958 C49.0019385,34.0649607 48.2335159,33.6666396 47.8143639,32.9772489 C47.395212,32.2878582 47.395212,31.4223334 47.8143639,30.7329427 C48.2335159,30.043552 49.0019385,29.6452309 49.8068843,29.7000958 L64.7468843,29.7000958 C65.5518301,29.6452309 66.3202528,30.043552 66.7394047,30.7329427 C67.1585566,31.4223334 67.1585566,32.2878582 66.7394047,32.9772489 C66.3202528,33.6666396 65.5518301,34.0649607 64.7468843,34.0100958 Z M64.8368843,19.3100958 L13.1168843,19.3100958 C11.9665163,19.3045916 11.0368843,18.370477 11.0368843,17.2200958 L11.0368843,17.0900958 C11.0368843,15.9397147 11.9665163,15.0056 13.1168843,15.0000958 L64.8368843,15.0000958 C65.3946439,14.9947582 65.9313961,15.2125953 66.3276834,15.6051264 C66.7239707,15.9976575 66.9468843,16.5323107 66.9468843,17.0900958 L66.9468843,17.2200958 C66.9468843,17.777881 66.7239707,18.3125342 66.3276834,18.7050653 C65.9313961,19.0975963 65.3946439,19.3154335 64.8368843,19.3100958 L64.8368843,19.3100958 Z M28.2468843,63.4100958 L13.3068843,63.4100958 C12.5019385,63.4649607 11.7335159,63.0666396 11.3143639,62.3772489 C10.895212,61.6878582 10.895212,60.8223334 11.3143639,60.1329427 C11.7335159,59.443552 12.5019385,59.0452309 13.3068843,59.1000958 L28.2468843,59.1000958 C29.0518301,59.0452309 29.8202528,59.443552 30.2394047,60.1329427 C30.6585566,60.8223334 30.6585566,61.6878582 30.2394047,62.3772489 C29.8202528,63.0666396 29.0518301,63.4649607 28.2468843,63.4100958 Z" id="path-1"></path>
        <filter x="-16.9%" y="-19.6%" width="133.8%" height="139.2%" filterUnits="objectBoundingBox" id="filter-2">
            <feMorphology radius="0.5" operator="dilate" in="SourceAlpha" result="shadowSpreadOuter1"></feMorphology>
            <feOffset dx="0" dy="0" in="shadowSpreadOuter1" result="shadowOffsetOuter1"></feOffset>
            <feGaussianBlur stdDeviation="3" in="shadowOffsetOuter1" result="shadowBlurOuter1"></feGaussianBlur>
            <feComposite in="shadowBlurOuter1" in2="SourceAlpha" operator="out" result="shadowBlurOuter1"></feComposite>
            <feColorMatrix values="0 0 0 0 1   0 0 0 0 1   0 0 0 0 1  0 0 0 0.5 0" type="matrix" in="shadowBlurOuter1"></feColorMatrix>
        </filter>
    </defs>
    <g id="草稿" stroke="none" stroke-width="1" fill="none" fill-rule="evenodd">
        <g id="画板" transform="translate(-1294.000000, -362.000000)">
            <g id="514_大雾" transform="translate(1294.000000, 362.000000)">
                <rect id="矩形" x="0" y="0" width="80" height="80"></rect>
                <g id="形状" fill-rule="nonzero">
                    <use fill="black" fill-opacity="1" filter="url(#filter-2)" xlink:href="#path-1"></use>
                    <use stroke="#FFFFFF" stroke-width="1" fill="#E0F2FF" xlink:href="#path-1"></use>
                </g>
            </g>
        </g>
    </g>
</svg>