<?xml version="1.0" encoding="UTF-8"?>
<svg width="80px" height="80px" viewBox="0 0 80 80" version="1.1" xmlns="http://www.w3.org/2000/svg" xmlns:xlink="http://www.w3.org/1999/xlink">
    <title>515_特强浓雾</title>
    <defs>
        <path d="M64.9468843,42.7100958 L13.2368843,42.7100958 C12.0865032,42.7100958 11.1523885,41.7804638 11.1468843,40.6300958 L11.1468843,40.4900958 C11.1578063,39.3420023 12.0887516,38.4155112 13.2368843,38.4100958 L64.9468843,38.4100958 C66.0988849,38.4155686 67.0314115,39.3480952 67.0368843,40.5000958 L67.0368843,40.6400958 C67.0205496,41.7842786 66.0911712,42.7047634 64.9468843,42.7100958 Z M64.8768843,57.4100958 L36.7768843,57.4100958 C35.6435886,57.3328507 34.7637686,56.391021 34.7637686,55.2550958 C34.7637686,54.1191707 35.6435886,53.177341 36.7768843,53.1000958 L64.8768843,53.1000958 C65.6818301,53.0452309 66.4502528,53.443552 66.8694047,54.1329427 C67.2885566,54.8223334 67.2885566,55.6878582 66.8694047,56.3772489 C66.4502528,57.0666396 65.6818301,57.4649607 64.8768843,57.4100958 Z M41.1768843,28.0100958 L13.3068843,28.0100958 C12.5019385,28.0649607 11.7335159,27.6666396 11.3143639,26.9772489 C10.895212,26.2878582 10.895212,25.4223334 11.3143639,24.7329427 C11.7335159,24.043552 12.5019385,23.6452309 13.3068843,23.7000958 L41.1768843,23.7000958 C41.9818301,23.6452309 42.7502528,24.043552 43.1694047,24.7329427 C43.5885566,25.4223334 43.5885566,26.2878582 43.1694047,26.9772489 C42.7502528,27.6666396 41.9818301,28.0649607 41.1768843,28.0100958 Z M64.7468843,28.0100958 L49.8068843,28.0100958 C49.0019385,28.0649607 48.2335159,27.6666396 47.8143639,26.9772489 C47.395212,26.2878582 47.395212,25.4223334 47.8143639,24.7329427 C48.2335159,24.043552 49.0019385,23.6452309 49.8068843,23.7000958 L64.7468843,23.7000958 C65.5518301,23.6452309 66.3202528,24.043552 66.7394047,24.7329427 C67.1585566,25.4223334 67.1585566,26.2878582 66.7394047,26.9772489 C66.3202528,27.6666396 65.5518301,28.0649607 64.7468843,28.0100958 Z M64.8368843,13.3100958 L13.1168843,13.3100958 C11.9665163,13.3045916 11.0368843,12.370477 11.0368843,11.2200958 L11.0368843,11.0900958 C11.0368843,9.93971469 11.9665163,9.00560004 13.1168843,9.00009583 L64.8368843,9.00009583 C65.3946439,8.99475817 65.9313961,9.21259535 66.3276834,9.6051264 C66.7239707,9.99765745 66.9468843,10.5323107 66.9468843,11.0900958 L66.9468843,11.2200958 C66.9468843,11.777881 66.7239707,12.3125342 66.3276834,12.7050653 C65.9313961,13.0975963 65.3946439,13.3154335 64.8368843,13.3100958 L64.8368843,13.3100958 Z M64.8368843,71.3100958 L13.1168843,71.3100958 C11.9665163,71.3045916 11.0368843,70.370477 11.0368843,69.2200958 L11.0368843,69.0900958 C11.0368843,67.9397147 11.9665163,67.0056 13.1168843,67.0000958 L64.8368843,67.0000958 C65.3946439,66.9947582 65.9313961,67.2125953 66.3276834,67.6051264 C66.7239707,67.9976575 66.9468843,68.5323107 66.9468843,69.0900958 L66.9468843,69.2200958 C66.9468843,69.777881 66.7239707,70.3125342 66.3276834,70.7050653 C65.9313961,71.0975963 65.3946439,71.3154335 64.8368843,71.3100958 L64.8368843,71.3100958 Z M28.2468843,57.4100958 L13.3068843,57.4100958 C12.5019385,57.4649607 11.7335159,57.0666396 11.3143639,56.3772489 C10.895212,55.6878582 10.895212,54.8223334 11.3143639,54.1329427 C11.7335159,53.443552 12.5019385,53.0452309 13.3068843,53.1000958 L28.2468843,53.1000958 C29.0518301,53.0452309 29.8202528,53.443552 30.2394047,54.1329427 C30.6585566,54.8223334 30.6585566,55.6878582 30.2394047,56.3772489 C29.8202528,57.0666396 29.0518301,57.4649607 28.2468843,57.4100958 L28.2468843,57.4100958 Z" id="path-1"></path>
        <filter x="-16.9%" y="-15.2%" width="133.8%" height="130.5%" filterUnits="objectBoundingBox" id="filter-2">
            <feMorphology radius="0.5" operator="dilate" in="SourceAlpha" result="shadowSpreadOuter1"></feMorphology>
            <feOffset dx="0" dy="0" in="shadowSpreadOuter1" result="shadowOffsetOuter1"></feOffset>
            <feGaussianBlur stdDeviation="3" in="shadowOffsetOuter1" result="shadowBlurOuter1"></feGaussianBlur>
            <feComposite in="shadowBlurOuter1" in2="SourceAlpha" operator="out" result="shadowBlurOuter1"></feComposite>
            <feColorMatrix values="0 0 0 0 1   0 0 0 0 1   0 0 0 0 1  0 0 0 0.5 0" type="matrix" in="shadowBlurOuter1"></feColorMatrix>
        </filter>
    </defs>
    <g id="草稿" stroke="none" stroke-width="1" fill="none" fill-rule="evenodd">
        <g id="画板" transform="translate(-1398.000000, -362.000000)">
            <g id="515_特强浓雾" transform="translate(1398.000000, 362.000000)">
                <rect id="矩形" x="0" y="0" width="80" height="80"></rect>
                <g id="形状" fill-rule="nonzero">
                    <use fill="black" fill-opacity="1" filter="url(#filter-2)" xlink:href="#path-1"></use>
                    <use stroke="#FFFFFF" stroke-width="1" fill="#E0F2FF" xlink:href="#path-1"></use>
                </g>
            </g>
        </g>
    </g>
</svg>