<?xml version="1.0" encoding="UTF-8"?>
<svg width="80px" height="80px" viewBox="0 0 80 80" version="1.1" xmlns="http://www.w3.org/2000/svg" xmlns:xlink="http://www.w3.org/1999/xlink">
    <title>900_热</title>
    <defs>
        <path d="M41.6471096,26.34 C41.6473651,25.971484 41.6172633,25.6035731 41.557108,25.24 C41.4802959,24.7737684 41.160587,24.3839314 40.7184125,24.2173368 C40.276238,24.0507423 39.7787749,24.1326998 39.4134125,24.4323368 C39.0480501,24.7319739 38.8702959,25.2037684 38.947108,25.67 C38.9669398,25.8928931 38.9669398,26.1171069 38.947108,26.34 C38.8997189,27.9989504 37.9585876,29.502465 36.487108,30.27 L36.247108,30.39 L35.897108,30.57 C34.2883041,31.459386 33.060994,32.9072561 32.447108,34.64 C32.2168423,35.3334923 32.0986908,36.0592803 32.097108,36.79 C32.097108,37.2615906 32.3486985,37.6973583 32.7571079,37.9331536 C33.1655174,38.1689489 33.6686986,38.1689489 34.077108,37.9331536 C34.4855174,37.6973583 34.737108,37.2615906 34.737108,36.79 C34.7353427,36.3472564 34.8097615,35.9075093 34.957108,35.49 C35.3540939,34.3784039 36.143607,33.4501925 37.177108,32.88 C37.387108,32.79 37.597108,32.68 37.797108,32.57 L37.797108,32.57 L37.797108,32.57 C40.1181167,31.3482275 41.5925224,28.962371 41.6471096,26.34 L41.6471096,26.34 Z" id="path-1"></path>
        <filter x="-99.5%" y="-68.0%" width="299.0%" height="235.9%" filterUnits="objectBoundingBox" id="filter-2">
            <feMorphology radius="0.5" operator="dilate" in="SourceAlpha" result="shadowSpreadOuter1"></feMorphology>
            <feOffset dx="0" dy="0" in="shadowSpreadOuter1" result="shadowOffsetOuter1"></feOffset>
            <feGaussianBlur stdDeviation="3" in="shadowOffsetOuter1" result="shadowBlurOuter1"></feGaussianBlur>
            <feComposite in="shadowBlurOuter1" in2="SourceAlpha" operator="out" result="shadowBlurOuter1"></feComposite>
            <feColorMatrix values="0 0 0 0 1   0 0 0 0 1   0 0 0 0 1  0 0 0 0.5 0" type="matrix" in="shadowBlurOuter1"></feColorMatrix>
        </filter>
        <path d="M50.8671096,26.34 C50.8673651,25.971484 50.8372633,25.6035731 50.777108,25.24 C50.7002959,24.7737684 50.380587,24.3839314 49.9384125,24.2173368 C49.496238,24.0507423 48.9987749,24.1326998 48.6334125,24.4323368 C48.2680501,24.7319739 48.0902959,25.2037684 48.167108,25.67 C48.2069272,25.8911135 48.2270062,26.1153297 48.227108,26.34 C48.1756315,28.0004573 47.2309662,29.5035078 45.757108,30.27 L45.277108,30.52 L45.277108,30.52 L45.187108,30.52 C43.5832609,31.4127191 42.3601433,32.859838 41.747108,34.59 C41.5087645,35.2817579 41.3871054,36.008333 41.387108,36.74 C41.3435551,37.2408585 41.5861443,37.7234694 42.0140885,37.9873253 C42.4420326,38.2511812 42.9821833,38.2511812 43.4101275,37.9873253 C43.8380716,37.7234694 44.0806608,37.2408585 44.037108,36.74 C44.0367813,36.2981963 44.1076913,35.8592298 44.247108,35.44 C44.6498593,34.3255694 45.4466694,33.3971434 46.487108,32.83 L47.087108,32.52 L47.087108,32.52 L47.167108,32.52 C49.4177698,31.270833 50.8289392,28.9137987 50.8671096,26.34 Z" id="path-3"></path>
        <filter x="-100.2%" y="-67.6%" width="300.3%" height="235.2%" filterUnits="objectBoundingBox" id="filter-4">
            <feMorphology radius="0.5" operator="dilate" in="SourceAlpha" result="shadowSpreadOuter1"></feMorphology>
            <feOffset dx="0" dy="0" in="shadowSpreadOuter1" result="shadowOffsetOuter1"></feOffset>
            <feGaussianBlur stdDeviation="3" in="shadowOffsetOuter1" result="shadowBlurOuter1"></feGaussianBlur>
            <feComposite in="shadowBlurOuter1" in2="SourceAlpha" operator="out" result="shadowBlurOuter1"></feComposite>
            <feColorMatrix values="0 0 0 0 1   0 0 0 0 1   0 0 0 0 1  0 0 0 0.5 0" type="matrix" in="shadowBlurOuter1"></feColorMatrix>
        </filter>
        <path d="M59.927108,26.34 C59.9273651,25.971484 59.8972633,25.6035731 59.837108,25.24 C59.7602959,24.7737684 59.440587,24.3839314 58.9984125,24.2173368 C58.556238,24.0507423 58.0587749,24.1326998 57.6934125,24.4323368 C57.3280501,24.7319739 57.1502959,25.2037684 57.227108,25.67 C57.2669272,25.8911135 57.2870062,26.1153297 57.287108,26.34 C57.2398608,28.0017443 56.29396,29.5067605 54.817108,30.27 L54.577108,30.39 L54.227108,30.57 C52.6232609,31.4627191 51.4001433,32.909838 50.787108,34.64 C50.5487645,35.3317579 50.427108,36.058333 50.427108,36.79 C50.427108,37.5190159 51.0180921,38.11 51.747108,38.11 C52.4761238,38.11 53.067108,37.5190159 53.067108,36.79 C53.0653427,36.3472564 53.1397615,35.9075093 53.287108,35.49 C53.6912493,34.3825546 54.478852,33.4565893 55.507108,32.88 C55.717108,32.79 55.927108,32.68 56.127108,32.57 L56.127108,32.57 L56.127108,32.57 C58.4302919,31.3365939 59.8845931,28.9523054 59.927108,26.34 Z" id="path-5"></path>
        <filter x="-100.0%" y="-68.0%" width="300.0%" height="235.9%" filterUnits="objectBoundingBox" id="filter-6">
            <feMorphology radius="0.5" operator="dilate" in="SourceAlpha" result="shadowSpreadOuter1"></feMorphology>
            <feOffset dx="0" dy="0" in="shadowSpreadOuter1" result="shadowOffsetOuter1"></feOffset>
            <feGaussianBlur stdDeviation="3" in="shadowOffsetOuter1" result="shadowBlurOuter1"></feGaussianBlur>
            <feComposite in="shadowBlurOuter1" in2="SourceAlpha" operator="out" result="shadowBlurOuter1"></feComposite>
            <feColorMatrix values="0 0 0 0 1   0 0 0 0 1   0 0 0 0 1  0 0 0 0.5 0" type="matrix" in="shadowBlurOuter1"></feColorMatrix>
        </filter>
        <path d="M26.647108,8.06 L22.407108,8.06 C21.5786808,8.06 20.907108,7.38842712 20.907108,6.56 C20.907108,5.73157288 21.5786808,5.06 22.407108,5.06 L26.647108,5.06 C27.4755351,5.06 28.147108,5.73157288 28.147108,6.56 C28.147108,7.38842712 27.4755351,8.06 26.647108,8.06 Z M26.647108,12.28 L22.407108,12.28 C21.5786808,12.28 20.907108,11.6084271 20.907108,10.78 C20.907108,9.95157288 21.5786808,9.28 22.407108,9.28 L26.647108,9.28 C27.4755351,9.28 28.147108,9.95157288 28.147108,10.78 C28.147108,11.6084271 27.4755351,12.28 26.647108,12.28 Z" id="path-7"></path>
        <filter x="-131.2%" y="-131.6%" width="362.4%" height="363.2%" filterUnits="objectBoundingBox" id="filter-8">
            <feMorphology radius="0.5" operator="dilate" in="SourceAlpha" result="shadowSpreadOuter1"></feMorphology>
            <feOffset dx="0" dy="0" in="shadowSpreadOuter1" result="shadowOffsetOuter1"></feOffset>
            <feGaussianBlur stdDeviation="3" in="shadowOffsetOuter1" result="shadowBlurOuter1"></feGaussianBlur>
            <feComposite in="shadowBlurOuter1" in2="SourceAlpha" operator="out" result="shadowBlurOuter1"></feComposite>
            <feColorMatrix values="0 0 0 0 1   0 0 0 0 1   0 0 0 0 1  0 0 0 0.5 0" type="matrix" in="shadowBlurOuter1"></feColorMatrix>
        </filter>
        <path d="M11.527108,56.54 C6.69544396,56.5385533 2.37713139,53.5247299 0.709282658,48.9900569 C-0.958566075,44.4553838 0.377835251,39.3617617 4.05710796,36.23 L4.05710796,7.5 C4.05710796,3.35786438 7.41497234,4.33431069e-13 11.557108,4.33431069e-13 C15.6992436,4.33431069e-13 19.057108,3.35786438 19.057108,7.5 L19.057108,36.23 C21.6181686,38.4206677 23.0819095,41.6299197 23.057108,45 C23.0461174,51.3649066 17.8920027,56.5234915 11.527108,56.54 L11.527108,56.54 Z M11.527108,3.00995544 C9.05744496,3.02645881 7.06254138,5.03028813 7.05710796,7.5 L7.05710796,37.7 L6.45710796,38.15 C3.49527033,40.3478327 2.27660975,44.1972188 3.43398793,47.6991364 C4.59136611,51.2010539 7.86389011,53.5661106 11.552108,53.5661106 C15.2403258,53.5661106 18.5128498,51.2010539 19.670228,47.6991364 C20.8276062,44.1972188 19.6089456,40.3478327 16.647108,38.15 L16.047108,37.7 L16.047108,7.5 C16.0444637,6.30478639 15.5664421,5.15972488 14.7184871,4.31739786 C13.870532,3.47507083 12.7223127,3.004685 11.527108,3.00995544 Z" id="path-9"></path>
        <filter x="-41.2%" y="-16.8%" width="182.4%" height="133.6%" filterUnits="objectBoundingBox" id="filter-10">
            <feMorphology radius="0.5" operator="dilate" in="SourceAlpha" result="shadowSpreadOuter1"></feMorphology>
            <feOffset dx="0" dy="0" in="shadowSpreadOuter1" result="shadowOffsetOuter1"></feOffset>
            <feGaussianBlur stdDeviation="3" in="shadowOffsetOuter1" result="shadowBlurOuter1"></feGaussianBlur>
            <feComposite in="shadowBlurOuter1" in2="SourceAlpha" operator="out" result="shadowBlurOuter1"></feComposite>
            <feColorMatrix values="0 0 0 0 1   0 0 0 0 1   0 0 0 0 1  0 0 0 0.5 0" type="matrix" in="shadowBlurOuter1"></feColorMatrix>
        </filter>
        <path d="M11.647108,41.63 C10.826473,41.6245471 10.1625609,40.960635 10.157108,40.14 L10.157108,12.43 C10.157108,11.6015729 10.8286808,10.93 11.657108,10.93 C12.4855351,10.93 13.157108,11.6015729 13.157108,12.43 L13.157108,40.14 C13.151611,40.9645192 12.4816455,41.63 11.657108,41.63 L11.647108,41.63 Z" id="path-11"></path>
        <filter x="-316.7%" y="-30.9%" width="733.3%" height="161.9%" filterUnits="objectBoundingBox" id="filter-12">
            <feMorphology radius="0.5" operator="dilate" in="SourceAlpha" result="shadowSpreadOuter1"></feMorphology>
            <feOffset dx="0" dy="0" in="shadowSpreadOuter1" result="shadowOffsetOuter1"></feOffset>
            <feGaussianBlur stdDeviation="3" in="shadowOffsetOuter1" result="shadowBlurOuter1"></feGaussianBlur>
            <feComposite in="shadowBlurOuter1" in2="SourceAlpha" operator="out" result="shadowBlurOuter1"></feComposite>
            <feColorMatrix values="0 0 0 0 1   0 0 0 0 1   0 0 0 0 1  0 0 0 0.5 0" type="matrix" in="shadowBlurOuter1"></feColorMatrix>
        </filter>
        <path d="M26.647108,16.5 L22.407108,16.5 C21.5786808,16.5 20.907108,15.8284271 20.907108,15 C20.907108,14.1715729 21.5786808,13.5 22.407108,13.5 L26.647108,13.5 C27.4755351,13.5 28.147108,14.1715729 28.147108,15 C28.147108,15.8284271 27.4755351,16.5 26.647108,16.5 Z M26.647108,20.72 L22.407108,20.72 C21.5786808,20.72 20.907108,20.0484271 20.907108,19.22 C20.907108,18.3915729 21.5786808,17.72 22.407108,17.72 L26.647108,17.72 C27.4755351,17.72 28.147108,18.3915729 28.147108,19.22 C28.147108,20.0484271 27.4755351,20.72 26.647108,20.72 Z M26.647108,24.94 L22.407108,24.94 C21.5786808,24.94 20.907108,24.2684271 20.907108,23.44 C20.907108,22.6115729 21.5786808,21.94 22.407108,21.94 L26.647108,21.94 C27.4755351,21.94 28.147108,22.6115729 28.147108,23.44 C28.147108,24.2684271 27.4755351,24.94 26.647108,24.94 Z M26.647108,29.15 L22.407108,29.15 C21.5786808,29.15 20.907108,28.4784271 20.907108,27.65 C20.907108,26.8215729 21.5786808,26.15 22.407108,26.15 L26.647108,26.15 C27.4755351,26.15 28.147108,26.8215729 28.147108,27.65 C28.147108,28.4784271 27.4755351,29.15 26.647108,29.15 L26.647108,29.15 Z" id="path-13"></path>
        <filter x="-131.2%" y="-60.7%" width="362.4%" height="221.4%" filterUnits="objectBoundingBox" id="filter-14">
            <feMorphology radius="0.5" operator="dilate" in="SourceAlpha" result="shadowSpreadOuter1"></feMorphology>
            <feOffset dx="0" dy="0" in="shadowSpreadOuter1" result="shadowOffsetOuter1"></feOffset>
            <feGaussianBlur stdDeviation="3" in="shadowOffsetOuter1" result="shadowBlurOuter1"></feGaussianBlur>
            <feComposite in="shadowBlurOuter1" in2="SourceAlpha" operator="out" result="shadowBlurOuter1"></feComposite>
            <feColorMatrix values="0 0 0 0 1   0 0 0 0 1   0 0 0 0 1  0 0 0 0.5 0" type="matrix" in="shadowBlurOuter1"></feColorMatrix>
        </filter>
        <path d="M58.057108,44.76 L29.937108,44.76 C29.2118449,44.8925941 28.4774618,44.5794593 28.0710266,43.9643186 C27.6645913,43.3491778 27.6645913,42.5508222 28.0710266,41.9356814 C28.4774618,41.3205407 29.2118449,41.0074059 29.937108,41.14 L58.057108,41.14 C58.7823711,41.0074059 59.5167541,41.3205407 59.9231894,41.9356814 C60.3296246,42.5508222 60.3296246,43.3491778 59.9231894,43.9643186 C59.5167541,44.5794593 58.7823711,44.8925941 58.057108,44.76 L58.057108,44.76 Z" id="path-15"></path>
        <filter x="-29.3%" y="-258.1%" width="158.5%" height="616.3%" filterUnits="objectBoundingBox" id="filter-16">
            <feMorphology radius="0.5" operator="dilate" in="SourceAlpha" result="shadowSpreadOuter1"></feMorphology>
            <feOffset dx="0" dy="0" in="shadowSpreadOuter1" result="shadowOffsetOuter1"></feOffset>
            <feGaussianBlur stdDeviation="3" in="shadowOffsetOuter1" result="shadowBlurOuter1"></feGaussianBlur>
            <feComposite in="shadowBlurOuter1" in2="SourceAlpha" operator="out" result="shadowBlurOuter1"></feComposite>
            <feColorMatrix values="0 0 0 0 1   0 0 0 0 1   0 0 0 0 1  0 0 0 0.5 0" type="matrix" in="shadowBlurOuter1"></feColorMatrix>
        </filter>
        <path d="M58.057108,52.14 L29.937108,52.14 C29.2205526,52.2596726 28.5010587,51.9441515 28.1036841,51.3359849 C27.7063095,50.7278183 27.7063095,49.9421817 28.1036841,49.3340151 C28.5010587,48.7258485 29.2205526,48.4103274 29.937108,48.53 L58.057108,48.53 C58.7736634,48.4103274 59.4931572,48.7258485 59.8905318,49.3340151 C60.2879064,49.9421817 60.2879064,50.7278183 59.8905318,51.3359849 C59.4931572,51.9441515 58.7736634,52.2596726 58.057108,52.14 L58.057108,52.14 Z" id="path-17"></path>
        <filter x="-29.3%" y="-259.6%" width="158.7%" height="619.1%" filterUnits="objectBoundingBox" id="filter-18">
            <feMorphology radius="0.5" operator="dilate" in="SourceAlpha" result="shadowSpreadOuter1"></feMorphology>
            <feOffset dx="0" dy="0" in="shadowSpreadOuter1" result="shadowOffsetOuter1"></feOffset>
            <feGaussianBlur stdDeviation="3" in="shadowOffsetOuter1" result="shadowBlurOuter1"></feGaussianBlur>
            <feComposite in="shadowBlurOuter1" in2="SourceAlpha" operator="out" result="shadowBlurOuter1"></feComposite>
            <feColorMatrix values="0 0 0 0 1   0 0 0 0 1   0 0 0 0 1  0 0 0 0.5 0" type="matrix" in="shadowBlurOuter1"></feColorMatrix>
        </filter>
    </defs>
    <g id="草稿" stroke="none" stroke-width="1" fill="none" fill-rule="evenodd">
        <g id="画板" transform="translate(-1502.000000, -362.000000)">
            <g id="900_热" transform="translate(1502.000000, 362.000000)">
                <rect id="矩形" x="0" y="0" width="80" height="80"></rect>
                <g id="形状" transform="translate(10.000000, 12.000000)" fill-rule="nonzero">
                    <g id="路径">
                        <use fill="black" fill-opacity="1" filter="url(#filter-2)" xlink:href="#path-1"></use>
                        <use stroke="#FFFFFF" stroke-width="1" fill="#E0F2FF" xlink:href="#path-1"></use>
                    </g>
                    <g id="路径">
                        <use fill="black" fill-opacity="1" filter="url(#filter-4)" xlink:href="#path-3"></use>
                        <use stroke="#FFFFFF" stroke-width="1" fill="#E0F2FF" xlink:href="#path-3"></use>
                    </g>
                    <g id="路径">
                        <use fill="black" fill-opacity="1" filter="url(#filter-6)" xlink:href="#path-5"></use>
                        <use stroke="#FFFFFF" stroke-width="1" fill="#E0F2FF" xlink:href="#path-5"></use>
                    </g>
                    <g>
                        <use fill="black" fill-opacity="1" filter="url(#filter-8)" xlink:href="#path-7"></use>
                        <use stroke="#FFFFFF" stroke-width="1" fill="#E0F2FF" xlink:href="#path-7"></use>
                    </g>
                    <g>
                        <use fill="black" fill-opacity="1" filter="url(#filter-10)" xlink:href="#path-9"></use>
                        <use stroke="#FFFFFF" stroke-width="1" fill="#E0F2FF" xlink:href="#path-9"></use>
                    </g>
                    <g id="路径">
                        <use fill="black" fill-opacity="1" filter="url(#filter-12)" xlink:href="#path-11"></use>
                        <use stroke="#FFFFFF" stroke-width="1" fill="#E0F2FF" xlink:href="#path-11"></use>
                    </g>
                    <g>
                        <use fill="black" fill-opacity="1" filter="url(#filter-14)" xlink:href="#path-13"></use>
                        <use stroke="#FFFFFF" stroke-width="1" fill="#E0F2FF" xlink:href="#path-13"></use>
                    </g>
                    <g id="路径">
                        <use fill="black" fill-opacity="1" filter="url(#filter-16)" xlink:href="#path-15"></use>
                        <use stroke="#FFFFFF" stroke-width="1" fill="#E0F2FF" xlink:href="#path-15"></use>
                    </g>
                    <g id="路径">
                        <use fill="black" fill-opacity="1" filter="url(#filter-18)" xlink:href="#path-17"></use>
                        <use stroke="#FFFFFF" stroke-width="1" fill="#E0F2FF" xlink:href="#path-17"></use>
                    </g>
                </g>
            </g>
        </g>
    </g>
</svg>